<svg id="Layer_1" height="512" viewBox="0 0 512 512" width="512" xmlns="http://www.w3.org/2000/svg" data-name="Layer 1"><path d="m113.807 245.641c-3.434 15.718-.309 30.289 8.8 41.026a42.509 42.509 0 0 0 17.994 12.4 41.171 41.171 0 0 0 -2.076 8.708c-1.727 13.975 3.651 27.872 15.144 39.132 11.061 10.836 26.576 17.969 43.686 20.084a84.3 84.3 0 0 0 10.345.642c2.446 0 4.877-.123 7.289-.34a43.733 43.733 0 0 0 21.465 21.235 41.5 41.5 0 0 0 17 3.567c21.275 0 43.6-15.329 55.591-39.961 9.705 10.351 21.661 15.935 34.109 15.934q1.555 0 3.121-.116c28.346-2.114 49.217-33.2 46.525-69.3-1.282-17.193-7.654-33.036-17.94-44.609-.274-.307-.557-.594-.834-.893 19.288-23.12 22.338-53.063 6.61-71.6-11.741-13.838-31.469-18.743-52.31-13.287-8.937-13.563-21.888-22.609-36.278-24.227a42.787 42.787 0 0 0 -9.492-20.52c-18.388-21.677-55.807-20.26-83.411 3.158-19.775 16.774-29.718 40.559-26.17 61.172a78.686 78.686 0 0 0 -33.647 17.051c-13.154 11.143-22.216 25.617-25.521 40.744zm96.934 109.728c.016.066.035.129.051.194a71.422 71.422 0 0 1 -11.965-.483c-14.515-1.794-27.57-7.741-36.761-16.746-8.759-8.581-12.89-18.911-11.632-29.087 2.531-20.474 25.94-34.8 53.636-33.074a74.214 74.214 0 0 0 24.589 11.41 82.125 82.125 0 0 0 -12.588 20c-7.014 15.75-8.907 32.717-5.33 47.786zm88.551-10.721c-12.035 27.024-38.035 41.79-57.957 32.918-9.366-4.171-16.085-13.04-18.918-24.97-2.974-12.519-1.334-26.771 4.616-40.13a67.888 67.888 0 0 1 16.544-22.988c12.567-.01 23.7-4.281 31.947-12.36a29.085 29.085 0 0 1 15.914 6.389 82.318 82.318 0 0 0 -1.46 22.81 79.029 79.029 0 0 0 10.764 34.809c-.455 1.185-.933 2.363-1.45 3.522zm72.187-155.348c11.875 14 8.925 37.317-6.479 55.918a43.638 43.638 0 0 0 -28.186-8.218 80.229 80.229 0 0 0 3.79-31.5 81.368 81.368 0 0 0 -6.4-26.313c15.214-3.165 29.096.479 37.275 10.113zm-40.756 60.971a29.462 29.462 0 0 1 6.673-1.294c10.221-.771 20.342 3.865 28.488 13.03 8.549 9.618 13.855 22.946 14.943 37.53 2.2 29.5-13.7 54.821-35.451 56.443-10.223.772-20.342-3.864-28.489-13.029-8.548-9.618-13.855-22.946-14.943-37.53a66.181 66.181 0 0 1 6.307-34.26c8.244-3.732 15.534-10.148 21.228-18.883.429-.653.838-1.327 1.244-2.003zm-38.1-94.029c18.477 3.422 34.1 24.457 36.011 50.151 1.088 14.584-2.183 28.553-9.21 39.332-6.7 10.272-16.016 16.349-26.241 17.112a29.417 29.417 0 0 1 -7.985-.51c7.177-18.555 2.164-42.781-13.779-62.238 12.865-13.033 20.161-28.86 21.207-43.843zm-85.723-20.427c22.559-19.135 52.39-21.175 66.5-4.545 12.849 15.147 8.094 41.2-10.23 60.1-24.848-22.743-59.09-26.607-78.757-8.719-1.25-15.674 7.236-33.897 22.487-46.836zm-15.419 56.644c6.194-6.193 14.664-9.178 23.944-9.178 13.826 0 29.442 6.63 41.959 19.147 20.918 20.919 25.391 50.482 9.97 65.9-7.251 7.251-17.939 10.345-30.09 8.717-12.753-1.709-25.472-8.346-35.813-18.687-20.916-20.915-25.389-50.479-9.968-65.899zm-44.4 21.579a67.467 67.467 0 0 1 25.933-13.871c-6.669 19.574-.307 44.9 17.713 64.352-19.053 2.118-35.289 10.951-44.473 23.773a30.968 30.968 0 0 1 -14.5-9.387c-6.633-7.819-8.844-18.723-6.227-30.7 2.75-12.573 10.405-24.705 21.557-34.167z"/><path d="m457.862 439.114a13.818 13.818 0 0 0 -.121-3.835c-1.459-8.688-10.774-17.365-19.544-18.2a13.816 13.816 0 0 0 -3.833.152 13.736 13.736 0 0 0 -2.8-2.626c-7.175-5.113-19.9-4.662-26.693.947a13.747 13.747 0 0 0 -2.6 2.816 13.815 13.815 0 0 0 -3.835.121c-8.688 1.459-17.366 10.775-18.2 19.544a13.777 13.777 0 0 0 .151 3.833 13.79 13.79 0 0 0 -2.626 2.8c-5.112 7.175-4.661 19.9.947 26.694a13.781 13.781 0 0 0 2.817 2.6 13.733 13.733 0 0 0 .121 3.834c1.459 8.689 10.774 17.366 19.544 18.206a13.857 13.857 0 0 0 3.833-.151 13.812 13.812 0 0 0 2.8 2.626 21.888 21.888 0 0 0 12.527 3.563c5.247 0 10.548-1.524 14.166-4.51a13.769 13.769 0 0 0 2.605-2.818 13.811 13.811 0 0 0 3.834-.12c8.688-1.459 17.366-10.774 18.2-19.545a13.78 13.78 0 0 0 -.151-3.833 13.764 13.764 0 0 0 2.626-2.8c5.112-7.175 4.661-19.9-.946-26.692a13.818 13.818 0 0 0 -2.822-2.606zm-6.35 22.71a2.524 2.524 0 0 1 -1.1-.228 6 6 0 1 0 -4.2 11.242 2.673 2.673 0 0 1 .975.536c.219.549-.352 3.134-3 5.977s-5.189 3.591-5.736 3.425a2.522 2.522 0 0 1 -.619-.942 6 6 0 1 0 -10.917 4.982 2.686 2.686 0 0 1 .311 1.069c-.234.543-2.465 1.967-6.348 2.105s-6.212-1.124-6.478-1.634a2.521 2.521 0 0 1 .228-1.1 6 6 0 1 0 -11.242-4.2 2.668 2.668 0 0 1 -.536.975c-.549.218-3.134-.353-5.978-3s-3.6-5.186-3.424-5.735a2.546 2.546 0 0 1 .942-.619 6 6 0 1 0 -4.982-10.916 2.533 2.533 0 0 1 -1.069.31c-.543-.234-1.967-2.466-2.1-6.349s1.125-6.21 1.635-6.477a2.527 2.527 0 0 1 1.1.229 6 6 0 1 0 4.2-11.243 2.679 2.679 0 0 1 -.975-.536c-.218-.548.353-3.134 3-5.977s5.19-3.6 5.735-3.424a2.514 2.514 0 0 1 .618.941 6 6 0 1 0 10.917-4.982 2.708 2.708 0 0 1 -.311-1.068c.235-.543 2.468-1.968 6.352-2.105s6.208 1.125 6.474 1.635a2.505 2.505 0 0 1 -.228 1.1 6 6 0 1 0 11.242 4.2 2.685 2.685 0 0 1 .536-.975c.551-.217 3.135.353 5.979 3s3.6 5.186 3.423 5.734a2.528 2.528 0 0 1 -.942.62 6 6 0 1 0 4.982 10.916 2.752 2.752 0 0 1 1.069-.311c.543.234 1.967 2.466 2.1 6.349s-1.123 6.211-1.633 6.476z"/><path d="m464.334 345.3c-14.917 0-27.054 13.924-27.054 31.038s12.137 31.038 27.054 31.038 27.055-13.924 27.055-31.038-12.137-31.038-27.055-31.038zm0 50.076c-8.3 0-15.054-8.54-15.054-19.038s6.753-19.038 15.054-19.038 15.055 8.54 15.055 19.038-6.753 19.041-15.055 19.041z"/><path d="m100.825 81.4c-.243 0 .243 0 0 0z"/><path d="m127.355 69.413a37.586 37.586 0 0 0 8.366.94 39.838 39.838 0 0 0 7.915-.8 37.247 37.247 0 0 0 21.864-13.038c5.5-6.919 7.628-15.159 6-23.2s-6.8-14.8-14.563-19.03a37.244 37.244 0 0 0 -25.219-3.485 38.452 38.452 0 0 0 -15.864 7.175c-10.022-2.054-21.567.9-30.623 8.858a37.248 37.248 0 0 0 -12.481 22.188c-1.328 8.738.924 16.944 6.34 23.108 5.266 5.994 13.2 9.267 21.735 9.267a38.209 38.209 0 0 0 23.975-9.527q1.342-1.179 2.555-2.456zm6.745-46.853a25.251 25.251 0 0 1 17.088 2.261 16.191 16.191 0 0 1 8.546 10.88 16.188 16.188 0 0 1 -3.631 13.348 25.241 25.241 0 0 1 -14.857 8.742 27.71 27.71 0 0 1 -6.484.531 34.72 34.72 0 0 0 2.515-8.641c1.327-8.738-.925-16.944-6.341-23.108a26.2 26.2 0 0 0 -2.3-2.3 27.75 27.75 0 0 1 5.464-1.713zm-17.221 40.294a25.255 25.255 0 0 1 -15.949 6.54 15.4 15.4 0 0 1 -16.317-18.571 26.473 26.473 0 0 1 24.944-21.54 16.112 16.112 0 0 1 12.368 5.21 16.187 16.187 0 0 1 3.492 13.386 25.251 25.251 0 0 1 -8.538 14.975z"/><path d="m35.862 220.932a6 6 0 0 0 5.858-4.732c.524-2.416 1.106-4.865 1.729-7.278a6 6 0 1 0 -11.618-3c-.664 2.565-1.282 5.169-1.838 7.739a6 6 0 0 0 5.869 7.272z"/><path d="m26.407 236.31a203.042 203.042 0 0 0 3.812 64.545 6 6 0 1 0 11.714-2.6 191.047 191.047 0 0 1 -3.586-60.738 6 6 0 0 0 -11.94-1.2z"/><path d="m438.453 39.394a64.794 64.794 0 0 0 -83.036-7.3l-43.906 30.677c-68.319-19.58-145.011-2.526-198.728 51.189-.966.966-1.894 1.956-2.836 2.936a13.991 13.991 0 0 0 -.17-3.2c-1.458-8.696-10.777-17.371-19.544-18.211a13.817 13.817 0 0 0 -3.833.152 13.736 13.736 0 0 0 -2.8-2.626c-7.175-5.112-19.9-4.661-26.693.947a13.775 13.775 0 0 0 -2.6 2.816 13.776 13.776 0 0 0 -3.835.122c-8.688 1.458-17.366 10.774-18.2 19.543a13.775 13.775 0 0 0 .151 3.833 13.816 13.816 0 0 0 -2.626 2.8c-5.112 7.175-4.661 19.9.947 26.694a13.807 13.807 0 0 0 2.817 2.6 13.771 13.771 0 0 0 .121 3.834c1.459 8.69 10.775 17.366 19.545 18.206a13.865 13.865 0 0 0 3.84-.152q.314.4.664.772c2.747 2.949 6.793 4.556 11.035 5.126a203.191 203.191 0 0 0 -7.084 132.848l-29.759 42.584a64.792 64.792 0 0 0 7.305 83.035l34.319 34.319a64.749 64.749 0 0 0 83.241 7.163l42.032-29.614a202.423 202.423 0 0 0 199.528-50.964c53.844-53.844 70.852-130.78 51.052-199.223l30.537-43.344a64.747 64.747 0 0 0 -7.161-83.24zm-372.016 127.373a2.512 2.512 0 0 1 .229-1.1 6 6 0 1 0 -11.243-4.2 2.693 2.693 0 0 1 -.535.974c-.554.217-3.136-.353-5.979-3s-3.6-5.186-3.423-5.734a2.512 2.512 0 0 1 .941-.619 6 6 0 1 0 -4.982-10.916 2.677 2.677 0 0 1 -1.069.31c-.543-.234-1.967-2.465-2.1-6.349s1.125-6.21 1.635-6.477a2.544 2.544 0 0 1 1.1.229 6 6 0 1 0 4.2-11.242 2.682 2.682 0 0 1 -.976-.537c-.218-.548.353-3.134 3-5.977s5.187-3.6 5.735-3.424a2.513 2.513 0 0 1 .618.942 6 6 0 1 0 10.912-4.984 2.708 2.708 0 0 1 -.311-1.068c.235-.543 2.468-1.968 6.352-2.105s6.208 1.124 6.474 1.635a2.51 2.51 0 0 1 -.228 1.1 6 6 0 0 0 11.242 4.2 2.7 2.7 0 0 1 .536-.975c.551-.218 3.135.352 5.979 3s3.6 5.187 3.423 5.735a2.513 2.513 0 0 1 -.932.614l-.01.005a6 6 0 0 0 2.788 11.448 200.3 200.3 0 0 0 -25.773 40.069c-3.786.407-7.172-.721-7.603-1.554zm83.44 303.523a52.772 52.772 0 0 1 -67.845-5.836l-34.319-34.32a52.809 52.809 0 0 1 -5.954-67.677l24.608-35.215a200.54 200.54 0 0 0 9.938 22.466l-17.338 24.811a32 32 0 0 0 3.607 41l34.32 34.32a31.972 31.972 0 0 0 41.1 3.535l24.636-17.357a200.286 200.286 0 0 0 22.018 9.77zm-67.051-108.965a202.2 202.2 0 0 0 68.208 68.187l-19.948 14.053a20 20 0 0 1 -25.707-2.209l-34.32-34.321a20.011 20.011 0 0 1 -2.259-25.643zm307.036 29.714c-74.052 74.052-194.543 74.05-268.593 0s-74.052-194.543 0-268.595a190.14 190.14 0 0 1 268.593 0c74.052 74.056 74.052 194.543 0 268.595zm-29.946-307.178 21.309-14.89a20.009 20.009 0 0 1 25.644 2.256l34.32 34.318a19.989 19.989 0 0 1 2.228 25.683l-15.017 21.084a202.2 202.2 0 0 0 -68.482-68.451zm110.208 66.182-25.409 36.065a200.644 200.644 0 0 0 -9.831-22.217l18.325-25.726a31.972 31.972 0 0 0 -3.535-41.1l-34.32-34.319a31.992 31.992 0 0 0 -41-3.607l-26.075 18.214a200.674 200.674 0 0 0 -22.5-9.913l36.511-25.514a52.811 52.811 0 0 1 67.678 5.953l34.319 34.321a52.771 52.771 0 0 1 5.837 67.843z"/><path d="m135.336 136.513a168.974 168.974 0 0 0 -39.288 61.426 6 6 0 0 0 11.264 4.136 158.1 158.1 0 0 1 260-57.078c61.616 61.616 61.616 161.873 0 223.489s-161.872 61.616-223.488 0a157.63 157.63 0 0 1 -46.071-118.2 6 6 0 1 0 -11.987-.549 170.025 170.025 0 0 0 290.028 127.234c66.3-66.294 66.3-174.164 0-240.458s-174.163-66.295-240.458 0z"/></svg>