<svg id="Layer_1" height="512" viewBox="0 0 512 512" width="512" xmlns="http://www.w3.org/2000/svg" data-name="Layer 1"><path d="m493.765 102.083-157.277-12.538a8.937 8.937 0 0 0 -6.153 1.821l-46.127 35.4-129.978-92.96a22.331 22.331 0 0 0 -27.249-2.293l-111.649 71.993a11.628 11.628 0 0 0 4.468 21.256l109.769 17.719-5.269 108.271a8.977 8.977 0 0 0 3.23 7.32l104.008 86.038-53.111 53.91a9.1 9.1 0 0 0 -1 11.563l48.917 70.564a9.077 9.077 0 0 0 10.049 3.541l88.845-26.226a9.077 9.077 0 0 0 6.515-8.43l5.42-168.832 102.641-67.188a14.87 14.87 0 0 0 4.546-4.7l55.625-91.666a8.939 8.939 0 0 0 -6.22-14.559zm-245.388 160.034 41.074-124.247 39.258-30.13-2.355 164.711zm-102.954-198.4 48.784 132.124-57.362 44.024zm127.093 87.151-36.248 109.645-90.917-12.049zm67.253 22.7 85.544 34.59-86.852 56.852zm-65.511-39.166-70.083 53.787-52.135-141.196zm-251.609-21.336 110.835-71.466a10.574 10.574 0 0 1 1.03-.577l-4.353 89.4zm127.495 148.134 144.239 19.12-54.392 55.209zm38.522 143.521 120.617-122.427 1.477.2-79.56 183.584zm54.234 64.537 80.231-185.129 1.905.253-5.2 162.166zm192.815-269.835-95.762-38.723.841-58.774 146.975 11.716z"/></svg>