<?xml version="1.0" encoding="UTF-8"?>
<svg xmlns="http://www.w3.org/2000/svg" id="Layer_1" data-name="Layer 1" viewBox="0 0 512 512" width="512" height="512"><path d="M492.567,55.316,389.638,13.061a15.156,15.156,0,0,0-16.735,3.5L296.349,95.771h-80.7L139.1,16.563a15.156,15.156,0,0,0-16.735-3.5L19.433,55.316A15.151,15.151,0,0,0,10,69.375V230.289a15.118,15.118,0,0,0,9.625,14.136l97.381,38.439a15.14,15.14,0,0,0,3.815.946L83.332,440.152a7.193,7.193,0,0,0,10,8.215l71.961-33.049,35.052,80.442a7.121,7.121,0,0,0,6.565,4.322,7.473,7.473,0,0,0,1-.067,7.132,7.132,0,0,0,6.157-6.11L256,200.634l41.938,293.272a7.132,7.132,0,0,0,6.157,6.109,7.473,7.473,0,0,0,1,.067,7.123,7.123,0,0,0,6.565-4.323l35.052-80.441,71.962,33.05a7.194,7.194,0,0,0,10-8.214L391.179,283.81a15.2,15.2,0,0,0,3.816-.946l97.38-38.439A15.118,15.118,0,0,0,502,230.289V69.375A15.151,15.151,0,0,0,492.567,55.316ZM490,69.375V230.289a3.17,3.17,0,0,1-.686,1.966L309.2,173.626V129.1L489.394,67.513A3.173,3.173,0,0,1,490,69.375ZM382.139,266.151l-74.127-71.943a10.221,10.221,0,0,0,1.188-4.784v-3.178l105.4,34.309ZM218.88,187.721l37.448-31.638,35.87,31.638Zm-89.019,78.43L97.4,220.555l104.167-33.907v2.776a10.217,10.217,0,0,0,1.637,5.546Zm-107.175-33.9A3.17,3.17,0,0,1,22,230.289V69.375a3.173,3.173,0,0,1,.606-1.862l178.96,61.16v45.355Zm16.076-171.9L115.144,29,85.788,76.424Zm226.671,87.76L297.2,119.535v56.6Zm-9.106-7.95-37.592-32.392h73.6Zm-9.159,7.949-33.6,28.388V119.157ZM426.213,76.424,396.856,29l76.382,31.357ZM380.726,25.737l33.838,54.668L309.2,116.413V106.067a10.227,10.227,0,0,0-1.3-4.985ZM203.339,100.3a10.233,10.233,0,0,0-1.773,5.767v9.924L97.436,80.405l33.837-54.668ZM39.545,239.387l45.9-14.939,32.732,45.975Zm94.909,39.029,81.084-78.695h28.471l-11.136,77.87-67.428,124.5a7.037,7.037,0,0,0-.709.278l-67.43,30.968Zm70.127,197.026-29.076-66.728,52.472-96.886Zm102.838,0L283.811,310.348,337.33,406.8Zm41.633-72.253L279.046,277.028l-11.055-77.307h28.471l81.084,78.695,37.148,154.921Zm44.776-132.765,32.732-45.976,45.895,14.939Z"/></svg>
