<svg id="Layer_1" height="512" viewBox="0 0 512 512" width="512" xmlns="http://www.w3.org/2000/svg" data-name="Layer 1"><path d="m477.344 158.155-9.312-68.155a6 6 0 0 0 -8.361-4.68c-3.357 1.477-6.734 2.9-10.119 4.306a137.647 137.647 0 0 0 -186.945-56.782c-3.132-2.068-6.352-4.031-9.674-5.859a137.551 137.551 0 0 0 -200.574 91.272c-3.637-.442-7.272-.911-10.9-1.433a6.014 6.014 0 0 0 -6.326 3.46 6.139 6.139 0 0 0 -.455 3.419l9.294 68.023a6 6 0 0 0 5.091 5.126q4.913.707 9.828 1.313a137.447 137.447 0 0 0 114.552 86.179l26.808 193.687a20.481 20.481 0 0 0 20.234 17.617l23.607-3.035a20.439 20.439 0 0 0 17.476-23.066l-26.747-193.234a138.359 138.359 0 0 0 17.2-7.817 136.959 136.959 0 0 0 62.618 22.224l26.8 193.662a20.482 20.482 0 0 0 20.241 17.618l23.606-3.035a20.437 20.437 0 0 0 17.476-23.065l-26.743-193.236a137.467 137.467 0 0 0 88.681-114.306q4.572-1.908 9.116-3.9a6 6 0 0 0 3.528-6.303zm-166.391-128.634a125.52 125.52 0 0 1 127.376 64.6 508.407 508.407 0 0 1 -106.193 28.336l-5.283-38.667a6.166 6.166 0 0 0 -1.36-3.182 6.018 6.018 0 0 0 -7.02-1.634q-5.037 2.215-10.112 4.318a136.381 136.381 0 0 0 -34.908-42.521 125.063 125.063 0 0 1 37.5-11.25zm-255.711 156.079-7.627-55.827a520.482 520.482 0 0 0 53.222 4.071 5.992 5.992 0 0 0 6.163-5.981v-.053a5.97 5.97 0 0 0 -5.805-5.977q-18.408-.457-36.823-2.25a125.527 125.527 0 0 1 232.765-31.8 507.793 507.793 0 0 1 -146.555 32.886 6 6 0 0 0 -5.582 5.967v.036a5.992 5.992 0 0 0 6.447 5.964 519.858 519.858 0 0 0 164.566-39.536l7.628 55.826a507.855 507.855 0 0 1 -268.399 36.674zm194.437 285.6a8.443 8.443 0 0 1 -7.216 9.528l-20.831 2.845a8.461 8.461 0 0 1 -9.5-7.189l-26.489-191.397c.393 0 .785.02 1.178.02a136.477 136.477 0 0 0 36.406-4.934zm-45.947-199.341a125.52 125.52 0 0 1 -131.154-72.189q25.313 2.475 50.646 2.492a519.656 519.656 0 0 0 187.49-35.018 125.523 125.523 0 0 1 -106.982 104.715zm187.144 205.69a8.437 8.437 0 0 1 -7.215 9.526l-20.831 2.846a8.459 8.459 0 0 1 -9.5-7.19l-26.486-191.373c.321 0 .642.019.964.019a137.5 137.5 0 0 0 36.617-4.953zm28.79-238.023a125.512 125.512 0 0 1 -156.155 22.04 136.594 136.594 0 0 0 23.732-20.206 137.979 137.979 0 0 0 23.712-34.973 518.969 518.969 0 0 0 140.958-32.9 126.114 126.114 0 0 1 -32.247 66.039zm-103.478-45.683a136.748 136.748 0 0 0 7.312-31.843c3.047-1.272 6.088-2.563 9.116-3.895a6 6 0 0 0 3.529-6.3l-2.387-17.464a520.351 520.351 0 0 0 123.453-34.891l7.627 55.826a507.019 507.019 0 0 1 -148.65 38.567z"/><path d="m164.19 348.688a6 6 0 0 0 5.149-6.744l-1.3-9.721a6 6 0 0 0 -11.894 1.595l1.3 9.722a6 6 0 0 0 5.94 5.2 5.793 5.793 0 0 0 .805-.052z"/><path d="m169.66 434.567a6 6 0 0 0 11.894-1.6l-9.047-67.42a6 6 0 0 0 -11.894 1.595z"/></svg>