<svg id="Layer_1" height="512" viewBox="0 0 512 512" width="512" xmlns="http://www.w3.org/2000/svg" data-name="Layer 1"><path d="m90.533 394.269a6 6 0 0 0 4.931-9.413c-1.393-2.016-2.765-4.087-4.076-6.157a6 6 0 0 0 -10.137 6.422c1.4 2.2 2.857 4.41 4.341 6.558a5.992 5.992 0 0 0 4.941 2.59z"/><path d="m165.611 459.761a6 6 0 0 0 5.273-10.78 197.826 197.826 0 0 1 -61.24-46.094 6 6 0 1 0 -8.96 7.982 209.751 209.751 0 0 0 64.927 48.892z"/><path d="m480.722 209.937a19.885 19.885 0 0 0 -15.662-10.562c.02-.264.042-.528.052-.793a20.194 20.194 0 0 0 -21.905-20.9c-.265.022-.528.056-.791.089a19.976 19.976 0 0 0 -38.5-3.958l-12.485 33.917-11.647-11.114a26.483 26.483 0 0 0 -37.4.875l-28.029 29.374c-7.547-.678-15.259-1.24-23.04-1.676l9.255-45.819a26.248 26.248 0 0 0 19.457-3.942l58.637-38.852a58.632 58.632 0 0 0 25.247-37.487 60.224 60.224 0 0 0 -9.056-44.928 62.187 62.187 0 0 0 -38.984-26.639 60.032 60.032 0 0 0 -41.58 6.467 58.525 58.525 0 0 0 -35.784-22.813 60.148 60.148 0 0 0 -44.848 9.049 62.194 62.194 0 0 0 -26.642 38.975 60.076 60.076 0 0 0 8.883 45.53l38.065 57.332a26.449 26.449 0 0 0 17.106 11.362l-10.245 50.724c-3.3-.044-6.617-.074-9.922-.074a768.968 768.968 0 0 0 -92.615 5.453l-15.175-43.439a66.818 66.818 0 0 0 31.1-58.5 11.982 11.982 0 0 0 3.667-13.149l-5.783-16.719a11.988 11.988 0 0 0 -11.01-8.074 66.991 66.991 0 0 0 -120.8 41.8 12.019 12.019 0 0 0 -3.668 13.14l5.78 16.714a11.975 11.975 0 0 0 11 8.07 66.823 66.823 0 0 0 53.777 27.148c1.745 0 3.5-.074 5.249-.212l8.763 25.33a46.475 46.475 0 0 0 -24.533 7.236 50.594 50.594 0 0 0 -34.463 23.164 34.41 34.41 0 0 0 -8.307 8.631c-16.517 9.942-24.913 21.113-24.913 33.226a210.475 210.475 0 0 0 8.287 58.939 6 6 0 0 0 11.517-3.383 194.737 194.737 0 0 1 -6.253-30.381c11.251 9.756 29.388 18.436 53.993 25.708 41.321 12.214 96.15 18.94 154.387 18.94s113.066-6.726 154.387-18.94c24.607-7.273 42.745-15.954 54-25.711-5.608 45.125-26.326 85.711-59.738 116.167-38.753 35.319-91.538 54.768-148.653 54.768s-109.9-19.449-148.642-54.765a186.4 186.4 0 0 1 -34.045-41.38 6 6 0 0 0 -10.291 6.176 198.46 198.46 0 0 0 36.252 44.069c40.959 37.338 96.62 57.9 156.726 57.9s115.77-20.562 156.728-57.9c42.047-38.328 65.2-91.672 65.2-150.208 0-12.75-9.272-24.439-27.529-34.755l-7.784-7.428 33.295-14.06a19.977 19.977 0 0 0 9.906-27.716zm-42.373-17.016a8.194 8.194 0 1 1 11.765 11.226l-33.656 27.466-2.955-2.819-1.015-.969zm-23.177-14.967a7.976 7.976 0 1 1 14.371 6.778l-25.8 34.745-2.851-2.721zm-111.472 60.072-2.269 2.378a37.357 37.357 0 0 0 -12.7-2.455l.174-.859c4.965.267 9.908.57 14.795.936zm-12-75.355a26.287 26.287 0 0 0 -5.953-1.29l15.185-75.181a19.056 19.056 0 0 1 5.968 1.2zm-27.737-7.245-38.063-57.333a48.162 48.162 0 0 1 -7.121-36.5 50.28 50.28 0 0 1 21.515-31.373 48.238 48.238 0 0 1 35.835-7.284 46.639 46.639 0 0 1 29.817 20.055l1.626 2.449a6 6 0 0 0 8.321 1.678l1.078-.716a48.179 48.179 0 0 1 36.5-7.125 50.271 50.271 0 0 1 31.385 21.523 48.3 48.3 0 0 1 7.291 35.9 46.71 46.71 0 0 1 -20.113 29.865l-58.634 38.856a14.452 14.452 0 0 1 -10.454 2.187l16.623-82.3a6 6 0 0 0 -2.655-6.247 31.047 31.047 0 0 0 -21.969-4.437 6 6 0 0 0 -4.871 4.727l-16.623 82.3a14.451 14.451 0 0 1 -9.49-6.225zm19.386 17.829a14.385 14.385 0 0 1 5.935 1.377l-13.176 65.232a37.137 37.137 0 0 0 -6.84 3.1zm-32.449 62.819c2.5 0 5 .014 7.505.039l-2.851 15.05a18.263 18.263 0 0 1 -15.458-3.049l-3.641-2.735a37.36 37.36 0 0 0 -58.975 22.221l-16.975-25.255c-.071-.107-.149-.207-.221-.313a662.824 662.824 0 0 1 90.616-5.958zm-105.9-8.2a46.6 46.6 0 0 0 -10.483-4.411l-10.1-29.21c1.585-.422 3.166-.892 4.736-1.436 1.079-.373 2.137-.778 3.185-1.2zm-55.728-150.327a54.893 54.893 0 0 1 59.253 15.617l-96.19 33.276a54.891 54.891 0 0 1 36.937-48.893zm-35.528 79.833-5.779-16.732 112.788-39.006 5.787 16.727h-.009zm12.227 8.478 96.19-33.276a55.007 55.007 0 0 1 -96.19 33.276zm62.368 68.432a34.6 34.6 0 0 1 22.207 14.75l21.454 31.923c-17.9-10.363-38.026-22.363-62.865-45.006a34.56 34.56 0 0 1 19.204-1.667zm-87.367 59.61c0-5.037 2.922-9.726 7.014-13.825a34.451 34.451 0 0 0 5.88 19.273l4.853 7.221 2.112 5.634q1.231 3.288 2.624 6.526c-14.526-7.942-22.483-16.529-22.483-24.829zm39.67 32.722c-.823-1.5-1.629-3-2.4-4.529 4.076 2.88 8.019 5.513 11.865 7.971q-4.958-1.684-9.465-3.446zm54.543 15.018-3.04-1.594c-20.02-10.486-38.942-20.4-63.58-40.339l-4.74-7.053a22.687 22.687 0 0 1 2.552-28.417c37.059 34.564 62.036 46.609 86.215 58.265 15.559 7.5 30.442 14.679 48.474 27.506a559.955 559.955 0 0 1 -65.881-8.372zm87.254 9.533c-25.739-20.726-45.508-30.263-64.639-39.485-24.463-11.792-47.611-22.951-83.355-56.334a38.626 38.626 0 0 1 22.5-14.325c28.859 27.1 51.5 40.181 71.534 51.757 7.031 4.062 14.188 8.319 20.636 12.5a149.867 149.867 0 0 1 38.656 46.066q-2.681-.08-5.332-.183zm19.236-7.234a19.929 19.929 0 0 0 -1.142 5.973 159.912 159.912 0 0 0 -41.278-51.829l-5.828-8.176a25.315 25.315 0 0 1 35.823-34.93l3.64 2.735a30.347 30.347 0 0 0 36.283 0l3.64-2.735a25.389 25.389 0 0 1 19.236-4.737l-13.149 13.78a23.951 23.951 0 0 0 -20.959 3.948l-2.105 1.581a8.03 8.03 0 0 1 -9.6 0l-2.1-1.582a24.106 24.106 0 0 0 -34.112 33.262l24.739 34.706a19.99 19.99 0 0 0 7.6 6.388c-.258.528-.491 1.061-.688 1.612zm2.85-14.964-24.739-34.7a12.106 12.106 0 0 1 17.13-16.706l2.1 1.583a20.1 20.1 0 0 0 24.021 0l2.1-1.582a12.154 12.154 0 0 1 4.123-2.016 26.5 26.5 0 0 0 4.384 30.818l-16.115 22.608a7.978 7.978 0 0 1 -2.669 2.372l-1.423.6a8.043 8.043 0 0 1 -2.415.379 7.9 7.9 0 0 1 -6.497-3.36zm8.057 22.742a7.92 7.92 0 0 1 .393-3.739c.761-2.13 3.244-4.175 5.327-5.055l37.174-15.695 2.851 2.72-26.313 21.473q-9.63.272-19.432.292zm24.767-29.862 5.06-7.1 3.6 3.44zm28.082 27.806q-6.628.513-13.385.9l15.03-12.266 1.712 1.634 2.257 2.154zm-22.78-51.261a14.467 14.467 0 0 1 -.478-20.43l13.84-14.5 33.836 79.974zm61.1 47.095-38.71-91.495 12.14-12.722 42.988 101.6q-8.02 1.422-16.42 2.615zm28.479-4.9-46.02-108.768 16.609-17.4 51.221 121.062c-6.94 1.844-14.225 3.547-21.812 5.1zm32.611-10.379-52.971-125.2a14.464 14.464 0 0 1 16.748-1.831l48.363 114.308zm52.419-46.15a16.957 16.957 0 0 1 3.576 9.836c0 10.24-12.233 21.018-33.726 30.361l22.934-24.034a26.319 26.319 0 0 0 7.214-16.169zm-16.376-12.553a14.468 14.468 0 0 1 .478 20.431l-15.353 16.089-35.986-85.054zm29.677-49.573a7.9 7.9 0 0 1 -4.411 4.665l-38.09 16.084-2.852-2.722 33.5-27.4a7.967 7.967 0 0 1 6.2-1.071 7.981 7.981 0 0 1 5.652 10.447z"/><path d="m258.3 342.919c-.63.306.661-.238 0 0z"/></svg>