<svg id="Layer_1" height="512" viewBox="0 0 512 512" width="512" xmlns="http://www.w3.org/2000/svg" data-name="Layer 1"><path d="m28.958 250.025a18.154 18.154 0 0 0 2.124 5.926l14.56 25.549-29.649 33.583a11.332 11.332 0 0 0 -2.84 7.5v82.425a11.3 11.3 0 0 0 7.984 10.833l93.354 29a11.363 11.363 0 0 0 12.437-4l94.147-117.641v20.855a29.834 29.834 0 0 0 4.658 16.012 6.008 6.008 0 0 0 .409.568l26.769 32.924a6.331 6.331 0 0 0 2.275 3.389 6.228 6.228 0 0 0 3.788 1.278 6.165 6.165 0 0 0 4.364-1.791 6.329 6.329 0 0 0 1.816-4.038l20.073-32.33a29.831 29.831 0 0 0 4.658-16.012v-21.842l95.184 118.635a11.362 11.362 0 0 0 12.434 4l93.353-29a11.3 11.3 0 0 0 7.985-10.833v-82.428a11.332 11.332 0 0 0 -2.84-7.5l-29.643-33.587 14.559-25.55a18.146 18.146 0 0 0 2.125-5.927l18.816-109.483a9.794 9.794 0 0 0 -3.34-9.183l-57.977-62.057a5.951 5.951 0 0 0 -.831-.738 9.863 9.863 0 0 0 -10.305-.851l-85.9 33.762a7.4 7.4 0 0 0 -2.789 1.944l-56.474 63.214a11.558 11.558 0 0 0 -5.525-1.425h-2.647c2.333-7.3 7.088-18.3 15.538-23.116l-5.945-10.424c-13.593 7.751-19.791 25-22.111 33.54h-15.2c-2.32-8.537-8.518-25.789-22.112-33.54l-5.944 10.424c8.45 4.818 13.2 15.812 15.538 23.116h-4.083a11.575 11.575 0 0 0 -4.461.9l-56-62.688a7.409 7.409 0 0 0 -2.8-1.946l-85.89-33.766a9.865 9.865 0 0 0 -10.3.851 5.951 5.951 0 0 0 -.831.738l-57.987 62.065a9.792 9.792 0 0 0 -3.34 9.182zm-5.6-103.46 197.708 83.424v2.756l-180.834 12.029zm197.707 106.154-158.26 34.665-17.615-30.914 175.874-11.7zm30.024 41.869-18.015 17.738-.006-40.231 17.932 17.842zm11.919-4.56 14.89-16.32-.005 36.877-14.806-16.227zm26.892-45.328 176.91 11.77-17.61 30.911-159.3-35.256zm-12 11.2-15.211 16.672-.887-48.588 16.106-24.737zm-28.1-31.759.887 48.556-17.624-17.531-.007-55.782zm-196.64 70.559a9.86 9.86 0 0 0 10.961 4.684l156.946-34.384v19.116l-69.8 40.492-119.934-8.768 20.588-23.319zm79.7 40.6-107.7 62.483v-70.363zm-15.223 97.963-84.485-26.252 187.92-109.021v6.01zm115.445-89.2v-14.893l18.316-18.033 1.15 62.952-16.849-20.722a17.855 17.855 0 0 1 -2.621-9.31zm41.99 9.632-10.585 17.049-1.064-58.212 14.471 15.861v15.671a17.9 17.9 0 0 1 -2.826 9.625zm119.3 79.569-104.478-130.22v-5.654l188.954 109.621zm-15.228-97.964 107.7-7.875v70.358zm101.523-19.46-119.941 8.77-70.826-41.092v-19.1l157.97 34.96a9.862 9.862 0 0 0 10.97-4.682l1.239-2.174zm-8.9-71.066-181.867-12.098v-1.636l198.742-84.44zm-38.5-165.691 52.163 55.84-74.04 31.458-55.39-56.93zm-87.669 36.881 53.951 55.451-109.643 46.585v-38.332a11.514 11.514 0 0 0 .3-1.715zm-67.654 61.236-22.27 34.2-23.135-34.2zm-57.74-1.018a11.54 11.54 0 0 0 .851 4.985v35.8l-108.409-45.748 53.76-55.255zm-141.467-97.099 77.263 30.368-55.223 56.759-74.187-31.3z"/></svg>