<svg id="Layer_1" height="512" viewBox="0 0 512 512" width="512" xmlns="http://www.w3.org/2000/svg" data-name="Layer 1"><path d="m386.382 20.419c-36.752-6.486-73.727 2.481-104.114 25.239a125.317 125.317 0 0 0 -44.16 62.261 132.531 132.531 0 0 0 -85.376-13.383c-36.058 6.365-68.665 26.888-91.8 57.779a114.389 114.389 0 0 0 -12.577 21.152 6 6 0 1 0 10.885 5.033 102.664 102.664 0 0 1 11.284-18.98c21.313-28.453 51.249-47.335 84.294-53.167a121.279 121.279 0 0 1 94.834 23.025 113.256 113.256 0 0 1 22.72 158.366 97.614 97.614 0 0 1 -136.484 19.58 84.308 84.308 0 0 1 -16.912-117.887 73.007 73.007 0 0 1 102.077-14.637 63.4 63.4 0 0 1 12.716 88.64 55.228 55.228 0 0 1 -77.218 11.077 48.267 48.267 0 0 1 -11.466-64.967 7.775 7.775 0 0 0 .519-7.788 7.508 7.508 0 0 0 -7.908-3.988 7.959 7.959 0 0 0 -5.125 3.31 66.6 66.6 0 0 0 14.018 91.959 79.73 79.73 0 0 0 111.5-16 95.376 95.376 0 0 0 -19.134-133.377c-23.24-17.407-51.459-24.63-79.455-20.334-29.694 4.555-56.242 21.241-74.755 46.984-19.932 27.717-22.834 64.781-7.763 99.146 12.621 28.779 35.17 49.693 60.441 56.766l-.427.488a23.371 23.371 0 0 1 -29.086 5.022c-28.552-16.319-49.027-45.573-56.173-80.262a125.932 125.932 0 0 1 -2.614-25.5 6 6 0 1 0 -12 .062 137.908 137.908 0 0 0 2.857 27.862c7.841 38.062 30.429 70.232 61.972 88.259a34.828 34.828 0 0 0 17.325 4.587 35.528 35.528 0 0 0 26.751-12.13l4.365-5a108.125 108.125 0 0 0 32.594 8.585l28.589 134.749a26.124 26.124 0 0 0 25.481 20.693 26.347 26.347 0 0 0 5.469-.577 26.1 26.1 0 0 0 20.117-30.951l-27.813-131.091a108.635 108.635 0 0 0 47.147-36.085 124.54 124.54 0 0 0 19.729-39.129q1.287.548 2.586 1.065l-27.82 131.125a26.1 26.1 0 0 0 20.116 30.951 26.363 26.363 0 0 0 5.47.577 26.124 26.124 0 0 0 25.481-20.693l28.6-134.8a108.877 108.877 0 0 0 32.561-8.555l4.382 5.016a35.593 35.593 0 0 0 44.487 7.308c31.411-18.12 53.87-50.3 61.618-88.3 7.485-36.7-.171-73.63-21-101.295-23.14-30.902-55.746-51.425-91.805-57.79zm-298.414 244.224c-13.35-30.44-10.914-63.083 6.515-87.321 16.616-23.1 40.351-38.066 66.832-42.129 24.789-3.8 49.8 2.618 70.441 18.078a83.376 83.376 0 0 1 16.725 116.578 67.182 67.182 0 0 1 -44.54 26.371q-1.84.264-3.679.428a66.682 66.682 0 0 0 43.112-26.019 75.4 75.4 0 0 0 -15.127-105.439 84.207 84.207 0 0 0 -50.691-16.936 86.36 86.36 0 0 0 -12.274.88 84.344 84.344 0 0 0 -55.911 33.11 96.37 96.37 0 0 0 -3.956 109.672 101.515 101.515 0 0 1 -17.447-27.273zm162.937 199.962a14.1 14.1 0 0 1 -27.591 5.854l-27.945-131.712a111.276 111.276 0 0 0 28-3.907zm23.73-328.619a83.4 83.4 0 0 1 32.723-56.833c20.642-15.46 45.655-21.879 70.442-18.077 26.481 4.063 50.216 19.025 66.831 42.13 17.43 24.236 19.866 56.879 6.516 87.319a101.521 101.521 0 0 1 -17.447 27.275 96.373 96.373 0 0 0 -3.956-109.672 85.009 85.009 0 0 0 -118.876-17.055 75.4 75.4 0 0 0 -29.752 52.682q-3.062-3.994-6.481-7.769zm31.947 75.024c-.08-1.111-.178-2.219-.287-3.327a66.684 66.684 0 0 0 31.684 14.7 67.521 67.521 0 0 1 -31.397-11.373zm9.218 185.332a14.1 14.1 0 0 1 -27.591-5.854l27.534-129.776a110.106 110.106 0 0 0 28 3.9zm36.581-143.994a98.1 98.1 0 0 1 -47.771-8.365 125.3 125.3 0 0 0 2.189-18.826 80.194 80.194 0 0 0 85.725-6.236 66.592 66.592 0 0 0 13.794-92.268 7.549 7.549 0 0 0 -12.393 8.617 48.267 48.267 0 0 1 -11.362 65.13 55.222 55.222 0 0 1 -77.217-11.078 64.1 64.1 0 0 1 -3.862-5.814 125.335 125.335 0 0 0 -7.315-18.657 63.457 63.457 0 0 1 23.893-64.169 73.007 73.007 0 0 1 102.077 14.643 84.308 84.308 0 0 1 -16.912 117.887 97.048 97.048 0 0 1 -50.845 19.136zm135.051-75.242c-7.061 34.631-27.42 63.9-55.856 80.3a23.554 23.554 0 0 1 -29.454-4.811l-.428-.489c25.272-7.072 47.821-27.986 60.442-56.765 15.071-34.366 12.169-71.429-7.763-99.145-18.513-25.744-45.062-42.43-74.755-46.985-28-4.293-56.216 2.927-79.455 20.334a95.361 95.361 0 0 0 -35.963 56.182q-3.537-3.088-7.353-5.952-3.979-2.981-8.108-5.638a113.289 113.289 0 0 1 40.723-58.874c27.7-20.753 61.384-28.93 94.834-23.027 33.045 5.833 62.982 24.715 84.3 53.179 18.771 24.932 25.635 58.352 18.837 91.691z"/><path d="m40 316.856a6 6 0 0 0 4.9-9.45 127.653 127.653 0 0 1 -22.9-72.173 6 6 0 0 0 -12 .056 139.761 139.761 0 0 0 25.082 79.016 5.993 5.993 0 0 0 4.918 2.551z"/><path d="m61.435 340.238a6 6 0 0 0 3.847-10.608c-2.25-1.876-4.458-3.871-6.563-5.931a6 6 0 1 0 -8.393 8.577c2.332 2.281 4.778 4.492 7.269 6.57a5.975 5.975 0 0 0 3.84 1.392z"/></svg>