<svg id="Layer_1" height="512" viewBox="0 0 512 512" width="512" xmlns="http://www.w3.org/2000/svg" data-name="Layer 1"><path d="m477.225 331.8a7.022 7.022 0 0 0 -2.272-2.81l-30.161-22-21.066-26.643-10.294-41.856 42.076-52.521a6.774 6.774 0 0 0 1.3-2.666l13.467-56.704 22.683-30.961a6.763 6.763 0 0 0 -6.558-10.668l-28.15 4.629a6.81 6.81 0 0 0 -3.891 2.118l-23.059 25.32a6.772 6.772 0 0 0 -1.557 2.926l-12.113 49.177-52.667 43.394-33.436-14.113a6.648 6.648 0 0 0 -3.89-.4l-123.731 24.42h-35.195a10.791 10.791 0 0 0 -8.325 3.909l-1.975 2.378-45.7-6.389-57.752-20.553a6.772 6.772 0 0 0 -7.789 10.307l11.3 15.878-14.189 15.528a7.708 7.708 0 0 0 -2.027 5.387l.3 14.465-8.169 19.358a7.7 7.7 0 0 0 3.088 9.616l19.351 11.857a7.691 7.691 0 0 0 4.029 1.142 7.8 7.8 0 0 0 1.815-.215l28.781-6.88 6.663 3.118-4.1 4.936a10.845 10.845 0 0 0 -2.285 4.788l-5.762 28.8-53.34 56.228-16.425 2.767a7.405 7.405 0 0 0 -6.2 7.325v13.5a7.436 7.436 0 0 0 7.428 7.428h28.653a7.387 7.387 0 0 0 4.408-1.449l121.511-89.589 31.437 61.043-9.437 5.345a7.7 7.7 0 0 0 -3.746 5.141l-2.122 10.234a7.709 7.709 0 0 0 7.548 9.275h39.219a7.708 7.708 0 0 0 7.674-8.441l-8.1-84.911 95.727 14.073 22.006 28.052-14.865 19.8h-15.923a6.7 6.7 0 0 0 -6.418 4.861l-5.087 18.088a6.671 6.671 0 0 0 6.422 8.478h37.065a6.684 6.684 0 0 0 4.964-2.214l40.243-44.82a6.667 6.667 0 0 0 1.524-6.021l-7.3-30.3 55.169 15.794 19.8 31.252-1.308 14.055a7.022 7.022 0 0 0 2.983 6.406l12.4 8.611a6.961 6.961 0 0 0 3.98 1.254 7.083 7.083 0 0 0 2.158-.34 6.962 6.962 0 0 0 4.459-4.317l9.117-25.52a6.983 6.983 0 0 0 -.2-5.231zm-9.425-222.129-1.9-9.167 9.8-1.612zm-26.726 14.454 14.232-15.625 3.23 15.6-11.929 50.23-16.445-5.889zm-16.686 54.993 16.492 5.906-35.656 44.507-27.782-11.731zm-90.414 33.362 67.737 28.591 9.912 40.3-31.892 50.675a6.707 6.707 0 0 0 -.835 5.108l6.787 28.184-39.564-16.645-27.383-34.907zm-124.451 21.084 112.484-22.2-14.651 97.4-112.35-8.028zm-40.258.877h27.792l-17.549 81.2-13.425 9.9-67.169 10.8 4.524-22.617zm-73.419-5.368-16.208 7.937-13.065-18.353zm-.663 57.654a7.78 7.78 0 0 0 -5.078-.515l-28.514 6.816-14.727-9.023 7.1-16.825a7.685 7.685 0 0 0 .607-3.173l-.284-13.668 11.305-12.368 6.845 9.615a6.751 6.751 0 0 0 8.494 2.152l31.338-15.344 37.127 5.191-43.36 52.221zm-50.604 128.393h-22.579v-5.06l14.131-2.376a7.487 7.487 0 0 0 4.149-2.213l53.232-56.114 51.488-8.278zm156.368 0 .657-3.169 11.331-6.415a7.687 7.687 0 0 0 3.056-10.238l-11.609-22.542 20.47-13.4 5.322 55.765zm22.617-69.263-24.7 16.174-17.078-33.162 3.214-2.369 37.24 5.474zm-31.722-30.484.6-2.79 116.633 8.334 10.366 13.214zm159.179 99.747h-27.656l2.09-7.432h14.545a6.7 6.7 0 0 0 5.335-2.666l18.924-25.2a6.683 6.683 0 0 0 -.091-8.117l-2.808-3.58 23.121 9.727zm132.342-8.812-4.655-3.232 1.195-12.841a7.041 7.041 0 0 0 -1.057-4.409l-21.73-34.3a7.013 7.013 0 0 0 -3.989-2.981l-58.978-16.88 24.314-38.633 17.323 21.909a6.934 6.934 0 0 0 1.383 1.336l29.641 21.623 22.806 50.905z"/></svg>