<svg id="Layer_1" height="512" viewBox="0 0 512 512" width="512" xmlns="http://www.w3.org/2000/svg" data-name="Layer 1"><path d="m229.9 484.034a6.005 6.005 0 0 0 6 1.195 88.763 88.763 0 0 1 49.921-2.688 6 6 0 0 0 7.034-7.834 88.773 88.773 0 0 1 -2.688-49.922 6 6 0 0 0 -7.835-7.033 88.737 88.737 0 0 1 -49.92 2.688 6 6 0 0 0 -7.033 7.834 88.75 88.75 0 0 1 2.687 49.92 6 6 0 0 0 1.834 5.84zm48.769-14.992a100.674 100.674 0 0 0 -27.366.136l24.561-27.358a100.631 100.631 0 0 0 2.802 27.222zm-11.738-35.242-24.56 27.355a100.581 100.581 0 0 0 -2.805-27.22 100.547 100.547 0 0 0 27.365-.135z"/><path d="m382.521 405.629a6 6 0 0 0 -.862-6.059 88.757 88.757 0 0 1 -19.083-46.206 6 6 0 0 0 -9.722-4.04 88.755 88.755 0 0 1 -46.207 19.083 6 6 0 0 0 -4.04 9.723 88.737 88.737 0 0 1 18.826 44.147 89.065 89.065 0 0 1 -17.125-3.227 6 6 0 0 0 -7.445 7.444 88.773 88.773 0 0 1 0 49.992 6 6 0 0 0 7.445 7.445 88.782 88.782 0 0 1 49.992 0 6 6 0 0 0 7.444-7.445 88.755 88.755 0 0 1 0-49.992 6 6 0 0 0 -7.444-7.444 89.191 89.191 0 0 1 -13.667 2.851 88.716 88.716 0 0 1 36.986-12.608 6 6 0 0 0 4.902-3.664zm-64.649-26.858a100.662 100.662 0 0 0 25.773-9.2l-14.1 33.951a100.649 100.649 0 0 0 -11.673-24.751zm-7.145 54.142a100.676 100.676 0 0 0 27.334 1.335l-26 26a100.644 100.644 0 0 0 -1.334-27.335zm35.817 9.821a100.631 100.631 0 0 0 1.337 27.333 100.686 100.686 0 0 0 -27.334-1.336zm-5.922-34.606 14.1-33.952a100.637 100.637 0 0 0 11.678 24.754 100.6 100.6 0 0 0 -25.778 9.198z"/><path d="m150.193 411.978a6 6 0 0 0 6.12-.043 88.649 88.649 0 0 1 48.346-12.722 6 6 0 0 0 5.306-9.094 88.758 88.758 0 0 1 -12.721-48.347 6 6 0 0 0 -9.094-5.305 88.736 88.736 0 0 1 -48.35 12.721 6.111 6.111 0 0 0 -5.349 2.974 6 6 0 0 0 .043 6.12 88.767 88.767 0 0 1 12.722 48.347 6 6 0 0 0 2.977 5.349zm35.277-60.47a100.573 100.573 0 0 0 5.663 26.773l-31.757-18.526a100.662 100.662 0 0 0 26.094-8.247zm-.384 37.138a100.569 100.569 0 0 0 -26.093 8.248 100.681 100.681 0 0 0 -5.663-26.774z"/><path d="m141.7 344.1c-.336 0 .338.057 0 0z"/><path d="m247.174 417.344c-.463 0 .462.11 0 0z"/><path d="m105.457 293.581a6 6 0 0 0 2.189 5.715 88.756 88.756 0 0 1 28.886 40.8 6.8 6.8 0 0 0 5.168 4.004 7.01 7.01 0 0 0 5.208-2.232 88.779 88.779 0 0 1 40.8-28.887 5.979 5.979 0 0 0 2.7-1.891 88.729 88.729 0 0 1 9.474 37.225 6 6 0 0 0 9.39 4.761 88.761 88.761 0 0 1 47.513-15.547 5.831 5.831 0 0 0 .8-.079 88.73 88.73 0 0 1 -39.259 22.732 6 6 0 0 0 -2.439 10.242 88.755 88.755 0 0 1 26.195 42.579c.578 2.115 2.96 3.828 5.093 4.337a7.535 7.535 0 0 0 5.149-1.9 88.759 88.759 0 0 1 42.579-26.2 6 6 0 0 0 2.44-10.242 88.764 88.764 0 0 1 -26.2-42.58 5.979 5.979 0 0 0 -8.676-3.663 6 6 0 0 0 -.922-4.623 88.763 88.763 0 0 1 -15.545-47.503 6 6 0 0 0 -9.391-4.761 88.756 88.756 0 0 1 -47.509 15.548 5.974 5.974 0 0 0 -5.8 5.791 88.714 88.714 0 0 1 -22.7-35.4 6 6 0 0 0 -10.377-1.776 88.772 88.772 0 0 1 -40.8 28.887 6 6 0 0 0 -3.966 4.663zm145.068 106.694a100.609 100.609 0 0 0 -13.183-23.98l35.763 8.52a100.637 100.637 0 0 0 -22.58 15.46zm12.175-51.114a100.629 100.629 0 0 0 13.184 23.98l-35.764-8.52a100.615 100.615 0 0 0 22.58-15.46zm-27.882-58.12a100.6 100.6 0 0 0 7.23 26.393l-32.791-16.622a100.611 100.611 0 0 0 25.563-9.771zm1.805 37.1a100.629 100.629 0 0 0 -25.562 9.77 100.612 100.612 0 0 0 -7.229-26.393zm-83.631-53.082a100.613 100.613 0 0 0 14.7 23.08l-36.239-6.2a100.61 100.61 0 0 0 21.541-16.883zm12.681 34.908a100.627 100.627 0 0 0 -21.537 16.884 100.622 100.622 0 0 0 -14.7-23.08z"/><path d="m291.479 213.486a6.01 6.01 0 0 0 -5.714 2.189 88.787 88.787 0 0 1 -40.8 28.887 6 6 0 0 0 -1.774 10.377 88.769 88.769 0 0 1 28.886 40.8 6 6 0 0 0 10.378 1.774 88.761 88.761 0 0 1 40.8-28.886 6 6 0 0 0 1.774-10.377 88.777 88.777 0 0 1 -28.886-40.8 6 6 0 0 0 -4.664-3.964zm-11.8 69.006a100.622 100.622 0 0 0 -14.7-23.08l36.238 6.2a100.615 100.615 0 0 0 -21.537 16.88zm-12.679-34.909a100.589 100.589 0 0 0 21.536-16.883 100.649 100.649 0 0 0 14.7 23.081z"/><path d="m409.168 301.562a6 6 0 0 0 -2.189-5.715 88.757 88.757 0 0 1 -28.886-40.8 6 6 0 0 0 -10.377-1.775 88.777 88.777 0 0 1 -40.8 28.886 6 6 0 0 0 -1.774 10.377 88.777 88.777 0 0 1 28.886 40.8 6.8 6.8 0 0 0 5.169 4.007 7.007 7.007 0 0 0 5.209-2.233 88.76 88.76 0 0 1 40.8-28.885 6 6 0 0 0 3.962-4.662zm-47.538 18.525a100.649 100.649 0 0 0 -14.7-23.081l36.238 6.2a100.608 100.608 0 0 0 -21.538 16.881zm-12.68-34.909a100.583 100.583 0 0 0 21.536-16.884 100.619 100.619 0 0 0 14.7 23.081z"/><path d="m359.193 337.343c-.336 0 .338.057 0 0z"/><path d="m387.547 198.676a88.766 88.766 0 0 1 -28.657-40.964 6 6 0 0 0 -10.368-1.832 88.758 88.758 0 0 1 -40.963 28.657 6 6 0 0 0 -1.832 10.367 88.774 88.774 0 0 1 28.657 40.964 6 6 0 0 0 10.367 1.832 88.766 88.766 0 0 1 40.964-28.657 6 6 0 0 0 1.832-10.367zm-50.018 15.171a100.591 100.591 0 0 0 -16.763-21.63 100.619 100.619 0 0 0 23.162-14.573zm11.816 2.089 6.4-36.2a100.565 100.565 0 0 0 16.763 21.631 100.625 100.625 0 0 0 -23.163 14.569z"/><path d="m225.689 214.005a6 6 0 0 0 -6.1-.484 88.765 88.765 0 0 1 -49.262 8.513 6 6 0 0 0 -6.068 8.6 88.76 88.76 0 0 1 8.512 49.261 6 6 0 0 0 8.6 6.069 88.8 88.8 0 0 1 49.262-8.513 6 6 0 0 0 6.068-8.6 88.771 88.771 0 0 1 -8.513-49.262 6 6 0 0 0 -2.499-5.584zm-40.35 57.209a100.579 100.579 0 0 0 -3.339-27.161l30.035 21.185a100.49 100.49 0 0 0 -26.696 5.976zm3.59-36.96a100.442 100.442 0 0 0 26.7-5.979 100.592 100.592 0 0 0 3.337 27.162z"/><path d="m345.361 334.143a6 6 0 0 0 -1.816-5.845 88.752 88.752 0 0 1 -26.195-42.579 6 6 0 0 0 -10.243-2.44 88.76 88.76 0 0 1 -42.58 26.2 6 6 0 0 0 -2.439 10.242 88.757 88.757 0 0 1 26.2 42.58 6 6 0 0 0 10.242 2.439 88.763 88.763 0 0 1 42.579-26.2 6 6 0 0 0 4.252-4.397zm-48.632 15.422a100.658 100.658 0 0 0 -13.185-23.981l35.764 8.52a100.613 100.613 0 0 0 -22.579 15.461zm-10.4-35.654a100.619 100.619 0 0 0 22.571-15.461 100.629 100.629 0 0 0 13.184 23.98z"/><path d="m123.551 160.568a348.454 348.454 0 0 0 -10.576 71.617 6 6 0 0 0 5.74 6.248h.259a6 6 0 0 0 5.989-5.746 336.381 336.381 0 0 1 10.213-69.145 6 6 0 0 0 -11.625-2.979z"/><path d="m134.536 143.792a5.993 5.993 0 0 0 7.6-3.777c1-2.966 2.051-5.965 3.134-8.912a6 6 0 1 0 -11.27-4.139c-1.122 3.053-2.214 6.158-3.245 9.23a6 6 0 0 0 3.781 7.598z"/><path d="m91.906 190h-.013a6.01 6.01 0 0 0 -5.949 5.249 347.285 347.285 0 0 0 8.656 134.315l37.8 142.683a38.892 38.892 0 0 0 37.332 28.881l172.21.872h.2a38.829 38.829 0 0 0 37.528-28.882l37.73-142.427a348.515 348.515 0 0 0 9.5-127.691 347.3 347.3 0 0 0 -33.731-116.139 25.926 25.926 0 0 0 14.3-23.15v-27.811a25.933 25.933 0 0 0 -25.9-25.9h-251.138a25.933 25.933 0 0 0 -25.9 25.9v27.811a25.928 25.928 0 0 0 14.309 23.153 348.269 348.269 0 0 0 -22.267 57.493 6 6 0 1 0 11.534 3.276 336.428 336.428 0 0 1 22.783-58.019h250.228a335.25 335.25 0 0 1 33.85 114.693 336.607 336.607 0 0 1 -9.168 123.312l-37.732 142.427a26.824 26.824 0 0 1 -25.928 19.954h-.14l-171.2-.867a88.646 88.646 0 0 1 47.384-12.164 6 6 0 0 0 5.305-9.095 88.75 88.75 0 0 1 -12.721-48.346 6 6 0 0 0 -9.094-5.305 88.668 88.668 0 0 1 -48.347 12.721 6 6 0 0 0 -5.305 9.095 88.758 88.758 0 0 1 12.72 48.346 5.982 5.982 0 0 0 .982 3.434 26.863 26.863 0 0 1 -17.724-18.644l-37.8-142.683a335.315 335.315 0 0 1 -8.359-129.726 5.984 5.984 0 0 0 -5.935-6.766zm289.663-112.386h-251.138a13.92 13.92 0 0 1 -13.9-13.9v-27.814a13.92 13.92 0 0 1 13.9-13.9h251.138a13.92 13.92 0 0 1 13.9 13.9v27.811a13.92 13.92 0 0 1 -13.9 13.903zm-182.577 351.65a100.673 100.673 0 0 0 5.663 26.773l-31.755-18.526a100.617 100.617 0 0 0 26.092-8.247zm-.383 37.138a100.643 100.643 0 0 0 -26.093 8.247 100.642 100.642 0 0 0 -5.662-26.772z"/></svg>