<?xml version="1.0" encoding="UTF-8"?>
<svg xmlns="http://www.w3.org/2000/svg" id="Layer_1" data-name="Layer 1" viewBox="0 0 512 512" width="512" height="512"><path d="M173.868,360.733a43.96,43.96,0,0,0-38.528,22.791l-9.127,16.612a21.365,21.365,0,0,0,1.355,22.625,11.347,11.347,0,0,0,9.137,4.722l74.146.4a11.358,11.358,0,0,0,9.125-4.624,21.367,21.367,0,0,0,1.6-22.609l-8.947-16.709A43.929,43.929,0,0,0,174.1,360.734Zm28.182,28.874L211,406.316a9.312,9.312,0,0,1-.5,9.567l-73.372-.4a9.309,9.309,0,0,1-.4-9.571l9.127-16.61a31.95,31.95,0,0,1,27.983-16.571h.2A31.94,31.94,0,0,1,202.05,389.607Z"/><path d="M173.852,376.327a22.494,22.494,0,0,0-19.715,11.662l-3.966,7.219a12.694,12.694,0,0,0,.805,13.44,8.326,8.326,0,0,0,6.71,3.469l32.235.174a8.335,8.335,0,0,0,6.7-3.395,12.7,12.7,0,0,0,.95-13.432l-3.886-7.26a22.481,22.481,0,0,0-19.71-11.877Zm9.254,17.541,3.429,6.4-25.38-.136,3.5-6.367a10.5,10.5,0,0,1,18.452.1Z"/><path d="M56.31,168.937a6,6,0,0,0,11.037-4.709,192.148,192.148,0,0,1-12.535-42.294A6,6,0,0,0,42.991,124,204.14,204.14,0,0,0,56.31,168.937Z"/><path d="M46.942,109.589a6,6,0,0,0,5.537-6.43c-.153-2.056-.274-4.145-.36-6.209a6,6,0,0,0-11.99.5c.092,2.2.221,4.417.384,6.6a6,6,0,0,0,5.976,5.553C46.64,109.605,46.791,109.6,46.942,109.589Z"/><path d="M468.032,222.891l-4.63-16.524a67.487,67.487,0,0,0-16.975-29.247,206.006,206.006,0,0,0,31.717-71.98c.734-3.23-1.152-7.043-4.382-7.78l-17.614-4.011c.523-1.906,1.019-3.82,1.457-5.748a6,6,0,0,0-3.07-6.65,90.064,90.064,0,0,0-44.787-10.2,6,6,0,0,0-5.646,4.663c-.439,1.928-.821,3.869-1.175,5.814l-17.954-4.088a6,6,0,0,0-7.183,4.518,202.761,202.761,0,0,0-2.209,79.324A67.486,67.486,0,0,0,347.611,180l-9.1,10.353a67.536,67.536,0,0,0-10.156-6.4,205.983,205.983,0,0,0,7.532-78.291,7.536,7.536,0,0,0-2.209-4.671,5.969,5.969,0,0,0-4.392-1.346L311.3,101.364c-.1-1.975-.231-3.948-.419-5.916a6,6,0,0,0-5-5.35,89.52,89.52,0,0,0-8.942-1A90.1,90.1,0,0,0,287,82.6a6,6,0,0,0-7.246,1.063q-2.052,2.122-4.027,4.354L262.5,75.232a5.864,5.864,0,0,0-4.271-1.685,6,6,0,0,0-4.213,1.828,202.763,202.763,0,0,0-42.991,66.7,67.459,67.459,0,0,0-33.774,1.773L162.174,148.6a207.031,207.031,0,0,0,6.8-62.082c-.141-3.308-2.947-6.47-6.272-6.356l-18.049.756c0-1.977-.021-3.954-.1-5.93a6,6,0,0,0-4.709-5.609A90.222,90.222,0,0,0,93.948,71.3a6,6,0,0,0-4.223,5.983c.082,1.976.223,3.948.393,5.918l-18.4.77a6,6,0,0,0-5.744,6.246,202.738,202.738,0,0,0,18.7,77.12,67.5,67.5,0,0,0-22,25.692L52.35,214.133a38.789,38.789,0,0,0-2.589,6.947c-26.736,7.935-39.749,17.613-39.749,28.967l3.614,40.607a36.436,36.436,0,0,0,26.656,31.8c14.989,4.063,30.232,7.73,45.493,10.952A59.666,59.666,0,0,0,69.85,351.98l-9.876,17.972a35.321,35.321,0,0,0,2.239,37.4A24.448,24.448,0,0,0,81.9,417.526l25.993.142a34.986,34.986,0,0,0,6.019,14.5A24.45,24.45,0,0,0,133.6,442.341l80.156.434h.133a24.449,24.449,0,0,0,19.661-9.961,35.319,35.319,0,0,0,2.643-37.373l-9.679-18.077a59.664,59.664,0,0,0-34.432-28.686c21.233,1.648,42.566,2.486,63.79,2.491l5.8,67.054a27.14,27.14,0,0,0,13.024,20.867,39.59,39.59,0,0,0,42-.887L336.3,425.258a67.5,67.5,0,0,0,22.668-25.093,202.791,202.791,0,0,0,59.9,9.051c5.891,0,12.414-.309,18.331-.821,3.3-.287,6.357-3.248,6.071-6.548l-1.557-17.985q2.962-.126,5.919-.381a6,6,0,0,0,5.394-4.953,90.213,90.213,0,0,0-3.96-45.762,5.974,5.974,0,0,0-3.725-3.641c8.833-2.085,17.663-4.307,26.379-6.669a36.435,36.435,0,0,0,26.654-31.8l3.606-40.461C501.98,239.665,490.874,230.438,468.032,222.891ZM388.249,90.2,401.3,93.167a135.286,135.286,0,0,0-.564,14.377l.256,17.106a6,6,0,0,0,6,5.911h.092a6,6,0,0,0,5.909-6.089l-.256-17.107a123.648,123.648,0,0,1,2.106-24.636,78.257,78.257,0,0,1,29.924,6.814,123.646,123.646,0,0,1-8.77,23.119l-7.638,15.309a6,6,0,1,0,10.739,5.357l7.637-15.308a135.5,135.5,0,0,0,5.718-13.205l12.742,2.9a190.8,190.8,0,0,1-27.977,61.617,67.552,67.552,0,0,0-49.971-11.375A190.672,190.672,0,0,1,388.249,90.2Zm22.44,80.23a55.5,55.5,0,0,1,39.991,35.506A274.982,274.982,0,0,0,359.087,185.3,55.5,55.5,0,0,1,410.689,170.425Zm-62.023,26.553a262.368,262.368,0,0,1,106.357,23.959l3.165,11.3a27.185,27.185,0,0,1,.991,7.867,409.713,409.713,0,0,1-95.131-18.254l-10.4-15.449a67.8,67.8,0,0,0-6.274-7.954Zm-66.991,90.381,65.608-6.267a27.151,27.151,0,0,0,20.751-13.21h0a38.826,38.826,0,0,0,3.168-6.872L428.7,274.1c-1.335.256-2.684.511-4.073.765C385.739,281.971,335.709,286.312,281.675,287.359ZM259.77,264.311a420.209,420.209,0,0,0,101.383-12.42,27.221,27.221,0,0,1-3.459,9.9,15.116,15.116,0,0,1-11.552,7.353l-91.452,8.737a15.14,15.14,0,0,1-12.736-5.034,27.228,27.228,0,0,1-5.309-9.177Q248.216,264.3,259.77,264.311Zm-24.465-12.752a27.164,27.164,0,0,1,1.983-7.545l4.475-10.532a262.41,262.41,0,0,1,108.5-10.621l6.549,9.734a27.131,27.131,0,0,1,3.406,7.144A408.4,408.4,0,0,1,235.305,251.559Zm138.113-2.353a39.791,39.791,0,0,0-1.587-12.46,421.775,421.775,0,0,0,84.419,15.169,27.207,27.207,0,0,1-6.391,8.316,15.114,15.114,0,0,1-13.276,3.359Zm-32-39.231A275.019,275.019,0,0,0,248,219.122a55.5,55.5,0,0,1,44.328-30.313q2.666-.255,5.308-.253A55.491,55.491,0,0,1,341.422,209.975ZM299.3,101.321a123.7,123.7,0,0,1-1.073,24.7l-2.45,16.932a6,6,0,0,0,11.877,1.719l2.45-16.932a135.429,135.429,0,0,0,1.284-14.332l13.01-1.243a190.847,190.847,0,0,1-7.231,67.284,67.545,67.545,0,0,0-51.017,4.878,190.63,190.63,0,0,1-20.3-64.657l13.322-1.273a135.363,135.363,0,0,0,3.976,13.83l5.61,16.161a6,6,0,0,0,11.336-3.936l-5.61-16.161a123.769,123.769,0,0,1-5.731-24.054A78.256,78.256,0,0,1,299.3,101.321ZM258.534,88.094l5.3,5.12c-1.23.393-2.456.8-3.671,1.252a6,6,0,0,0-3.9,6.2c.188,1.968.434,3.93.708,5.888l-14.185,1.356A191.383,191.383,0,0,1,258.534,88.094Zm-24.5,33.7a202.859,202.859,0,0,0,7.9,35.573,67.47,67.47,0,0,0-19.372-11.842A192.267,192.267,0,0,1,234.034,121.8Zm2.124,46.543a55.207,55.207,0,0,1,15.271,26.464,67.4,67.4,0,0,0-9.746,11.417,271.3,271.3,0,0,0-57.329-51.906A55.5,55.5,0,0,1,236.158,168.341Zm-66.8-9.426A259.54,259.54,0,0,1,235.475,217.6c-.013.03-.027.059-.04.089l-9.192,21.63c-.256.6-.475,1.217-.7,1.829a409.091,409.091,0,0,1-74.135-75.4,27.128,27.128,0,0,1,7.029-3.4Zm-25.367,38.67a15.11,15.11,0,0,1-4.445-12.953,27.2,27.2,0,0,1,3.53-10,421.064,421.064,0,0,0,80.085,79.823,39.838,39.838,0,0,0,1.408,10.693c-.476.111-.955.216-1.437.3a15.116,15.116,0,0,1-13.1-4.007Zm34.492,50.042a14.978,14.978,0,0,1-8,2.689L78.7,254.158a15.1,15.1,0,0,1-12.449-5.706,27.221,27.221,0,0,1-4.811-9.444,421.463,421.463,0,0,0,45.437,2.458,421.539,421.539,0,0,0,60.676-4.409ZM78.31,95.7l13.371-.559a135.751,135.751,0,0,0,3.231,14.021L99.651,125.6a6,6,0,0,0,11.532-3.325l-4.741-16.437A123.835,123.835,0,0,1,102,81.514a78.273,78.273,0,0,1,30.664-1.284,123.7,123.7,0,0,1-2.39,24.611l-3.349,16.776a6,6,0,1,0,11.767,2.35l3.35-16.777a135.6,135.6,0,0,0,2.048-14.242l13.058-.547a191.072,191.072,0,0,1-8.988,61.341,39.327,39.327,0,0,0-6.142,4.066,67.492,67.492,0,0,0-46.888,3.543A190.647,190.647,0,0,1,78.31,95.7Zm42.721,71.521a55.445,55.445,0,0,1,12.02.813,39.156,39.156,0,0,0-5.388,14.909,26.866,26.866,0,0,0-.178,5.829A272.79,272.79,0,0,0,75.161,195.1,55.494,55.494,0,0,1,121.031,167.222Zm-57.9,52.186,5.035-10.286a260.685,260.685,0,0,1,63.129-8.412,26.932,26.932,0,0,0,4.356,5.5l20.909,20.216a409.294,409.294,0,0,1-95.812.417A27.112,27.112,0,0,1,63.127,219.408Zm44.761,186.259-25.926-.141a12.413,12.413,0,0,1-10-5.167,23.26,23.26,0,0,1-1.474-24.628l9.876-17.971a47.661,47.661,0,0,1,41.806-24.732h.263a47.442,47.442,0,0,1,34.687,15.213q-1.69.493-3.345,1.082a43.665,43.665,0,0,0-31.37-13.4h-.237A43.955,43.955,0,0,0,83.644,358.71l-9.128,16.611a21.367,21.367,0,0,0,1.355,22.625,11.348,11.348,0,0,0,9.137,4.723l23.5.128Q108.137,404.222,107.888,405.667Zm5.949-14.842-28.408-.154a9.308,9.308,0,0,1-.4-9.571l9.128-16.611a31.946,31.946,0,0,1,27.982-16.57h.2a31.777,31.777,0,0,1,19.839,7.021q-2.225,1.394-4.32,2.98a22.467,22.467,0,0,0-15.589-6.408h-.123a22.493,22.493,0,0,0-19.715,11.662l-3.964,7.217a12.694,12.694,0,0,0,.8,13.442,8.333,8.333,0,0,0,6.71,3.469l9.755.052Zm-4.378-15.5,3.5-6.367a10.463,10.463,0,0,1,16.087-2.837,59.778,59.778,0,0,0-6.7,9.274Zm106.472,7.707,9.679,18.077a23.259,23.259,0,0,1-1.741,24.612,12.418,12.418,0,0,1-9.985,5.058h-.068l-80.157-.434a12.415,12.415,0,0,1-10-5.167,23.256,23.256,0,0,1-1.474-24.628l9.875-17.971a47.663,47.663,0,0,1,41.806-24.732h.263A47.669,47.669,0,0,1,215.931,383.028ZM253.749,326.7l1.077,12.449a814.377,814.377,0,0,1-96.349-5.859A59.458,59.458,0,0,0,122.5,321.029h-.329a59.669,59.669,0,0,0-19.994,3.447c-19.667-3.792-39.427-8.362-58.758-13.6a24.385,24.385,0,0,1-17.841-21.286L23.643,267.9c10.209,6.08,26.188,11.423,48.1,16.1A6.007,6.007,0,0,0,79,278.138v0a5.993,5.993,0,0,0-4.723-5.863c-39.153-8.415-51.246-17.881-52.234-22.282.2-2.9,6.146-9.35,26.437-15.948A39.409,39.409,0,0,0,56.837,255.9a27.151,27.151,0,0,0,21.239,10.275c.373,0,.748-.008,1.122-.024l91.786-3.841a26.881,26.881,0,0,0,16.209-6.257l14.5,14.019a27.119,27.119,0,0,0,23.525,7.2,39.631,39.631,0,0,0,4.293-1.023,38.928,38.928,0,0,0,3.444,4.543,27.041,27.041,0,0,0,9.139,6.744c-42.74-.446-83.339-2.931-118.37-7.21a6,6,0,1,0-1.444,11.914c39.312,4.8,85.449,7.375,133.721,7.375q6.621,0,13.184-.066A38.879,38.879,0,0,0,263,303.9,27.15,27.15,0,0,0,253.749,326.7Zm27.127,102.109h0a15.112,15.112,0,0,1-7.25-11.617L265.7,325.661a15.112,15.112,0,0,1,5.148-12.689,27.206,27.206,0,0,1,9.234-5.223,420.319,420.319,0,0,0,10.661,124.6A27.234,27.234,0,0,1,280.876,428.805Zm39-7.08-9.792,6.463a27.139,27.139,0,0,1-7.175,3.341,408.344,408.344,0,0,1-10.7-125.01,27.161,27.161,0,0,1,7.529,2.043l10.491,4.57A262.376,262.376,0,0,1,319.872,421.725Zm12.963-8.716a275,275,0,0,0-8.311-93.518,55.549,55.549,0,0,1,8.311,93.518Zm109.027-41.164a123.914,123.914,0,0,1-24.692-1.294l-16.909-2.6a6,6,0,1,0-1.824,11.861l16.909,2.6a135.234,135.234,0,0,0,14.319,1.411l1.127,13.024a190.869,190.869,0,0,1-67.217-7.834,67.545,67.545,0,0,0-4.422-51.058,190.636,190.636,0,0,1,64.835-19.726l1.154,13.332a135.558,135.558,0,0,0-13.864,3.852l-16.211,5.466A6,6,0,0,0,398.9,352.25l16.211-5.466a123.734,123.734,0,0,1,24.1-5.516A78.266,78.266,0,0,1,441.862,371.845Zm44.559-82.257a24.385,24.385,0,0,1-17.842,21.286c-10.722,2.9-21.619,5.6-32.484,8.076l-.677-7.826a6,6,0,0,0-6.5-5.46,202.776,202.776,0,0,0-76.213,22.109,67.5,67.5,0,0,0-26.645-20.829l-19.1-8.319c45.032-1.762,86.43-5.854,119.819-11.952,28.954-5.289,49.38-11.5,61.573-18.771Zm-25.768-23.173a39.678,39.678,0,0,0,10.417-29.7c14.372,5.584,18.708,10.87,18.887,13.269C489.2,253.374,481.838,259.914,460.653,266.415Z"/><path d="M501.98,250.193c0,.179.006-.178,0,0Z"/></svg>
