<svg id="Layer_1" height="512" viewBox="0 0 512 512" width="512" xmlns="http://www.w3.org/2000/svg" data-name="Layer 1"><path d="m494.752 128.555a7.07 7.07 0 0 0 -8.631 2.334c-.048.066-.095.133-.14.2l-15.407 23.181-18.274-44.278a7.117 7.117 0 0 0 -12.642-1.038l-24.42 39.589-24.265-49.955a7.116 7.116 0 0 0 -13.125.7c-.021.057-.04.114-.058.172l-10.677 33.3-27.482-44.117a7.071 7.071 0 0 0 -6.021-3.44h-.075a7.109 7.109 0 0 0 -6.062 3.391l-27.091 44.352-35.873-63.613a7.118 7.118 0 0 0 -12.3-.236l-38.789 63.764-28.434-44.444q-.048-.075-.1-.15a7.117 7.117 0 0 0 -11.948.3l-26.678 42.367-11.7-31.608a7.117 7.117 0 0 0 -13.3.069l-19.631 52.4-29.298-43.269a7.117 7.117 0 0 0 -12.375 1.051l-21.328 47.053-18.849-25.188a7.116 7.116 0 0 0 -12.7 5.335 6.012 6.012 0 0 0 .133.654l76.325 290.885a21.525 21.525 0 0 0 21.24 18h.471l303.276-7.507a21.384 21.384 0 0 0 20.582-17.034l69.7-285.064c.018-.072.034-.145.049-.218a7.062 7.062 0 0 0 -4.103-7.938zm-49.9-5.16 17.717 42.926-22.359 33.637-18.761-38.626zm-111.274-21.775 28.732 46.116-19.424 60.58-35.753-63.4zm-68.963-7.669 73.278 129.94-66.145 206.3-3.1.077zm-12.029-2.379 4.046 337.48-79.2-213.932zm-73.543 9.822 27.437 42.88-34.366 56.492-20.6-55.65zm-111.759 21.082 29.179 43.093-17.063 45.544-32.567-43.513zm37.686 311.841c-.07 0-.139 0-.209 0a9.5 9.5 0 0 1 -9.406-8.1 6.079 6.079 0 0 0 -.133-.655l-70.022-266.847 203.944 272.529zm-17.031-211.793 39.954-106.638 116.614 314.977-.648.016zm196.512 207.35 101.035-315.118 47.017 96.8-145.05 218.244zm132.974-10.85c-.018.073-.035.146-.05.221a9.45 9.45 0 0 1 -9.129 7.565l-106.146 2.627 178.41-268.437z"/></svg>