<svg id="Layer_1" height="512" viewBox="0 0 512 512" width="512" xmlns="http://www.w3.org/2000/svg" data-name="Layer 1"><path d="m289.243 153.94c17.324-11.323 31.348-23.166 40.874-34.56 9.915-11.859 14.561-22.807 13.082-30.825a12.639 12.639 0 0 0 -10.469-10.469c-8.013-1.482-18.965 3.168-30.825 13.082-11.394 9.526-23.237 23.55-34.56 40.874-11.324-17.324-23.166-31.348-34.561-40.874-11.86-9.915-22.8-14.559-30.826-13.082a12.64 12.64 0 0 0 -10.468 10.469c-1.478 8.018 3.167 18.966 13.081 30.825 9.527 11.394 23.55 23.237 40.875 34.56-17.325 11.324-31.348 23.166-40.875 34.561-9.914 11.858-14.559 22.807-13.081 30.825a12.642 12.642 0 0 0 10.468 10.474c8.022 1.482 18.967-3.167 30.826-13.082 11.4-9.526 23.237-23.55 34.561-40.874 11.323 17.324 23.166 31.348 34.56 40.874 10.416 8.708 20.127 13.351 27.771 13.351a16.822 16.822 0 0 0 3.054-.269 12.64 12.64 0 0 0 10.47-10.474c1.479-8.018-3.167-18.966-13.082-30.825-9.527-11.395-23.551-23.237-40.875-34.561zm42.157 63.211c-.121.659-.184.722-.842.843-6.95 1.274-30.281-10.853-58.086-56.522a6 6 0 0 0 -10.25 0c-27.807 45.673-51.126 57.793-58.086 56.522-.658-.121-.722-.184-.843-.843-1.28-6.944 10.852-30.28 56.521-58.086a6 6 0 0 0 0-10.25c-45.669-27.8-57.8-51.141-56.521-58.086.121-.658.185-.721.843-.842 6.937-1.268 30.281 10.853 58.086 56.522a6 6 0 0 0 10.25 0c27.806-45.672 51.154-57.783 58.086-56.522.658.121.721.184.842.842 1.281 6.945-10.851 30.28-56.522 58.086a6 6 0 0 0 0 10.25c45.669 27.807 57.801 51.142 56.522 58.086z"/><path d="m383.693 153.94a116.349 116.349 0 1 0 -116.348 116.349 116.479 116.479 0 0 0 116.348-116.349zm-116.348 104.349a104.349 104.349 0 1 1 104.348-104.349 104.467 104.467 0 0 1 -104.348 104.349z"/><path d="m86.265 392.62c-9.914 11.859-14.56 22.807-13.081 30.826a12.638 12.638 0 0 0 10.467 10.468c8.025 1.483 18.968-3.167 30.826-13.082 11.394-9.526 23.238-23.55 34.56-40.874 11.323 17.324 23.166 31.348 34.561 40.874 10.416 8.708 20.127 13.352 27.77 13.352a16.843 16.843 0 0 0 3.056-.27 12.64 12.64 0 0 0 10.468-10.469c1.478-8.018-3.167-18.966-13.081-30.825-9.527-11.394-23.55-23.237-40.875-34.56 17.325-11.324 31.348-23.166 40.875-34.561 9.914-11.858 14.559-22.807 13.081-30.825a12.642 12.642 0 0 0 -10.468-10.469c-8.017-1.481-18.967 3.168-30.826 13.082-11.4 9.526-23.238 23.55-34.561 40.874-11.322-17.324-23.166-31.348-34.56-40.874-11.86-9.916-22.805-14.563-30.826-13.082a12.639 12.639 0 0 0 -10.467 10.468c-1.479 8.019 3.167 18.967 13.081 30.826 9.526 11.395 23.549 23.237 40.874 34.561-17.325 11.323-31.348 23.166-40.874 34.56zm55.241-29.435a6 6 0 0 0 0-10.25c-45.67-27.807-57.8-51.142-56.522-58.086.121-.659.185-.722.843-.843a5.9 5.9 0 0 1 1.065-.09c8.042 0 30.5 13.049 57.02 56.612a6 6 0 0 0 10.25 0c27.807-45.673 51.15-57.789 58.086-56.522.658.121.722.184.843.843 1.28 6.944-10.852 30.28-56.522 58.086a6 6 0 0 0 0 10.25c45.67 27.805 57.8 51.141 56.522 58.086-.121.658-.185.721-.843.842-6.938 1.272-30.281-10.853-58.086-56.522a6 6 0 0 0 -10.25 0c-27.807 45.672-51.131 57.808-58.085 56.522-.658-.121-.722-.184-.843-.842-1.284-6.945 10.852-30.28 56.522-58.086z"/><path d="m85.933 239.681a5.99 5.99 0 0 0 2.054-.366c2.219-.809 4.5-1.551 6.768-2.208a6 6 0 0 0 -3.328-11.529c-2.535.733-5.076 1.561-7.551 2.464a6 6 0 0 0 2.057 11.639z"/><path d="m67.64 249.384a6 6 0 0 0 -6.463-10.112 117.184 117.184 0 0 0 -51.036 72.921 6 6 0 0 0 4.566 7.153 6.091 6.091 0 0 0 1.3.141 6 6 0 0 0 5.853-4.708 105.1 105.1 0 0 1 45.78-65.395z"/><path d="m451.037 282.205c-8.012-1.481-18.967 3.168-30.825 13.082-11.395 9.526-23.237 23.55-34.561 40.874-11.323-17.324-23.166-31.348-34.56-40.874-11.86-9.914-22.8-14.56-30.825-13.082a12.64 12.64 0 0 0 -10.466 10.469c-1.479 8.018 3.167 18.966 13.082 30.825 9.526 11.395 23.55 23.237 40.874 34.561-17.324 11.323-31.348 23.166-40.874 34.56-9.915 11.859-14.561 22.807-13.082 30.825a12.639 12.639 0 0 0 10.469 10.469c8.015 1.483 18.966-3.167 30.825-13.082 11.394-9.526 23.237-23.55 34.56-40.874 11.324 17.324 23.166 31.348 34.561 40.874 10.416 8.708 20.127 13.352 27.77 13.352a16.824 16.824 0 0 0 3.055-.27 12.642 12.642 0 0 0 10.469-10.469c1.478-8.018-3.167-18.966-13.082-30.825-9.527-11.394-23.55-23.237-40.874-34.56 17.324-11.324 31.347-23.166 40.874-34.561 9.915-11.859 14.56-22.807 13.082-30.825a12.643 12.643 0 0 0 -10.472-10.469zm-57.854 70.73a6 6 0 0 0 0 10.25c45.671 27.806 57.8 51.141 56.522 58.086-.121.658-.184.721-.843.842-6.959 1.272-30.281-10.853-58.086-56.522a6 6 0 0 0 -10.25 0c-27.806 45.672-51.141 57.808-58.086 56.522-.658-.121-.721-.184-.842-.842-1.281-6.945 10.851-30.28 56.522-58.086a6 6 0 0 0 0-10.25c-45.671-27.807-57.8-51.142-56.522-58.086.121-.659.184-.722.842-.843 6.95-1.269 30.281 10.853 58.086 56.522a6 6 0 0 0 10.25 0c27.807-45.673 51.139-57.789 58.086-56.522.659.121.722.184.843.843 1.28 6.944-10.851 30.279-56.522 58.086z"/><path d="m385.651 241.711a116.349 116.349 0 1 0 116.349 116.349 116.479 116.479 0 0 0 -116.349-116.349zm0 220.7a104.349 104.349 0 1 1 104.349-104.351 104.466 104.466 0 0 1 -104.349 104.348z"/><path d="m153.444 241.793a116.513 116.513 0 0 0 -119.675 100.394 6 6 0 0 0 11.89 1.671 104.491 104.491 0 0 1 107.605-90.058c54.1 2.147 97.916 45.98 100.04 100.085a104.352 104.352 0 0 1 -203.239 37.251 6.022 6.022 0 0 0 -5.7-4.136h-.005a5.989 5.989 0 0 0 -5.715 7.841 116.355 116.355 0 0 0 226.655-41.423c-2.368-60.448-51.4-109.381-111.856-111.625z"/></svg>