<svg id="Layer_1" height="512" viewBox="0 0 512 512" width="512" xmlns="http://www.w3.org/2000/svg" data-name="Layer 1"><path d="m498.733 226.638-19.952-24.488a12.223 12.223 0 0 0 -7.323-4.306l-13.344-2.381-33.694-103.289 44.409 3.464a7.826 7.826 0 0 0 7.96-5.166l10.25-28.862a7.8 7.8 0 0 0 -5.168-10.095l-78.771-22.963a7.848 7.848 0 0 0 -8.4 2.771l-34.929 46.013a7.834 7.834 0 0 0 -1.6 4.726v111.8l-341.601 28.287-.11.011a7.183 7.183 0 0 0 -2.129 13.74l.141.059 227.315 91.611 74.049 152.171.053.105a7.154 7.154 0 0 0 6.4 3.914h100.732a8.175 8.175 0 0 0 4.795-14.8l-31.616-22.885 52.547-1.24c.194 0 .389-.019.581-.043a7.433 7.433 0 0 0 2.288-14.1l-61.77-29.275-5.462-77.208 45.286-73.39 26.733 6.141-5.461 4.514a7.184 7.184 0 0 0 .4 11.39l38.043 28.591c.1.075.2.147.306.216a7.186 7.186 0 0 0 11.135-5.922l1.167-61.5a9.793 9.793 0 0 0 -3.26-7.611zm-31.145-146.117-39.456-32.173 46.108 13.443zm-66.04-38.365 49.089 40.026-75.037-5.853zm9.92 49.008 35.489 108.791-6.484 10.508-70.3-46.99v-75.531zm-99.922 151.91-108.065 11.631-9.443-35.211 151.022-12.506zm-108.617 55.9-96.75-38.992 48.16-37.2 27.546-2.281zm3.7-32.536 92.466-9.952-54.9 59.117-27.331-11.015zm151.294-55.662-2.723 134.11-98.189-25.462zm12.254-12.356c0-.041.006-.081.006-.122v-20.392l63.991 42.776-66.639 107.986zm-237.828 26.18-39.071 30.18-55.455-22.349zm124.88 107.274 97.725 25.342-.923 45.507a2.778 2.778 0 0 1 -.328 1.251l-32.203 59.97zm73.69 139.883 22.48-41.855 57.817 41.855zm98.163-38.457-48.939 1.155-16.494-11.945 22.993-9.328zm-51.172-30.538c.023.325.082.641.133.958l-13.569 5.5a14.825 14.825 0 0 0 1.555-6.255l1.027-50.674 6.535-10.591zm58.414-162.723 20.163-32.677 12.864 2.3a.219.219 0 0 1 .129.076l17.733 21.762-19.153 15.829zm52.684 46.124-25.715-19.326 26.5-21.9z"/></svg>