<svg id="Layer_1" height="512" viewBox="0 0 512 512" width="512" xmlns="http://www.w3.org/2000/svg" data-name="Layer 1"><path d="m18.836 173.973 39.422 14.166a11.838 11.838 0 0 0 6.193 1.887l50.945.912 16.362 35.091a16.28 16.28 0 0 0 9.8 8.611l-2.09 67.847a16.848 16.848 0 0 0 4.918 12.4l43.063 43a5.393 5.393 0 0 1 1.277 5.554l-30.389 87.571a9.84 9.84 0 0 0 9.3 13.066h81.521a12.3 12.3 0 0 0 9.77-4.774 5.962 5.962 0 0 0 .959-1.792l15.203-45.712 64.19-15.359 56.465 6.767-15.977 47.92a9.839 9.839 0 0 0 9.332 12.952h70.456a12.435 12.435 0 0 0 12.1-9.795l9.214-43.243a18.93 18.93 0 0 0 -.249-8.887l-17.121-62.871a18.775 18.775 0 0 0 -3.133-6.392l-3.391-4.5c3.8-3.236 9.62-8.207 15.406-13.242 21.182-18.433 21.547-19.627 21.9-22.268l7.592-46.953c.01-.059.019-.117.026-.177a12.244 12.244 0 0 0 -4.252-10.988l-38.781-32.8a6 6 0 0 0 -8.247.473l-24.638 26.216a6 6 0 0 0 .439 8.64l25.8 22.4-26.269 27.5-6.959-9.238a16.9 16.9 0 0 0 -7.841-5.766l-168.13-60.481-16.89-98.261 1.363-13.822a11.849 11.849 0 0 0 -5.972-11.478l-66.955-37.747a11.863 11.863 0 0 0 -12.068.246l-72.44 44.827a11.84 11.84 0 0 0 -5.465 8.2l-3.155 19.7-40.44 7.24a13.337 13.337 0 0 0 -11 13.136v17.667a13.379 13.379 0 0 0 8.836 12.557zm46.819 4.073-.778-.28 9.23-57.61 32.421 46.115a16.25 16.25 0 0 0 1.421 8.7l1.8 3.865zm91.457 132.588 87.748-17.35 19.422 112.99-2.6 7.807-61.882-58.74a17.26 17.26 0 0 0 -3.873-5.943zm29.615 95.175 10.518 46.271h-26.575zm62.318 46.271h-39.494l-15.388-67.7 4.659-13.427 58.68 55.7zm26.234-52.664-21.618-125.766 105.057 75.7-23.5 35.723zm131.905 7.421 43.452 45.243h-58.536zm54.023 38.925-37.672-39.224 44.883 5.379zm6.318-46.039-76.764-9.2 63.3-40.234zm4.526-129.081 17.13-21.423-5.155 31.881zm-33.051-38.32 16.46-17.522 27.368 23.147-17.664 22.09a9.464 9.464 0 0 0 0-.953 9.887 9.887 0 0 0 -3.378-6.972zm17.283 40.478 23.011 20.1c-6.038 5.64-17.819 15.92-29.548 25.891l-16.486-21.884zm-6.5 65.986-77.845 49.48-22.669-2.717 63.276-96.2zm-46.776-56.772-37.689 57.3-114.56-82.547-5.407-31.467zm-160.181-.564-91.26 18.05 2.023-65.627 54.931-24.934a16.367 16.367 0 0 0 9.5-13.256l3.668-37.216zm-90.762-218.69 63.471 35.792-9.46 95.95a4.33 4.33 0 0 1 -2.515 3.507l-55.205 25.058a4.346 4.346 0 0 1 -5.721-2.109l-23.809-51.058a4.291 4.291 0 0 1 -.2-3.136zm-41.171 88.855-32.971-46.9 59.978-37.115zm-88.893-7.866a1.348 1.348 0 0 1 1.114-1.324l36.315-6.507-6.044 37.719-30.491-10.957a1.348 1.348 0 0 1 -.894-1.264z"/></svg>