<?xml version="1.0" encoding="UTF-8"?>
<svg xmlns="http://www.w3.org/2000/svg" id="Layer_1" data-name="Layer 1" viewBox="0 0 512 512" width="512" height="512"><path d="M479.512,206.506a34.488,34.488,0,1,0-62.322,29.56L429.4,261.807a37.3,37.3,0,1,1-67.408,31.974L250.641,59.03a34.489,34.489,0,0,0-62.322,29.562L299.668,323.343a106.281,106.281,0,1,0,192.053-91.1ZM199.161,83.449A22.489,22.489,0,0,1,239.8,64.173l4.192,8.837a93.368,93.368,0,0,0-29.8,42.13ZM221.668,130.9l3.143-9.748A81.529,81.529,0,0,1,249.3,84.2l12.764,26.91a93.377,93.377,0,0,0-29.8,42.13Zm18.07,38.1,3.143-9.748a81.516,81.516,0,0,1,24.486-36.957l27.41,57.787a93.372,93.372,0,0,0-29.8,42.129Zm32.716,68.972,3.143-9.747a81.508,81.508,0,0,1,24.486-36.957l12.764,26.909a93.37,93.37,0,0,0-29.8,42.13ZM310.51,318.2l-19.986-42.135,3.143-9.748a81.513,81.513,0,0,1,24.486-36.957l31.341,66.075a72.857,72.857,0,0,0-15.625,53.527A93.744,93.744,0,0,1,310.51,318.2Zm68.952,52.433A95.068,95.068,0,0,1,347.6,358.852l-1.237-7.121a60.964,60.964,0,0,1,9.567-44.778,48.95,48.95,0,0,0,23.207,17.281c1.294.462,2.6.854,3.914,1.205A57.539,57.539,0,0,0,379.462,370.633Zm48.57-139.709a22.489,22.489,0,0,1,40.638-19.276l12.209,25.741a95.024,95.024,0,0,1,6.9,20,78.686,78.686,0,0,1-49.195-4.231ZM436.1,362.979a93.717,93.717,0,0,1-43.151,9.045l-.421-.925a45.573,45.573,0,0,1,3.45-43.981,49.415,49.415,0,0,0,41.57-23.258,66.9,66.9,0,0,0,40.523,14.994l2.455.067A93.558,93.558,0,0,1,436.1,362.979Zm49.221-55.931-6.92-.191a54.977,54.977,0,0,1-35.661-14.347A48.891,48.891,0,0,0,444,267.853a90.5,90.5,0,0,0,45.637,1.434A93.824,93.824,0,0,1,485.322,307.048Z"/><path d="M182.045,331.178A6,6,0,1,0,171.2,336.32l4.19,8.832a6,6,0,1,0,10.841-5.142Z"/><path d="M219.774,438.721a6,6,0,0,0,10.842-5.143l-33.542-70.715a6,6,0,0,0-10.842,5.143Z"/><path d="M32.488,305.494a34.488,34.488,0,1,0,62.322-29.56L82.922,250.869A38.279,38.279,0,0,1,81.1,221.876a37.183,37.183,0,0,1,23.286-23.027,36.715,36.715,0,0,1,19.874-1.1,37.186,37.186,0,0,1,25.751,20.47L261.359,452.97a34.51,34.51,0,0,0,49.954,14.148A34.017,34.017,0,0,0,323.4,453.573a34.372,34.372,0,0,0,.283-30.165L212.332,188.657A106.3,106.3,0,0,0,82.844,133.319a5.993,5.993,0,0,0-2.72,9.426h0a6.01,6.01,0,0,0,6.6,1.937A93.549,93.549,0,0,1,119.061,140l.41.9a45.574,45.574,0,0,1-3.453,43.984,49.387,49.387,0,0,0-41.57,23.252,66.9,66.9,0,0,0-40.52-14.991l-2.451-.067a93.614,93.614,0,0,1,15.516-22.827,6.014,6.014,0,0,0-8.872-8.121A106.508,106.508,0,0,0,20.279,279.754ZM312.839,428.551a22.421,22.421,0,0,1-.258,19.819,22.137,22.137,0,0,1-7.826,8.7,22.518,22.518,0,0,1-32.554-9.239l-4.192-8.837a93.368,93.368,0,0,0,29.8-42.13ZM290.332,381.1l-3.143,9.748A81.529,81.529,0,0,1,262.7,427.8l-12.764-26.91a93.377,93.377,0,0,0,29.8-42.13ZM272.262,343l-3.143,9.748a81.516,81.516,0,0,1-24.486,36.957l-27.41-57.787a93.372,93.372,0,0,0,29.8-42.129Zm-32.716-68.972-3.143,9.747a81.508,81.508,0,0,1-24.486,36.957l-12.764-26.909a93.37,93.37,0,0,0,29.8-42.13ZM201.49,193.8l19.986,42.135-3.143,9.748a81.513,81.513,0,0,1-24.486,36.957l-31.341-66.075a72.864,72.864,0,0,0,15.625-53.531A93.736,93.736,0,0,1,201.49,193.8Zm-68.948-52.422A95.026,95.026,0,0,1,164.4,153.152l1.237,7.117a60.964,60.964,0,0,1-9.567,44.778,48.95,48.95,0,0,0-23.207-17.281q-1.94-.691-3.909-1.214A57.541,57.541,0,0,0,132.542,141.378ZM83.76,280.637c5.184,10.929.8,24.744-10.009,30.17a22.345,22.345,0,0,1-17.16,1.26,23.2,23.2,0,0,1-13.5-12.208l-11.483-24.21A98.72,98.72,0,0,1,24.4,254.565a78.7,78.7,0,0,1,49.025,4.273ZM26.679,204.952l6.919.191a54.972,54.972,0,0,1,35.665,14.351,48.9,48.9,0,0,0-1.249,24.668,90.732,90.732,0,0,0-45.474-1.5A93.721,93.721,0,0,1,26.679,204.952Z"/></svg>
