<svg id="Layer_1" height="512" viewBox="0 0 512 512" width="512" xmlns="http://www.w3.org/2000/svg" data-name="Layer 1"><path d="m196.821 414.51-51.621 12.217a16.781 16.781 0 0 0 -10.52 24.972l18.86 31.392a16.618 16.618 0 0 0 12.876 8.071q.783.071 1.558.07a16.593 16.593 0 0 0 12.554-5.7l35.027-39.846a19.085 19.085 0 0 0 -18.73-31.172zm-25.31 63.1a4.781 4.781 0 0 1 -7.689-.694l-18.861-31.392a4.781 4.781 0 0 1 3-7.115l5.13-1.214a124.733 124.733 0 0 0 21.9 36.455zm11.489-13.071a112.775 112.775 0 0 1 -18.11-30.14l11.892-2.815a66.428 66.428 0 0 0 14.286 23.777zm23.541-26.78-7.509 8.542a54.48 54.48 0 0 1 -10.51-17.494l11.067-2.619a7.084 7.084 0 0 1 6.952 11.571z"/><path d="m291.958 412.4a18.781 18.781 0 0 0 -21.208 7.577l-29.8 43.888a16.78 16.78 0 0 0 9.116 25.518l35.115 10.4a16.964 16.964 0 0 0 4.822.7 16.811 16.811 0 0 0 16.721-17.143l-1.1-53.04a18.786 18.786 0 0 0 -13.666-17.9zm-11.28 14.319a6.638 6.638 0 0 1 5.7-3.123 7.853 7.853 0 0 1 2.177.31 6.87 6.87 0 0 1 5.071 6.647l.236 11.366a54.465 54.465 0 0 1 -19.57-5.791zm-13.166 19.387a66.41 66.41 0 0 0 26.6 7.883l.253 12.212a112.783 112.783 0 0 1 -33.715-9.984zm25.331 41.394a4.745 4.745 0 0 1 -4.258.783l-35.114-10.4a4.78 4.78 0 0 1 -2.6-7.27l2.962-4.362a124.717 124.717 0 0 0 40.777 12.076l.11 5.272a4.736 4.736 0 0 1 -1.877 3.901z"/><path d="m439.661 228.607a16.616 16.616 0 0 0 10.79 10.7 16.942 16.942 0 0 0 5.193.823 16.639 16.639 0 0 0 9.813-3.221l29.627-21.528a16.78 16.78 0 0 0 .072-27.1l-42.749-31.417a19.086 19.086 0 0 0 -29.42 21.377zm48.39-30.653a4.781 4.781 0 0 1 -.021 7.719l-29.63 21.527a4.78 4.78 0 0 1 -7.348-2.365l-1.652-5.005a124.719 124.719 0 0 0 34.406-25zm-23.866-17.539 9.848 7.237a112.738 112.738 0 0 1 -28.447 20.67l-3.84-11.6a66.427 66.427 0 0 0 22.439-16.307zm-27.245-13.9a7.448 7.448 0 0 1 4.231-1.424 6.878 6.878 0 0 1 4.131 1.446l9.163 6.734a54.48 54.48 0 0 1 -16.511 12l-3.574-10.8a6.87 6.87 0 0 1 2.56-7.956z"/><path d="m227.168 78.378a22.448 22.448 0 0 0 -18.513-8.662l-56.255 1.815a22.543 22.543 0 0 0 -12.171 4.043l-.23-.763a22.57 22.57 0 0 0 -34.38-12.111l-46.429 31.824a22.571 22.571 0 0 0 -1.1 36.431l56.776 44.174-23.211 23.4a22.573 22.573 0 0 0 5.748 35.992l44.979 23-33.562 52.686a26.193 26.193 0 0 0 21.819 40.214 26.628 26.628 0 0 0 10.043-2l53.639-21.817 57.756 44.936a25.7 25.7 0 0 0 30.8.928 25.7 25.7 0 0 0 10.239-29.061l-6.281-20.875a22.592 22.592 0 0 0 8.891 2.7q1.056.1 2.1.095a22.321 22.321 0 0 0 16.887-7.672l53.837-61.245a26.113 26.113 0 0 0 -25.626-42.65l-39.5 9.347a22.313 22.313 0 0 0 6.471-15.9l-.132-35.683 26.39 8a26.883 26.883 0 0 0 7.815 1.174 26.164 26.164 0 0 0 20.4-42.157l-49.943-64.461a22.572 22.572 0 0 0 -36.434 1.025l-31.92 46.365a22.31 22.31 0 0 0 -3.56 17.115l-21.8 30.953a25.019 25.019 0 0 0 -9.116-2.347l19.505-68.755a22.355 22.355 0 0 0 -3.932-20.058zm-161.706 43.106a10.571 10.571 0 0 1 .514-17.062l46.424-31.822a10.571 10.571 0 0 1 16.1 5.673l3.145 10.454a188.7 188.7 0 0 0 -57.57 39.466zm38.265 29.772-20.091-15.632a176.721 176.721 0 0 1 51.5-35.306l7.335 24.377a98.934 98.934 0 0 0 -38.744 26.561zm9.491 7.383a87.007 87.007 0 0 1 32.72-22.43l1.754 5.83-24.31 24.508zm29.572 5.383 14.81-14.935a13.554 13.554 0 0 1 9.8-4.245 14.732 14.732 0 0 1 6.639 1.619 13.748 13.748 0 0 1 7.5 14.869l-3.435 20.753a87 87 0 0 1 -35.314-18.061zm33.356 29.924-4.157 25.115a176.706 176.706 0 0 1 -55.595-28.429l17.927-18.073a98.949 98.949 0 0 0 41.825 21.387zm-73.277 29.89a10.571 10.571 0 0 1 -2.691-16.856l7.689-7.751a188.678 188.678 0 0 0 62.144 31.778l-1.782 10.772a10.57 10.57 0 0 1 -15.242 7.685zm33.294 113.472a14.113 14.113 0 0 1 -17.219-20.655l11.3-17.741a87 87 0 0 1 25.4 30.471zm30.624-12.456a98.947 98.947 0 0 0 -30.081-36.081l13.678-21.471a176.7 176.7 0 0 1 39.983 47.962zm34.8-14.152a188.566 188.566 0 0 0 -38.892-48.6 22.92 22.92 0 0 0 5.27-1.89 22.316 22.316 0 0 0 11.5-13.785c.112.122.226.24.333.368l36.044 43.236a10.568 10.568 0 0 1 -4.138 16.56zm-8.762-158.748a87.341 87.341 0 0 1 10.217 1.422l-5.74 20.234a13.475 13.475 0 0 1 -7.067 8.731l3.153-19.049a26.473 26.473 0 0 0 -.566-11.338zm-1.225 90.267-2.595-3.114a22.455 22.455 0 0 0 -7.223-5.739l4.094-24.732zm57.819 23.908 2.221 3.7-25.9 13.4c-.225-.3-.453-.593-.693-.882l-14.841-17.8a188.7 188.7 0 0 0 36.811-16.084 22.309 22.309 0 0 0 2.405 17.666zm-19.08 28.229 27.493-14.225.321.533a189.387 189.387 0 0 0 -27.862 15.875c-.006-.706-.039-1.41-.11-2.108.055-.031.109-.048.161-.075zm-24.662-40.97-4.277-25.094a98.951 98.951 0 0 0 41.725-21.592l18.014 17.987a176.7 176.7 0 0 1 -55.459 28.699zm27.676 88.385-20.088-15.631a176.866 176.866 0 0 1 51.1-35.134l.9 1.5 6.831 22.7a98.955 98.955 0 0 0 -38.74 26.565zm42.739 20.8a13.752 13.752 0 0 1 -16.646-.5l-16.6-12.917a87 87 0 0 1 32.721-22.43l6.061 20.143a13.75 13.75 0 0 1 -5.528 15.707zm29.6-52.841a10.571 10.571 0 0 1 -17-1.535l-28.989-48.251a10.569 10.569 0 0 1 6.626-15.731l10.624-2.514a188.691 188.691 0 0 0 35.947 59.831zm39.989-84.3a14.112 14.112 0 0 1 13.848 23.05l-13.888 15.8a87.011 87.011 0 0 1 -20.43-34zm-32.172 7.614a98.948 98.948 0 0 0 24.193 40.266l-16.802 19.128a176.7 176.7 0 0 1 -32.159-53.524zm28.491-103.784 12.884 16.628a14.112 14.112 0 0 1 -15.248 22.149l-20.131-6.1a87 87 0 0 1 22.495-32.677zm-22.96-29.632 15.594 20.127a98.913 98.913 0 0 0 -24.934 34.487l-.105-28.578a26.365 26.365 0 0 0 -2.935-12.116 179.1 179.1 0 0 1 12.38-13.92zm-31.164-17.718a10.57 10.57 0 0 1 17.062-.48l6.693 8.637a191.077 191.077 0 0 0 -13.016 14.355 26.869 26.869 0 0 0 -7.291-3.569 25.987 25.987 0 0 0 -16.65.234zm-15.931 35.723a14.113 14.113 0 0 1 25.651 8.075l.077 21.035a87.006 87.006 0 0 1 -37.84-11.912zm-19.037 27.028a98.935 98.935 0 0 0 44.809 14.106l.094 25.456a176.677 176.677 0 0 1 -59.561-18.75zm-21.631 30.713a188.677 188.677 0 0 0 66.578 20.958l.041 10.918a10.571 10.571 0 0 1 -13.746 10.122l-19.509-6.142-34.415-34.364zm-11.546 7.97 14.885 14.864a87 87 0 0 1 -35.233 18.23l-3.534-20.738a15.474 15.474 0 0 1 -.219-2.628 25.643 25.643 0 0 0 12.4-13.784 13.422 13.422 0 0 1 11.701 4.056zm-13.41-41.538a99.5 99.5 0 0 0 -21.1-2.105 27 27 0 0 0 -5.714-3.924 25.718 25.718 0 0 0 -21.5-1.1l-4.766-15.838a176.889 176.889 0 0 1 60.027-1.525zm13.232-46.645-2.98 10.5a188.831 188.831 0 0 0 -66.805 1.625l-5.64-18.742a10.582 10.582 0 0 1 8.653-5.024l56.261-1.815a10.571 10.571 0 0 1 10.511 13.451z"/><path d="m11.609 159.672a6 6 0 0 0 5.966 5.429c.192 0 .384-.01.578-.028a6 6 0 0 0 5.4-6.545c-.353-3.679-.743-7.391-1.161-11.034a6 6 0 1 0 -11.922 1.37c.412 3.567.795 7.203 1.139 10.808z"/><path d="m15.277 289.347a6.232 6.232 0 0 0 .731.044 6 6 0 0 0 5.948-5.278 584.227 584.227 0 0 0 3.732-94.494 6 6 0 0 0 -11.99.5 572.272 572.272 0 0 1 -3.654 92.547 6 6 0 0 0 5.233 6.681z"/><path d="m22.744 69.507a5.994 5.994 0 1 0 11.6-3.029q-2.084-7.99-4.4-15.94a21.172 21.172 0 0 1 5.092-20.821 20.529 20.529 0 0 1 14.664-6.192 21.235 21.235 0 0 1 5.973.867 581.46 581.46 0 0 0 327.475 0 20.811 20.811 0 0 1 25.823 25.821 581.436 581.436 0 0 0 0 327.476 20.811 20.811 0 0 1 -25.823 25.821 581.451 581.451 0 0 0 -327.475 0 20.81 20.81 0 0 1 -25.823-25.821 581.319 581.319 0 0 0 15.369-260.71 6 6 0 0 0 -11.835 1.99 569.355 569.355 0 0 1 -15.05 255.347 32.874 32.874 0 0 0 31.294 42.078 33.5 33.5 0 0 0 9.416-1.367 569.45 569.45 0 0 1 320.729 0 32.811 32.811 0 0 0 40.711-40.711 569.458 569.458 0 0 1 -.2-320.038 33.533 33.533 0 0 0 -8.484-33.511 32.37 32.37 0 0 0 -32.022-7.892 569.512 569.512 0 0 1 -320.729 0 32.368 32.368 0 0 0 -32.021 7.892 33.525 33.525 0 0 0 -8.49 33.5q2.211 7.599 4.206 15.24z"/></svg>