<svg id="Layer_1" height="512" viewBox="0 0 512 512" width="512" xmlns="http://www.w3.org/2000/svg" data-name="Layer 1"><path d="m495.108 237.96-61.491-67.56a12.68 12.68 0 0 0 -6.318-3.775l-80.791-20.2a13.166 13.166 0 0 0 -10.706 1.961l-157.424 109.4-93.892-124.886a12.14 12.14 0 0 0 -9.66-4.824h-18.416a12.084 12.084 0 0 0 -11.738 14.96l18.2 74.494-48.936 44.8a12.083 12.083 0 0 0 7.195 20.959l28.058 2.246q.478.038.957.038a12.13 12.13 0 0 0 5.127-1.139l61.61-28.826 12.531 38.628a16.884 16.884 0 0 0 3.609 6.209l19.785 21.7a17.037 17.037 0 0 0 12.568 5.55h57.318l-16.3 44.927a8.415 8.415 0 0 0 11.449 10.512l114.23-52.856a5.962 5.962 0 0 0 2.919 1.816l39.576 10.514a5.96 5.96 0 0 0 1.043.181l66.7 5.558 35.2 4.4a8.526 8.526 0 0 0 1.055.066 8.418 8.418 0 0 0 8.4-8.864l-1.281-24.223 10.915-7.657a12.792 12.792 0 0 0 5.386-11.231l-3.581-55.143a12.771 12.771 0 0 0 -3.297-7.735zm-8.69 8.512 3.161 48.673-84.017-1.05 12.057-22.72 41.526-55.1 27.086 29.761a.714.714 0 0 1 .187.436zm-199.382 20.476-17.675-9.924 63.493-6.266-1.776 57.632-41.263-39.39a13.85 13.85 0 0 0 -2.779-2.052zm60.254-95 58.357 96.383-12.871 24.256-48.676-17.207zm77.454 6.527 26.18 28.764-37.839 50.211-58.51-96.636 69.814 17.453a.709.709 0 0 1 .355.212zm-91.516 60.183-82.128 8.111-19.818-11.127 104.278-72.468zm-276.906-98.507a.091.091 0 0 1 .088-.071l18.485.034 63.326 84.231-63.76-10.12zm-6.178 133.426-28.095-2.235a.131.131 0 0 1 -.012-.156l48.938-44.8c.168-.154.309-.328.466-.489l60.207 9.556zm77.69-23.09 22.223-10.4 18.46 24.554-29.451 20.469zm33.84 63.575-16.772-18.4 75.421-52.413 53.7 30.148-45.142 42.303h-63.506a5.018 5.018 0 0 1 -3.701-1.638zm74.726 11.031 47.837-44.824 41.571 39.682-105.208 48.682zm107.309-37.122 43.377 15.337-14.05 26.48-30.367-8.068zm41.957 43.615 13.567-25.569 83.593 1.045-41.566 29.157zm89.076 8.723-15.631-1.954 14.972-10.5z"/></svg>