<svg id="Layer_1" height="512" viewBox="0 0 512 512" width="512" xmlns="http://www.w3.org/2000/svg" data-name="Layer 1"><path d="m493.158 131.384-104.35 9.388 48.734-70.034a8.106 8.106 0 0 0 -8.493-12.524l-260.193 60.491-41.031-37.356a8.735 8.735 0 0 0 -5.937-2.252l-48.988.673a7.309 7.309 0 0 0 -3.5.73l-54.553 26.659a8.635 8.635 0 0 0 -.067 15.487c.092.046.187.09.282.131l61.418 26.789 16.72 121.884a11.927 11.927 0 0 0 8.068 9.741l115.337 38.754 37.906 24.522 6.345 14.785-15.718 83.309a9.654 9.654 0 0 0 9.491 11.439h96a9.651 9.651 0 0 0 9.347-12.073l-15.085-58.2a5.941 5.941 0 0 0 -.394-1.08l-43.566-91.247 197.759-145.414a8.105 8.105 0 0 0 -5.532-14.6zm-119.946 10.791-31.179 2.8-46.324-35.441 6.625-9.545 119.575-27.8zm-101.622 211.658-5.176-12.059 30.566-30.8 30.32 63.49zm-50.807-46.189-19.083-56.826 42.834-41.754 108.566 29.084-62.523 45.975zm30.028-154.456-77.665 6.987v-30.147l111.77-25.985zm-43.9 150.841-97.124-32.629 60.353-76.89zm-9.446-65.838-22.212-66.157 99.24-8.928zm68.926-86.4 22.47-32.378 35.5 27.162zm-105.245-23.877v33.163l-70.413 4.091-10.083-73.503 40.078-.551zm-134.489-13.17 42.216-20.63 5.7 41.528zm65.712 62.349 70.548-4.1 2.653 7.9-61.87 78.821zm140.56 139.12 57.326-19.319 1.233 2.582-33.013 33.263zm114.671 125.787h-90.145l14.215-75.339 62.394 23.107zm17.879-212.957-110.945-29.724 38.9-37.917 186.905-16.816z"/></svg>