<svg id="Layer_1" height="512" viewBox="0 0 512 512" width="512" xmlns="http://www.w3.org/2000/svg" data-name="Layer 1"><path d="m123.588 211.33a6 6 0 0 0 -2.224 8.189l30.522 53.281a6 6 0 0 0 10.412-5.965l-30.522-53.279a6 6 0 0 0 -8.188-2.226z"/><path d="m106 180.63a6 6 0 0 0 -2.224 8.188l4.929 8.6a6 6 0 0 0 10.412-5.965l-4.929-8.6a6 6 0 0 0 -8.188-2.223z"/><path d="m142.6 79.771a79.166 79.166 0 0 1 -33.455 40.538l-9.494-16.68a50.328 50.328 0 0 1 -6.51-21.447 5.945 5.945 0 0 0 -4.178-5.221 6.018 6.018 0 0 0 -7.8 6.2 62.278 62.278 0 0 0 8.053 26.4l122.508 214.848a47.336 47.336 0 0 0 38.947 20.343 46.765 46.765 0 0 0 22.5-5.77l47.225 82.983a16.308 16.308 0 0 0 9.929 7.715 16.5 16.5 0 0 0 4.367.591 16.432 16.432 0 0 0 14.247-24.548l-48.2-84.694a62.663 62.663 0 0 0 10.761-75.813l-120.9-212.344a47.251 47.251 0 0 0 -63.746-16.706l-14.219 8.093a62.73 62.73 0 0 0 -10.472 7.472 5.994 5.994 0 0 0 2.145 10.223l.032.01a6.063 6.063 0 0 0 5.824-1.281 50.725 50.725 0 0 1 8.406-5.995l14.219-8.088a35.229 35.229 0 0 1 44.887 8.645l-.449.3a90.5 90.5 0 0 0 -34.627 44.226zm195.91 331.887a4.426 4.426 0 0 1 -1.652 6.026 4.423 4.423 0 0 1 -6.032-1.654l-47.212-82.961 4.476-2.548c1.076-.612 2.12-1.259 3.145-1.925zm-37.436-160.507a50.61 50.61 0 0 1 -18.925 68.941l-14.218 8.093a35.3 35.3 0 0 1 -44.3-7.924c17.543-10.517 31.521-27.743 38.765-46.9 5.679-15.02 16.357-29.116 29.565-38.209zm-14.991-26.521c-15.652 10.493-28.236 26.839-34.907 44.484-6.453 17.07-19.086 32.474-34.9 41.577l-30.143-52.958c18.234-10.482 32.746-28.076 40.188-47.757 5.689-15.047 16.394-29.166 29.639-38.261zm-36.076-63.38c-15.654 10.494-28.236 26.837-34.908 44.485-6.454 17.07-19.086 32.473-34.9 41.577l-30.144-52.959c18.235-10.482 32.748-28.077 40.188-47.755 5.689-15.048 16.4-29.169 29.639-38.263zm-66.075-115.75.133-.09 29.865 52.46c-15.653 10.493-28.237 26.839-34.908 44.484-6.453 17.07-19.084 32.474-34.895 41.577l-29.959-52.631a91.2 91.2 0 0 0 39.7-47.4 78.586 78.586 0 0 1 30.064-38.4z"/><path d="m52.136 315.885a50.879 50.879 0 0 0 5.782 64.185l58.375 59.3a66.96 66.96 0 0 0 47.844 20.07c2.024 0 4.061-.09 6.1-.274a66.977 66.977 0 0 0 39.333-17.34l84.416 57.488a15.481 15.481 0 1 0 17.428-25.592l-84.414-57.491a67.231 67.231 0 0 0 -36.458-85.888l-76.564-32.593a50.878 50.878 0 0 0 -61.842 18.135zm169.521 111.227 83 56.528a3.482 3.482 0 0 1 .919 4.837 3.49 3.49 0 0 1 -4.839.919l-83-56.527c.7-.921 1.383-1.859 2.038-2.822s1.28-1.947 1.882-2.935zm-48.291-91.038 12.473 5.31a55.232 55.232 0 0 1 -16.679 105.829 55.714 55.714 0 0 1 -8.908.08c10.848-21.553 8.593-39.855 6.393-57.615-2.16-17.434-4.202-33.969 6.721-53.604zm-62.066 15.26c-1.779-13.413-3.464-26.159 2.4-40.659l48.569 20.676c-12.143 22.5-9.809 41.441-7.535 59.8 2.17 17.506 4.221 34.1-6.845 53.834a55.128 55.128 0 0 1 -23.046-14.035l-22-22.348c13.127-22.002 10.657-40.676 8.457-57.268zm-17.137-45.626a38.6 38.6 0 0 1 8.233.9c-6.852 17.17-4.9 31.956-3 46.306 2.015 15.187 3.92 29.625-5.309 46.8l-27.623-28.06a38.752 38.752 0 0 1 27.694-65.944z"/><path d="m410.23 462.731c-.3.017.3 0 0 0z"/><path d="m456.194 98.248a24.928 24.928 0 0 0 -.417-22.189 72.006 72.006 0 0 0 -131.139 7.007 24.932 24.932 0 0 0 1.949 22.106 25.3 25.3 0 0 0 9.274 8.993 71.816 71.816 0 0 0 -8.7 16.043 24.927 24.927 0 0 0 1.949 22.1 25.29 25.29 0 0 0 9.275 8.994 71.692 71.692 0 0 0 -8.7 16.043 24.93 24.93 0 0 0 1.949 22.105 25.292 25.292 0 0 0 9.274 8.993 71.787 71.787 0 0 0 -8.7 16.042 24.929 24.929 0 0 0 1.95 22.106 25.3 25.3 0 0 0 9.273 8.993 71.773 71.773 0 0 0 -8.7 16.043 25.218 25.218 0 0 0 23.528 34.278l27.309-1.423 7.615 142.493a16.537 16.537 0 0 0 5.5 11.5 16.668 16.668 0 0 0 23.517-1.257 16.543 16.543 0 0 0 4.241-12.018l-7.616-142.494 25.941-1.386a25.218 25.218 0 0 0 21.1-36.7 71.722 71.722 0 0 0 -10.376-15.02 25.3 25.3 0 0 0 8.264-9.932 24.932 24.932 0 0 0 -.419-22.186 71.736 71.736 0 0 0 -10.364-15.023 25.3 25.3 0 0 0 8.263-9.931 24.93 24.93 0 0 0 -.419-22.187 71.684 71.684 0 0 0 -10.364-15.023 25.292 25.292 0 0 0 8.263-9.929 24.935 24.935 0 0 0 -.414-22.189 71.752 71.752 0 0 0 -10.365-15.023 25.286 25.286 0 0 0 8.259-9.929zm-120.367-10.848a60.005 60.005 0 0 1 109.286-5.84 13.012 13.012 0 0 1 .219 11.584 13.193 13.193 0 0 1 -6.545 6.476 71.907 71.907 0 0 0 -94.746 5.063 13.188 13.188 0 0 1 -7.2-5.742 13.015 13.015 0 0 1 -1.014-11.541zm77.43 361.8a4.653 4.653 0 0 1 -8.107-2.86l-7.615-142.494 9.291-.5 7.615 142.494a4.616 4.616 0 0 1 -1.184 3.36zm41.643-166.512a13.039 13.039 0 0 1 -10.793 6.652l-85.136 4.55a13.219 13.219 0 0 1 -13.067-17.923c8.516-21.981 30.823-37.038 54.354-38.3 22.324 0 44.613 12.46 54.931 32.455a12.923 12.923 0 0 1 -.289 12.566zm-2.009-48.121a13.2 13.2 0 0 1 -6.548 6.478 71.9 71.9 0 0 0 -94.745 5.062 13.189 13.189 0 0 1 -7.2-5.741 13.012 13.012 0 0 1 -1.016-11.541 60 60 0 0 1 109.285-5.84 13.011 13.011 0 0 1 .225 11.582zm-2.52-47.139a13.2 13.2 0 0 1 -6.545 6.475 71.905 71.905 0 0 0 -94.746 5.064 13.2 13.2 0 0 1 -7.2-5.741 13.018 13.018 0 0 1 -1.016-11.541 60 60 0 0 1 109.285-5.841 13.015 13.015 0 0 1 .223 11.584zm-2.52-47.141a13.183 13.183 0 0 1 -6.548 6.476 71.9 71.9 0 0 0 -94.743 5.063 13.194 13.194 0 0 1 -7.2-5.742 13.01 13.01 0 0 1 -1.016-11.54 60.006 60.006 0 0 1 109.289-5.844 13.017 13.017 0 0 1 .219 11.587z"/></svg>