<svg id="Layer_1" height="512" viewBox="0 0 512 512" width="512" xmlns="http://www.w3.org/2000/svg" data-name="Layer 1"><path d="m145.816 189.01c.155 0 .311-.007.468-.018a6 6 0 0 0 5.521-6.445c-.164-2.117-.263-4.276-.293-6.416a6 6 0 1 0 -12 .172c.034 2.39.144 4.8.327 7.168a6 6 0 0 0 5.977 5.539z"/><path d="m147.312 195.283a6 6 0 0 0 -4.309 7.31c5.945 23.023 19.315 42.463 36.682 53.334a6 6 0 0 0 6.367-10.172c-14.789-9.257-26.245-26.083-31.43-46.162a6 6 0 0 0 -7.31-4.31z"/><path d="m265.963 89.9c-.04.008 0 .007.052 0s.092 0 .051 0c.033 0 .04-.007-.051-.007s-.085.007-.052.007z"/><path d="m210.417 249.812a46.208 46.208 0 0 0 34.09-.4v231.081a21.508 21.508 0 0 0 43.015 0v-231.082a47.065 47.065 0 0 0 17.68 3.471 44.785 44.785 0 0 0 16.41-3.07c30.43-11.992 50.875-46.831 50.875-86.691a128.374 128.374 0 0 0 -12.128-53.847c-8.154-17.212-19.644-30.382-32.352-37.083a46.139 46.139 0 0 0 -44.607 1.123 34.837 34.837 0 0 1 -11.078 4.017 78.729 78.729 0 0 1 24.767-50.9l6.5-6.036a6 6 0 0 0 -8.165-8.794l-6.5 6.037a90.772 90.772 0 0 0 -28.665 59.779 34.841 34.841 0 0 1 -11.627-4.105 46.145 46.145 0 0 0 -44.607-1.124c-10.308 5.436-19.814 15.127-27.389 27.78a5.966 5.966 0 0 0 10.222 6.153c6.266-10.469 14.085-18.742 22.764-23.318a34.659 34.659 0 0 1 33.057.928 47.27 47.27 0 0 0 46.676 0 34.654 34.654 0 0 1 33.057-.927c21.708 11.445 38.077 45.974 38.077 80.315a98.083 98.083 0 0 1 -4.85 30.577l-5.327-2.486a34.233 34.233 0 0 1 -19.688-30.91v-16.317a26.334 26.334 0 0 0 -52.668 0v29.9a13.138 13.138 0 1 1 -26.275 0v-7.176a25.138 25.138 0 1 0 -50.275 0 21.544 21.544 0 0 1 -16.343 20.931l-9.772 2.443a98.461 98.461 0 0 1 -3.749-26.962 111.557 111.557 0 0 1 .646-11.906 5.969 5.969 0 0 0 -3.758-6.213l-.052-.021a5.971 5.971 0 0 0 -8.1 4.9 121.48 121.48 0 0 0 -.737 13.244c.001 39.858 20.446 74.697 50.876 86.689zm55.598 240.188a9.518 9.518 0 0 1 -9.508-9.507v-235.893a34.522 34.522 0 0 1 19.015 0v235.89a9.518 9.518 0 0 1 -9.507 9.51zm-78.041-290.719a33.525 33.525 0 0 0 25.432-32.572 13.138 13.138 0 1 1 26.275 0v7.176a25.138 25.138 0 1 0 50.275 0v-29.9a14.334 14.334 0 0 1 28.668 0v16.315a46.275 46.275 0 0 0 26.611 41.785l5.9 2.756c-7.669 15.832-19.579 28.151-33.928 33.806a34.168 34.168 0 0 1 -25.783-.594l-7.079-3.033a46.744 46.744 0 0 0 -36.67 0l-7.08 3.034a34.166 34.166 0 0 1 -25.784.593c-15.353-6.047-27.911-19.747-35.471-37.207z"/></svg>