<svg id="Layer_1" height="512" viewBox="0 0 512 512" width="512" xmlns="http://www.w3.org/2000/svg" data-name="Layer 1"><path d="m66.613 42.829c-.044-.02-.089-.038-.133-.057a8.183 8.183 0 0 0 -4.869-.422l-45.154 9.881a8.209 8.209 0 0 0 -2.707 14.911l75.558 50.206-31.854.24a7.322 7.322 0 0 0 -3.89 1.154l-32.664 20.872a7.326 7.326 0 0 0 2.391 13.332l166.8 36.235a7.33 7.33 0 0 0 6.553-1.806l15.981-14.919 19.189 57.632 17.942 233.712a6.518 6.518 0 0 0 6.423 6.037h.06a6.52 6.52 0 0 0 6.474-5.925l22.108-233.3 18.448-60.232 17.573 16.92a7.318 7.318 0 0 0 6.617 1.884l168.749-36.165a7.326 7.326 0 0 0 2.576-13.227l-35.344-23.965a7.269 7.269 0 0 0 -4.175-1.267l-44.052.332 74.7-47.7a8.208 8.208 0 0 0 -2.635-14.957l-45.151-9.88a8.169 8.169 0 0 0 -4.872.422q-.158.065-.312.138l-152.755 72.965-3.535.026 11.4-9.84a7.28 7.28 0 0 0 1.962-8.341l-7.7-18.386a7.28 7.28 0 0 0 -6.733-4.48h-42.482a7.319 7.319 0 0 0 -6.627 4.24l-7.816 16.936a7.3 7.3 0 0 0 1.956 8.663l13.842 11.526-4.053.031zm-3.638 11.506 142 62.142-23.2.174-135.102-58.751zm-32.075 9.793 121.3 52.746-41.447.313zm27.993 65.45 68.423-.516 44.947 43.966-135.353-29.403zm132.975 45.841-47.522-46.485 98.106-.739zm30.408-11.971 31.392-29.307-.647 83.813-11.435 3.492zm34.54 235.519-12.726-165.74 14.758-4.506 13.642 4.821zm18.184-177.267-9.984-3.529.648-83.978 27.91 26.863zm87.537-94.412-38.078 46.837-47.992-46.189zm120.448 16.289-143.17 30.683 38.284-47.09 79.8-.6zm-129.225-28.222 117.9-50.742-79.01 50.449zm87.079-61 16.112 3.525-134.086 57.708-10.39.078zm-205.779 43.431 5.04-10.927h36.349l5.174 12.353-19.5 16.834-5.094.038z"/></svg>