<svg id="Layer_1" height="512" viewBox="0 0 512 512" width="512" xmlns="http://www.w3.org/2000/svg" data-name="Layer 1"><path d="m25.239 348.664a8.329 8.329 0 0 0 6.043 2.605 8.286 8.286 0 0 0 7.17-4.15l10.291-17.871a8.306 8.306 0 0 0 .4-7.48l-8.195-18.549v-60.3l.586-1.426 18.577 112.745 1.257 68.2a8.234 8.234 0 0 0 8.194 8.042h52.368a8.191 8.191 0 0 0 6.745-12.843l-16.508-23.924 1.619-58.225 21.714-26.645 106.958-18.615 19.858 128.351a7.086 7.086 0 0 0 7.04 6.032h44.523a7.123 7.123 0 0 0 6.487-10.066l-16.52-36.379 11.414-101.534 39.99-51.112 40.333 5.485 23.717 48.619a8.366 8.366 0 0 0 4.258 4.035l4.864 2.058-2.822 21.119-25.3 21.551a6.935 6.935 0 0 0 -2.443 5.634l.508 11a6.957 6.957 0 0 0 5.143 6.413l26.956 7.33a6.97 6.97 0 0 0 6.951-2l24.9-26.886a6.971 6.971 0 0 0 1.76-3.565l4.083-23.792 16.942 7.167a12.16 12.16 0 0 0 10.991-21.63l-23.091-13.802 7.085-41.279a18.719 18.719 0 0 0 -.389-8.043l-11.671-42.743a6.035 6.035 0 0 0 -.934-1.946l-55.961-77.023a8.285 8.285 0 0 0 -5.542-3.318l-133.064-18.304a8.286 8.286 0 0 0 -6.907 2.294l-15.084 14.861-115-2.591a20.541 20.541 0 0 0 -14.421 5.434l-70.142 64.472a20.689 20.689 0 0 0 -6.138 10.638l-30.391 53.154a7.887 7.887 0 0 0 -1.039 4.1l1.798 75.694-4.883 17.281a8.325 8.325 0 0 0 1.938 7.926zm5.31-11.868-8.116-8.623 3.78-13.379 5.651-2.441 5.54 12.539zm69.764 51.5-27.566.3-.459-24.896 29.212-18.087zm14.365 30.181h-41.378l-.332-17.877 29.135-.321c.088.119.17.242.263.358zm-10.618-90.049a10.011 10.011 0 0 0 -1.425 2.37l-31.056 19.225-21.343-129.523a8.553 8.553 0 0 1 0-2.779l5.527-33.821 68.3 119.98zm53.416-70.115a8.718 8.718 0 0 1 1.437-.919l31.087 29.783-56.083 9.761-7.679-13.491zm47.2 26.309-31.436-30.122 62-10.57a7.8 7.8 0 0 1 .182.815l5.2 33.62zm87.625 88.8h-24.831l-1.553-10.039 29.6-18.515zm-28.381-22.945-14.1-91.1 50.28 44.641-2.88 25.623zm37.824-61.049-48.234-42.828 54.8-15.615zm4.562 123.183h-32.773l-4.206-27.189h24.633zm14.808-188.067c.061-.041.127-.071.188-.114l19.307-13.5.13 5.618a8.209 8.209 0 0 0 2.118 5.339l-25.042 32.003zm107.627-8.121 30.036-22.55 8.039 29.438-30.571 15zm-24.795 3.609-45.646-6.208 46.02-42.945 48.842 12.205zm-7.241-58.462-44.278 41.321-2.276-98.5 48.423 6.662zm30.261 159.861 4.7-4.007 17.033 9.485-14.192 15.324zm-17.018 14.493 7.265-6.187 5.228 14.411-12.267-3.336zm43.723-19.984-16-8.907 2.2-16.469 16.92 7.159zm36.329-17.414a.132.132 0 0 1 -.083.108.151.151 0 0 1 -.147.007l-60.279-25.5-20.461-41.941c.049-.034.1-.059.151-.095l9.472-7.105 12.695 37.027a8.38 8.38 0 0 0 3.616 4.461l54.956 32.874a.156.156 0 0 1 .08.164zm-47.729-42.655-2.1-6.122 27.151-13.318-5.359 31.22zm1.333-87.545-34.815-8.7 1.381-37.316zm-170.882-74.589 65.387 9 2.167 93.783-24.062 16.829-86.936-41.163-4.034-31.659zm-57.231 39.549a8.286 8.286 0 0 0 -2.387 6.9l4.531 35.554a8.2 8.2 0 0 0 4.646 6.4l80.269 38.006-57.432 16.364a19.945 19.945 0 0 0 -1.944-2.96l-99.663-125.203 95.114 2.143zm-86.261-22.853c.117-.108.241-.2.363-.3l97.869 122.955-67.986 11.59a20.8 20.8 0 0 0 -9.523 4.289l-29.73 23.919-57.614-101.215zm-90.007 100.267-.832 5.086a20.386 20.386 0 0 0 -.231 2.372l-8.555 20.791a7.955 7.955 0 0 0 -.658 3.156v58.442l-1.945.84-1.576-66.557z"/></svg>