<svg id="Layer_1" height="512" viewBox="0 0 512 512" width="512" xmlns="http://www.w3.org/2000/svg" data-name="Layer 1"><path d="m61.886 237.342a5.982 5.982 0 0 0 4.239-1.754l7.915-7.9a6 6 0 1 0 -8.478-8.491l-7.916 7.9a6 6 0 0 0 4.24 10.245z"/><path d="m15.6 320.287c.135.008.271.013.406.013a6 6 0 0 0 5.98-5.6 100.056 100.056 0 0 1 29.142-64.137 6 6 0 1 0 -8.479-8.491 112.047 112.047 0 0 0 -32.635 71.828 6 6 0 0 0 5.586 6.387z"/><path d="m469.351 251.269-32.6-32.55a103.172 103.172 0 0 1 -29.151-58.693l-1.184-8.655a14.143 14.143 0 0 0 -28.025 0l-1.184 8.655a103.156 103.156 0 0 1 -16.287 42.953c-2.376-2.829-4.863-5.57-7.469-8.171l-36.979-36.927a117.2 117.2 0 0 1 -33.303-67.051l-1.343-9.818a15.237 15.237 0 0 0 -30.194 0l-1.343 9.819a117.844 117.844 0 0 1 -20.884 52.356 6.009 6.009 0 0 0 9.746 7.033 129.979 129.979 0 0 0 23.027-57.763l1.322-9.665a3.361 3.361 0 0 1 2.534-2.878 3.247 3.247 0 0 1 3.9 2.724l1.342 9.819a129.2 129.2 0 0 0 36.714 73.914l36.985 36.929a115 115 0 0 1 8.522 9.526q-2.6 3.048-5.441 5.894l-32.6 32.55q-2.584 2.582-5.01 5.343a117.961 117.961 0 0 1 -27.281-60.535l-1.342-9.818a15.238 15.238 0 0 0 -30.195 0l-1.343 9.819a117.961 117.961 0 0 1 -27.281 60.535q-2.421-2.756-5.01-5.343l-32.6-32.55q-2.841-2.838-5.441-5.894a115 115 0 0 1 8.522-9.526l14.925-14.9a6 6 0 0 0 -8.479-8.491l-14.924 14.9c-2.606 2.6-5.093 5.342-7.469 8.171a103.156 103.156 0 0 1 -16.287-42.953l-1.184-8.655a14.143 14.143 0 0 0 -28.025 0l-1.184 8.655a103.172 103.172 0 0 1 -29.148 58.691l-32.6 32.55a112.049 112.049 0 0 0 -32.628 71.831c-.009.134-.014.267-.014.4 0 31.408 48.14 56.011 109.6 56.011.758 0 1.521-.015 2.282-.023-.04.513-.086 1.025-.12 1.539-.009.134-.014.268-.014.4 0 35.18 54.26 62.738 123.528 62.738s123.523-27.565 123.523-62.741c0-.133 0-.267-.014-.4-.034-.514-.08-1.026-.12-1.539.761.008 1.524.023 2.282.023 61.455 0 109.6-24.6 109.6-56.011 0-.134 0-.267-.014-.4a112.049 112.049 0 0 0 -32.64-71.828zm-328.3 116.238c-26.786 0-51.875-4.99-70.645-14.051-17.026-8.22-26.835-19.061-26.949-29.771a100.062 100.062 0 0 1 29.129-63.925l32.6-32.55a115.235 115.235 0 0 0 32.562-65.558l1.181-8.652a2.144 2.144 0 0 1 4.248 0l1.183 8.655a115.238 115.238 0 0 0 32.564 65.558l32.6 32.551c1.8 1.8 3.534 3.686 5.2 5.626l-34.716 34.667a126.3 126.3 0 0 0 -35.139 67.414c-1.275.02-2.549.036-3.816.036zm125.676 64.655c-60.314 0-111.291-23.127-111.527-50.547a114.311 114.311 0 0 1 33.281-73.07l36.981-36.928a129.934 129.934 0 0 0 36.716-73.917l1.343-9.82a3.238 3.238 0 0 1 6.417 0l1.342 9.819a129.934 129.934 0 0 0 36.714 73.914l36.981 36.928a114.311 114.311 0 0 1 33.281 73.07c-.236 27.424-51.213 50.551-111.527 50.551zm196.323-78.706c-18.77 9.061-43.859 14.051-70.645 14.051-1.267 0-2.541-.016-3.813-.039a126.3 126.3 0 0 0 -35.139-67.414l-34.716-34.667c1.666-1.939 3.4-3.826 5.2-5.627l32.6-32.55a115.238 115.238 0 0 0 32.563-65.558l1.181-8.652a2.144 2.144 0 0 1 4.248 0l1.184 8.655a115.235 115.235 0 0 0 32.562 65.558l32.6 32.55a100.062 100.062 0 0 1 29.125 63.922c-.115 10.715-9.924 21.551-26.95 29.771z"/></svg>