<svg id="Layer_1" height="512" viewBox="0 0 512 512" width="512" xmlns="http://www.w3.org/2000/svg" data-name="Layer 1"><path d="m41.8 329.9a58.181 58.181 0 0 0 65.3 17.952 51.384 51.384 0 0 0 37.506 16.267 51.823 51.823 0 0 0 38.764-17.392l30.473 150.463a6 6 0 1 0 11.762-2.38l-30.469-150.463a51.59 51.59 0 0 0 67.36-21.51 58.762 58.762 0 0 0 24.461-5.973l-40.232 176.236a6 6 0 1 0 11.7 2.669l40.244-176.285a59.4 59.4 0 0 0 33.3 21.081 58.49 58.49 0 0 0 13.026 1.465 59.773 59.773 0 0 0 43.176-18.511 66.6 66.6 0 0 0 28.279 6.275h.7a66.647 66.647 0 0 0 31.316-125.112 72.953 72.953 0 0 0 -38.542-123.35 74.239 74.239 0 0 0 -8.791-1.042 66.67 66.67 0 0 0 -131.376-19.19 67.21 67.21 0 0 0 -1.717 11.355 66.639 66.639 0 0 0 -80.44 40.51 58.106 58.106 0 0 0 -108.421 38.029 58.621 58.621 0 0 0 2.353 8.66 58.116 58.116 0 0 0 -36.1 93.12 58.3 58.3 0 0 0 -3.632 77.126zm184.915-242.784a54.3 54.3 0 0 1 41.739-1.924 8.445 8.445 0 0 0 11.45-7.948 54.988 54.988 0 0 1 1.522-13.344 54.656 54.656 0 0 1 107.665 16.649 72.561 72.561 0 0 0 -33.745 12.573 6 6 0 1 0 6.83 9.867 60.956 60.956 0 0 1 74.214 96.529 66.4 66.4 0 0 0 -19.92-3.049c-.233 0-.468 0-.7 0a6 6 0 0 0 .061 12h.063a54.663 54.663 0 1 1 -44.994 84.884 6 6 0 0 0 -9.993 6.647 66.918 66.918 0 0 0 16.59 17.249 47.221 47.221 0 0 1 -75.22-14.643 58.112 58.112 0 0 0 -30.468-103.359 63.5 63.5 0 0 0 -72.39-83.564 54.271 54.271 0 0 1 27.296-28.567zm-125.55 181.294a6.008 6.008 0 0 0 -6.445-5.52 46.088 46.088 0 0 1 -7.153-91.9 8.1 8.1 0 0 0 6.86-11.469 46.423 46.423 0 0 1 -3.462-10.782c-4.563-23.874 10.95-47.861 34.582-53.47a45.886 45.886 0 0 1 53.682 28.222 63.173 63.173 0 0 0 -21.652 21.71 6 6 0 1 0 10.286 6.182 51.487 51.487 0 0 1 90.893 48.067 58.23 58.23 0 0 0 -17 4.937 6 6 0 1 0 5.053 10.884 46.088 46.088 0 1 1 -5.114 80.835 6 6 0 0 0 -6.372 10.168 58.33 58.33 0 0 0 18.317 7.524 39.692 39.692 0 0 1 -63.208 13.066 6 6 0 0 0 -9.527 1.929 39.716 39.716 0 0 1 -62.44 13.374 58.194 58.194 0 0 0 5.023-3.623 6 6 0 0 0 -7.545-9.332 46.083 46.083 0 0 1 -62.143-67.819 57.633 57.633 0 0 0 37.283 13.638c1.515 0 3.04-.058 4.566-.177a6 6 0 0 0 5.516-6.444z"/><path d="m174.279 426.472 14.321 70.718a6 6 0 1 0 11.761-2.38l-14.32-70.719a6 6 0 1 0 -11.762 2.381z"/><path d="m178.956 389.1a6 6 0 0 0 -11.762 2.381l1.767 8.73a6 6 0 0 0 11.762-2.381z"/></svg>