<svg id="Layer_1" enable-background="new 0 0 512 512" height="512" viewBox="0 0 512 512" width="512" xmlns="http://www.w3.org/2000/svg"><path d="m501.6 253.8c-.4-1.1-1.2-2.1-2.2-2.8l-214.9-185.7c-1.7-1.4-3.7-2-5.8-1.9l-189.7-.9c-4.9 0-8.9 4-8.9 8.9 0 2.7 1.2 5.3 3.3 7l102.1 82.9-84.1 91.4-77.9-65.1c-3.5-2.9-8.7-2.4-11.6 1-1.2 1.5-1.9 3.3-1.9 5.3v131.1c0 4.5 3.7 8.2 8.2 8.2 1.9 0 3.7-.6 5.1-1.8l78.2-62.5 85.6 83.7-103.4 80.9c-3.9 3-4.6 8.6-1.5 12.5 1.7 2.2 4.3 3.4 7 3.4l199.5-.4c2 0 4-1.1 5.6-2.5l205.7-186c1.9-1.7 2.5-4.3 1.6-6.7zm-479.6-51.8 62.5 52.3-62.5.6zm0 115.2v-50.3l63.7-.7zm458-67-63.4.7-35.6-62.4 11.7-13.8zm-168.1 1.7-92.6 1 40.7-62.8 101.1 3.3zm60.8-53.6 30.2 52.7-75.5.8zm-58 65.6 48.2 57.3-100.6 7-42.3-63.3zm15.6-.2 73-.8-29.3 53zm53.3-96.9-12.6 15-98.9-3.3 60.8-55.6zm-104.1-90 44.2 38.2-68.8 62.9-66.3-2.2zm-181.8-2.2 67.4.3-35.6 25.4zm41.5 33.6 46.4-33.2 79 .3-70.9 77.1zm38.5 79.1 68.3 2.3-41.1 63.4-88.4.9zm7.2 146.3-69.3-67.6 90.1-.9 42.9 64.1zm-86.7 103.8 31.4-24.6 38.2 24.6zm91.7 0-50.3-32.4 56.2-44 78.1 76.4zm98.9-2.2-92.5-90.4 60.9-4.2 68.1 61.7zm45.4-41-60.4-54.8 98.7-6.8 12.9 15.4zm60-54.4-11.9-14.1 34.7-62.9 63.2-.7z"/></svg>