<?xml version="1.0" encoding="UTF-8"?>
<svg xmlns="http://www.w3.org/2000/svg" id="Layer_1" data-name="Layer 1" viewBox="0 0 512 512" width="512" height="512"><path d="M217.785,148.879a19.826,19.826,0,0,0,11.858,15.314l2.06.883a19.717,19.717,0,0,0,15.514-.022L293.186,145.2a1.177,1.177,0,0,1,1.3.208,1.021,1.021,0,0,1,.373,1.117,118.109,118.109,0,0,1-9.04,24L275.6,190.681a24.49,24.49,0,0,0,21.844,35.562,197.6,197.6,0,0,0,129.266-48.161l24.427-21.135a18.4,18.4,0,0,1,12.036-4.484,22.561,22.561,0,0,0,21.905-17.623l.977-4.453a26.084,26.084,0,0,0-25.479-31.672,18.371,18.371,0,0,1-12.257-4.678L417.6,66.58A248.507,248.507,0,0,0,310.948,10.942c-10.23-2.461-21.409.893-28.112,9.011a27.139,27.139,0,0,0-3.81,28.7L288.539,69.6l.069.157a1.059,1.059,0,0,1-.24,1.285,1.029,1.029,0,0,1-1.263.233c-13.648-6.038-31.964-14.143-40.494-17.922a19.7,19.7,0,0,0-14.019-.721l-.261.084a20.014,20.014,0,0,0-7.46,33.754l5.1,4.709L226.1,93.935a19.451,19.451,0,0,0,2.585,33.211l-4.168,3.573A19.822,19.822,0,0,0,217.785,148.879Zm27.625-23.793a6,6,0,0,0-3.271-4.633l-8.061-4.03a7.448,7.448,0,0,1-1-12.723l9.863-7.045a6,6,0,0,0,.585-9.289l-10.512-9.713A8.013,8.013,0,0,1,236,64.138l.262-.084a7.59,7.59,0,0,1,5.485.267c8.531,3.78,26.85,11.886,40.5,17.925A13.145,13.145,0,0,0,299.592,64.92l-9.64-21.23a15.03,15.03,0,0,1,2.137-16.1,16.018,16.018,0,0,1,16.054-4.985A236.474,236.474,0,0,1,409.6,75.528l30.725,27.456a30.354,30.354,0,0,0,20.253,7.731,14.085,14.085,0,0,1,13.758,17.1l-.977,4.454a10.491,10.491,0,0,1-10.184,8.193,30.4,30.4,0,0,0-19.888,7.41l-24.427,21.135a185.6,185.6,0,0,1-121.414,45.235A12.491,12.491,0,0,1,286.3,196.105l10.214-20.154a130.293,130.293,0,0,0,9.96-26.442,13.026,13.026,0,0,0-4.2-13.222,13.152,13.152,0,0,0-13.849-2.1l-45.969,19.852a7.661,7.661,0,0,1-6.029.008l-2.061-.882a7.943,7.943,0,0,1-2.039-13.333l11.03-9.455A6,6,0,0,0,245.41,125.086Z"/><path d="M397.043,139.093a27.362,27.362,0,1,0-27.362-27.362A27.393,27.393,0,0,0,397.043,139.093Zm6.1-39.673a6.207,6.207,0,1,1-6.207,6.207A6.215,6.215,0,0,1,403.146,99.42Zm-17.79,2.366a18.181,18.181,0,0,0,21.632,21.632,15.344,15.344,0,0,1-21.632-21.632Z"/><path d="M457.866,369.794l-30.725-27.457A248.529,248.529,0,0,0,320.494,286.7c-10.234-2.461-21.408.893-28.112,9.01a27.143,27.143,0,0,0-3.811,28.7l9.511,20.938.072.163a1.06,1.06,0,0,1-.24,1.285,1.034,1.034,0,0,1-1.263.234c-13.648-6.039-31.964-14.144-40.5-17.924a19.689,19.689,0,0,0-14.01-.722l-.271.086a20.014,20.014,0,0,0-7.457,33.754l5.1,4.709-3.864,2.759a19.448,19.448,0,0,0,2.585,33.21l-4.171,3.575a19.943,19.943,0,0,0,5.124,33.472l2.06.883a19.711,19.711,0,0,0,15.515-.021l45.967-19.853a1.18,1.18,0,0,1,1.3.208,1.023,1.023,0,0,1,.372,1.118,118.223,118.223,0,0,1-9.039,24l-10.214,20.155A24.49,24.49,0,0,0,306.991,502a197.6,197.6,0,0,0,129.265-48.161l24.427-21.134a18.394,18.394,0,0,1,12.036-4.485A22.559,22.559,0,0,0,494.624,410.6l.977-4.453a26.083,26.083,0,0,0-25.478-31.672A18.372,18.372,0,0,1,457.866,369.794ZM481.1,391.729a14.02,14.02,0,0,1,2.783,11.845l-.977,4.453a10.489,10.489,0,0,1-10.184,8.193,30.4,30.4,0,0,0-19.888,7.41L428.4,444.765A185.6,185.6,0,0,1,306.991,490a12.491,12.491,0,0,1-11.142-18.137l10.214-20.155a130.088,130.088,0,0,0,9.959-26.44,13.027,13.027,0,0,0-4.2-13.224,13.154,13.154,0,0,0-13.85-2.1l-45.968,19.852a7.661,7.661,0,0,1-6.029.009l-2.061-.884a7.942,7.942,0,0,1-2.04-13.331l11.031-9.456a6,6,0,0,0-1.221-9.922l-8.061-4.03a7.447,7.447,0,0,1-1-12.723l9.863-7.045a6,6,0,0,0,.584-9.29l-10.511-9.711a8.015,8.015,0,0,1,2.977-13.514l.271-.086a7.6,7.6,0,0,1,5.487.267c8.531,3.779,26.85,11.885,40.5,17.925a13.145,13.145,0,0,0,17.345-17.319L299.5,319.447a15.028,15.028,0,0,1,2.138-16.1,16.02,16.02,0,0,1,16.053-4.985,236.469,236.469,0,0,1,101.457,52.92l30.725,27.456a30.357,30.357,0,0,0,20.253,7.731A14.02,14.02,0,0,1,481.1,391.729Z"/><path d="M406.589,360.126a27.362,27.362,0,1,0,27.361,27.362A27.393,27.393,0,0,0,406.589,360.126Zm0,42.724A15.344,15.344,0,0,1,394.9,377.543a18.182,18.182,0,0,0,21.633,21.632A15.286,15.286,0,0,1,406.589,402.85Zm6.1-15.259a6.207,6.207,0,1,1,6.207-6.206A6.214,6.214,0,0,1,412.691,387.591Z"/><path d="M210.332,184.906c2.02,1.685,4.033,3.423,5.984,5.167a6,6,0,1,0,8-8.947c-2.051-1.834-4.169-3.663-6.292-5.435a6,6,0,1,0-7.688,9.215Z"/><path d="M115.512,137.311a232.216,232.216,0,0,1,80.482,36.552,6,6,0,1,0,6.947-9.785,244.173,244.173,0,0,0-84.623-38.434,6,6,0,1,0-2.806,11.667Z"/><path d="M222.638,249.609a27.363,27.363,0,1,0-27.363,27.363A27.393,27.393,0,0,0,222.638,249.609ZM201.379,237.3a6.207,6.207,0,1,1-6.207,6.207A6.213,6.213,0,0,1,201.379,237.3Zm-21.466,12.31a15.283,15.283,0,0,1,3.675-9.944A18.181,18.181,0,0,0,205.22,261.3a15.344,15.344,0,0,1-25.307-11.688Z"/><path d="M16.021,286.778a19.823,19.823,0,0,0,11.854,15.293l2.061.883a19.71,19.71,0,0,0,15.513-.022L91.418,283.08a1.177,1.177,0,0,1,1.3.208,1.02,1.02,0,0,1,.373,1.117,118.3,118.3,0,0,1-9.039,24L74.091,328.05a25.068,25.068,0,0,0,1.023,24.882,24.319,24.319,0,0,0,20.564,11.19A197.593,197.593,0,0,0,224.943,315.96l24.427-21.134a18.4,18.4,0,0,1,11.8-4.483c10.593-.136,19.841-7.136,22.11-17.484l.894-4.076a26.694,26.694,0,0,0-3.984-21.048,25.989,25.989,0,0,0-21.381-11.141,18.367,18.367,0,0,1-12.257-4.679l-30.725-27.457a244.478,244.478,0,0,0-49.056-34.007,6,6,0,1,0-5.591,10.628,232.315,232.315,0,0,1,46.651,32.328l31.3,27.969a29.583,29.583,0,0,0,19.748,7.218,14.026,14.026,0,0,1,11.32,5.8,14.53,14.53,0,0,1,2.287,11.672l-.895,4.083a10.4,10.4,0,0,1-10.148,8.193,30.4,30.4,0,0,0-19.924,7.41l-24.427,21.135A185.6,185.6,0,0,1,96.185,352.121a12.953,12.953,0,0,1-10.812-5.431,12.418,12.418,0,0,1-.837-12.706l10.216-20.155a130.3,130.3,0,0,0,9.958-26.44,13.028,13.028,0,0,0-4.2-13.223,13.154,13.154,0,0,0-13.851-2.1L40.691,291.916a7.661,7.661,0,0,1-6.029.008l-1.8-.772a8.23,8.23,0,0,1-4.983-6.22,7.8,7.8,0,0,1,2.685-7.223L41.428,268.4a6.275,6.275,0,0,0,2.2-3.842,6.008,6.008,0,0,0-3.26-6.221l-7.828-3.914a7.714,7.714,0,0,1-4.331-6.244,7.3,7.3,0,0,1,3.1-6.6l9.79-6.992a5.982,5.982,0,0,0,.658-9.342l-10.3-9.52a8.3,8.3,0,0,1-2.533-8.066,7.828,7.828,0,0,1,5.313-5.642l.262-.084a7.6,7.6,0,0,1,5.485.268c8.532,3.779,26.85,11.885,40.5,17.925a13.145,13.145,0,0,0,17.344-17.32l-9.642-21.237a15.014,15.014,0,0,1,1.9-15.8c3.777-4.792,10.568-6.659,16.5-5.229,2.807.675,6.041,1.516,8.818,2.3a6,6,0,0,0,3.279-11.55c-2.932-.825-6.236-1.681-9.2-2.4-10.369-2.5-21.793.815-28.53,9.084a27.135,27.135,0,0,0-3.691,28.555l9.51,20.938.072.164a1.061,1.061,0,0,1-.239,1.284,1.033,1.033,0,0,1-1.263.234c-13.65-6.039-31.966-14.144-40.495-17.922a19.693,19.693,0,0,0-14.02-.721l-.1.033A20,20,0,0,0,23.1,224.346l5.1,4.708-3.462,2.474a19.944,19.944,0,0,0-8.47,17.809,19.291,19.291,0,0,0,10.654,15.687l-3.785,3.244A20.461,20.461,0,0,0,16.021,286.778Z"/></svg>
