<svg id="Layer_1" height="512" viewBox="0 0 512 512" width="512" xmlns="http://www.w3.org/2000/svg" data-name="Layer 1"><path d="m342.643 191.193a8.969 8.969 0 0 0 -2.264-2.423l-58.815-43.27a9.061 9.061 0 0 0 -6.743-1.636l-38.009 6.06a9 9 0 0 0 -4.4 2.018l-37.702 31.911-6.334-3.063 54.481-85.943a7.23 7.23 0 0 0 1.046-2.794l6.642-43.6a7.221 7.221 0 0 0 -1.239-5.268l-21.167-30.1a7.26 7.26 0 0 0 -5.934-3.085h-38.728a7.262 7.262 0 0 0 -5.929 3.073l-25.787 36.546a7.229 7.229 0 0 0 -1.064 6.153l4.36 15.562 2.255 28.166a10.255 10.255 0 0 0 4.586 7.784l13.294 8.8-29.968 42.406a9.711 9.711 0 0 0 -1.742 6.517l6.692 71.216a9.662 9.662 0 0 0 4.259 7.153l63.275 42.373v58.961l-32.429 2.021a6 6 0 0 0 -5.5 4.762l-6.254 29.947a6 6 0 0 0 9.622 5.912l34.561-27.657v96.755l-26.219 36.019a6 6 0 0 0 4.851 9.531h27.368a6 6 0 0 0 6-6v-140.016l59.486-3.708.127-.008a7.883 7.883 0 0 0 5.942-12.154l-41.677-64.078 73.2-31.984 32.894-.447a9.012 9.012 0 0 0 7.471-13.849zm-153.958 176.357 1.906-9.127 10.3-.643zm29.023 122.45h-9.579l9.579-13.16zm132.261-264.9-54.386-20.5 38.912-3.845zm-167.4-33.785 7.04 3.405v12.98a9.071 9.071 0 0 0 2.721 6.456l12.841 12.52-6.458 31.914-36.228-24.261zm23.669 19.641 35.649-13.781 9.324 3.516 2.521 32.358-24.492.333zm72.609-52.556 42.886 31.554-51.491 5.088-18.073-6.813zm-13.092 74.486-2.144-27.519 70.525 26.589zm-26.226-71.242 23.7-3.778-24.874 27.812-36.742 14.2v-6.142zm-23.16-102.026-4.824-4.287 12.43-27.307 12.354 17.57zm-30.484 30.564 1.982-12.274 16.119-13.241 4.137 3.677-19.793 28.321zm.05-68.182h27.6l-14.035 30.82-16.6 13.634-6.774-7.449a6.508 6.508 0 0 0 -8.646-.879l-3.046 2.218-1.581-5.64zm-18.695 51.148 3.329-2.423 5.352 5.884-1.953 12.091a10.351 10.351 0 0 0 .532 5.3l3.636 9.641-8.926-5.91zm17.96 49.563.331.22a6.564 6.564 0 0 0 9.762-7.793l-1.835-4.866 27.01-38.647c.091-.13.17-.265.251-.4l15.921-11.186-4.45 29.222-57.551 90.788a5.715 5.715 0 0 0 -.369.674l-14.37 30.768-4.394-46.764zm96.154 218.031-51.648 3.219v-57.491l12.732-5.563zm-57.041-65.011-14.82-9.924 5.9-29.165 6.359 6.2a8.931 8.931 0 0 0 6.27 2.554h.131l67.694-.921z"/></svg>