<svg id="Layer_1" height="512" viewBox="0 0 512 512" width="512" xmlns="http://www.w3.org/2000/svg" data-name="Layer 1"><path d="m498.932 213.551-24.752-13.859 10.576-21.624a6 6 0 0 0 -2.777-8.037l-115.488-55.858-87.186-89.4a6 6 0 0 0 -8.646.057l-14.013 14.752-16.84-15.09a6 6 0 0 0 -8.326.306l-88.289 91.677-121.291 53.467a6 6 0 0 0 -2.367 9.108l16.121 21.328-22.677 13.222a6 6 0 0 0 -2.2 8.142l59.94 105.7 10.246 126.8a6 6 0 0 0 7.267 5.377l32.065-7.04 4.565 31.324a6 6 0 0 0 7.374 4.96l122.58-30.23 123.526 30.233a6 6 0 0 0 7.308-4.641l5.722-28.367 34.479 7.39a6 6 0 0 0 7.248-5.543l7.035-130.305 61.062-105.61a6 6 0 0 0 -2.262-8.239zm-219.625 73.118a25.807 25.807 0 0 0 1.272-2.394l147.4 45.713-6.086 112.783zm-30.5 161.087-105.676 26.064 103.311-176.975q1.156.531 2.37.948zm-156.964-7.84-8.877-109.916 151.094-45.148a25.833 25.833 0 0 0 2.129 3.531zm52.865-311 93.53 127.005a25.9 25.9 0 0 0 -3.8 5.307l-195.228-85.804zm320.3 46.239-187.741 82.096a26.014 26.014 0 0 0 -4.736-4.546l92.287-126.011zm-385.552 143.37-51.53-90.871 201.885 45.946zm177.725-31.333a13.779 13.779 0 1 1 13.809-13.778 13.809 13.809 0 0 1 -13.809 13.778zm25.785-14.741a25.781 25.781 0 0 0 -.3-3.129l201.431-41.928-52.672 91.1zm196.1-56.269-148.72 30.958 136.454-59.663-5.889 12.041a6 6 0 0 0 2.458 7.872zm-215.192 28.034 16.067-201.606 75.148 77.059zm-2.541-192.144 6.349-6.684-11.082 139.028-13.373-140.746 9.752 8.739a6 6 0 0 0 8.354-.337zm-30.269-9.543 19.571 205.949q-1.23.322-2.412.761l-93.7-127.234zm-181.764 156.008-6.3-8.337 134.856 59.27-145.7-33.157 15.383-8.972a6 6 0 0 0 1.763-8.8zm74.72 240.941-19.2 4.215 108.488-113.893-79.042 135.4-3.021-20.731a6 6 0 0 0 -7.224-5zm136.792-140.546a25.624 25.624 0 0 0 8.8-2.936l98.288 177.962-107.088-26.21zm127.138 143.922a6 6 0 0 0 -7.138 4.68l-3.691 18.3-75.829-137.3 108.744 119.054z"/></svg>