<svg id="Layer_1" height="512" viewBox="0 0 512 512" width="512" xmlns="http://www.w3.org/2000/svg" data-name="Layer 1"><path d="m255.681 164.979a39.793 39.793 0 0 0 18.944 46.239 39.942 39.942 0 0 0 37.275 68.482 39.763 39.763 0 0 0 12.786 32.116l-49.436 167.555a17.635 17.635 0 1 0 33.827 9.983l49.444-167.57a39.745 39.745 0 0 0 28.167-20.014 39.943 39.943 0 0 0 68.485-37.279 39.942 39.942 0 0 0 22.067-74.785 39.943 39.943 0 0 0 -37.278-68.485 39.943 39.943 0 0 0 -74.785-22.067 39.943 39.943 0 0 0 -68.485 37.279 39.769 39.769 0 0 0 -41.011 28.546zm41.886 320.978a5.634 5.634 0 1 1 -10.808-3.189l48.4-164.029a40.166 40.166 0 0 0 10.808 3.188zm3.224-336.757a8.145 8.145 0 0 0 8.3-2.747 8.143 8.143 0 0 0 .938-8.7 27.922 27.922 0 0 1 49.008-26.676 8.085 8.085 0 0 0 14.636-1.554 27.922 27.922 0 0 1 53.517 15.79 8.083 8.083 0 0 0 11.447 9.25 27.922 27.922 0 0 1 26.676 49.009 8.084 8.084 0 0 0 1.554 14.635 27.922 27.922 0 0 1 -15.79 53.518 8.084 8.084 0 0 0 -9.251 11.447 27.922 27.922 0 0 1 -49.008 26.677 8.084 8.084 0 0 0 -14.635 1.553 27.922 27.922 0 0 1 -53.513-15.792 8.1 8.1 0 0 0 -11.447-9.25 27.922 27.922 0 0 1 -26.676-49.008 8.083 8.083 0 0 0 -1.553-14.634 27.923 27.923 0 0 1 15.8-53.517z"/><path d="m356.327 266.906a69.349 69.349 0 1 0 -41.215-33.339 69.094 69.094 0 0 0 41.215 33.339zm-35.327-82.653a57.346 57.346 0 1 1 4.654 43.578 56.885 56.885 0 0 1 -4.654-43.578z"/><path d="m363.414 242.889a43.965 43.965 0 0 0 33.667-3.575 44.235 44.235 0 1 0 -33.667 3.575zm44.447-37.989a32.251 32.251 0 0 1 -48.951 22.946zm-.828-12.864-57.484 26.945a32.293 32.293 0 0 1 -4.8-10.313l57.1-27.348a32.485 32.485 0 0 1 5.184 10.712zm-62.018-.693a32.226 32.226 0 0 1 47.185-18.71l-48.144 23.059a32.624 32.624 0 0 1 .959-4.353z"/><path d="m14.518 150.968a39.79 39.79 0 0 0 36.062 34.589 39.942 39.942 0 0 0 61.84 47.492 39.758 39.758 0 0 0 24.709 24.177l22.73 173.208a17.635 17.635 0 0 0 34.97-4.588l-22.729-173.212a39.759 39.759 0 0 0 17.631-29.734 39.942 39.942 0 0 0 47.492-61.841 39.942 39.942 0 0 0 -10.145-77.309 39.942 39.942 0 0 0 -61.84-47.492 39.943 39.943 0 0 0 -77.311 10.147 39.943 39.943 0 0 0 -47.493 61.841 39.792 39.792 0 0 0 -25.916 42.722zm168.412 276.438a5.634 5.634 0 1 1 -11.173 1.467l-22.252-169.566c.114 0 .226.006.34.006a40.528 40.528 0 0 0 10.833-1.473zm-133.583-309.147a8.084 8.084 0 0 0 3.82-14.215 27.922 27.922 0 0 1 33.986-44.253 8.083 8.083 0 0 0 12.747-7.353 27.922 27.922 0 0 1 55.325-7.257 8.084 8.084 0 0 0 14.213 3.811 27.922 27.922 0 0 1 44.253 33.988 8.086 8.086 0 0 0 7.355 12.748 27.921 27.921 0 0 1 7.258 55.323 8.084 8.084 0 0 0 -3.812 14.214 27.922 27.922 0 0 1 -33.986 44.254 8.084 8.084 0 0 0 -12.749 7.353 27.922 27.922 0 0 1 -55.324 7.262 8.143 8.143 0 0 0 -5.879-6.485 8.009 8.009 0 0 0 -2.071-.272 8.167 8.167 0 0 0 -6.264 2.94 27.922 27.922 0 0 1 -44.254-33.986 8.084 8.084 0 0 0 -7.353-12.749 27.922 27.922 0 0 1 -7.265-55.323z"/><path d="m111.886 169.738a43.9 43.9 0 0 0 26.851 9.159 44.861 44.861 0 0 0 5.848-.383 44.235 44.235 0 1 0 -32.7-8.776zm22.749-67.045a32.22 32.22 0 0 1 36.156 27.767 32.718 32.718 0 0 1 .272 4.451l-43.963-30.279a32.243 32.243 0 0 1 7.535-1.939zm-18.42 9.014 52.139 35.909a32.223 32.223 0 0 1 -6.348 9.438l-52.584-35.572a32.456 32.456 0 0 1 6.793-9.775zm-9.615 22.354 44.777 30.291a32.359 32.359 0 0 1 -8.354 2.263 32.233 32.233 0 0 1 -36.155-27.765 32.438 32.438 0 0 1 -.268-4.789z"/><path d="m129.839 334.445a6 6 0 0 0 5.169-6.729l-.925-7.054a6 6 0 1 0 -11.9 1.561l.925 7.053a6 6 0 0 0 5.942 5.221 6.166 6.166 0 0 0 .789-.052z"/><path d="m132.88 403.725a6 6 0 0 0 5.942 5.22 6.191 6.191 0 0 0 .788-.051 6 6 0 0 0 5.168-6.73l-6.948-52.951a6 6 0 0 0 -11.9 1.56z"/><path d="m79.381 119a5.978 5.978 0 0 0 5.619-3.913 57.479 57.479 0 0 1 8.423-15.3 56.892 56.892 0 0 1 37.95-21.921 57.276 57.276 0 1 1 -43.705 82.521 6 6 0 1 0 -10.752 5.339 69.085 69.085 0 1 0 -3.212-54.7 5.989 5.989 0 0 0 5.677 7.974z"/></svg>