<svg id="Layer_1" height="512" viewBox="0 0 512 512" width="512" xmlns="http://www.w3.org/2000/svg" data-name="Layer 1"><path d="m16.662 280.467 76.744 54.764-11.796 60.639a7.412 7.412 0 0 0 10.49 8.111l1.085-.519-4.885 38.127a9.017 9.017 0 0 0 8.958 10.169 8.949 8.949 0 0 0 1.545-.134l101.221-17.766 33.02 40.662a7.389 7.389 0 0 0 11.706-.271l18.994 24.288a8.946 8.946 0 0 0 7.1 3.463h.112a8.95 8.95 0 0 0 7.125-3.636l59.719-80.282 47.852 8.626a7.4 7.4 0 0 0 8.678-8.117l30.223 7.515a9.02 9.02 0 0 0 11.052-10.306l-17.376-99.444 52.282-38.092a7.412 7.412 0 0 0 -1.271-12.735l25.921-17.581a9.025 9.025 0 0 0 .039-14.911l-76.464-52.451 11.117-57.276a7.42 7.42 0 0 0 -11.087-7.788l-4.945 2.953 14.779-42.834a9.023 9.023 0 0 0 -9.93-11.859l-103.018 16.256-34.706-48.676a7.42 7.42 0 0 0 -13.423 3.556l-.336 3.305-18.762-24.663a9.014 9.014 0 0 0 -15.039 1.046l-45.87 81.762-55.626-7.868a7.423 7.423 0 0 0 -7.494 11.01l1.085 1.916-40.3-9.116a9.021 9.021 0 0 0 -10.823 10.617l18.942 92.253-50.77 30.484a7.423 7.423 0 0 0 1.183 13.3l6.8 2.585-33.86 24.229a9.026 9.026 0 0 0 .01 14.686zm103.02-17.467 61.836-40.545-32.692 141.073-53.7 25.7zm185.31-80.242 34.208 50.775-15.733 70.948-49.872 35.425-69.178-12.8-26.865-34.378 18.491-79.792 56.154-36.82zm-204.279 256.347 5.355-41.811 46.276-22.146 39.017 48.046zm59.814-72.915 13.541-58.434 70.518 90.244-8.818 60.845zm110.257 121.873-22.884-29.263 8.04-55.471 68.669 12.378zm-16.575-97.241-38.644-49.452 129.221 23.916 32.29 47.684zm168.791 22.533-37.479-9.32-28.954-42.756 50.859-37.055zm-76.1-59.881-56.867-10.525 108.757-77.249 55.84 9.287zm137.916-113.014-32.416 21.987-48-7.984 11.847-61.041zm-92.916 15.41-53.846 38.248 29.758-134.191 48.308-28.854zm23.74-179.461-17.81 51.611-33.642 20.093-40.75-57.155zm-59.561 81-13.3 59.965-71.05-105.463 6.5-63.69zm-114.453-132.966 23.774 31.257-5.2 50.949-59.941-8.477zm20.431 94.586 34.031 50.514-127.3-16.024-29.368-51.833zm-175.011-13.994 46.431 10.5 23.471 41.425-52.742 31.668zm79.316 60.273 67.474 8.494-120.29 78.873-56.758-21.575zm-102.383 81.363 43.442 16.513-11.5 59.1-68.9-49.169z"/></svg>