<svg id="Layer_1" height="512" viewBox="0 0 512 512" width="512" xmlns="http://www.w3.org/2000/svg" data-name="Layer 1"><path d="m391.122 224.462c.062-.089-.066.085 0 0z"/><path d="m334.366 350.367a6 6 0 0 0 0-12h-11.49a6 6 0 0 0 0 12z"/><path d="m445.387 350.367a6 6 0 0 0 0-12h-87.642a6 6 0 0 0 0 12z"/><path d="m500.114 312.4a6.281 6.281 0 0 0 -4.348-1.63h-27.643a5.99 5.99 0 0 0 .659-4.775l-5.943-20.843-.026-.089-16.29-38.442a63.22 63.22 0 0 0 -54.154-38.213l3.979-9.358a63.1 63.1 0 0 0 -108.148-63.077l-25.37 33.442h-.006l-3.336 5.744a70.035 70.035 0 0 0 -138.494-8.536l-9.046 46.117h-.007l-.122 1.732a69.973 69.973 0 0 0 -66.342 88.256l2.2 8.046h-31.443a6.281 6.281 0 0 0 -4.348 1.63 6 6 0 0 0 -1.212 7.132l18.459 35.583a85.9 85.9 0 0 0 76.513 46.5h21.354a6 6 0 0 0 0-12h-21.354a73.942 73.942 0 0 1 -65.861-40.029l-13.913-26.82h460.256l-13.913 26.82a73.942 73.942 0 0 1 -65.861 40.029h-229.354a6 6 0 0 0 0 12h229.354a85.9 85.9 0 0 0 76.513-46.5l18.459-35.583a6 6 0 0 0 -1.212-7.136zm-108.16-89.624a4.021 4.021 0 0 1 -.832 1.686c-1.743 2.242-6.139 5.855-13.737 8.021-8.19 2.335-13.928 1.35-16.308.289l-1.188-.815c-.078-1.325 4.156-6.774 14.568-9.744a34.726 34.726 0 0 1 9.478-1.428c4.711 0 7.548 1.234 8.019 1.991zm-10.381-69.151a12.539 12.539 0 0 0 2.455-1.836 51.01 51.01 0 0 1 1.272 42.565l-6.2 14.591a63.57 63.57 0 0 0 -8.181 1.753c-.579.165-1.145.353-1.716.533l6.905-15.222a73.274 73.274 0 0 0 5.465-42.384zm-33.113-27.718a11.384 11.384 0 0 1 1.561-.1c3.043 0 7.971.969 13.9 4.414 9.277 5.387 12.076 11.647 11.734 12.99a3.92 3.92 0 0 1 -1.773.567l-.051.007c-2.829.3-8.454-.37-15.274-4.332-7.369-4.28-10.64-9.1-11.524-11.547a1.722 1.722 0 0 1 1.427-1.999zm-50.708 17.33a50.81 50.81 0 0 1 37.49-19.942 12.277 12.277 0 0 0 -.264 1.221 73.293 73.293 0 0 0 -36.178 26.484l-10.35 14.3a6 6 0 0 0 9.721 7.035l10.35-14.3a61.229 61.229 0 0 1 29.328-21.8c.158.26.315.52.486.781a46.293 46.293 0 0 0 31.421 18.684 61.231 61.231 0 0 1 -4.578 35.351l-7.254 15.991a6 6 0 0 0 2.508 7.7 62.5 62.5 0 0 0 -16.078 11.366 105.113 105.113 0 0 1 -69.29-53.04zm-30.376 74.819q-2.767-.062-5.549.1l-.419-7.824q2.822 3.989 5.968 7.724zm-76.876-95.577q1.567 0 3.275.119c12.722.9 19.037 6.354 18.914 8.077-.035.489-.776 1.292-1.9 2.042.062-.044-.008 0-.021.013-2.948 1.841-9.145 3.9-17.947 3.272-10.014-.71-16.161-4.385-18.221-6.7l-.017-.02a2.687 2.687 0 0 1 -.676-1.361c.111-1.565 5.94-5.442 16.593-5.442zm-57.728 46.463a57.725 57.725 0 0 1 29.223-39.587 12.706 12.706 0 0 0 .61 2.7 81.465 81.465 0 0 0 -23.518 44.454l-3.371 19.509a6 6 0 1 0 11.824 2.043l3.371-19.509a69.421 69.421 0 0 1 19.425-37.272c5.35 3.6 12.9 6.07 21.64 6.69q2.083.147 4.093.146a44.266 44.266 0 0 0 16.369-2.874 69.406 69.406 0 0 1 13.294 38.719l.582 19.687a6 6 0 0 0 5.994 5.823h.18a6 6 0 0 0 5.82-6.175l-.582-19.688a81.446 81.446 0 0 0 -15.565-45.392 13.278 13.278 0 0 0 2.078-4.273 57.958 57.958 0 0 1 23.39 43.4l2.259 42.187a117.561 117.561 0 0 1 -30.19 11.143 70.193 70.193 0 0 0 -29.29-8.742 69.362 69.362 0 0 0 -32.783 5.669 117.379 117.379 0 0 1 -33.082-16.958zm116.565 64.274-.74 10.438c-2.775 1.5-5.617 2.879-8.5 4.149a70.794 70.794 0 0 0 -7.71-8.075 129.355 129.355 0 0 0 16.946-6.512zm-40.591 8.835c-.124 1.723-7.148 6.228-19.865 5.326-5.781-.409-11.266-1.928-15.047-4.166-3.005-1.778-3.9-3.4-3.866-3.91.111-1.569 5.94-5.446 16.587-5.446q1.571 0 3.277.119c12.719.902 19.032 6.354 18.91 8.077zm-85.588-17.779a129.017 129.017 0 0 0 20.968 11.128 70.206 70.206 0 0 0 -8.744 7.638 118.8 118.8 0 0 1 -12.968-8.33zm-45.14 15.29c2.882-3.315 7.608-6.486 12.965-8.7 9.972-4.115 17.465-3.336 19.812-1.907l-.26 3.673c-1.922 3.095-6.6 7.428-14.423 10.656-11.792 4.866-19.873 2.8-20.532 1.206-.198-.468.142-2.29 2.434-4.928zm-17.893 71.208-3.074-11.218a57.726 57.726 0 0 1 8.5-48.465 12.692 12.692 0 0 0 1.755 2.142 81.469 81.469 0 0 0 -1.224 50.282l2.175 7.259zm50.46 0h-29.8l-3.208-10.7a69.423 69.423 0 0 1 .763-42.026 31.857 31.857 0 0 0 4.15.27 48.5 48.5 0 0 0 18.2-3.931 49.726 49.726 0 0 0 15.194-9.59 130.5 130.5 0 0 0 11.816 7.687 69.346 69.346 0 0 0 -10.648 25.52zm20.626 0h-8.4l6.009-30.452a57.74 57.74 0 0 1 29.214-39.586 12.794 12.794 0 0 0 .6 2.719 81.451 81.451 0 0 0 -23.5 44.437zm12.954 0 2.8-20.839a69.414 69.414 0 0 1 19.4-37.247c.436.29.885.576 1.353.853 5.409 3.2 12.622 5.266 20.31 5.811q2.026.142 4.019.142a45.29 45.29 0 0 0 16.454-2.856 69.4 69.4 0 0 1 13.284 38.7l.456 15.431zm90.08 0-.466-15.786a81.453 81.453 0 0 0 -15.542-45.362 13.3 13.3 0 0 0 2.06-4.3 57.957 57.957 0 0 1 23.386 43.4l1.18 22.05zm63.772-5.889-2.166 5.889h-38.971l-1.215-22.691a69.432 69.432 0 0 0 -8.733-30.208c3.543-1.634 7.031-3.412 10.408-5.354a6 6 0 0 0 2.994-4.777l.157-2.216q1.006-.464 2.028-.9c3.623 5.336 9.707 10.439 17.587 14.272a47.64 47.64 0 0 0 20.011 5.12 69.406 69.406 0 0 1 -2.1 40.865zm7.757-54.311c-.222.457-1.811 1.415-5.3 1.453-4.427.046-9.9-1.378-15.116-3.914-11.469-5.578-15.3-12.992-14.541-14.544.354-.726 2.333-1.455 5.514-1.455a34.935 34.935 0 0 1 14.905 3.915c5.213 2.536 9.737 5.99 12.411 9.475 2.123 2.771 2.353 4.612 2.127 5.07zm15.043 56.288-1.365 3.912h-10.816l.642-1.747a81.448 81.448 0 0 0 2.485-47.888 13.28 13.28 0 0 0 3.516-3.225 57.9 57.9 0 0 1 5.538 48.948zm10.488-62.434a104.781 104.781 0 0 1 -15.379-5.12 69.984 69.984 0 0 0 -28.326-17.747 103.7 103.7 0 0 1 -23.7-30.1l3.96-6.817a117.3 117.3 0 0 0 68.029 51.687 63.323 63.323 0 0 0 -4.584 8.097zm11.555 66.346-4.939-31.87a50.806 50.806 0 0 1 11.669-40.86 12.12 12.12 0 0 0 .692 1.026 73.3 73.3 0 0 0 -6.05 44.462l3.116 17.374a6 6 0 0 0 5.9 4.943 6.128 6.128 0 0 0 1.065-.1 6 6 0 0 0 4.848-6.965l-3.115-17.375a61.215 61.215 0 0 1 4.662-36.284 32.692 32.692 0 0 0 7.253.774 46.725 46.725 0 0 0 12.716-1.878 43.477 43.477 0 0 0 16.193-8.317 61.234 61.234 0 0 1 22.266 27.814l6.482 16.319a6 6 0 0 0 11.153-4.43l-6.483-16.32a73.289 73.289 0 0 0 -26.688-33.317 12.515 12.515 0 0 0 .362-3.061 51 51 0 0 1 31.518 28.61l14.575 34.278a105.137 105.137 0 0 1 -34.585 25.177zm109.072 0h-12.378a117.753 117.753 0 0 0 14.636-12.189l2.162 7.579c-1.423 1.588-2.909 3.116-4.42 4.61z"/></svg>