<svg id="Layer_1" height="512" viewBox="0 0 512 512" width="512" xmlns="http://www.w3.org/2000/svg" data-name="Layer 1"><path d="m85.194 192a5.976 5.976 0 0 0 2.54-.567l8-3.743a6 6 0 0 0 -5.088-10.867l-8 3.742a6 6 0 0 0 2.548 11.435z"/><path d="m18.544 223.826 50.4-23.6a6 6 0 1 0 -5.088-10.867l-50.4 23.6a6 6 0 1 0 5.088 10.867z"/><path d="m501.887 354.837-15.875-80.548h-.012a5.993 5.993 0 0 0 -4.036-4.553l-35.979-11.583 19.56-57.727a6 6 0 0 0 -.79-5.4l-61.993-87.348a6.01 6.01 0 0 0 -5.8-2.459c-.056.008-.109.027-.165.037v-.009l-83.915 15.216a6 6 0 0 0 -4.687 4.211l-5.65 19.226-75.323-54.707a6 6 0 0 0 -5.39-.848l-36.327 11.866a6 6 0 1 0 3.726 11.407l33.416-10.918 69 50.113-87.437 27.426-69.125-48.933 6.149-2.009a6 6 0 0 0 -3.726-11.407l-17.279 5.645a6.237 6.237 0 0 0 -3.94 3.583 6.068 6.068 0 0 0 -.346 1.462h-.02l-8.544 69.611-90.313 42.278a6 6 0 0 0 -3.454 5.265c0 .057.007.112.007.168h-.009v85.284a6 6 0 0 0 3.308 5.362l87.7 44.028a6 6 0 0 0 5.172.1l75.161-34.114 2.084 12.818a6 6 0 0 0 2.949 4.249l92.538 52.771a6 6 0 0 0 6.491-.351l23.31-16.871a5.931 5.931 0 0 0 .855.313l94.554 26.239a6 6 0 0 0 5.094-.9l86.663-61.955a6 6 0 0 0 2.398-6.038zm-34.954-77.332-74.542 53.295-80.928-24.971 74.3-54.452zm-174.3-74.517-29.62 8.988-13.813-7.662a5.976 5.976 0 0 0 -1.2-.487l46.314-14.527zm-1.567 12.763-1.354 11.036-12.59-6.985 13.944-4.05zm-37.554 93.328a6 6 0 0 0 2.974 4.419l41.418 23.619 3.457 17.539-59.146-33.729-14.7-90.374 14.153-10.242zm41.23-5.88a6 6 0 0 0 -2.37 5.835c.009.056.029.108.039.164h-.011l2.435 12.355-29.823-17.007-11.2-83.949 80.551 44.683.987 8.154zm105.141-178.842 53.317 75.121-18.636 55-34.177-11-26.7-38.578zm-10.827-5.508-27.7 85.162a6 6 0 0 0 .772 5.271l20.61 29.778a6 6 0 0 0 -1.6.823l-9.475 6.944-25.621-37.016 25.824-87.845zm-30.4 5.512-24.932 84.815a6 6 0 0 0 .823 5.107l27.436 39.64-9.9 7.253-32.263-46.612 25.824-87.844zm-48.886 37.516 8.9-30.265 13.767-2.5-24.937 84.818a6 6 0 0 0 .823 5.107l20.306 29.338-27.6-15.31zm-183.161-23.868 73.091 51.742a5.994 5.994 0 0 0 5.263.827l92.763-29.1-1.809 14.741-95.217 29.872-76.214-50.743zm-3.764 30.666 73.586 48.993a5.992 5.992 0 0 0 5.121.73l39.354-12.343-31.352 22.689-12.1 3.8-76.219-50.744zm-6.456 36.545 74.584 41.334-83.439 37.87-74.572-40.148zm-90.779 48.727 78.854 42.453a6 6 0 0 0 5.323.181l88.527-40.18v14.852l-90.876 41.247-81.828-41.083zm0 30.9 79.005 39.665a6.006 6.006 0 0 0 5.172.1l88.527-40.179v13.467l-90.876 41.246-81.828-41.082zm81.828 81.721-81.828-41.084v-13.992l79.005 39.664a6 6 0 0 0 5.172.1l88.527-40.18v14.241zm177.671 35.5-86.693-49.437-2.146-13.2 10.524-4.777a5.964 5.964 0 0 0 1.243-.774l1.208 7.431a6 6 0 0 0 2.949 4.249l84.453 48.159zm22.214-16.076-86.694-49.437-10.315-63.435v-26.032h-.014a5.98 5.98 0 0 0 -1.017-3.337l7.36-5.326 14.188 87.257a6 6 0 0 0 2.949 4.249l70.649 40.288 3.081 15.632zm-1.2-69.254 85.573 26.4a6 6 0 0 0 5.258-.853l79.088-56.539 2.872 14.571-81.186 58.039-88.228-24.482zm5.974 30.313 85.183 23.639a6 6 0 0 0 5.094-.9l79.087-56.539 2.6 13.216-81.183 58.033-88.227-24.483zm96.083 64.349-88.227-24.483-2.7-13.728 85.183 23.638a5.994 5.994 0 0 0 5.093-.9l79.087-56.54 2.754 13.973z"/></svg>