<svg id="Layer_1" height="512" viewBox="0 0 512 512" width="512" xmlns="http://www.w3.org/2000/svg" data-name="Layer 1"><path d="m57.621 117.279h73.362l.63 62.465a24.2 24.2 0 0 0 6.877 16.7l133.124 136.9v66.841a9.131 9.131 0 0 0 2.7 6.5l89.469 89.4a9.186 9.186 0 0 0 15.485-4.612l22.732-108.31a9.166 9.166 0 0 0 -1.127-6.641l-95.3-157.841 150.527-89.601a15.657 15.657 0 0 0 1.91-25.57l-49.4-40.437 36.761-37.111a9.368 9.368 0 0 0 -6.65-15.962h-131.612a6 6 0 0 0 -4.286 1.8l-89.4 91.244-69.26-66.623a11.862 11.862 0 0 0 -15.925-.509l-76.662 64.845a9.368 9.368 0 0 0 6.045 16.522zm89.386 70.7 45.258-46.192 83.663 36.442a6 6 0 0 0 -4.314 5.752v.337l-64.68 65.3-59.84-61.535c-.031-.036-.057-.071-.087-.103zm154.1-33.437-14.923 15.066-84.932-37 99.857-101.908zm-85.807 103.676 56.313-56.848v114.756zm104.627 91.859 39.173 124.371-73.73-73.673zm7.73-15.4a21.27 21.27 0 0 1 -.845-8.889l4.743-40.857 56.215 93.107-40.613 18.548zm-12.763-10.277a33.13 33.13 0 0 0 .548 10.948l-31.828 46.7v-102.915l24.132-33.633 13.678 22.653zm-31.28-65.856v-53.02l17.386 28.794zm87.405 213.789-20.228-64.218 37.284-17.027zm-84.8-285.711 69.888-70.552 4.607 55.818-61.344 36.516zm164.188-73.822a3.658 3.658 0 0 1 -.446 5.974l-77.769 46.292-4.969-60.207 32.9-33.218zm-137.3 29.634v-120.434h119.3zm-108.081-30.818-61.466 62.735-1.242-123.051zm-74.726-61.73.559 55.393h-66.047z"/></svg>