<svg id="Layer_1" height="512" viewBox="0 0 512 512" width="512" xmlns="http://www.w3.org/2000/svg" data-name="Layer 1"><path d="m61.363 264.774c-8.8 24.938 3.765 60.955 24.9 71.37 6.309 3.107 16.629 5.6 28.7-1.422a36.869 36.869 0 0 0 1.717 16.667c3.64 10.209 12.108 18.206 24 22.785 4.449 14.583 13.29 27.453 24.581 33.015 6.311 3.11 16.639 5.607 28.716-1.431-1.427 12.4 2.525 23.209 11.849 31.316 9.451 8.217 23.111 12.325 36.773 12.325s27.32-4.108 36.771-12.325c9.324-8.107 13.276-18.913 11.85-31.316 12.078 7.038 22.4 4.539 28.716 1.431a32.89 32.89 0 0 0 3.334-1.914 65.325 65.325 0 0 0 22.922 4.008c15.289 0 31-4.953 40.5-15.906 4.443-5.122 9.63-14.159 8.146-27.536 12.056 7 22.364 4.508 28.666 1.4 21.137-10.414 33.7-46.432 24.9-71.37-2.279-6.458-8.41-18.311-23.465-22.74a25.638 25.638 0 0 0 7.633-12.225c2.948-10.841-1.719-23.46-12.81-35.1 6.558-14.652 8.527-32.543 3.49-46.812-2.274-6.444-8.382-18.261-23.365-22.712a25.1 25.1 0 0 0 8.089-22.934c-1.706-11.5-10.416-23.778-23.9-33.674-13.122-9.633-28.2-14.857-40.31-13.955-8.625.636-15.805 4.271-20.762 10.513a29.508 29.508 0 0 0 -1.992 2.836 29.687 29.687 0 0 0 -1.992-2.836c-4.958-6.242-12.137-9.877-20.762-10.513-7.358-.546-15.828 1.181-24.283 4.781-15.531-15.324-40.4-26.393-58.3-19.559a27.26 27.26 0 0 0 -13.7 11.382c-4.884-7.949-12.61-12.6-22.72-13.349-12.107-.891-27.189 4.323-40.311 13.955-13.481 9.9-22.192 22.17-23.9 33.674a25.1 25.1 0 0 0 8.123 22.965 34.318 34.318 0 0 0 -14.093 7.985c-9.51 9.019-13.681 23.577-11.675 40.328-11.686 9.436-19.2 20.666-20.765 31.248a25.1 25.1 0 0 0 8.089 22.935c-14.974 4.452-21.085 16.267-23.36 22.71zm253.27 131.651c-13.885 6.837-26.627-6.855-34.874-19.546a6 6 0 1 0 -10.063 6.539c15.844 24.381 9.725 37.711 1.8 44.6-14.313 12.444-43.48 12.446-57.8 0-7.924-6.89-14.043-20.22 1.8-44.6a6 6 0 0 0 -10.063-6.539c-14.94 22.994-27.21 23.323-34.874 19.546-15.783-7.777-25.669-37.4-18.889-56.612 6.317-17.9 23.947-18 37.625-14.921a6 6 0 0 0 7.169-4.54 6.1 6.1 0 0 0 .146-1.319 6 6 0 0 0 -4.686-5.85c-22.056-4.952-25.455-14.288-24.423-21.249 2.6-17.529 31.942-38.862 51.456-37.423 11.7.863 17.637 9.866 17.637 26.758a6 6 0 0 0 12 0c0-16.892 5.933-25.9 17.636-26.758 19.5-1.434 48.856 19.894 51.455 37.423 1.033 6.961-2.367 16.3-24.422 21.249a6 6 0 0 0 2.628 11.709c13.677-3.074 31.307-2.977 37.625 14.921 6.784 19.208-3.1 48.835-18.883 56.612zm-72.94-141.9c.474.2.935.417 1.388.644-.161.243-.327.48-.481.73q-.438-.71-.907-1.379zm179.3 3.24c-2.406 8.849-14.465 13.3-24.157 15.476a6 6 0 0 0 2.629 11.709l.029-.007c13.673-3.063 31.283-2.955 37.6 14.928 6.779 19.207-3.107 48.836-18.89 56.613-7.659 3.774-19.918 3.451-34.849-19.507l-.026-.039a6 6 0 1 0 -10.062 6.539l.031.048c7.966 12.273 15.167 29.5 4.333 41.994-8.926 10.292-27.988 14.368-44.251 10.393 12.457-15.637 18.174-41.076 11.464-60.088-2.275-6.444-8.382-18.26-23.365-22.712a24.921 24.921 0 0 0 8.289-21.172c16.5-2.124 30.047-10.2 36.25-21.957a35.733 35.733 0 0 0 3.673-21.018c12.055 7 22.364 4.508 28.666 1.4 5.782-2.848 10.916-7.622 15.154-13.553 6.223 7.5 9.051 15.171 7.48 20.948zm-123.617-160.081c11.7.863 17.637 9.866 17.637 26.757a6 6 0 0 0 12 0c0-16.891 5.933-25.894 17.636-26.757 19.525-1.416 48.856 19.895 51.455 37.422 1.033 6.961-2.366 16.3-24.421 21.249a6 6 0 0 0 2.629 11.709c13.677-3.07 31.307-2.976 37.624 14.922 6.779 19.206-3.107 48.835-18.889 56.612-13.883 6.838-26.628-6.855-34.875-19.546a6 6 0 0 0 -10.063 6.539l.02.029c9.812 15.112 12.327 28.169 7.268 37.759-4.591 8.7-15.493 14.58-28.967 15.845-3.944-8.356-11.126-16.649-20.766-23.725a78.621 78.621 0 0 0 -20.538-10.93c1.449-5.844 4.388-12.2 8.788-18.975a6 6 0 1 0 -10.062-6.539c-8.532 13.129-17.469 20.491-25.846 21.292a17.8 17.8 0 0 1 -11.839-3.429 25.11 25.11 0 0 0 4.395-18.786c-1.609-10.85-9.453-22.383-21.649-31.962 1.219-5.577 3.932-12.013 9.871-16.162 6.784-4.737 16.518-5.726 28.928-2.941a6 6 0 0 0 2.629-11.709c-22.056-4.951-25.454-14.288-24.422-21.249 2.601-17.531 31.958-38.863 51.457-37.425zm-180.039 58.575c6.779-6.43 17.338-8.092 31.377-4.939a6 6 0 0 0 2.629-11.709h-.025c-22.033-4.953-25.429-14.286-24.4-21.244 2.6-17.528 31.934-38.863 51.456-37.423 11.7.864 17.637 9.867 17.637 26.758a6 6 0 1 0 12 0c0-13.926 4.018-22.52 11.942-25.546 9.8-3.738 28.2 1.249 42.8 14.246q-2.437 1.542-4.808 3.275c-13.481 9.9-22.191 22.17-23.9 33.674a25.1 25.1 0 0 0 8.087 22.933 35.258 35.258 0 0 0 -10.223 4.888 35.982 35.982 0 0 0 -13.524 18.946c-10.9-6.161-22.4-9.323-32.035-8.614-8.625.637-15.8 4.272-20.762 10.514a29.805 29.805 0 0 0 -1.991 2.836 29.822 29.822 0 0 0 -1.993-2.836c-4.957-6.242-12.136-9.877-20.761-10.514-9.6-.709-21.044 2.428-31.909 8.543-.005-10.047 2.925-18.592 8.403-23.788zm-44.658 112.51c6.317-17.9 23.945-18 37.625-14.921a6 6 0 0 0 7.169-4.54 6.1 6.1 0 0 0 .146-1.319 6 6 0 0 0 -4.686-5.85c-22.056-4.952-25.455-14.289-24.423-21.25 2.6-17.529 31.95-38.872 51.457-37.422 11.7.863 17.636 9.865 17.636 26.757a6 6 0 0 0 12 0c0-16.892 5.933-25.894 17.635-26.757 19.557-1.446 48.858 19.894 51.456 37.422 1.033 6.961-2.366 16.3-24.422 21.25a5.961 5.961 0 0 0 -1.432.527c-10.624 1.067-22.614 5.986-33.305 13.833-13.481 9.9-22.192 22.17-23.9 33.674a25.1 25.1 0 0 0 8.09 22.935c-14.981 4.452-21.092 16.268-23.367 22.711a56.327 56.327 0 0 0 -2.579 23.48 24.305 24.305 0 0 1 -9.8-11.94c-3.3-9.242-.348-21.339 8.52-34.986a6 6 0 0 0 -10.063-6.539c-14.943 23-27.215 23.319-34.875 19.546-15.776-7.78-25.661-37.404-18.882-56.611z"/><path d="m75.323 363.548a6 6 0 0 0 -1.584 8.336c1.77 2.6 3.608 5.193 5.463 7.707a6 6 0 0 0 9.656-7.125c-1.765-2.393-3.514-4.861-5.2-7.334a6 6 0 0 0 -8.335-1.584z"/><path d="m103.2 390.06a6 6 0 1 0 -8.924 8.023 245.828 245.828 0 0 0 72.205 55.286 6 6 0 1 0 5.412-10.711 233.841 233.841 0 0 1 -68.693-52.598z"/><path d="m255.7 10a246.037 246.037 0 0 0 -244.04 217.325 6 6 0 0 0 11.916 1.383 234.016 234.016 0 0 1 397.887-138.171 234 234 0 0 1 -330.926 330.926 232.218 232.218 0 0 1 -67.561-144.025 5.982 5.982 0 0 0 -5.964-5.438 6.006 6.006 0 0 0 -5.983 6.534 246 246 0 0 0 490.971-22.534 246 246 0 0 0 -246.3-246z"/></svg>