<svg id="Layer_1" height="512" viewBox="0 0 512 512" width="512" xmlns="http://www.w3.org/2000/svg" data-name="Layer 1"><path d="m90.051 193.064 24.5 20.717 85.589 194.332-60.424 41.65a8.582 8.582 0 0 0 .862 14.652l69.111 36.5a8.641 8.641 0 0 0 4.018.99 8.421 8.421 0 0 0 1.278-.1l151.631-23.151a8.626 8.626 0 0 0 5.649-3.447l52.266-72.169a8.632 8.632 0 0 0 1.254-7.547l-31.348-102.3a8.532 8.532 0 0 0 -2.924-4.247l-93.579-73.019 30.748-27.225a10.74 10.74 0 0 0 3.193-12.5l-9.075-51.122a6.025 6.025 0 0 0 -.673-1.884 10.886 10.886 0 0 0 -.625-.979l.853-100a6.588 6.588 0 0 0 -10.538-5.332l-68.6 51.413a10.7 10.7 0 0 0 -1.625-.123h-68.458l-71.216-56.738a6.588 6.588 0 0 0 -10.69 5.246l1.344 97.428a10.655 10.655 0 0 0 -1.548 2.73 6.009 6.009 0 0 0 -.379 1.72l-4.433 63.2a10.712 10.712 0 0 0 3.839 11.305zm8.083-9.758 3.331-47.505 65.864 106.9-69.3-58.606a6.112 6.112 0 0 0 .105-.789zm43.4-99.286-16.3-38.671 34.733 27.67zm29.87-3.852h30.596l-.341 108.284-83.078-47.752-13.07-21.212zm138.175 32.986-19.164-13.335 19.585-36.193zm.641-75.146-29.72 54.913-3.267-2.274 33-55.175zm-42.856 45.768-12.86-8.95 33.011-24.741zm40.8 43.013-20.226 31.056-74.275 31.844.337-109.521h27.169zm-87.169 141.22-11.595 10.263-13.4-11.33 12.941-9.469zm-7.132 145.526 128.79-75.747-124.378 143.26zm153.483-104.194-146.417 86.114 75.212-165.71 83.645 65.267zm-153.285 72.211 1.387-92.642c.137-.108.276-.212.408-.328l67.54-59.791zm.312-135.27a7.864 7.864 0 0 0 -9.874-.428l-14.564 10.656-58.151-94.378 72.857 41.868a6 6 0 0 0 5.354.313l66.142-28.358-51.591 79.218zm-109.91-140.14-.6-43.565 14.2 35.446zm30.982 125.309 67.73 57.275c.088.074.181.138.271.208l-1.4 93.729zm66.888 189.725 4.219 64.507-55.379-29.243zm211.479-23.8-50.426 69.629-134.911 20.595 157.425-181.321zm-170.343-149.266 69.923-107.365 6.809 38.348a5.936 5.936 0 0 0 .228.886zm-137.843-218.379 25.5 60.5-2.626 1.569-25.1-62.63-.017-1.222z"/></svg>