<svg id="Layer_1" enable-background="new 0 0 512 512" height="512" viewBox="0 0 512 512" width="512" xmlns="http://www.w3.org/2000/svg"><g><path d="m251.9 114.9c9.5 0 17.2-7.7 17.2-17.2s-7.7-17.2-17.2-17.2-17.2 7.7-17.2 17.2 7.7 17.2 17.2 17.2zm0-22.4c2.9 0 5.2 2.3 5.2 5.2s-2.3 5.2-5.2 5.2-5.2-2.3-5.2-5.2c0-2.8 2.3-5.2 5.2-5.2z"/><path d="m485.8 393.9-153-178.5 11-101 36.5-37.7c2.3-2.4 2.3-6 .1-8.3l-37.4-40c-1.7-1.8-4.2-2.4-6.5-1.5l-13.3 5.1-16.3-16.8c-3.2-3.3-8.5-3.4-11.8-.2l-34.8 40.8-8.9 3.4-7.9-3.2-32.8-42.7c-2.8-3.7-8-4.3-11.7-1.5l-17.6 18.7-15.7-6.5c-2.5-1-5.4-.2-7 1.9l-32.5 42.5c-1.7 2.3-1.6 5.5.3 7.6l34.3 38.5 11 101.1-145 183.7c-4.6 5.8-3.6 14.2 2.2 18.8l127.4 81.7c2.2 1.4 4.7 2.1 7.2 2.1h182.9c2.7 0 5.3-.8 7.5-2.3l128.2-87.1c6.1-4.1 7.7-12.5 3.6-18.6zm-184.7-367.5 9.9 10.2-27.4 10.4zm36 13.2 30.8 32.9-31.2 32-70.8-37.9zm-41.5 104.9v-48.4l36.1 19.3-8.8 81.7zm21.1 66.9h-54.6l27.5-52.5zm-65.3-139 32.2 17.2v12.9l-31.3 26.8-33.5-27.4 1.3-12.4zm-47.6-48.4 17.6 22.9-28.2-11.5zm-36 80.3-29.1-32.6 26.7-34.9 72.1 29.6zm45.2 53.1 29.2 54h-54.8zm-31.4 38.3-8.7-80.4 34.5-18.8-.7 46.1zm-145 213.1c-.7-.4-.8-1.3-.4-1.9 0 0 0-.1.1-.1l144.6-183.4h16.3l-133.2 203zm37.5 24.1 137.3-209.6h5l-105.4 233.2zm85.5 54.8-38.5-24.7 108.5-239.7h2zm11.9 2.3 72.7-266.7h2.1l1.3 266.7zm47.1-347.3v-25.5l28.4 23.2c3.2 2.6 7.7 2.5 10.9-.1l25.7-22v26.1l-31.5 60.1zm40.9 347.3-1.3-266.7h1.4l81 266.7zm92.6-3.5-80.9-263.2h4.2l114 237.8zm47.3-32.2-109.8-231h5.7l137.5 208.3zm76.1-51.6-32.7 22.2-133.1-201.6h14l152 177.2c.3.4.4.8.4 1.2s-.3.8-.6 1z"/></g></svg>