<svg id="Layer_1" height="512" viewBox="0 0 512 512" width="512" xmlns="http://www.w3.org/2000/svg" data-name="Layer 1"><path d="m47.529 185.507a6 6 0 0 0 -6 6v9.1a6 6 0 0 0 12 0v-9.1a6 6 0 0 0 -6-6z"/><path d="m47.529 219.754a6 6 0 0 0 -6 6v69.657a6 6 0 0 0 12 0v-69.657a6 6 0 0 0 -6-6z"/><path d="m465.466 128.194h-1.626v-21h9.66a6 6 0 0 0 6-6v-77.388a6 6 0 0 0 -6-6h-435a6 6 0 0 0 -6 6v77.388a6 6 0 0 0 6 6h9.66v21h-1.626a36.534 36.534 0 0 0 -36.534 36.535v252.059a77.406 77.406 0 0 0 77.406 77.406h337.188a77.406 77.406 0 0 0 77.406-77.406v-252.059a36.534 36.534 0 0 0 -36.534-36.535zm-420.966-98.388h423v27.91l-423 .816zm0 65.388v-24.662l423-.816v25.478zm160.341 381.372-12.039-.313a192.13 192.13 0 0 1 1.592-66.171l11.642.3a324.2 324.2 0 0 0 -1.195 66.184zm-6.509-78.386 12.253-12.391a29.58 29.58 0 0 0 4.192 12.818zm15.147-38.556-.452 3.2a16.549 16.549 0 0 1 -4.326 7.8l-23.077 23.339a16.574 16.574 0 0 1 -11.77 4.954 16.369 16.369 0 0 1 -9.079-2.627 203.914 203.914 0 0 0 46.385-45.918 16.677 16.677 0 0 1 2.319 9.252zm-32.931 115.6a17.838 17.838 0 0 1 -12.4-17.453l.792-30.5a17.854 17.854 0 0 1 13.163-16.752 203.932 203.932 0 0 0 -1.555 64.702zm-24.74-87.274-8.449-8.353a324.384 324.384 0 0 0 46.841-46.77l8.662 8.564a192.146 192.146 0 0 1 -47.054 46.556zm-17.029-16.838-7.832-7.744a312.243 312.243 0 0 1 46.153-47.452l8.531 8.435a312.312 312.312 0 0 1 -46.852 46.758zm.594 17.464-15.485-5.476-1.355-11.178zm-17.008-33.694-8.563-8.467a192.1 192.1 0 0 1 46.448-47.156l8.281 8.188a324.245 324.245 0 0 0 -46.166 47.432zm-16.948-17.392a16.653 16.653 0 0 1 2.25-20.606l23.077-23.339a16.576 16.576 0 0 1 11.77-4.954h.1a16.555 16.555 0 0 1 8.603 2.409 203.91 203.91 0 0 0 -45.8 46.49zm-2.253 17.789a17.743 17.743 0 0 1 5.351 6.907 203.873 203.873 0 0 0 -64.236 7.907 17.865 17.865 0 0 1 15.445-14.812l30.288-3.671a17.738 17.738 0 0 1 13.152 3.669zm7.567 19 .538 4.434a29.859 29.859 0 0 0 -30.953 9.535 325.333 325.333 0 0 0 -33.83 6.076l-1.45-11.954a192.181 192.181 0 0 1 65.695-8.091zm-37.018 26.99-5.381 15.223c-6.339.436-12.716.683-19.07.733l-1.324-10.918c8.501-2.036 17.123-3.721 25.775-5.038zm-9.6 27.5a29.569 29.569 0 0 0 -.494 12.6q-5.745-.018-11.48-.37l-1.428-11.788q6.7-.079 13.406-.437zm.1 24.617q2.192 0 4.379-.051a29.529 29.529 0 0 0 11.751 9.876l-7.426.9a17.864 17.864 0 0 1 -18.647-10.969c3.311.158 6.63.249 9.943.249zm12.705-9.5a17.719 17.719 0 0 1 -.722-13.635l10.168-28.766a17.809 17.809 0 0 1 18.123-11.837 203.924 203.924 0 0 0 -22.222 60.786 17.752 17.752 0 0 1 -5.347-6.547zm39.371-50.745 11.2 3.959a324.278 324.278 0 0 0 -22.459 62.265l-11.484-4.059a192.1 192.1 0 0 1 22.743-62.164zm22.578 7.981 10.385 3.67a312.238 312.238 0 0 1 -21.552 62.589l-11.311-4a312.25 312.25 0 0 1 22.478-62.258zm21.765 7.693 2.416.854a29.665 29.665 0 0 0 -6.1 17.287l-.792 30.5a30.328 30.328 0 0 0 .325 5.225c-1.989 4.262-4.139 8.479-6.44 12.6l-10.976-3.881a324.281 324.281 0 0 0 21.567-62.584zm3.571 69.8a17.748 17.748 0 0 1 -2.341.035c.3-.561.609-1.122.908-1.686.457.569.93 1.121 1.43 1.656zm74.647-167.382-12-.958a192.131 192.131 0 0 1 5.138-65.99l11.608.926a324.336 324.336 0 0 0 -4.746 66.022zm16.75-65.064 11.959.955a312.318 312.318 0 0 1 -5.7 65.945l-10.98-.876a312.286 312.286 0 0 1 4.721-66.024zm119.1-58.15 6.564 9.619a324.3 324.3 0 0 0 -54.382 37.738l-6.787-9.947a192.092 192.092 0 0 1 54.605-37.41zm-61.127 27.049a16.7 16.7 0 0 1 6.145-19.8l27.111-18.5a16.7 16.7 0 0 1 20.578 1.415 203.917 203.917 0 0 0 -53.831 36.885zm74.483-7.476 6.761 9.909a312.249 312.249 0 0 1 -54.917 36.944l-6.208-9.1a312.211 312.211 0 0 1 54.367-37.753zm13.554 19.865 6.865 10.061a192.134 192.134 0 0 1 -55.085 36.708l-6.7-9.813a324.383 324.383 0 0 0 54.923-36.956zm13.3 20.462a16.652 16.652 0 0 1 -6.289 19.414l-27.112 18.5a16.709 16.709 0 0 1 -20.9-1.7 203.955 203.955 0 0 0 54.302-36.214zm-26.41 56.83a17.725 17.725 0 0 1 13.52 1.911l26.275 15.507a17.811 17.811 0 0 1 8.134 20.061 203.931 203.931 0 0 0 -55.382-33.49 17.757 17.757 0 0 1 7.453-3.989zm-14.4 14.124a192.128 192.128 0 0 1 56.636 34.265l-6.039 10.232a324.188 324.188 0 0 0 -56.797-34.007zm51.935 76.427a16.715 16.715 0 0 1 14.89 13.971l5.19 32.408a16.71 16.71 0 0 1 -10.443 18.189 203.916 203.916 0 0 0 -9.637-64.568zm-7.479-21.533-5.6 9.485a312.3 312.3 0 0 1 -57.28-33.174l6.1-10.331a312.276 312.276 0 0 1 56.78 34.015zm5.084 88.408-11.732 1.879a324.365 324.365 0 0 0 -10.046-65.425l12.026-1.926a192.115 192.115 0 0 1 9.752 65.467zm-29.349-74.487-21.171 3.39a193.718 193.718 0 0 1 -29.48-20.6l5.914-10.022a324.523 324.523 0 0 0 44.737 27.227zm5.7 78.274-10.874 1.738a312.285 312.285 0 0 1 -11-65.272l11.845-1.9a312.281 312.281 0 0 1 10.031 65.429zm-77.03-24.107 1.881 11.743a17.889 17.889 0 0 1 -2.809 2.179l-25.89 16.133a17.811 17.811 0 0 1 -21.547-2.054 204.385 204.385 0 0 0 48.367-28.006zm18.146-45.419a17.833 17.833 0 0 1 -3.056-15 206.05 206.05 0 0 0 16.9 12.551l-10.34 1.656a29.151 29.151 0 0 0 -3.502.788zm-11.445-25.887a29.839 29.839 0 0 0 .046 30.4 17.966 17.966 0 0 1 -3.529 5.064l-6.206-9.957a205.065 205.065 0 0 0 5.531-48.886 17.826 17.826 0 0 1 9.942 13.578zm-8.931 49.411a28.784 28.784 0 0 0 .051 8.241 192.511 192.511 0 0 1 -53.233 31.568l-6.286-10.084a324.283 324.283 0 0 0 56.4-34.651zm-55.751 57.278c-.274.081-.548.161-.826.229.063-.317.12-.634.18-.951.214.242.425.484.646.722zm39.963-82.618 6.345 10.181a312.22 312.22 0 0 1 -56.406 34.638l-5.826-9.348a312.229 312.229 0 0 1 55.887-35.471zm-5.129-30.92c.749-6.891 1.288-13.85 1.595-20.793l12.055 1.7a193.136 193.136 0 0 1 -2.712 36.646zm-45.257 97.9c-.675 5.417-1.581 10.834-2.714 16.183l-11.869-.308a324.875 324.875 0 0 0 2.809-34.766zm-11.884-41.755-6.37-10.22a192.119 192.119 0 0 1 56.107-35.118l6.159 9.883a324.254 324.254 0 0 0 -55.896 35.459zm46.147-67.581a29.9 29.9 0 0 0 -8.59-3.462 30.332 30.332 0 0 0 -4.572-.695q.915-4.29 1.939-8.555l11.865 1.671q-.223 5.523-.642 11.045zm-11.3 8.227a17.739 17.739 0 0 1 7.77 4 203.893 203.893 0 0 0 -54.872 34.342 17.836 17.836 0 0 1 7.74-19.961l25.892-16.138a17.723 17.723 0 0 1 13.467-2.234zm-14.483-10.58a30.112 30.112 0 0 0 -5.335 2.635l-9.2 5.736a193.836 193.836 0 0 1 5.642-22.034l11.526 1.623c-.96 4-1.836 8.023-2.636 12.044zm-28.117 16.834-3.11 1.939a29.766 29.766 0 0 0 -8.635 8.153l1.652-11.729a28.758 28.758 0 0 0 .617-4.383l1.451-10.3a17.855 17.855 0 0 1 14.991-15.156 205.828 205.828 0 0 0 -6.969 31.48zm-4.19 56.621a312.744 312.744 0 0 1 -2.83 53.8l-10.991-.286a312.234 312.234 0 0 1 1.176-66.182l4.825.125zm71.589 58.824c.057-.035.117-.065.174-.1l25.007-15.583a28.473 28.473 0 0 0 10.019 13.1 28.978 28.978 0 0 0 4.353 2.589zm42.238-12.308a16.58 16.58 0 0 1 -6.691-10.878l-5.19-32.407a16.652 16.652 0 0 1 10.046-18.021 203.907 203.907 0 0 0 10.435 64.424 16.574 16.574 0 0 1 -8.603-3.114zm10.164-63.713 11.5-1.841a324.364 324.364 0 0 0 10.979 65.278l-11.89 1.9a192.111 192.111 0 0 1 -10.592-65.333zm135.279 10.619a65.406 65.406 0 0 1 -65.406 65.406h-50.108l59.689-9.557a28.72 28.72 0 0 0 23.789-32.861l-5.19-32.409a28.734 28.734 0 0 0 -25.927-24.044l18.074-30.623a29.839 29.839 0 0 0 -10.532-40.865l-26.275-15.507a29.662 29.662 0 0 0 -14.623-4.142l21.9-14.939a28.685 28.685 0 0 0 7.527-39.862l-42.982-62.994a28.717 28.717 0 0 0 -39.863-7.528l-27.111 18.5a28.719 28.719 0 0 0 -7.527 39.863l42.982 62.994a28.675 28.675 0 0 0 23.632 12.5 29.989 29.989 0 0 0 -4.795 6.136l-24.054 40.744a29.84 29.84 0 0 0 -21.256-13.918l-61.936-8.724 33.488 2.672q1.168.091 2.329.093a28.691 28.691 0 0 0 28.547-26.406l2.609-32.717a28.683 28.683 0 0 0 -26.312-30.876l-76.02-6.065a28.714 28.714 0 0 0 -30.875 26.313l-2.61 32.717a28.685 28.685 0 0 0 26.313 30.876l22.754 1.816a29.921 29.921 0 0 0 -22.312 16.067c-.3-.322-.6-.641-.917-.953l-54.228-53.619a28.491 28.491 0 0 0 -20.164-8.287h-.167a28.5 28.5 0 0 0 -20.235 8.516l-23.074 23.341a28.729 28.729 0 0 0 -6.158 31.041 30.376 30.376 0 0 0 -4.408.211l-30.288 3.671a29.875 29.875 0 0 0 -26.033 33.215l8.899 73.416a29.822 29.822 0 0 0 33.215 26.033l30.288-3.672c.258-.031.509-.088.766-.126l28.188 9.964h-46.2a65.406 65.406 0 0 1 -65.403-65.411v-252.059a24.535 24.535 0 0 1 24.534-24.535h47.466a6 6 0 0 0 0-12h-33.84v-21h391.68v21h-307.84a6 6 0 0 0 0 12h321.466a24.535 24.535 0 0 1 24.534 24.535zm-210.423-168.706 12.141.968a192.124 192.124 0 0 1 -5.985 65.923l-11.843-.945a324.389 324.389 0 0 0 5.687-65.946zm24.276 2.486a16.649 16.649 0 0 1 11.169 17.078l-2.609 32.718a16.683 16.683 0 0 1 -14.445 15.213 203.9 203.9 0 0 0 5.885-65.009zm-89.167 58.287a16.654 16.654 0 0 1 -11.557-17.209l2.61-32.717a16.7 16.7 0 0 1 14.015-15.136 203.931 203.931 0 0 0 -5.068 65.062z"/></svg>