<svg id="Layer_1" enable-background="new 0 0 512 512" height="512" viewBox="0 0 512 512" width="512" xmlns="http://www.w3.org/2000/svg"><path d="m500.9 411.4c-1.7-2.7-4.7-4.2-7.8-3.9l-41.2 4 5.6-61.5c.5-2.1 0-4.4-1.2-6.2l-18.8-27.8c-2.2-3.3-6-5.1-10-4.8l-92 6.4 21.6-104.2 45.8 17.8c.8.3 1.6.5 2.5.5 3.4 0 6.3-2.6 6.7-6l19.2-40.3c1.5-3.2.2-7-3-8.6-1.8-.9-4-.8-5.8.1l-31.5 16.5-12-16.6c-1.7-2.3-4.4-3.7-7.2-3.7h-32.5l-74.4-113.5c-1.1-1.7-3-2.7-5-2.7h-32.6c-2.1 0-4.1 1.2-5.2 3l-64.8 113.1-34.2.1c-2.8 0-5.5 1.4-7.2 3.7l-12 16.6-31.6-16.6c-3.1-1.6-7-.4-8.7 2.7-.9 1.8-1 3.9-.1 5.8l19.2 40.3c.4 3.7 3.7 6.4 7.4 6 .6-.1 1.2-.2 1.8-.4l43.3-16.9c-.1 2 .1 4.1.8 6l34.9 97.1-86.4-6.3c-3.9-.3-7.7 1.6-10 4.8l-18.9 27.9c-1.2 1.8-1.7 4-1.2 6.2l5.6 61.5-41.2-4c-4.4-.4-8.4 2.8-8.8 7.3-.3 3.1 1.2 6.1 3.9 7.7l51.5 31.1c2.5 1.5 5.6 1.6 8.2.1l15.3-8.7c2.2-1.3 3.7-3.5 4-6.1l8.5-73.9 98.8 21.1v-.1c1.9.5 4.1.5 6.1-.3l23.6-19.7 17.7 31.6c1.6 2.9 4.7 4.7 8.1 4.7h.2c3.4-.1 6.5-2 8.1-5.1l16.6-32.9 26.3 19.7c2.6 2 5.9 2.5 8.9 1.7l94.8-20.6 8.5 73.8c.3 2.6 1.8 4.8 4.1 6.1l15.3 8.7c2.5 1.4 5.7 1.4 8.2-.1l51.5-31.1c3.8-2.3 5-7.3 2.7-11.1zm-87.5-216.1-8.4 17.5-6.9-9.5zm-323.5 17.5-8.4-17.5 15.3 8zm-55 208.3 26.3 2.6 1.3 14.1zm338.7-231.2 17.1 23.7-23.5-9.1zm-11-4.8-6.2 14.1c0-.1-.1-.2-.1-.2l-9.1-13.9zm-131.9-116.2h25.9l43.3 66.1-38 200.6-1.8-1.4c-3.9-2.9-9.2-2.7-12.8.5l-2.9 2.5-56.4-193.8zm-126.5 144.6 17.1-23.6 6.3 14.4zm46.2-28.5-7.7 13.3-4 1.5-6.5-14.8zm-69.2 250.5-6.6 3.7-7.4-81.6 22.4 4.8zm-12.3-89.8 15.3-22.6 28.8 2.1 13.8 32.9zm57.5-19.5 48.9 3.6 15.1 41.9-49.3-10.6zm77.1 46.9-56.3-156.8c-.2-.5-.2-1.1 0-1.7l32.5-56.7 54.8 188zm51.9 14.2-16.4-29.3 15.2-13.3 16.5 12.4zm17.2-43.7 36.8-194.2 36.6 55.8c.3.6.4 1.1.3 1.7l-34.7 166zm104 16.7-52.3 11.3 8.7-41.8 51.5-3.6zm13-2.9 7.5-32.1 30.8-2.1 15.3 22.6zm47.8 81.8-6.6-3.7-8.4-73 22.4-4.9zm12.1-1.4 1.3-14.2 26.3-2.5z"/></svg>