<svg id="Layer_1" height="512" viewBox="0 0 512 512" width="512" xmlns="http://www.w3.org/2000/svg" data-name="Layer 1"><path d="m347.474 404.208 44.235-44.75a6 6 0 0 0 -8.535-8.436l-44.236 44.75a6 6 0 0 0 8.536 8.436z"/><path d="m405.546 345.461 6.615-6.692a6 6 0 1 0 -8.535-8.436l-6.615 6.692a6 6 0 0 0 8.535 8.436z"/><path d="m489.656 188.033c-1.329-8.848-2.837-18.877-13.992-29.9s-21.2-12.418-30.063-13.645c-8.026-1.112-14.957-2.072-23.276-10.294a6 6 0 0 0 -8.484.049l-9.248 9.355c-22.036 22.293-21.851 39.8-21.542 68.812l.206 20.268a57.263 57.263 0 0 0 -30.951-9.007h-.343a57.311 57.311 0 0 0 -40.7 17.134l-70.528 71.346a57.792 57.792 0 0 0 -8.266 70.526l-20.87.028c-29.01.028-46.521.044-68.557 22.335l-9.248 9.355a6 6 0 0 0 .049 8.485c8.317 8.223 9.357 15.143 10.561 23.154 1.33 8.849 2.837 18.878 13.993 29.905s21.2 12.419 30.065 13.646c8.024 1.111 14.956 2.071 23.273 10.293a6 6 0 0 0 8.485-.049l9.212-9.318c22.074-22.329 21.874-39.88 21.543-68.958l-.222-20.2a57.777 57.777 0 0 0 72.041-8.083l70.528-71.348a57.786 57.786 0 0 0 8.234-70.576l20.8-.012c29.078 0 46.629-.009 68.7-22.338l9.212-9.318a6 6 0 0 0 -.049-8.484c-8.319-8.229-9.359-15.148-10.563-23.161zm-240.384 132.55 70.528-71.347a45.371 45.371 0 0 1 31.316-13.536l-115 116.336a45.529 45.529 0 0 1 13.156-31.453zm-28.372 161.488-5.219 5.28c-9.374-7.413-17.914-8.6-25.572-9.656-8.025-1.112-14.956-2.072-23.274-10.3s-9.357-15.14-10.562-23.153c-1.149-7.643-2.43-16.17-9.951-25.459l5.255-5.315a68.474 68.474 0 0 1 14.073-11.28c3.686 5.664 4.487 10.95 5.382 16.9 1.329 8.848 2.837 18.877 13.992 29.9s21.2 12.418 30.064 13.645c5.96.825 11.253 1.565 16.954 5.181a68.422 68.422 0 0 1 -11.142 14.257zm15.757-25.463c-7.2-4.076-13.868-5.01-19.923-5.848-8.025-1.112-14.956-2.072-23.274-10.293s-9.36-15.143-10.56-23.155c-.909-6.048-1.92-12.714-6.086-19.869 9.583-2.713 20.3-2.728 34.8-2.742l27.07-.037.3 27.022c.16 14.543.278 25.284-2.326 34.922zm9.007-75.914a45.325 45.325 0 0 1 -7.325-13.845l127.623-129.1a45.22 45.22 0 0 1 13.907 7.185zm21.752 15.376a45.3 45.3 0 0 1 -13.219-6.941l134.2-135.76a45.323 45.323 0 0 1 7.1 13.151zm117.375-82.59-70.528 71.348a45.551 45.551 0 0 1 -32.251 13.547l115.954-117.284a45.546 45.546 0 0 1 -13.174 32.389zm37.562-74.152-27.028.016-.276-27.067c-.154-14.5-.264-25.215 2.339-34.83 7.2 4.084 13.88 5.018 19.939 5.858 8.026 1.111 14.957 2.071 23.275 10.294s9.357 15.14 10.561 23.153c.908 6.043 1.919 12.7 6.078 19.853-9.605 2.714-20.341 2.721-34.887 2.723zm60.167-18.773a68.494 68.494 0 0 1 -14.115 11.306c-3.681-5.66-4.481-10.943-5.375-16.893-1.33-8.848-2.838-18.877-13.993-29.9s-21.2-12.418-30.063-13.646c-5.964-.826-11.259-1.566-16.965-5.187a68.481 68.481 0 0 1 11.117-14.2l5.255-5.314c9.376 7.413 17.915 8.595 25.572 9.655 8.025 1.111 14.956 2.071 23.275 10.293s9.357 15.143 10.561 23.154c1.148 7.645 2.431 16.17 9.95 25.459z"/><path d="m89.675 377.811a6 6 0 0 0 4.218 1.733h.035a6 6 0 0 0 4.232-1.782l9.211-9.319c22.073-22.33 21.873-39.881 21.542-68.959l-.221-20.189a57.7 57.7 0 0 0 72.04-8.1l70.53-71.346a57.79 57.79 0 0 0 8.233-70.577l20.79-.012c29.08 0 46.633-.007 68.706-22.337l9.212-9.319a6 6 0 0 0 -.049-8.484c-8.317-8.22-9.354-15.139-10.561-23.15-1.33-8.849-2.837-18.878-13.993-29.9s-21.2-12.419-30.065-13.646c-8.024-1.111-14.956-2.071-23.273-10.293a6 6 0 0 0 -8.485.049l-9.247 9.354c-22.037 22.291-21.851 39.8-21.543 68.809l.207 20.283a57.784 57.784 0 0 0 -71.991 8.115l-11.514 11.648a6 6 0 0 0 8.534 8.435l11.513-11.647a45.519 45.519 0 0 1 31.294-13.519l-115 116.337a45.357 45.357 0 0 1 13.178-31.47l23.864-24.142a6 6 0 0 0 -.024-8.46 6 6 0 0 0 -8.509.024l-23.206 23.475a58.917 58.917 0 0 0 -17.314 42.121 57.307 57.307 0 0 0 8.362 29.071l-20.842.029c-29.011.026-46.522.042-68.559 22.336l-9.247 9.354a6 6 0 0 0 .049 8.484c8.318 8.223 9.358 15.142 10.562 23.155 1.329 8.848 2.837 18.877 13.992 29.905s21.2 12.418 30.063 13.645c8.026 1.107 14.957 2.067 23.276 10.289zm173.053-186.394-70.528 71.347a45.388 45.388 0 0 1 -32.23 13.569h-.04l115.97-117.305a45.549 45.549 0 0 1 -13.172 32.389zm28.335-161.452 5.255-5.315c9.374 7.412 17.914 8.595 25.572 9.655 8.025 1.112 14.956 2.072 23.274 10.3s9.357 15.14 10.562 23.153c1.149 7.643 2.43 16.17 9.951 25.459l-5.219 5.279a68.434 68.434 0 0 1 -14.115 11.304c-3.682-5.659-4.482-10.943-5.376-16.893-1.33-8.848-2.837-18.878-13.992-29.9s-21.2-12.418-30.065-13.645c-5.962-.826-11.258-1.566-16.963-5.187a68.443 68.443 0 0 1 11.116-14.21zm-15.738 25.418c7.2 4.084 13.88 5.018 19.94 5.857 8.025 1.112 14.956 2.072 23.274 10.293s9.361 15.143 10.561 23.155c.908 6.043 1.918 12.7 6.077 19.853-9.608 2.714-20.349 2.721-34.895 2.723l-27.02.015-.277-27.068c-.153-14.503-.262-25.211 2.34-34.828zm-8.99 75.923a45.3 45.3 0 0 1 7.1 13.151l-128.1 129.569a45.22 45.22 0 0 1 -13.2-6.955zm-22.461-15.6a45.341 45.341 0 0 1 13.926 7.164l-134.2 135.765a45.22 45.22 0 0 1 -7.345-13.826zm-154.324 156.932 27.067-.037.3 27.02c.166 14.544.283 25.284-2.32 34.922-7.2-4.075-13.868-5.008-19.922-5.847-8.026-1.112-14.956-2.072-23.275-10.3s-9.36-15.136-10.564-23.148c-.909-6.049-1.921-12.714-6.087-19.87 9.583-2.713 20.295-2.727 34.801-2.74zm-55.34 49.546c-1.148-7.645-2.431-16.17-9.95-25.459l5.255-5.316a68.478 68.478 0 0 1 14.072-11.28c3.687 5.663 4.487 10.95 5.382 16.9 1.33 8.849 2.837 18.878 13.993 29.9s21.2 12.418 30.063 13.646c5.96.826 11.253 1.565 16.954 5.18a68.471 68.471 0 0 1 -11.143 14.246l-5.218 5.278c-9.376-7.413-17.915-8.6-25.572-9.655-8.025-1.111-14.956-2.071-23.275-10.293s-9.357-15.131-10.561-23.147z"/></svg>