<svg id="Layer_1" height="512" viewBox="0 0 512 512" width="512" xmlns="http://www.w3.org/2000/svg" data-name="Layer 1"><path d="m501.792 390.967-.645-7.632a57.684 57.684 0 0 0 -59.838-52.879l-85.177 3.332-66.049-66.049a15.8 15.8 0 1 0 -22.345 22.344l66.049 66.049-3.331 85.177a57.687 57.687 0 0 0 52.879 59.838l12.606.856a57.812 57.812 0 0 0 57.014-49.049 57.795 57.795 0 0 0 48.837-61.987zm-167.335-51.135-58.233-58.232a3.8 3.8 0 1 1 5.374-5.375l58.234 58.234a5.97 5.97 0 0 0 -5.375 5.373zm7.99 101.945 3.739-95.591 13.228-.518a157.261 157.261 0 0 0 6.47 35.8c2.456 8.774 3.689 13.178 2.75 25.466s-2.829 16.455-6.592 24.751c-3.9 8.606-8.972 19.787-12.327 36.725a45.646 45.646 0 0 1 -7.268-26.633zm49.684 48.067-.155-.009-7.631-.645a45.655 45.655 0 0 1 -24.345-9.52c2.879-20.729 8.45-33.049 12.974-43.024 4.07-8.975 6.527-14.391 7.629-28.794s-.5-20.127-3.16-29.619c-2.334-8.336-5.169-18.484-6.036-33.034l32-1.252c.705 10.713 2.819 18.293 4.878 25.65 2.976 10.625 5.786 20.661 4.253 40.7-1.542 20.156-5.682 30.307-10.065 41.053-4.097 10.037-8.317 20.39-10.342 38.494zm64.308-76.189a176.055 176.055 0 0 1 -4.467 27.3 47 47 0 0 1 -4.845.569 6 6 0 0 0 -5.606 5.606 45.815 45.815 0 0 1 -37.233 42.093c1.906-15.221 5.508-24.057 9.294-33.339 4.54-11.13 9.233-22.639 10.919-44.669 1.7-22.15-1.537-33.691-4.662-44.852-1.945-6.943-3.794-13.575-4.439-22.882l26.377-1.032a46.32 46.32 0 0 1 5.676.137 81.476 81.476 0 0 0 3.23 15.142c3.326 11.872 7.882 28.138 5.756 55.927zm22.452 12.068a45.751 45.751 0 0 1 -13.636 10.788 179.852 179.852 0 0 0 3.149-21.94c2.287-29.9-2.6-47.345-6.167-60.088-.977-3.489-1.747-6.25-2.272-9.051a45.708 45.708 0 0 1 29.225 38.913l.645 7.632a45.446 45.446 0 0 1 -10.944 33.746z"/><path d="m394.752 78.157a20.262 20.262 0 1 0 -14.334-5.928 20.2 20.2 0 0 0 14.334 5.928zm-5.852-26.11a8.271 8.271 0 1 1 0 11.7 8.216 8.216 0 0 1 0-11.7z"/><path d="m395.716 100.627a20.269 20.269 0 1 0 14.333-5.938 20.292 20.292 0 0 0 -14.333 5.938zm20.184 20.182a8.271 8.271 0 1 1 0-11.7 8.22 8.22 0 0 1 0 11.7z"/><path d="m439.109 185.165c-.768 0 .775.03 0 0z"/><path d="m264.262 247.979a15.814 15.814 0 0 0 22.345 0l66.169-66.168 86.333 3.354c29.935 0 56.142-22.811 58.683-52.9l.644-7.631a57.8 57.8 0 0 0 -48.836-61.99 57.795 57.795 0 0 0 -61.988-48.837l-7.631.643a57.69 57.69 0 0 0 -52.881 59.839l3.332 85.178-66.17 66.169a15.817 15.817 0 0 0 0 22.343zm185.047-81.238a8.271 8.271 0 1 1 2.422-5.848 8.28 8.28 0 0 1 -2.422 5.848zm36.33-56.606a45.983 45.983 0 0 1 .84 13.487l-.119 1.412a8.272 8.272 0 0 1 -9.773-13.13 8.339 8.339 0 0 1 9.052-1.769zm-104.65-83.728 7.632-.643a45.785 45.785 0 0 1 49.545 42.707 6 6 0 0 0 5.605 5.606 45.44 45.44 0 0 1 31.764 15.8 46.266 46.266 0 0 1 5.343 7.627 20.3 20.3 0 1 0 3.908 40.392 45.655 45.655 0 0 1 -22.105 29.404 20.271 20.271 0 1 0 -35.672 5.4l-84.179-3.292-.394-10.085a20.266 20.266 0 1 0 -1.2-30.624l-1.225-31.317a20.26 20.26 0 1 0 1.5-40.177 45.7 45.7 0 0 1 39.478-30.798zm-31.765 111.233a8.271 8.271 0 1 1 0 11.7 8.243 8.243 0 0 1 0-11.7zm-10.124-67.409a8.266 8.266 0 1 1 .417 14.525l-.428-10.936c-.045-1.207-.032-2.402.011-3.589zm-66.352 163.889 58.352-58.354a5.97 5.97 0 0 0 5.375 5.375l-58.353 58.359a3.8 3.8 0 0 1 -5.374-5.375z"/><path d="m157.331 314.39 35.455-35.454a6 6 0 0 0 -8.486-8.486l-35.454 35.45a6 6 0 0 0 8.485 8.486z"/><path d="m207.02 264.7 5.371-5.371a6 6 0 1 0 -8.485-8.484l-5.371 5.371a6 6 0 1 0 8.485 8.484z"/><path d="m10.853 128.665a57.682 57.682 0 0 0 57.528 52.925l87.487-3.378 66.169 66.17a15.8 15.8 0 0 0 22.345-22.344l-66.169-66.17 3.331-85.177a57.687 57.687 0 0 0 -52.879-59.838l-7.631-.645a57.8 57.8 0 0 0 -61.989 48.838 57.795 57.795 0 0 0 -48.837 61.987zm154.961 37.149-45.01 1.761a55.431 55.431 0 0 1 46.771-46.775zm2.237-57.173a67.437 67.437 0 0 0 -59.41 59.41l-24.531.959a91.606 91.606 0 0 1 84.9-84.9zm9.492 63.527 58.357 58.354a3.8 3.8 0 0 1 -5.375 5.375l-58.354-58.355a5.97 5.97 0 0 0 5.372-5.374zm-7.99-101.945-.071 1.81a103.7 103.7 0 0 0 -97.449 97.45l-1.81.071a45.872 45.872 0 0 1 -22.287-4.809 128 128 0 0 1 116.826-116.811 45.683 45.683 0 0 1 4.791 22.289zm-136.444 16.054a45.447 45.447 0 0 1 31.764-15.8 6 6 0 0 0 5.606-5.606 45.792 45.792 0 0 1 45.603-42.871l11.573.811a45.639 45.639 0 0 1 29.217 13.923 139.976 139.976 0 0 0 -120.138 120.126 45.586 45.586 0 0 1 -13.924-29.205l-.645-7.632a45.446 45.446 0 0 1 10.944-33.746z"/><path d="m27.716 379.682a45.681 45.681 0 0 1 22.366-35.614 6.032 6.032 0 0 0 2.918-5.214 5.96 5.96 0 0 0 -8.918-5.193 57.64 57.64 0 0 0 -28.323 45.011l-.571 6.756a58.919 58.919 0 0 0 14.1 43.878 57.273 57.273 0 0 0 34.668 18.985 57.81 57.81 0 0 0 57.012 49.048q2.476 0 4.975-.211l7.632-.645a57.686 57.686 0 0 0 52.88-59.837l-3.3-84.286c-.011-.288-.053-.567-.075-.853l64.549-64.548a15.8 15.8 0 0 0 -22.345-22.344l-64.548 64.548c-.286-.021-.565-.063-.853-.074l-62.683-2.451a5.969 5.969 0 0 0 -6.2 5.962v.06a5.97 5.97 0 0 0 5.736 5.965l62.678 2.451a12.237 12.237 0 0 1 11.749 11.749l3.3 84.286a45.706 45.706 0 0 1 -41.9 47.412l-7.631.645a45.785 45.785 0 0 1 -49.545-42.708 6.039 6.039 0 0 0 -5.635-5.609 45.443 45.443 0 0 1 -32.035-16.141 46.761 46.761 0 0 1 -10.581-34.158zm145.444-45.974 60.609-60.608a3.8 3.8 0 1 1 5.374 5.375l-60.608 60.607a24.314 24.314 0 0 0 -5.375-5.374z"/></svg>