<svg id="Layer_1" height="512" viewBox="0 0 512 512" width="512" xmlns="http://www.w3.org/2000/svg" data-name="Layer 1"><path d="m496.521 102.357-106.744-80.9a13.791 13.791 0 0 0 -16.229-.367l-115.329 78.11-119.787-78.128a13.815 13.815 0 0 0 -16.209.381l-106.744 80.9a13.909 13.909 0 0 0 -5.479 11.028v138.519a13.768 13.768 0 0 0 3.891 9.617l218.422 225.79a12.073 12.073 0 0 0 8.63 3.657h30.114a12.073 12.073 0 0 0 8.63-3.657l218.423-225.787a13.767 13.767 0 0 0 3.89-9.62v-138.519a13.909 13.909 0 0 0 -5.479-11.024zm-6.521 11.024v138.519a1.824 1.824 0 0 1 -.516 1.273l-.465.481-102.507-92.007 87.268-61.469 15.492 11.743a1.842 1.842 0 0 1 .728 1.46zm-12.165 151.839-91.373 35.06-10.7-132.158 104.908 94.167zm-446.5-2.931 104.909-94.167-10.7 132.158-91.379-35.061zm232.927-152.689 55.727-37.746 41.652 86.895-98.143 77.7zm-12.77 127.82-100.881-78.52 47-84.9 54.652 35.647zm-103.532-65.378 100.015 77.847-67.217 68.78a6.033 6.033 0 0 0 -.583.694 2.361 2.361 0 0 1 -2.76.824l-40.2-15.426zm41.655 154.733 61.719-63.154-1.3 215.346h-.923l-61.93-149.739a14.3 14.3 0 0 0 2.434-2.453zm73.391 152.193h-.97l1.292-214.288 59.029 62.059a14.31 14.31 0 0 0 2.464 2.49zm71.578-158.781a2.357 2.357 0 0 1 -2.759-.824 6.153 6.153 0 0 0 -.526-.635l-65.463-68.822 98.212-77.754 10.738 132.609zm45.764-289.213a1.846 1.846 0 0 1 2.181.042l81.213 61.555-87.288 61.483a12.481 12.481 0 0 0 -4.047-.6l-42.373-88.4zm-250.877.042a1.846 1.846 0 0 1 2.181-.042c.052.036.1.071.157.105l55.724 36.347-47.633 86.041a12.445 12.445 0 0 0 -4.358.587l-87.284-61.483zm-107.471 82.365a1.842 1.842 0 0 1 .728-1.46l15.492-11.743 87.268 61.469-102.507 92.011-.464-.48a1.825 1.825 0 0 1 -.517-1.278zm31.938 172.278 119.177 45.731a14.384 14.384 0 0 0 2.243.646l57.174 138.241zm225.722 184.416 56.984-138.04a14.422 14.422 0 0 0 2.24-.645l119.177-45.73z"/></svg>