<svg id="Layer_1" height="512" viewBox="0 0 512 512" width="512" xmlns="http://www.w3.org/2000/svg" data-name="Layer 1"><path d="m443.04 88.667a6.639 6.639 0 0 0 2.97-12.577l-42.435-21.232.781-5.553a9.227 9.227 0 0 0 -8.149-10.461l-25.863-2.783-31.313-24.524a7.226 7.226 0 0 0 -11.581 4.5l-10.618 63.608a10.826 10.826 0 0 0 2.041 8.289l13.306 17.566-39.165 87.243-42.088-.023-58.5-98.455-.059-.1a8.172 8.172 0 0 0 -7.443-3.847l-47.091 2.909a6 6 0 0 0 -2.511.725l-69.658 38.13a6.391 6.391 0 0 0 -3.335 5.854l5.285 155.5a6.425 6.425 0 0 0 12.526 1.787l37.127-113.036 27.882 9.007-13.273 35.971a9.5 9.5 0 0 0 1.086 8.668c.062.091.136.17.2.258l-.008.007 94.47 127.432-13.242 18.57a14.107 14.107 0 0 0 -1.853 12.757l34.811 101.251a8.731 8.731 0 0 0 8.26 5.892h45.662a6.9 6.9 0 0 0 4.483-12.144l-12.784-10.931h40.366a8.075 8.075 0 0 0 4.476-14.8l-22.557-15.025-2.856-96.467 107.889-109.869a9.482 9.482 0 0 0 6.218-11.517l-31.485-115.525 3.806-27.055zm-22.694-12h-19.839l1.305-9.273zm-117.177 370.017-20.743 14.94-.914-36.541 21.3 9.6zm-36.069-117.84 2.339 93.532-42.167-37.686zm11.645-14.337a7.284 7.284 0 0 0 -.524-2.5l2.04-9.393 51.265 13.408-51.432 52.378zm-52.755-38.492 9.217-34.949 167.955 2-61.945 63.084zm24.974-71.276h42.048c.055 0 .108 0 .162-.006l27.046 25.345-94.827-1.13 25.441-24.217c.046 0 .088.008.132.008zm-42.76 24-54.918-.654 73.2-53.006 13.76 23.157zm14.632 12.175-18.677 70.813-53.129-71.665zm143.936-183.171 43.6 159.973-78.7-81.752zm-38.018 23.362 9.209-55.163 22.144 17.344-22.326 49.733zm-2.377 66.66 80.229 83.342-68.606-.817-34.27-32.111c.095-.184.19-.367.275-.556zm-138.513-37.683 32.47 54.642-71.824 52.009zm-109.329 151.553-4.1-120.677 53.326-29.189zm42.472-90.853 21.622-65.83 35.137-2.17-28.466 77.141zm92.308 153.3 9.616-36.461 45.713 11.955-2.112 9.72a7.35 7.35 0 0 0 -1.046 1.149l-30.538 42.815zm13.935 76.685 42.6 38.074.8 31.9-14.48 14.144zm40.858 89.233 9.025-8.816 10.31 8.816zm52.242-23.075h-24.75l11.941-8.6c.233.184.462.373.712.539zm-17.931-45.579-21.24-9.575-.667-26.67 20.224-20.6zm74.36-372.523 15.3 1.646-5.059 35.931z"/></svg>