<?xml version="1.0" encoding="UTF-8"?>
<svg xmlns="http://www.w3.org/2000/svg" id="Layer_1" data-name="Layer 1" viewBox="0 0 512 512" width="512" height="512"><path d="M302.409,14.684a71.289,71.289,0,0,0-23.023-3.848,70.275,70.275,0,0,0-46.8,17.675A68.34,68.34,0,0,0,185.625,10a70.267,70.267,0,0,0-49.242,20.733,72.678,72.678,0,0,0-21.5,50.8,70.181,70.181,0,0,0,20.7,50.078l57.74,57.738a30.253,30.253,0,0,0,22.892,8.811v47.373H172.278a6,6,0,0,0-6,6v27.2a53.289,53.289,0,0,1-5.372,23.643A67.072,67.072,0,0,0,154,331.938V345a6,6,0,0,0,12,0V331.938a53.319,53.319,0,0,1,5.372-23.646,66.479,66.479,0,0,0,4.218-10.856h40.626V409.365a6,6,0,0,0,3.838,5.6,35.725,35.725,0,0,0,25.788,0,6,6,0,0,0,3.839-5.6V297.436h12.64V409.365a6,6,0,0,0,3.839,5.6,35.739,35.739,0,0,0,25.788,0,6,6,0,0,0,3.838-5.6V297.436h40.622a66.517,66.517,0,0,0,4.062,10.53A55.024,55.024,0,0,1,346,331.938V470.146A19.854,19.854,0,0,1,326.147,490H185.852A19.854,19.854,0,0,1,166,470.147V395a6,6,0,0,0-12,0v75.146A31.853,31.853,0,0,0,185.853,502H326.147A31.853,31.853,0,0,0,358,470.146V331.938a67.08,67.08,0,0,0-6.909-29.563,53.287,53.287,0,0,1-5.37-23.639v-27.2a6,6,0,0,0-6-6H295.785V198.205c.211,0,.423.015.633.015a30.274,30.274,0,0,0,21.4-8.854l59.07-58.96a68.45,68.45,0,0,0,20.228-48.739,70.346,70.346,0,0,0-20.759-49.334C357.077,13.052,327.932,5.9,302.409,14.684ZM262.32,245.532H249.68V198.205c.211,0,.422.015.633.015a30.256,30.256,0,0,0,5.311-.478,30.2,30.2,0,0,0,6.7.419Zm-24.64-62.247a29.767,29.767,0,0,0-9.465-.142V89.935a23.678,23.678,0,0,1,9.465,0Zm0,12.3v49.945h-9.465V195.371A18.2,18.2,0,0,1,237.68,195.587Zm0,61.945v27.9h-9.465v-27.9Zm-59.765,27.9a65.836,65.836,0,0,0,.363-6.7v-21.2h37.937v27.9ZM237.68,404.892a23.715,23.715,0,0,1-9.465,0V297.436h9.465Zm12-119.456v-27.9h12.64v27.9Zm24.64-27.9h9.465v27.9H274.32Zm9.465,147.36a23.715,23.715,0,0,1-9.465,0V297.436h9.465Zm49.937-147.36v21.2a66.122,66.122,0,0,0,.361,6.7h-38.3v-27.9Zm-59.4-12V195.371a18.2,18.2,0,0,1,9.465.216v49.945Zm3.93-62.691,5.535-5.525v5.97A30.08,30.08,0,0,0,278.25,182.841Zm-15.015-1.967A18.264,18.264,0,0,1,249.68,186.2V85.461a6,6,0,0,0-3.839-5.6,35.722,35.722,0,0,0-25.788,0,6,6,0,0,0-3.838,5.6V186.153a18.266,18.266,0,0,1-14.407-5.292l-57.74-57.737a58.255,58.255,0,0,1-17.184-41.571,60.764,60.764,0,0,1,17.984-42.336A58.351,58.351,0,0,1,185.624,22a56.462,56.462,0,0,1,40.184,16.648l2.466,2.467a6,6,0,0,0,8.483,0l1.092-1.091a58.372,58.372,0,0,1,41.529-17.191,60.869,60.869,0,0,1,42.389,17.982,58.432,58.432,0,0,1,17.244,40.843,56.53,56.53,0,0,1-16.706,40.251Zm105.176-58.962L309.34,180.874a18.261,18.261,0,0,1-13.555,5.322V165.338l35-34.932a68.459,68.459,0,0,0,20.228-48.739,70.343,70.343,0,0,0-20.76-49.334A81.382,81.382,0,0,0,319.3,23.161c17.433-1.8,35.753,4.84,48.569,17.657a58.426,58.426,0,0,1,17.244,40.843A56.533,56.533,0,0,1,368.411,121.912Z"/><path d="M185.732,376.773a6,6,0,0,0,6-6V361.96a6,6,0,0,0-12,0v8.813A6,6,0,0,0,185.732,376.773Z"/><path d="M179.732,459.425a6,6,0,0,0,12,0V392.6a6,6,0,0,0-12,0Z"/></svg>
