<svg id="Layer_1" height="512" viewBox="0 0 512 512" width="512" xmlns="http://www.w3.org/2000/svg" data-name="Layer 1"><path d="m458.8 122.337a6 6 0 0 0 -4.23-4.233l-29.915-8.082-8-29.749a6 6 0 0 0 -4.228-4.233l-33.147-8.953a6 6 0 0 0 -5.8 1.54l-21.78 21.686-30.125-8.138a6 6 0 0 0 -5.8 1.539l-24.235 24.12a6 6 0 0 0 -1.581 5.738l7.75 30.34-21.5 20.828a6 6 0 0 0 -1.615 5.885l9.01 33.116a6 6 0 0 0 4.224 4.217l29.909 8.081 7.971 29.878a6 6 0 0 0 4.231 4.245l33.138 8.953a6 6 0 0 0 5.808-1.549l21.82-21.815 30.008 8.107a6 6 0 0 0 5.8-1.54l24.239-24.134a6 6 0 0 0 1.541-5.882l-8.134-28.826 22.017-22.29a6 6 0 0 0 1.525-5.777zm-79.3-42.763 26.462 7.15 7.1 26.39-19.317 19.225-26.463-7.151-7.1-26.38zm17.961 91.285-19.061 18.456-26.578-7.18-7.342-25.588 19.693-19.766 26.4 7.132zm-75.668-76.2 26.787 7.241 7.106 26.4-19.739 19.812-26.616-7.19-6.9-27zm-.913 109.794-26.594-7.185-7.186-26.374 19.007-18.413 26.8 7.239 7.334 25.562zm41.981 42.169-26.445-7.145-7.074-26.516 19.423-19.228 26.462 7.149 7.01 26.37zm57.639-15.251-26.671-7.206-6.994-26.308 19.023-18.429 26.727 7.22 7.2 25.52zm15.124-56.331-26.545-7.171-6.9-27 19.352-19.26 26.573 7.18 7.111 26.414z"/><path d="m93.45 232.891 37.592-12.175 70.819 218.675a22.331 22.331 0 1 0 11.418-3.693l-70.821-218.679 37.014-11.988a30.085 30.085 0 0 0 17.644-14.391 29.071 29.071 0 0 0 2.173-22.692l-.941-3.014a33.378 33.378 0 0 0 -9.191-14.343 39.092 39.092 0 0 0 15.062-14.944 36.944 36.944 0 0 0 2.977-29.369l-1.3-4.173a41.474 41.474 0 0 0 -19.263-23.558 38.77 38.77 0 0 0 -21.96-4.961 26.6 26.6 0 0 0 -.583-14.33l-.94-3.007a30.711 30.711 0 0 0 -14.691-17.862 29.431 29.431 0 0 0 -23.093-2.393l-86.023 27.86a29.961 29.961 0 0 0 -17.634 14.494 29.311 29.311 0 0 0 -2.134 22.742l.942 3.014a29.8 29.8 0 0 0 8.551 13.306 38.926 38.926 0 0 0 -15.006 16.09 40.129 40.129 0 0 0 -2.173 29.973l1.082 3.464a39.209 39.209 0 0 0 37.405 27.474c1.244 0 2.5-.066 3.75-.188a29.942 29.942 0 0 0 .65 15.562l.94 3.007a30.455 30.455 0 0 0 14.7 17.8 29.858 29.858 0 0 0 14.237 3.654 29.492 29.492 0 0 0 8.797-1.355zm117.562 215.281a10.294 10.294 0 1 1 -6.622 12.965 10.318 10.318 0 0 1 6.622-12.965zm-178.725-364.159a18.082 18.082 0 0 1 10.691-8.724l86.022-27.859a17.5 17.5 0 0 1 13.7 1.486 19.03 19.03 0 0 1 8.995 10.908l.942 3.015c1.581 5.049.657 9.792-2.813 14.458l-106.98 34.646a17.812 17.812 0 0 1 -10.875-11.422l-.94-3.006a17.412 17.412 0 0 1 1.258-13.502zm43.837 136.015a18.522 18.522 0 0 1 -8.954-10.814l-.941-3.015a17.869 17.869 0 0 1 2.446-15.721l10.525-3.409a6 6 0 0 0 -3.7-11.416l-17.062 5.527a27.181 27.181 0 0 1 -34.013-17.825l-1.134-3.631a27.889 27.889 0 0 1 1.28-20.406 27.031 27.031 0 0 1 16.436-14.167l119.014-38.544a25.08 25.08 0 0 1 7.485-1.14 27.218 27.218 0 0 1 13.276 3.558 29.345 29.345 0 0 1 13.656 16.657l1.3 4.172c4.392 14.061-3.445 28.146-18.289 32.782l-54.378 17.611a6 6 0 1 0 3.7 11.416l48.8-15.806a20.677 20.677 0 0 1 11.321 12.66l.939 3.006a17.166 17.166 0 0 1 -1.27 13.4 18.2 18.2 0 0 1 -10.728 8.673l-86.018 27.859a17.586 17.586 0 0 1 -13.691-1.427z"/><path d="m163.739 410.36a6 6 0 1 0 11.416-3.7l-19.2-59.285a6 6 0 0 0 -11.416 3.7z"/><path d="m148.792 325.913-2.442-7.319a6 6 0 1 0 -11.383 3.8l2.442 7.319a6 6 0 1 0 11.383-3.8z"/><path d="m500.844 178.3-23.882-91.746a39.712 39.712 0 0 0 -27.8-28.2l-91.4-25.193a39.7 39.7 0 0 0 -38.323 9.976l-67.516 66.555a39.71 39.71 0 0 0 -10.523 38.177l23.882 91.748a39.705 39.705 0 0 0 27.8 28.2l28.923 7.973-50.286 182.445a17.4 17.4 0 0 0 12.152 21.4 17.482 17.482 0 0 0 4.651.634 17.427 17.427 0 0 0 16.749-12.786l50.288-182.444 28.923 7.972a39.672 39.672 0 0 0 38.323-9.976l67.515-66.556a39.711 39.711 0 0 0 10.524-38.179zm-207.144 286a5.4 5.4 0 0 1 -10.415-2.871l50.289-182.445 10.415 2.871zm188.2-256.366-67.519 66.556a27.667 27.667 0 0 1 -26.71 6.952l-91.4-25.192a27.675 27.675 0 0 1 -19.371-19.65l-23.881-91.749a27.674 27.674 0 0 1 7.333-26.608l67.516-66.556a27.65 27.65 0 0 1 26.709-6.953l91.4 25.193a27.676 27.676 0 0 1 19.376 19.655l23.881 91.748a27.678 27.678 0 0 1 -7.334 26.604z"/></svg>