<svg id="Layer_1" enable-background="new 0 0 512 512" height="512" viewBox="0 0 512 512" width="512" xmlns="http://www.w3.org/2000/svg"><path d="m501.7 430.7c-.4-1.8-1.4-3.5-2.8-4.8-2-1.9-4.6-2.8-7.3-2.7l-180.6 10.6-71.8-147.1c-.4-.9-1-1.8-1.7-2.5l-112.6-118.6 21.5-120.5c.4-2.7-1.1-5.6-3.8-6.7s-5.8-.2-7.4 2.1l-13.9 19.6-7.4-34.8c-.8-3.6-4.3-5.9-7.9-5.2-2.7.6-4.8 2.7-5.2 5.5l-13.5 82.6-3.8 5.3-69.1 21.5c-3.3 1-5.1 4.5-4.1 7.8.4 1.3 1.3 2.5 2.4 3.3l65.1 44.3 20.8 27.2-.2 15.1h-31.8c-1.5 0-2.9.5-4 1.4l-14.9 11.9c-1.7 1.4-2.6 3.6-2.4 5.8l4.6 38.9c.4 3.7 4 6.3 7.7 5.5 1.5-.3 2.8-1.2 3.8-2.4l19.2-23.1h17.4l-1 75.6c0 2.1 1 4.1 2.7 5.3l65.1 44.8v40.1l-66.2 22.5c-3.8 1.3-5.8 5.4-4.5 9.1 1 3 3.9 5 7.1 4.9l96.2-2.9c2.8-.1 5.2-2 5.9-4.7l14.9-55.8 68.9 80c1.2 1.4 2.9 2.2 4.8 2.2.5 0 1-.1 1.5-.2l201.2-49.1c5.2-1.2 8.4-6.5 7.1-11.8zm-441.4-154-2.7-23 6.6-5.3 6.7 15.5zm37.8-17.6h-16.2l-6.1-14.2h22.5zm109.1 10.5-66.6-30.8-7.1-46.7zm11.5 18.5-66.1 29.5-9.9-64.7zm-110.6-232.6 3.8 18-8.8 12.4zm21.9 13.1-15.1 84.6-20.4-34.4zm-45.3 57.2 13 21.9-55.9-8.6zm-43.3 25.4 63.4 9.7-23 17.8zm49 36 22.2-17.2 6.5 6.8 7.7 50.5-17.8-15.8zm20 41.7 19.1 17 11.7 76.9-32.1 14.3zm4.7 118.7 29.3-13.1 14.8 43.4zm40.2-18 70.7-31.6-53.6 81.6zm-22.6 130.5 36.5-12.4 12.5 11zm61.3-6.6-17.2-15.1v-34.7h30.5zm17.2-61.8h-32.3l56.3-85.8.3.6zm78.1 82.2-66.9-77.7 21-73.6 57.4 117.6zm11.4 3.7 10.8-31.8 156.9-9.2z"/></svg>