<svg id="Layer_1" height="512" viewBox="0 0 512 512" width="512" xmlns="http://www.w3.org/2000/svg" data-name="Layer 1"><path d="m498.545 302.256-102.788-62.521 32.023-31.313a6.28 6.28 0 0 0 -4.392-10.769h-41.6l36.207-87.407a6.085 6.085 0 0 0 -7.342-8.18l-97.874 29 .583-29.927a6.281 6.281 0 0 0 -9.747-5.358l-41.931 27.774-40.346-96.992a6.444 6.444 0 0 0 -11.848-.125l-40.805 92.642-36.615-30.38a6.28 6.28 0 0 0 -10.291 4.638l-1.415 46.508-101.736-37.457a6.236 6.236 0 0 0 -7.708 8.675l43.923 86.589h-38.563a6.28 6.28 0 0 0 -4.747 10.391l74.907 86.491a6.256 6.256 0 0 0 4.77 2.174h.227l104.42-4.066-96.893 91.807a6 6 0 1 0 8.254 8.711l96.2-91.152-7.657 106.891a6.25 6.25 0 0 0 2.1 5.126l75.438 66.86a6.281 6.281 0 0 0 10.42-4.289l1.641-24.477 104.094 36.764a7.973 7.973 0 0 0 10.425-9.879l-29.473-101.519 37.873 3.216a6.279 6.279 0 0 0 5.236-10.42l-17.1-19.313 100.866-36.049a7.008 7.008 0 0 0 1.264-12.664zm-43.635-12.5-96.949-13.066 28.941-28.3zm-166.924 68.689-55.6-62.5 145.314 70.117zm-61.249-50.791 52.339 58.83-5.362 79.962zm-104.658-98 61.483 56.558-137.521-56.559zm268.928 0-151.668 56.822 68.213-56.839c.108 0 .215.016.324.016zm-175.607 68.233a4.063 4.063 0 1 1 -4.076 4.062 4.073 4.073 0 0 1 4.076-4.062zm84.015-77.087-66.937 55.776 68.4-130.765zm-79.035 53.013-1.75-87.351 72.592-48.082zm-13.759-87.667 1.825 91.113-64.522-143.131zm-8.7 96.969-67.416-62.015 2.5-82zm47.195 25.651 87.013 7.715 52.993 59.841zm87.7-4.271-86.824-7.7 153.515-57.514zm-.641-86.842 57.977-51.553-21.352 51.553zm68.506-76.974-86.565 76.974h-2.639l.109-5.585 85.454-73.455 5.126-1.518zm-31.732 6.256-57.049 49.038.63-32.323zm-139.273 17.816v-66.9l21.817 52.449zm-12-95.745v103.694l-4.709 3.119-.881-.731.8-106.59 2.355-5.347zm-17 27.211-.518 68.976-21.87-18.145zm-81.46 101.3-52.6-44.671 53.367 19.649zm-85.336-56.725 84.87 72.07-.146 4.791h-3.885l-83.613-73.322-2.845-5.608zm11.809 32.288 50.829 44.573h-28.218zm-8.97 65.714 151.116 62.149-94.118 3.664zm178.153 91.234 49.822 147.2-56.76-50.307zm74.61 80.624 67.9 74.181-71.19-25.143zm91.941 82.67-90.831-99.228.226-3.365 4.245.36 90.156 100.464 1.007 3.466zm-3.914-28.329-64.992-72.422 45.083 3.829zm-20.409-138.42 95.087 11.721-64.343 23zm120.243 2.73-132.266-16.303-1.76-1.987 3.761-3.678 133.406 17.98 2.966 1.8z"/></svg>