<?xml version="1.0" encoding="UTF-8"?>
<svg xmlns="http://www.w3.org/2000/svg" xmlns:xlink="http://www.w3.org/1999/xlink" version="1.1" id="Layer_1" x="0px" y="0px" viewBox="0 0 512 512" style="enable-background:new 0 0 512 512;" xml:space="preserve" width="512" height="512">
<g>
	<path d="M436.1,117.6c-43.1-43-104.4-65.9-169.4-63.3c-0.4-2.4-1.6-4.7-3.3-6.5l-34.3-34.3c-4.7-4.7-12.2-4.7-16.9,0l-71.3,71.3   l-3.4-3.4C122,66,97,66,81.6,81.4c-15.4,15.4-15.4,40.5,0,55.9l3.4,3.4L13.7,212c-4.7,4.7-4.7,12.2,0,16.9L48,263.3   c1.8,1.8,4,2.9,6.5,3.3C52,331.6,74.9,393,117.9,436c42.4,42.4,100,66.1,159.9,65.9c60.5-0.2,118.4-24.8,160.7-68.2   C523.8,346,522.8,204.2,436.1,117.6z M90,89.9c10.8-10.8,28.2-10.8,39,0l3.4,3.4l-39,39l-3.4-3.4C79.3,118.1,79.3,100.7,90,89.9z    M107.1,212.8c-2.3-2.4-6.1-2.4-8.5-0.1c0,0,0,0-0.1,0.1l-42,42l-34.3-34.2L220.6,22L255,56.2L133.8,177.5c-2.3,2.3-2.3,6.1,0,8.5   c2.3,2.3,6.1,2.3,8.5,0L261.6,66.6c63.7-4,124.1,17.7,166,59.6c29.6,29.5,48.6,65.8,57.1,104.1c-0.8-1.5-1.7-2.9-2.8-4.3   c-4.2-4.9-10.2-7.6-17.3-7.8c3.2-6.3,3.7-12.8,1.4-18.9c-4.3-10.6-15.4-16.8-26.7-14.9c-6.4,1.2-11.7,5-15.4,11   c-3.9-5.9-9.3-9.6-15.7-10.6c-11.3-1.6-22.3,4.9-26.3,15.7c-2.1,6.1-1.5,12.6,1.9,18.8c-7,0.4-12.9,3.2-17,8.3   c-4.9,6.3-6.5,14.6-4.1,22.2c-2.2-0.2-4.4-0.2-6.6,0.2c-6.4,1.2-11.7,5-15.4,11c-3.9-5.9-9.3-9.6-15.7-10.6   c-11.3-1.6-22.3,4.9-26.3,15.7c-2.1,6.1-1.5,12.6,1.9,18.8c-3.8,0.2-7.5,1.2-10.8,3.1c-0.2-1.5-0.6-3-1.2-4.5   c-4.3-10.6-15.4-16.8-26.7-14.9c-6.4,1.2-11.7,5-15.4,11c-3.9-5.9-9.3-9.6-15.7-10.6c-11.3-1.6-22.3,4.9-26.3,15.7   c-2.1,6.1-1.5,12.6,1.9,18.8c-7,0.4-12.9,3.2-17,8.3c-2.4,2.9-4,6.4-4.7,10.1c-4.3-1.9-9.1-2.5-13.7-1.6c-6.4,1.2-11.7,5-15.4,11   c-3.9-5.9-9.3-9.6-15.7-10.6c-11.3-1.6-22.3,4.9-26.3,15.7c-2.1,6.1-1.5,12.6,1.9,18.8c-7,0.4-12.9,3.2-17,8.3   c-4.9,6.2-6.3,14.3-4.3,21.6C73.8,348.9,64,306,66.8,261.5l40.2-40.2C109.4,219,109.4,215.2,107.1,212.8z M440.3,257.8   c12.1,6.8,17.9,15,15.5,22c-2,5.3-7.4,8.5-13,7.8c-7.3-1.2-11.8-10.2-11.9-24.1c0-3.3-2.8-5.9-6-5.9c-3.3,0-6,2.8-6,6   c0.2,13.9-4,23.1-11.3,24.4c-5.6,0.9-11.1-2.2-13.2-7.4c-2.6-6.9,2.9-15.3,14.9-22.4c2.9-1.7,3.8-5.3,2.2-8.2   c-1.7-2.9-5.4-3.8-8.3-2.1c-11.9,7.1-22,8.1-26.8,2.5c-3.6-4.4-3.7-10.7-0.2-15.2c4.7-5.7,14.7-5.1,26.8,1.7   c2.9,1.7,6.5,0.7,8.2-2.2c1.7-2.9,0.6-6.6-2.3-8.2c-12.1-6.8-18-15-15.6-22c2-5.3,7.4-8.5,13-7.8c7.3,1.2,11.8,10.2,11.9,24.1   c0,3.3,2.8,5.9,6,5.9c3.3,0,6-2.8,6-6c-0.2-13.9,4-23.1,11.3-24.4c5.6-0.9,11.1,2.2,13.2,7.4c2.6,6.9-2.9,15.3-14.9,22.4   c-2.8,1.7-3.8,5.4-2.1,8.2c1.7,2.8,5.4,3.8,8.2,2.1c11.9-7.1,21.9-8,26.8-2.4c3.7,4.2,3.7,10.5,0.3,15c-4.7,5.7-14.7,5.1-26.8-1.7   c-2.9-1.6-6.5-0.6-8.2,2.3C436.4,252.5,437.4,256.1,440.3,257.8z M427.9,360c12.1,6.8,17.9,15,15.5,22c-2,5.3-7.4,8.5-13,7.8   c-7.3-1.2-11.8-10.2-11.9-24.1c0-3.3-2.8-5.9-6-5.9c-3.3,0-6,2.8-6,6.1c0.2,12-2.9,20.3-8.4,23.3c-2.5-0.9-5.2-1.4-7.9-1.4   c3.2-6.3,3.7-12.8,1.4-18.9c-0.5-1.2-1-2.4-1.7-3.5c2.2-1.8,4.5-3.4,7-4.9c2.8-1.7,3.8-5.4,2.1-8.2s-5.4-3.8-8.2-2.1   c-3.8,2.4-8,4.2-12.3,5.3c-4.1-1.8-8.6-2.3-13.1-1.6c-2.5-2.1-4-5.2-4.1-8.5c-0.1-3.3,1.1-7.7,5-10.1c5.4-3.3,14-1.9,24.3,3.9   c2.9,1.6,6.5,0.6,8.2-2.2c1.6-2.9,0.6-6.6-2.3-8.2c-12.1-6.8-18-15-15.5-22c2-5.3,7.4-8.5,13-7.8c7.3,1.2,11.8,10.2,11.9,24.1   c0,3.3,2.8,5.9,6,5.9c3.3,0,6-2.8,6-6c-0.2-13.9,4-23.1,11.3-24.4c5.6-0.9,11.1,2.2,13.2,7.4c2.6,6.9-2.9,15.3-14.9,22.4   c-2.8,1.7-3.8,5.4-2.1,8.2s5.4,3.8,8.2,2.1c12-7.3,22-8.2,26.8-2.6c3.6,4.4,3.6,10.7,0.2,15.1c-4.7,5.7-14.7,5.1-26.8-1.7   c-2.9-1.6-6.5-0.6-8.2,2.3C424,354.7,425,358.3,427.9,360z M365.9,427.3c12.1,6.8,18,15,15.5,22c-2,5.3-7.4,8.5-13,7.8   c-7.3-1.2-11.8-10.2-11.9-24.1c0-3.3-2.8-5.9-6-5.9c-3.3,0-6,2.8-6,6c0.2,13.9-4,23.1-11.3,24.4c-5.6,0.9-11.1-2.2-13.2-7.4   c-2.6-6.9,2.9-15.3,14.9-22.4c2.9-1.7,3.8-5.4,2.1-8.2c-1.7-2.9-5.4-3.8-8.2-2.1c-11.9,7.1-22,8-26.8,2.5   c-3.6-4.4-3.7-10.7-0.2-15.2c4.7-5.7,14.7-5.1,26.8,1.7c2.9,1.6,6.5,0.6,8.2-2.3c1.6-2.9,0.6-6.5-2.3-8.2c-12.1-6.8-18-15-15.5-22   c2-5.3,7.4-8.5,13-7.8c7.3,1.2,11.8,10.2,11.9,24.1c0,3.3,2.8,5.9,6,5.9c3.3,0,6-2.8,6-6c-0.2-13.9,4-23.1,11.3-24.4   c5.6-0.9,11.1,2.2,13.2,7.4c2.6,6.9-2.9,15.3-14.9,22.4c-2.8,1.7-3.7,5.4-2,8.2s5.3,3.7,8.2,2.1c11.9-7.1,21.9-8,26.8-2.4   c3.5,4.3,3.6,10.6,0.1,15.1c-4.7,5.7-14.7,5.1-26.8-1.7c-2.9-1.6-6.5-0.6-8.2,2.3C361.9,422,363,425.7,365.9,427.3z M310.1,435.5   c-0.2,0.4-0.3,0.7-0.5,1.1c0.1-0.4,0.2-0.7,0.3-1.1C310,435.5,310.1,435.5,310.1,435.5z M263.3,446.2c12.1,6.8,18,15,15.6,22   c-2,5.3-7.4,8.5-13,7.8c-7.3-1.2-11.8-10.2-11.9-24.1c0-3.3-2.8-5.9-6-5.9c-3.3,0-6,2.8-6,6c0.2,13.9-4,23.1-11.3,24.4   c-5.6,0.9-11.1-2.2-13.2-7.4c-2.6-6.9,2.9-15.3,14.9-22.4c2.9-1.7,3.8-5.4,2.1-8.2c-1.7-2.8-5.4-3.8-8.2-2.1   c-11.9,7.1-22,8-26.8,2.5c-3.6-4.4-3.7-10.7-0.2-15.2c4.7-5.7,14.7-5.1,26.8,1.7c2.9,1.6,6.5,0.6,8.2-2.3c1.6-2.9,0.6-6.6-2.3-8.2   c-12.1-6.8-18-15-15.5-22c2-5.3,7.4-8.5,13-7.8c7.3,1.2,11.8,10.2,11.9,24.1c0,3.3,2.8,5.9,6,5.9c3.3,0,6-2.8,6-6   c-0.2-13.9,4-23.1,11.3-24.4c5.6-0.9,11.1,2.2,13.2,7.4c2.6,6.9-2.9,15.3-14.9,22.4c-2.8,1.7-3.8,5.4-2.1,8.2   c1.7,2.8,5.4,3.8,8.2,2.1c7.3-4.4,14-6.4,19.1-6c0.9,3.3,2.5,6.4,4.7,9c1.5,1.8,3.4,3.3,5.4,4.5c-0.4,3-2.1,5.7-4.6,7.3   c-5.3,3.4-14.2,2-24.5-3.7c-2.9-1.6-6.5-0.6-8.2,2.2C259.4,440.9,260.4,444.6,263.3,446.2z M140.7,362.4c-12.1-6.8-17.9-15-15.5-22   c2-5.3,7.4-8.5,13-7.8c7.3,1.2,11.8,10.2,11.9,24.1c0,3.3,2.8,5.9,6,5.9c3.3,0,6-2.8,6-6c-0.2-13.9,4-23.1,11.3-24.4   c5.6-0.9,11.1,2.2,13.2,7.4c2.6,6.9-2.9,15.3-14.9,22.4c-2.8,1.7-3.8,5.4-2.1,8.2c1.7,2.8,5.4,3.8,8.2,2.1   c11.9-7.1,21.9-8,26.8-2.4c3.6,4.4,3.7,10.7,0.2,15.2c-4.7,5.6-14.7,5-26.8-1.8c-2.9-1.6-6.5-0.6-8.2,2.3c-1.7,2.9-0.6,6.5,2.3,8.2   c12.1,6.8,17.9,15,15.5,22c-2,5.3-7.4,8.5-13,7.8c-7.3-1.2-11.8-10.2-11.9-24.1c0-3.3-2.8-5.9-6-5.9c-3.3,0-6,2.8-6,6   c0.2,13.9-4,23.1-11.3,24.4c-5.6,0.9-11.1-2.2-13.2-7.4c-2.6-6.9,2.9-15.3,14.9-22.4c2.8-1.7,3.8-5.4,2.1-8.2   c-1.7-2.8-5.4-3.8-8.2-2.1c-11.9,7.1-21.9,8-26.8,2.4c-3.6-4.4-3.7-10.7-0.2-15.1c4.7-5.7,14.7-5.1,26.8,1.7   c2.9,1.6,6.5,0.6,8.2-2.3C144.7,367.7,143.6,364.1,140.7,362.4z M231.5,310.8c-12.1-6.8-18-15-15.6-22c2-5.3,7.4-8.5,13-7.8   c7.3,1.2,11.8,10.2,11.9,24.1c0,3.3,2.8,5.9,6,5.9c3.3,0,6-2.8,6-6c-0.2-13.9,4-23.1,11.3-24.4c5.6-0.9,11.1,2.2,13.2,7.4   c2.6,6.9-2.9,15.3-14.9,22.4c-2.9,1.7-3.8,5.4-2.1,8.2c1.7,2.9,5.4,3.8,8.2,2.1c11.9-7.1,22-8,26.8-2.5c3.6,4.4,3.7,10.7,0.2,15.2   c-4.7,5.7-14.7,5.1-26.8-1.7c-2.9-1.6-6.5-0.6-8.2,2.3c-1.6,2.9-0.6,6.6,2.3,8.2c12.1,6.8,18,15,15.5,22c-2,5.3-7.4,8.5-13,7.8   c-7.3-1.2-11.8-10.2-11.9-24.1c0-3.3-2.8-5.9-6-5.9c-3.3,0-6,2.8-6,6c0.2,13.9-4,23.1-11.3,24.4c-5.6,0.9-11.1-2.2-13.2-7.4   c-2.6-6.9,2.9-15.3,14.9-22.4c2.9-1.7,3.8-5.3,2.2-8.2c-1.7-2.9-5.4-3.8-8.3-2.1c-11.9,7.1-22,8.1-26.8,2.5   c-3.5-4.6-3.6-10.9-0.1-15.3c4.7-5.7,14.7-5.1,26.8,1.7c2.9,1.7,6.5,0.7,8.2-2.2C235.5,316.1,234.4,312.4,231.5,310.8z M325.6,292   c-12.1-6.8-17.9-15-15.5-22c2-5.3,7.4-8.5,13-7.8c7.3,1.2,11.8,10.2,11.9,24.1c0,3.3,2.8,5.9,6,5.9c3.3,0,6-2.8,6-6   c-0.2-13.9,4-23.1,11.3-24.4c5.6-0.9,11.1,2.2,13.2,7.4c2.6,6.9-2.9,15.3-14.9,22.4c-2.8,1.7-3.7,5.4-2,8.2s5.3,3.7,8.2,2.1   c3-1.8,6.2-3.3,9.5-4.5c-1.1,1.6-2,3.4-2.7,5.3c-1.5,4.3-1.6,8.9-0.4,13.3c-2.1-0.9-4.2-1.9-6.3-3c-2.9-1.6-6.5-0.6-8.2,2.3   c-1.7,2.9-0.6,6.5,2.3,8.2c1,0.5,1.9,1.1,2.8,1.6c-5.9,3.7-9.7,10-10.4,16.9c-1.2-4.2-1.8-8.5-1.8-12.9c0-3.3-2.8-5.9-6-5.9   c-3.3,0-6,2.8-6,6.1c0.2,13.9-4,23-11.3,24.4c-5.6,0.9-11.1-2.2-13.2-7.4c-2.6-6.9,2.9-15.3,14.9-22.4c2.8-1.7,3.7-5.4,2-8.2   s-5.3-3.7-8.2-2.1c-3.4,2.1-7,3.8-10.9,5c-0.9-3-2.4-5.8-4.5-8.3c-3.3-3.9-7.9-6.5-12.9-7.3c0.9-1.9,2.3-3.4,4-4.4   c5.4-3.2,14-1.8,24.2,3.9c2.9,1.6,6.6,0.5,8.2-2.4C329.5,297.2,328.5,293.6,325.6,292z M351,362.8c-0.5,0.7-1,1.4-1.5,2.2   c-2.2-3.5-5.3-6.4-9-8.4c0.5-0.7,1-1.4,1.5-2.2c1.2,1.8,2.6,3.5,4.2,5C347.7,360.7,349.3,361.9,351,362.8z M252,377.9   c-2,1.7-3.7,3.8-5.1,6c-1.2-1.8-2.5-3.4-4.1-4.9c2-1.7,3.7-3.8,5.1-6C249,374.8,250.4,376.4,252,377.9z M207.1,350.3   c-0.9,1.8-1.6,3.7-2.1,5.6c-2.8-1.1-5.7-1.6-8.6-1.7c0.9-1.8,1.6-3.7,2.1-5.6C201.3,349.7,204.2,350.2,207.1,350.3z M206.8,407.8   c-2.3,0.1-4.7,0.6-6.9,1.3c-0.5-2.9-1.4-5.7-2.9-8.3c2.3-0.1,4.7-0.6,6.9-1.3C204.4,402.4,205.4,405.2,206.8,407.8z M116.2,401.9   c-1.9,3.7-2.8,7.5-2.8,11.3c-4.4-5.4-8.6-11.1-12.4-17C105,399.8,110.2,401.7,116.2,401.9z M137.3,436.1c1.4,0,2.8-0.1,4.2-0.4   c6.4-1.2,11.7-5,15.4-11c3.9,5.9,9.3,9.6,15.7,10.6c4.1,0.6,8.3,0.2,12.1-1.3c0.5,4.7,2.4,9.1,5.4,12.7c4.2,4.9,10.2,7.6,17.3,7.8   c-3.2,6.3-3.7,12.8-1.4,18.9c0.8,1.9,1.7,3.6,2.9,5.2c-27-9.1-52-23.4-73.6-42.6C136,436.1,136.6,436.1,137.3,436.1z M287.6,406.7   c0.2-0.4,0.4-0.9,0.6-1.3c-0.1,0.4-0.2,0.9-0.3,1.3C287.8,406.7,287.7,406.7,287.6,406.7z M292.5,397.1c-1.2,1.5-2.2,3.1-3,4.8   c1.4-4.6,1.2-9.6-0.5-14.1c-1.4-3.6-3.7-6.8-6.7-9.4c3.5-2.7,6.1-6.4,7.6-10.5c2.1-6.1,1.5-12.6-1.9-18.8c3.8-0.2,7.5-1.2,10.8-3   c0.2,1.5,0.6,3,1.2,4.4c2.2,5.5,6.3,10,11.6,12.6c-1.7,2-3,4.4-3.9,6.9c-2.2,6.1-1.6,12.6,1.8,18.8   C302.5,389.2,296.6,392,292.5,397.1z M381.4,283.9c0.3-0.6,0.6-1.2,0.9-1.9c0.2,0.7,0.3,1.3,0.6,2   C382.4,283.9,381.9,283.9,381.4,283.9z M383.1,265.9c0.5,0,0.9,0.1,1.4,0.1c-0.3,0.6-0.6,1.2-0.9,1.9   C383.5,267.2,383.3,266.5,383.1,265.9z M238.6,486.3c3.8-1.9,7-5,9.5-9c3.9,5.9,9.3,9.6,15.7,10.6c11.3,1.6,22.3-4.9,26.3-15.7   c2.1-6.1,1.5-12.6-1.9-18.8c4.2-0.2,8.3-1.4,11.9-3.7c3.5-2.3,6.3-5.5,8-9.3c-1.3,4.6-1.2,9.5,0.6,14c3.7,9.2,12.6,15.2,22.5,15.3   c1.4,0,2.8-0.1,4.2-0.4c6.4-1.2,11.7-5,15.4-11c3.9,5.9,9.3,9.6,15.7,10.6c0.9,0.1,1.9,0.2,2.8,0.2c-28,13.5-59,20.7-90.7,20.9   C265.1,490,251.7,488.7,238.6,486.3z M429.9,425.4c-11.8,12.2-24.9,22.8-39,31.7c0.7-1.2,1.4-2.6,1.9-3.9   c2.1-6.1,1.5-12.6-1.9-18.8c7-0.4,12.9-3.2,17-8.3c6.8-8.6,6.9-20.7,0.4-29.5c1.8-1.6,3.3-3.5,4.5-5.6c3.9,5.9,9.3,9.6,15.7,10.6   c1.2,0.2,2.4,0.3,3.5,0.3c10.1-0.1,19.2-6.4,22.7-15.9c2.1-6.1,1.5-12.6-1.9-18.8c7-0.4,12.9-3.2,17-8.3c7.1-9,6.9-21.8-0.4-30.6   c-4.2-4.9-10.2-7.6-17.3-7.8c3.2-6.3,3.7-12.8,1.4-18.9c-0.4-1.1-1-2.2-1.6-3.3c7-2.3,12.5-7.7,15.1-14.6   c2.1-6.1,1.5-12.6-1.9-18.8c7-0.4,12.9-3.2,17-8.3c3-3.7,4.7-8.1,5.2-12.5C497.2,308.1,478.1,375.8,429.9,425.4z"/>
	<path d="M316.6,104.4c27.7,6.2,53.8,17.9,76.9,34.4c2.6,2,6.4,1.5,8.4-1.2c2-2.6,1.5-6.4-1.2-8.4c-0.1,0-0.1-0.1-0.2-0.1   c-24.4-17.4-52-29.7-81.2-36.3c-3.2-0.8-6.5,1.2-7.2,4.5C311.3,100.4,313.3,103.6,316.6,104.4z"/>
	<path d="M284.8,99.5c0-0.1,0-0.1,0.1-0.1c3.3,0.3,6.7,0.7,10,1.1c0.3,0,0.5,0.1,0.8,0.1c3.3,0,6-2.7,6-6c0-3-2.2-5.6-5.2-6   c-3.5-0.5-7-0.8-10.5-1.1c-3.3-0.3-6.2,2.1-6.6,5.4C279.1,96.2,281.5,99.1,284.8,99.5z"/>
</g>
</svg>
