<svg id="Layer_1" height="512" viewBox="0 0 512 512" width="512" xmlns="http://www.w3.org/2000/svg" data-name="Layer 1"><path d="m495.826 360.276-122.926-108.44v-232.473a9.36 9.36 0 0 0 -16.324-6.251l-108.376 120.651-231.9 1.685a9.355 9.355 0 0 0 -6.029 16.452l122.85 105.371-2.663 235.256a9.27 9.27 0 0 0 6.04 8.854 9.462 9.462 0 0 0 3.361.622 9.273 9.273 0 0 0 7.037-3.25l108.666-125.587 233.938 3.479h.144a9.355 9.355 0 0 0 6.187-16.37zm-392.81-144.633 2.1-68.84 131.461-.955-97.794 100.474zm257.884 24.523-101.727-100.666 42.9-47.753 58.827 11.116zm-8.593 8.377h-94.477l-.816-94.3zm-106.48 0h-92.462l91.65-94.163zm-100.835 20.226 99.654 98.673-46.016 53.183h-55.357zm8.748-8.226h92.193l.8 92.073zm104.193 0h94.35l-93.551 92.35zm102.967-234.287v64.394l-49.453-9.343zm-267.794 120.634-1.79 58.718-67.868-58.208zm49.433 338.564.6-52.829h45.111zm224.593-222.706 41.929 36.988 4.3 63.776-146.106-2.173zm58.268 100.943-3.553-52.674 60.672 53.524z"/></svg>