<svg id="Layer_1" height="512" viewBox="0 0 512 512" width="512" xmlns="http://www.w3.org/2000/svg" data-name="Layer 1"><path d="m499.26 79.978a30.034 30.034 0 0 0 -26.686-26l-73.537-13.878a29.965 29.965 0 0 0 -34.643 36.723 29.945 29.945 0 0 0 3.125 38.406 28.952 28.952 0 0 0 -17.757 30.471l.267 2.075a28.71 28.71 0 0 0 8.049 16.584 29.993 29.993 0 0 0 -8.78 48.608 29.982 29.982 0 0 0 11.9 57.494l17.028 2.682-15.126 80.448-35.342 22.488a76.362 76.362 0 0 0 -63.666-34.246h-37.492l-13.9-75.635 21.15-18.347 42.35 13.741a6 6 0 0 0 6.008-1.38l33.8-32.469a6 6 0 0 0 1.744-5.412l-36.139-196.6a18.024 18.024 0 0 0 -20.959-14.449l-219.901 40.426a18.02 18.02 0 0 0 -14.448 20.958l2.155 11.724a6 6 0 0 0 11.8-2.17l-2.153-11.72a6.005 6.005 0 0 1 4.816-6.985l219.9-40.425a6 6 0 0 1 6.986 4.816l35.557 193.423-28.885 27.744-42.162-13.678a5.994 5.994 0 0 0 -5.783 1.174l-18.363 15.931-4.137-22.506a88.315 88.315 0 1 0 -36.45 6.71l4.16 22.63-22-8.583a6 6 0 0 0 -5.94.914l-34.563 27.8-37.586-15.579-24.345-132.439a6 6 0 0 0 -11.8 2.17l24.933 135.648a6 6 0 0 0 3.6 4.458l46.177 18.644a6 6 0 0 0 3.761-1.324l34.629-27.853 25.688 10.017 12.615 68.626h-15.469a76.359 76.359 0 0 0 -63.665 34.246l-37.305-23.736a24.659 24.659 0 0 0 -37.9 20.8v9.157a47.591 47.591 0 0 0 -3.291 74.848l3.291 2.821v9.731a24.337 24.337 0 0 0 12.792 21.615 24.341 24.341 0 0 0 25.105-.81l37.3-23.736a76.36 76.36 0 0 0 63.665 34.247h90.646a76.363 76.363 0 0 0 63.666-34.247l37.3 23.736a24.474 24.474 0 0 0 22.943 1.884 17.121 17.121 0 0 0 14.708 8.393h61.074a17.15 17.15 0 0 0 17.131-17.131v-35.518a17.126 17.126 0 0 0 -7.578-14.213 62.721 62.721 0 0 0 -75.386-89.656l12.222-65.089 21.695 4.095a29.966 29.966 0 0 0 34.761-36.236 29.957 29.957 0 0 0 -3.6-38.184 29.976 29.976 0 0 0 9.394-48.58 28.952 28.952 0 0 0 17.759-30.477l-.266-2.076a28.713 28.713 0 0 0 -8.061-16.6 30.037 30.037 0 0 0 17.414-31.139zm-123.46-13.755a17.984 17.984 0 0 1 21.008-14.337l34.717 6.552-46.5 5.967a29.82 29.82 0 0 0 -9.376 2.823c.045-.336.092-.671.151-1.005zm-119.64 287.61h7.928a63.971 63.971 0 0 1 34.388 9.995c.061.681.1 1.365.1 2.05a22.926 22.926 0 1 1 -45.852 0 22.64 22.64 0 0 1 3.44-12.045zm-127.347-142.611a76.4 76.4 0 0 1 29.554-138.045 77.163 77.163 0 0 1 13.975-1.277 76.413 76.413 0 1 1 -43.529 139.326zm52.88 24.97c2.157-.236 4.316-.53 6.471-.926s4.275-.894 6.376-1.44l19.86 108.007h-13.287zm-77.746 220.064-37.912 24.123a12.659 12.659 0 0 1 -19.455-10.679v-10.013a11.388 11.388 0 0 0 -3.979-8.654l-3.5-3a35.591 35.591 0 0 1 2.488-55.994l.221-.158a11.42 11.42 0 0 0 4.77-9.281v-9.457a12.658 12.658 0 0 1 19.454-10.679l37.913 24.123a75.906 75.906 0 0 0 -6.881 31.622v6.421a75.91 75.91 0 0 0 6.881 31.626zm172.4 31.574a64.393 64.393 0 0 1 -12.257 1.185h-24.69a18.672 18.672 0 1 1 36.949-1.185zm52.124-63.2a64.471 64.471 0 0 1 -40.054 59.593 30.672 30.672 0 0 0 -61.3 1.609 31.084 31.084 0 0 0 .167 3.179h-53.838a64.453 64.453 0 0 1 -64.38-64.381v-6.421a64.453 64.453 0 0 1 64.38-64.38h69.44a34.921 34.921 0 1 0 66.968 19.149 64.168 64.168 0 0 1 18.619 45.231zm57.109 23.5v31.9a12.521 12.521 0 0 1 -14.078.344l-37.912-24.123a75.91 75.91 0 0 0 6.881-31.622v-6.421a75.906 75.906 0 0 0 -6.881-31.622l37.91-24.118a12.658 12.658 0 0 1 19.454 10.679v9.453a11.41 11.41 0 0 0 4.76 9.265l.247.178a35.564 35.564 0 0 1 13.471 38.957h-6.719a17.15 17.15 0 0 0 -17.131 17.133zm83.336 35.517a5.137 5.137 0 0 1 -5.131 5.131h-61.072a5.137 5.137 0 0 1 -5.131-5.131v-35.514a5.137 5.137 0 0 1 5.131-5.133h61.074a5.137 5.137 0 0 1 5.131 5.131zm-7.816-52.647h-25.987c.745-.5 1.484-1 2.212-1.53a62.938 62.938 0 0 0 25.848-49.9 50.483 50.483 0 0 1 -2.073 51.43zm-12.507-68.32a50.709 50.709 0 0 1 -25.851 61.607c.077-1.089.129-2.182.129-3.281a47.47 47.47 0 0 0 -2.754-15.878 62.345 62.345 0 0 0 25.306-44.622q1.618 1.022 3.168 2.176zm-14.916-7.612a50.4 50.4 0 0 1 -19.077 39.163 47.43 47.43 0 0 0 -11.642-11.931v-9.148a24.375 24.375 0 0 0 -5.621-15.72 50.377 50.377 0 0 1 36.338-2.362zm-48.885-5.723a24.12 24.12 0 0 0 -8.529-.816l13.755-73.161 8.368 1.579zm70.308-92.204a18.011 18.011 0 0 1 -21 14.338l-31.931-6.027 43.546-5.588a29.847 29.847 0 0 0 9.41-2.839c-.01.038-.014.075-.025.116zm-10.921-9.179-80.677 10.352a17.984 17.984 0 0 1 -4.578-35.676l85.876-10.252a17.979 17.979 0 0 1 -.62 35.576zm9.209-48.776-80.677 10.351a17.984 17.984 0 0 1 -4.578-35.676l85.875-10.252a17.979 17.979 0 0 1 -.62 35.577zm10.247-48.911-82.748 10.625a16.986 16.986 0 0 1 -5.023-.1v-.022l-.06.008a16.948 16.948 0 0 1 -13.87-14.531l-.266-2.075a16.956 16.956 0 0 1 14.644-18.956l84.943-10.759a16.892 16.892 0 0 1 2.83.241v.021l.06-.008a16.952 16.952 0 0 1 13.874 14.53l.266 2.076a16.957 16.957 0 0 1 -14.646 18.95zm8.17-48.643-85.873 10.252a17.978 17.978 0 0 1 .618-35.576l80.68-10.353a17.985 17.985 0 0 1 4.579 35.677z"/><path d="m194.834 376.043a34.926 34.926 0 1 0 34.926 34.926 34.966 34.966 0 0 0 -34.926-34.926zm0 57.852a22.926 22.926 0 1 1 22.926-22.926 22.952 22.952 0 0 1 -22.926 22.931z"/><path d="m153.96 389.274a14 14 0 1 0 -14 14 14.016 14.016 0 0 0 14-14zm-14 2a2 2 0 1 1 2-2 2 2 0 0 1 -2 2z"/><path d="m155.273 450.142a14 14 0 1 0 14 14 14.016 14.016 0 0 0 -14-14zm0 16a2 2 0 1 1 2-2 2 2 0 0 1 -2 2z"/><path d="m270.126 414.409a14 14 0 1 0 14 14 14.015 14.015 0 0 0 -14-14zm0 16a2 2 0 1 1 2-2 2 2 0 0 1 -2 2z"/><path d="m20.251 153.343a6.005 6.005 0 0 0 5.908-7.086l-1.759-9.595a6 6 0 1 0 -11.8 2.17l1.764 9.595a6 6 0 0 0 5.887 4.916z"/><path d="m18.733 172.234 12.413 67.524a6 6 0 0 0 11.8-2.17l-12.411-67.524a6 6 0 1 0 -11.8 2.17z"/><path d="m230.029 140.338q-.169-1.282-.407-2.577v-.018a58.39 58.39 0 1 0 -57.561 69 59.064 59.064 0 0 0 10.683-.978 58.471 58.471 0 0 0 47.285-65.427zm-46.229 42.644a31.737 31.737 0 0 1 -36.907-25.445 24.186 24.186 0 0 1 19.393-28.129 18.127 18.127 0 0 1 21.106 14.552 13.3 13.3 0 0 1 -10.679 15.486 9.439 9.439 0 0 1 -10.992-7.578 6.359 6.359 0 0 1 5.1-7.4 6 6 0 1 0 -2.171-11.8 18.377 18.377 0 0 0 -14.732 21.37 21.443 21.443 0 0 0 24.965 17.211 25.3 25.3 0 0 0 20.31-29.459 30.129 30.129 0 0 0 -35.077-24.185 36.2 36.2 0 0 0 -29.026 42.1 43.762 43.762 0 0 0 34.467 34.952 46.408 46.408 0 0 1 -5.766-91.977 46.881 46.881 0 0 1 8.488-.779 46.435 46.435 0 0 1 45.54 38.028c.121.657.219 1.314.311 1.97 2.65 20.091-11.2 36.831-34.33 41.083z"/><path d="m447.554 448.78h-28.608a15.6 15.6 0 0 0 -15.586 15.585v3.053a15.6 15.6 0 0 0 15.586 15.582h28.608a15.6 15.6 0 0 0 15.586-15.585v-3.053a15.6 15.6 0 0 0 -15.586-15.582zm3.586 18.638a3.59 3.59 0 0 1 -3.586 3.582h-28.608a3.59 3.59 0 0 1 -3.586-3.585v-3.053a3.59 3.59 0 0 1 3.586-3.585h28.608a3.59 3.59 0 0 1 3.586 3.585z"/></svg>