<svg id="Layer_1" height="512" viewBox="0 0 512 512" width="512" xmlns="http://www.w3.org/2000/svg" data-name="Layer 1"><path d="m126.677 90.84 26.9 9.964a6 6 0 1 0 4.169-11.252l-26.9-9.964a6 6 0 1 0 -4.169 11.252z"/><path d="m142.445 136.847a6 6 0 0 0 2.085-11.628l-26.9-9.963a6 6 0 0 0 -4.168 11.252l26.9 9.963a5.976 5.976 0 0 0 2.083.376z"/><path d="m422.161 468.226a6.148 6.148 0 0 0 .726.044 6 6 0 0 0 5.949-5.284l3.433-28.476a6 6 0 1 0 -11.914-1.436l-3.433 28.477a6 6 0 0 0 5.239 6.675z"/><path d="m384.4 463.674a6.148 6.148 0 0 0 .726.044 6 6 0 0 0 5.949-5.283l3.433-28.477a6 6 0 1 0 -11.914-1.436l-3.434 28.478a6 6 0 0 0 5.24 6.674z"/><path d="m428.941 55.032a23.983 23.983 0 0 0 -23.178-12.132l-73.785 6.489c-9.335-15.557-24.12-24.726-40.224-24.726-21.908 0-40.71 16.773-47.28 41.445a28.721 28.721 0 0 0 -3.543.073l-39.911-47.447a24.5 24.5 0 0 0 -41.776 7.408l-8.769 24.145-9.821-3.638a28.694 28.694 0 0 0 -36.878 16.942l-20.1 54.256-10.656-4.509a20 20 0 0 0 -26.887 24.352l12.107 38.942v59.368a6 6 0 0 0 12 0v-52.075a792.38 792.38 0 0 0 170.552 18.6 792.38 792.38 0 0 0 170.552-18.6v148.087a151.143 151.143 0 0 1 -15.7 66.918l-52.671-6.349a28.711 28.711 0 0 0 -29.917 17.426l-8.5-9.2a24.243 24.243 0 0 0 -36.894 1.492l-47.412 60.501a25.025 25.025 0 0 0 -1.856 2.731 380.081 380.081 0 0 1 -74.382-11.887 73.712 73.712 0 0 1 -37.092-23.144 150.591 150.591 0 0 1 -36.68-98.485v-46.015a6 6 0 0 0 -12 0v46.012a162.591 162.591 0 0 0 39.6 106.335 85.653 85.653 0 0 0 43.106 26.9 392.192 392.192 0 0 0 74.1 12.1 24.3 24.3 0 0 0 2.718 11.5 23.984 23.984 0 0 0 21.523 13.153l100.368-4.381a23.979 23.979 0 0 0 19.787-11.831l71.249 8.588a29.14 29.14 0 0 0 3.493.211 28.706 28.706 0 0 0 28.432-25.268l3.97-32.933a28.7 28.7 0 0 0 -25.056-31.925l-33.311-4.016a163.231 163.231 0 0 0 15.125-68.433v-152.012l11.107-6.251a24.5 24.5 0 0 0 -.261-42.843l-30.309-16.577 23.724-33.17a24 24 0 0 0 1.336-26.127zm-79.027 423.03a11.976 11.976 0 0 1 -10.785 7.569l-99.259 4.356a12.245 12.245 0 0 1 -10.17-19.787l47.419-60.5a12.222 12.222 0 0 1 9.141-4.681c.167-.007.333-.01.5-.01a12.228 12.228 0 0 1 8.993 3.937l51.841 56.145a11.977 11.977 0 0 1 2.32 12.971zm101.316-55.419a16.587 16.587 0 0 1 3.442 12.307l-3.97 32.934a16.694 16.694 0 0 1 -18.575 14.578l-69.27-8.349a24.025 24.025 0 0 0 -6.453-17.162l-3.062-3.317 3.4-28.228a6 6 0 1 0 -11.914-1.435l-2.18 18.084-19.863-21.512.177-1.47a16.7 16.7 0 0 1 18.577-14.573l98.555 11.88a16.586 16.586 0 0 1 11.136 6.263zm-159.476-385.978c10.038 0 19.488 5.089 26.489 13.934l-11.454 1.007a24.245 24.245 0 0 0 -14.95 41.365l23.208 23.02-16.355 8.924-31.742-46.357a28.511 28.511 0 0 0 -10.85-9.444c5.194-19.065 19.6-32.449 35.654-32.449zm-121.231-6.428a12.5 12.5 0 0 1 21.313-3.778l36.736 43.672c-.51.305-1.016.621-1.513.962l-27.371 18.74a28.739 28.739 0 0 0 -9.039 37.311 70.377 70.377 0 0 0 -14.724 2.4l12.775-34.494a28.728 28.728 0 0 0 -16.94-36.878l-10.032-3.716zm55.447 160.117a781.333 781.333 0 0 1 -87.978-6.657c1.627-15.1 13.155-30.076 30.052-38.4a58.478 58.478 0 0 1 30.688-6.07l30.4 44.4a44.993 44.993 0 0 1 -3.162 6.727zm-99.846-8.334-.465-.071.583-.928c-.042.333-.078.666-.118.999zm-11.095-114.261a16.7 16.7 0 0 1 21.457-9.859l31.106 11.523a16.716 16.716 0 0 1 9.857 21.458l-16.514 44.581a71.641 71.641 0 0 0 -21.782 17.55 19.992 19.992 0 0 0 -12.139-16.827l-32.274-13.657zm-45.858 103.615-11.579-37.246a8 8 0 0 1 10.753-9.739l53.992 22.847a8 8 0 0 1 3.656 11.618l-13.224 21.057q-21.919-3.646-43.598-8.537zm243.129 15.838q-21.147 1.952-42.373 2.75a6.01 6.01 0 0 0 .745-.431l23.666-16.205a6 6 0 1 0 -6.779-9.9l-23.666 16.205a5.99 5.99 0 0 0 1.14 10.5q-8.336.261-16.673.338l-46.237-67.529a16.718 16.718 0 0 1 4.344-23.211l27.37-18.74a16.716 16.716 0 0 1 23.211 4.343l56.082 81.907a16.626 16.626 0 0 1 -.83 19.973zm10.732-26.747-1.046-1.528a29.509 29.509 0 0 1 9.4-7.313c18.116-8.921 42.111 2.4 54.361 25.278q-29.4 5.556-59.166 8.868a28.6 28.6 0 0 0 -3.548-25.305zm105.4-19.031a12.5 12.5 0 0 1 .132 21.857l-13.181 7.418q-8.69 2-17.429 3.78c-.149-.315-.289-.636-.443-.949-14.826-30.113-46.87-44.773-71.429-32.682a41.228 41.228 0 0 0 -11.046 7.929l-9.532-13.921 49.535-27.025a12.446 12.446 0 0 1 11.983.006zm-10.587-67.256-24.569 34.35-20.494-11.209a24.392 24.392 0 0 0 -23.49-.011l-23.251 12.686-25.75-25.543a12.245 12.245 0 0 1 7.55-20.891l98.972-8.705a12.245 12.245 0 0 1 11.032 19.323z"/><path d="m252.923 102.219a6 6 0 0 0 -8.34-1.561l-23.667 16.2a6 6 0 1 0 6.779 9.9l23.667-16.2a6 6 0 0 0 1.561-8.339z"/><path d="m266.071 132.042-23.666 16.205a6 6 0 1 0 6.779 9.9l23.667-16.2a6 6 0 1 0 -6.78-9.9z"/><path d="m87.746 322.007a6 6 0 0 0 12 0v-68.98a6 6 0 0 0 -12 0z"/><path d="m93.746 233.5a6 6 0 0 0 6-6v-7.562a6 6 0 0 0 -12 0v7.562a6 6 0 0 0 6 6z"/></svg>