<svg id="Layer_1" enable-background="new 0 0 512 512" height="512" viewBox="0 0 512 512" width="512" xmlns="http://www.w3.org/2000/svg"><g><path d="m500.5 312.9-124.8-152.3c-1.3-2-3.4-3.5-5.9-4.2-1.7-.4-3.4-.4-5.1.1l-18.8 5.2-25.6-54.2 1.4-37.3c.1-3.9-2.9-7.1-6.7-7.2-2-.1-4 .7-5.3 2.2l-36.8 39.1h-33.9l-37.1-39.3c-2.6-2.8-7.1-2.9-9.9-.3-1.4 1.3-2.2 3.2-2.2 5.1v38.2l-24.7 57.7-18.1-5.1c-4.2-1.2-8.5.5-10.9 3.8l-123.5 144.3c-2.4 2.8-2.1 7 .7 9.4 1.2 1 2.8 1.6 4.4 1.6h.6l163.5-15.1 32.8 77.5-35.1 24.2c-3 2.1-3.7 6.2-1.7 9.1 1.2 1.8 3.2 2.8 5.4 2.8h.2l44.1-1.3c4.3 5.5 15.7 20 23.1 29.6 1.2 1.6 3.1 2.5 5.1 2.5h.1c2 0 3.9-1 5.2-2.6l21.6-29.1 47.2 2.3c3.6.2 6.6-2.6 6.8-6.2.1-2.3-1-4.4-2.8-5.7l-37.7-25.8 32.2-78.4 166.2 20.3c3.7.4 7-2.2 7.5-5.8.2-1.8-.3-3.6-1.5-5.1zm-135.9-143.9-5.3 21.1-8.2-17.4zm-50.6-46.9 35.6 75.4-69.4-37.5 20.7-15.4c.7-.5 1.3-1.2 1.7-1.9zm-4.8-39-.8 21.1h-19.1zm-5.7 33.1-8 14.4-17.5-14.4zm-50 0h5.7l28.5 23.4-31.7 23.6-32-23.7zm-26.5 188.1 28.9-127.5 25.9 127.5zm57.2 12 8.6 42.4-8.3 20.2-29.5 4.8-28.6-4.8-10.7-25.2 8.5-37.4zm-68.5-185.7-8.5-14.4h26.9zm-13.8-48.2 20.6 21.8h-20.6zm-5.1 39.8 12.1 20.5c.4.7 1 1.3 1.6 1.8l20.6 15.2-67.7 40.6zm-36.4 54.5-8.1 19-5.3-22.7zm-23.7 5.4 8.2 35.2 7.3 17.3-111 59.1zm-91.6 123.1 111.8-59.5 20 47.3zm162.6 29.6-49.7-117.4 83.4-50.1 3.7 2.7zm19.7 70.3-25.9.7 22-15.2 13.1 2.2zm28.4 28.5-17.7-22.7 11.9-15.8 5 .6 4.2-.6 13.1 16.3zm55.4-26.7-28.1-1.4-10.1-12.6 14.5-2.3zm-44.5-236.9 3.9-2.1 82.3 45-51.8 125.9zm66.4 122 20.6-50.1 115 66.7zm25.2-61.3 7.9-19.2 8.4-33.3 96.7 118.1z"/><path d="m255 395.7c-.6.1.6.1 0 0z"/></g></svg>