<?xml version="1.0" encoding="UTF-8"?>
<svg xmlns="http://www.w3.org/2000/svg" xmlns:xlink="http://www.w3.org/1999/xlink" version="1.1" id="Layer_1" x="0px" y="0px" viewBox="0 0 512 512" style="enable-background:new 0 0 512 512;" xml:space="preserve" width="512" height="512">
<g>
	<path d="M135.8,110l-34.3,21.7c-27.7,13.7-39,47.3-25.3,74.9c6.1,12.2,16.4,21.8,29,27c-14.7,9.3-24.2,24.9-25.9,42.2l-4.2,45.6   c-3,32.1,20.7,60.5,52.8,63.5c1.8,0.2,3.7,0.2,5.6,0.2c0.7,0,1.5,0,2.2,0c-14.1,21.3-12.1,49.4,5,68.4c10,11.1,25.2,17.7,40.1,18.5   c13.8,0,28.5-5,38.8-14.3l34-30.6c10.3-9.3,17-21.9,18.8-35.7l29.5,23.5c22,21.7,57.4,21.4,79.1-0.6c13.9-14.1,19.3-34.5,14.2-53.6   c16.3-2.2,30.7-11.5,39.5-25.4l24.6-38.6c8.4-13.2,11.2-29.1,7.8-44.2c-6.4-29-33.6-48.5-63.2-45.4c28.8-11.1,43.1-43.4,32.1-72.2   c-2.3-6-5.6-11.5-9.8-16.3l-29.8-34.7c-21-24.5-57.9-27.2-82.3-6.2c-4.5,3.9-8.4,8.4-11.5,13.4L295.2,73   c-12.1-29.9-46.2-44.2-76-32.1c-25,10.2-39.8,36.2-35.7,62.9c-0.2-0.1-0.5-0.2-0.7-0.2C166.9,99,149.9,101.3,135.8,110z M129,372.7   c-25.5-2.3-44.2-24.9-41.9-50.4l4.2-45.6c1.8-19.4,16.2-35.3,35.3-39.1c3.1,0,6.1-0.3,9.2-0.8c1.1,0,2.2,0.1,3.3,0.2   c3.9,0.4,7.8,1.3,11.5,2.7c-0.6,5.2-0.5,10.4,0.4,15.5c-18.1-7.3-38.6,1.5-45.9,19.6c-1.3,3.2-2.1,6.5-2.4,9.9l-2.4,25.7   c-2.2,24.1,15.6,45.5,39.7,47.7c1.4,0.1,2.7,0.2,4.1,0.2c6.4,0,12.7-1.4,18.5-4.1l-15,16.9C141.5,372.7,135.2,373.3,129,372.7z    M144.2,311.8c3.3,0.3,6.2-2.1,6.5-5.4l0.9-10.3c0.8-8-5.1-15.2-13.1-16s-15.2,5.1-16,13.1l-1.3,13.9c-1.3,13.7,8.8,25.9,22.5,27.1   c13.7,1.3,25.9-8.8,27.1-22.5l1.8-19.5l5.4,4.3l-2.5,20.6c0,0.1,0,0.1,0,0.2c-1.6,17.5-17,30.5-34.6,28.9   c-17.6-1.6-30.5-17.1-28.9-34.7l2.4-25.8c1.3-12.8,12.6-22.1,25.4-20.9c12.7,1.2,22,12.5,20.9,25.1l-1.9,20.6   c-0.6,7.1-6.9,12.4-14,11.8c-7.1-0.6-12.4-6.9-11.8-14l1.3-13.9c0.1-0.7,0.4-1.3,0.9-1.8c0.5-0.4,1.2-0.7,1.9-0.6   c1.4,0.1,2.5,1.4,2.4,2.8l-0.9,10.3C138.5,308.6,140.9,311.5,144.2,311.8z M294.7,193.8c-3.3-0.5-6.4,1.7-6.9,4.9   c0,0.1,0,0.1,0,0.2l-1.5,10.2c-1.2,8,4.3,15.4,12.3,16.6c8,1.2,15.4-4.3,16.6-12.3l2.1-13.6c2-13.6-7.4-26.3-21.1-28.3   c-13.5-2-26.1,7.3-28.2,20.8l-3.1,20.4c-0.3,2.2-0.5,4.5-0.4,6.7l-5.1-5.1l4.2-27.9c2.6-17.4,18.8-29.5,36.2-26.9   c17.4,2.6,29.5,18.8,26.9,36.2l-3.9,25.8c-1.9,12.7-13.8,21.4-26.5,19.5c-6.1-0.8-11.6-4.1-15.3-9.1s-5.2-11.2-4.3-17.3l3.1-20.4   c1-7.1,7.6-12,14.7-10.9c7.1,1.1,12,7.6,10.9,14.7l-2.1,13.7c-0.2,1.4-1.5,2.4-3,2.2c-1.4-0.2-2.4-1.5-2.2-3l1.5-10.2   C300.1,197.4,297.9,194.3,294.7,193.8z M254,154.5c-9.1-0.3-17.2-6-20.7-14.4l-7.8-19.1c-2.7-6.6,0.5-14.2,7.1-16.9   c6.6-2.7,14.2,0.5,16.9,7.1l5.2,12.8c0.5,1.3-0.1,2.9-1.4,3.4s-2.9-0.1-3.4-1.4l-3.9-9.6c-1.2-3.1-4.7-4.6-7.8-3.4   c-3.1,1.2-4.6,4.7-3.4,7.8v0.1l3.9,9.6c3.1,7.4,11.7,10.9,19.1,7.8c7.3-3.1,10.8-11.4,7.9-18.8l-5.2-12.8   C255.3,93.9,240.7,88,228,93.3c-12.5,5.2-18.6,19.5-13.6,32.2l0.9,2.2c-2.7-4.1-5.9-7.9-9.5-11.2c-3.2-17.3,8.1-34,25.5-37.2   c14.9-2.8,29.7,5.3,35.4,19.3l9.7,23.9c0.8,2.1,1.4,4.2,1.6,6.4C267.5,134.7,259.2,143.7,254,154.5z M224.8,161.7   c0.2-4.8-0.2-9.6-1.2-14.3c5.3,10.1,15.1,17.1,26.4,18.8c-0.8,3.5-1.4,7-1.6,10.6l-0.1,1.7C238.7,175.7,230.5,169.8,224.8,161.7z    M247.6,190.8l-0.6,11.5c-8.4-7.4-18.8-12.2-29.9-13.9c2.1-3.6,3.7-7.5,5-11.5C229.3,183.7,238.1,188.5,247.6,190.8z M241.4,213.3   l32.4,32.4c17.2,17.2,17.2,45,0,62.1c-8.3,8.3-19.5,12.9-31.2,12.9c-11.6,0-22.8-4.6-31-12.8l-23.2-23.2   c-12.4-12.4-12.4-32.6,0-45.1c12.4-12.5,32.6-12.4,45.1,0l18.3,18.3c8.9,9.2,8.7,24-0.6,32.9c-9,8.7-23.3,8.7-32.3,0l-14.6-14.6   c-5.1-5.1-5.1-13.2,0-18.3c5.1-5.1,13.2-5.1,18.3,0l9.7,9.7c1,1,1,2.7,0,3.7s-2.7,1-3.7,0l-7.3-7.3c-2.3-2.4-6.1-2.4-8.5-0.1   c-2.4,2.3-2.4,6.1-0.1,8.5l7.4,7.5c5.7,5.7,15,5.7,20.7,0s5.7-15,0-20.7l-9.7-9.7c-9.8-9.7-25.6-9.6-35.3,0.2   c-9.6,9.7-9.6,25.4,0,35.1l14.6,14.6c13.8,13.7,36.2,13.6,49.9-0.2c13.6-13.7,13.6-35.9,0-49.7L242,231.1   c-17.1-17.1-44.9-17.1-62,0c-9.6,9.6-14.2,23-12.5,36.4c-11.8-22.7-3-50.7,19.7-62.5C205.1,195.7,227.1,199,241.4,213.3z    M250,332.2c-0.3,1.4-0.5,2.8-0.7,4.2c-1.9-1.4-3.8-2.6-5.8-3.8C245.6,332.7,247.8,332.5,250,332.2z M214.5,325.1   c-7.9,0-15.7,1.7-23,4.8c0.1-1.2,0.1-2.5,0.1-3.7l0.3-18.8l11.5,9.2C206.7,319.9,210.4,322.7,214.5,325.1z M245.7,417.9l-34,30.6   c-18,16.2-45.8,14.8-62-3.2s-14.8-45.8,3.2-62c0,0,0,0,0.1,0l24.3-21.9c13.1-11.8,33.2-10.7,45,2.4c11.8,13.1,10.7,33.2-2.4,45   L200.6,426c-9.6,8.6-24.3,7.8-32.9-1.7c-8.6-9.6-7.8-24.3,1.7-32.9l15.4-13.8c5.3-4.8,13.5-4.5,18.3,0.8c4.8,5.3,4.5,13.5-0.8,18.3   l-10.4,9.4c-1.1,1-2.7,0.9-3.7-0.1c-1-1.1-0.9-2.7,0.1-3.7c0,0,0,0,0.1-0.1l7.7-6.9c2.5-2.2,2.7-6,0.5-8.5s-6-2.7-8.5-0.5l-7.7,6.9   c-6,5.4-6.4,14.7-1,20.6c5.4,5.9,14.5,6.4,20.5,1.1l10.2-9.2c10.3-9.2,11.1-25,1.9-35.2c-9.2-10.3-25-11.1-35.2-1.9l-0.1,0.1   l-15.4,13.8c-14.5,13-15.7,35.3-2.6,49.8c13,14.5,35.3,15.7,49.8,2.6l19.2-17.3c18-16.2,19.5-43.9,3.3-61.9   c-9-10.1-22.2-15.4-35.7-14.4c6-2.8,12.7-4.2,19.3-4.2c13.1,0,25.6,5.6,34.4,15.3c0.1,0.1,0.1,0.2,0.2,0.3   c1.5,9.8,5.4,19.1,11.5,27C262,394.1,256.4,408.2,245.7,417.9z M372.3,405.9c-17.2,17.2-45,17.2-62.1,0L287,382.7   c-12.6-12.3-12.9-32.5-0.6-45.1c12.3-12.6,32.5-12.9,45.1-0.6l18.8,18.8c9.1,9.1,9.2,23.8,0.1,32.9c-9.1,9.1-23.8,9.2-32.9,0.1   l-14.7-14.7c-5.1-5.1-5.1-13.2,0-18.3c5.1-5.1,13.2-5.1,18.3,0l9.7,9.7c1,1,1,2.7,0,3.7s-2.6,1-3.7,0l-7.3-7.3   c-2.3-2.4-6.1-2.4-8.5-0.1c-2.4,2.3-2.4,6.1-0.1,8.5l7.4,7.4c5.7,5.7,15,5.7,20.7,0s5.7-15,0-20.7l-9.7-9.7   c-9.7-9.7-25.5-9.7-35.3,0s-9.7,25.5,0,35.3l14.6,14.6c13.7,13.8,36.1,13.9,49.9,0.2s13.9-36.1,0.2-49.9l-18.4-18.4   c-17.1-17.1-44.9-17.2-62,0c-9.6,9.6-14.2,23.1-12.5,36.6c-6-11.4-7-24.8-2.7-37c13.4-5.4,24.3-15.8,30.2-29   c16.4-4.9,34.1-0.5,46.3,11.6l32.4,32.4C389.4,360.9,389.4,388.7,372.3,405.9z M383.4,137.5l-9.1-10.6   c-8.9-10.4-24.7-11.7-35.1-2.7c-1.6,1.4-3,2.9-4.2,4.6c-3.3-1.8-6.8-3.3-10.4-4.5c7.6-15.9,26.6-22.6,42.5-15c4,1.9,7.5,4.6,10.4,8   l16.8,19.6c8.4,9.8,7.2,24.4-2.5,32.8c-7.7,6.6-18.8,7.5-27.4,2.1c-0.9-6.3-2.8-12.5-5.7-18.2l2.3,2.7c5.2,6.2,14.4,6.9,20.6,1.7   S388.6,143.7,383.4,137.5z M346.9,133.3c5.4-4.6,13.6-4,18.2,1.4l9,10.5c0.9,1.1,0.8,2.7-0.3,3.7s-2.7,0.8-3.7-0.3l-6.7-7.8   c-2.2-2.5-5.9-2.8-8.5-0.7c-1.3,1.1-2,2.6-2.1,4.3c-2.4-3.2-5.1-6.1-8.1-8.7C345.4,134.8,346.1,134,346.9,133.3z M357.6,233.8   l4.2-27.4c7,3,14.5,4.5,22.1,4.5c2,0,3.9-0.1,5.9-0.3c-13.9,5.2-25.2,15.3-31.8,28.4l-17.8,36.5c-3.2,5.1-5.5,10.7-6.9,16.5   c-11-5.5-23.4-7.4-35.5-5.4c0.3-1.8,0.5-3.5,0.7-5.3c1.3,0.1,2.6,0.1,3.9,0.1C330,281.3,353.4,261.1,357.6,233.8z M393.6,273.2   c-2.8-1.8-6.5-1-8.3,1.8l-5.5,8.7c-4.3,6.8-2.3,15.8,4.5,20.2s15.8,2.3,20.2-4.5l7.4-11.6c7.4-11.6,3.9-27-7.8-34.4   c-11.6-7.3-26.9-3.9-34.3,7.6l-11.1,17.4c-5,7.9-6.7,17.5-4.7,26.6c0.4,1.6,0.8,3.2,1.4,4.8l-7-7c-1.4-1.4-2.8-2.7-4.3-3.9   c0.9-6.2,3.1-12.2,6.4-17.5l17.6-27.6c9.5-14.9,29.2-19.2,44-9.8c14.9,9.5,19.2,29.2,9.8,44L408,309.9c-6.9,10.8-21.3,14-32.1,7.1   c-10.8-6.9-14-21.3-7.1-32.1l11.1-17.4c3.8-6,11.8-7.8,17.9-4c6.1,3.8,7.8,11.8,4,17.9l-7.4,11.6c-0.8,1.2-2.4,1.5-3.6,0.7   c-1.1-0.8-1.5-2.3-0.8-3.5l5.5-8.7C397.2,278.7,396.4,275,393.6,273.2z M445.7,235.4c12.9,15.5,14.4,37.6,3.5,54.7l-24.6,38.6   c-7.4,11.7-20,19.2-33.8,20.2c-2.6-5-6-9.6-10-13.7l-4.8-4.8c15.6,5.9,33.2,0,42.2-14.1l13.9-21.8c13-20.4,7-47.5-13.4-60.5   c-11.4-7.3-25.5-8.9-38.3-4.3C400,213.2,429.2,215.8,445.7,235.4z M321.9,86.7c19.4-16.7,48.7-14.4,65.4,5l29.8,34.7   c15.8,18.4,13.7,46.1-4.7,61.9c-13.7,11.6-33,13.8-48.9,5.6l0.8-5.5c0.2-1.1,0.3-2.2,0.4-3.3c18.3,6.6,38.5-2.8,45.2-21.2   c4.3-12,1.9-25.3-6.4-35l-16.8-19.6c-15.8-18.4-43.5-20.5-61.9-4.7c-4.6,3.9-8.3,8.8-10.9,14.2c-0.4-1.2-0.8-2.5-1.3-3.7l-3.8-9.4   C311.3,98.5,315.9,91.9,321.9,86.7z M313.6,134c25.3,3.9,42.7,27.5,38.9,52.8l-6.9,45.3c-3.5,23-24.3,39.3-47.5,37.1   c-0.8-5.7-2.4-11.2-4.9-16.4c0.4,0.1,0.9,0.2,1.3,0.2c1.8,0.3,3.6,0.4,5.4,0.4c17.4,0,32.2-12.8,34.8-30l3.9-25.5   c3.6-24-12.8-46.3-36.8-50c-11.5-1.7-23.2,1.2-32.6,8.1c-1.4,1.1-2.8,2.2-4.1,3.4C273.9,141.2,293.6,130.9,313.6,134z M223.7,51.9   c23.7-9.6,50.7,1.8,60.4,25.5l17.3,42.4c0.2,0.6,0.5,1.2,0.7,1.8c-4.3,0.3-8.5,1.2-12.6,2.4c-0.4-2.1-1.1-4.1-1.8-6.1L278,94   c-9.1-22.4-34.7-33.2-57.1-24.1C208.1,75,198.6,85.7,195,98.8C193.3,78.6,204.9,59.6,223.7,51.9z M212.2,152.8   c1.9,12.6-1.5,25.3-9.3,35.3c-17.7,1.7-33.7,11.4-43.4,26.3l-14.1,6.9c-21.7,10.5-48,1.4-58.6-20.4c-10.6-21.8-1.5-48.1,20.3-58.7   l29.4-14.3c15.8-7.7,34.9-1.1,42.6,14.7s1.1,34.9-14.7,42.6l-23.2,11.3c-11.6,5.6-25.5,0.7-31.1-10.9c-5.5-11.5-0.8-25.3,10.7-31   l18.6-9c6.5-3,14.2-0.2,17.2,6.3c2.9,6.3,0.3,13.8-5.9,17l-12.4,6c-1.3,0.6-2.9,0.1-3.5-1.2c-0.6-1.3-0.1-2.9,1.2-3.5l9.3-4.5   c3-1.5,4.2-5.1,2.7-8c-1.5-2.9-5-4.2-7.9-2.7l-9.3,4.5c-7.3,3.5-10.4,12.2-6.9,19.5s12.2,10.4,19.5,6.9l12.6-6.1   c12.4-6,17.6-20.9,11.5-33.3c-6-12.4-20.9-17.6-33.3-11.5l-18.6,9c-17.5,8.5-24.8,29.6-16.3,47.1s29.6,24.8,47.1,16.3l23.2-11.3   c21.8-10.6,30.9-36.8,20.3-58.6c-5.9-12.2-17.1-20.9-30.3-23.7C184.9,110,208.5,127.5,212.2,152.8z"/>
	<path d="M180.8,472C179.9,472,181.8,472.1,180.8,472L180.8,472z"/>
	<path d="M47.2,298c-0.2-3.3-3.1-5.8-6.4-5.6c-3.3,0.2-5.8,3.1-5.6,6.4c0.3,4,0.7,8,1.2,11.9c0.4,3.3,3.4,5.6,6.7,5.2   c3.3-0.4,5.6-3.4,5.2-6.7C47.9,305.6,47.5,301.8,47.2,298z"/>
	<path d="M45.9,330.3c-3.3,0.7-5.3,4-4.4,7.2c7.5,30,21.9,57.7,42.3,81c2.2,2.5,6,2.7,8.5,0.6c2.5-2.2,2.7-6,0.6-8.5   c-19.1-21.8-32.7-47.9-39.7-76C52.4,331.4,49.1,329.5,45.9,330.3z"/>
	<path d="M444.4,67.6C402,25.2,342.5,5.1,276.9,11c-65.2,5.8-128.8,36.7-179,86.9c-35.3,35.2-61,77.1-75.2,121.5   c-1,3.1,0.7,6.4,3.8,7.4c0.6,0.2,1.2,0.3,1.8,0.3h0.3c2.6,0,4.8-1.7,5.6-4.1c13.6-42.5,38.3-82.7,72.2-116.5   C154.6,58.3,215.5,28.7,278,23.1c7.1-0.6,14.2-1,21.1-1c53.6,0,101.6,18.8,136.9,54.1c39.8,39.8,58.7,95.9,53.1,158   c-5.6,62.5-35.2,123.4-83.4,171.6C357.5,454,296.5,483.5,234,489.1c-7.1,0.6-14.2,1-21.1,1c-53.6,0-101.6-18.8-136.9-54.1   c-39.8-39.8-58.7-95.9-53.1-158c0.2-2.1,0.4-4.3,0.7-6.4c0.4-3.2-1.9-6.1-5.2-6.5c-0.2,0-0.4,0-0.7,0h-0.3c-3,0-5.5,2.2-5.8,5.2   c-0.3,2.2-0.5,4.4-0.7,6.7c-5.8,65.5,14.3,125,56.7,167.4C105.1,482,156.1,502,212.9,502c7.3,0,14.7-0.3,22.2-1   c65.2-5.8,128.8-36.7,179-86.9c50.2-50.2,81-113.8,86.9-179C506.9,169.4,486.8,110,444.4,67.6z"/>
</g>
</svg>
