<svg id="Layer_1" enable-background="new 0 0 512 512" height="512" viewBox="0 0 512 512" width="512" xmlns="http://www.w3.org/2000/svg"><path d="m388.8 485.1-29.3-25.9 19.4-13.6c2.3-1.7 3.7-4.4 3.6-7.1l-5.5-202.8c0-1.6-.5-3.2-1.3-4.5l-55.3-91.5 11.7-62.7 55.9-23.5c3.9-1.7 5.8-6.2 4.1-10.1-1-2.4-3.3-4.2-5.9-4.6l-65.9-10.8-5.8-14.3c-.9-2.3-3.1-3.7-5.6-3.7h-110.2c-3.4 0-6.5 2-7.8 5.2l-70.6 167.2c-.8 1.8-1 3.8-.8 5.8l41.1 302.6c.9 6.4 6.4 11.2 12.8 11.2h208.7c4 .1 7.7-2.3 9.3-6 1.6-3.9.5-8.3-2.6-10.9zm-18.6-57.1-104.6-74.5 24.4-59c1.5-3.5 1.1-7.6-1.1-10.7l-42.4-63.4 118.6 19.8zm-175.5-85.3 79.2-40.9-33.2 80.1zm87 89.8-54.5 27.1-33.9-102.3zm-44.4-225.8-37.2-55.6 84.5-47.5 74.5 123.4zm57.8-109 23.1-13-7.8 38.4zm74-49.7-34.9 14.3-8.6-21.3zm-168-26h103.9l18.5 45.7-185.9 104.6zm-28.9 464.9-40.4-297.5 57.8-32.5 87 130.1-90.8 46.8c-6.4 3.2-9.4 10.7-7.1 17.5l37.6 113.7zm118.1-45.1c4.8-2.4 6.7-8.1 4.3-12.9-.6-1.2-1.4-2.2-2.4-3.1l-41.8-35.6 10.4-25.3 105.3 75-71.2 50.2h-101.9zm25.4 48.3 33.2-23.4 27.2 23.4z"/></svg>