<svg id="Layer_1" height="512" viewBox="0 0 512 512" width="512" xmlns="http://www.w3.org/2000/svg" data-name="Layer 1"><path d="m92.6 289.293a6 6 0 0 0 6-6v-9.433a6 6 0 0 0 -12 0v9.433a6 6 0 0 0 6 6z"/><path d="m92.6 369.027a6 6 0 0 0 6-6v-58.673a6 6 0 0 0 -12 0v58.673a6 6 0 0 0 6 6z"/><path d="m53.045 384.487 8.753 2.765a215.237 215.237 0 0 0 144.075 0l8.74-2.761a61.522 61.522 0 0 0 22.354-12.682 61.327 61.327 0 0 0 51.583 27.891h76.759a110.748 110.748 0 0 0 48.491-11.3 110.86 110.86 0 0 0 42.829-19.634 70.205 70.205 0 0 0 27.824-55.795v-8.83c10.347-4.808 17.547-16.13 17.547-28.273s-7.2-23.464-17.549-28.27v-8.829a70.2 70.2 0 0 0 -27.824-55.8 110.844 110.844 0 0 0 -42.827-19.63 110.748 110.748 0 0 0 -48.489-11.3h-76.761a61.341 61.341 0 0 0 -49.935 25.473 109.974 109.974 0 0 0 -11.89-19.835 70.205 70.205 0 0 0 -55.795-27.824h-8.83c-4.8-10.352-16.127-17.55-28.269-17.55s-23.465 7.2-28.27 17.55h-8.831a70.2 70.2 0 0 0 -55.794 27.824 110.829 110.829 0 0 0 -19.636 42.83 110.752 110.752 0 0 0 -11.3 48.487v76.759a61.358 61.358 0 0 0 43.045 58.734zm183.994-172.815h111.334a116.533 116.533 0 0 1 74.364 26.88l12.08 10.046v53.608l-20.877 10.2a5.958 5.958 0 0 0 -1.2.778c-15.569 12.946-42.351 26.88-64.365 26.88h-111.336a203.3 203.3 0 0 1 0-128.392zm210.342 110.07a58.146 58.146 0 0 1 -23.045 46.211 98.7 98.7 0 0 1 -59.027 19.747h-76.759a49.4 49.4 0 0 1 -47.292-34.66l-.308-.974h107.423c21.567 0 50.2-11.71 71.475-29.189l23.6-11.532a6 6 0 0 0 3.277-4.405h.653zm25.07-8.774a58.148 58.148 0 0 1 -23.045 46.211c-.6.452-1.209.894-1.821 1.332a70.115 70.115 0 0 0 11.8-38.769v-14.8h12.384c.23 0 .457-.012.686-.017zm17.549-37.1c0 10.055-8.181 19.07-18.235 19.07h-24.948v-38.138h24.948c10.054 0 18.235 9.013 18.235 19.068zm-40.594-83.31a58.146 58.146 0 0 1 23.045 46.211v6.046c-.229 0-.456-.017-.686-.017h-12.384v-14.8a70.12 70.12 0 0 0 -11.8-38.769c.619.435 1.225.876 1.825 1.329zm-160.856-28.52h76.759a98.7 98.7 0 0 1 59.027 19.745 58.148 58.148 0 0 1 23.045 46.211v14.8h-.654a6 6 0 0 0 -2.073-3.627l-14.244-11.842a128.561 128.561 0 0 0 -82.037-29.653h-107.423l.308-.974a49.4 49.4 0 0 1 47.292-34.66zm-62.636 25.926c1.326 1.762 2.6 3.581 3.8 5.43l-2.659 8.421a215.262 215.262 0 0 0 0 144.106l2.756 8.73c.434 1.374.921 2.717 1.44 4.041a49.514 49.514 0 0 1 -20.251 12.352l-.973.307v-107.422a128.548 128.548 0 0 0 -29.654-82.036l-11.845-14.245a5.992 5.992 0 0 0 -3.628-2.073v-.653h14.8a58.144 58.144 0 0 1 46.214 23.042zm-54.984-48.112a58.15 58.15 0 0 1 46.211 23.048c.445.591.866 1.2 1.3 1.8a70.124 70.124 0 0 0 -38.741-11.778h-14.8v-12.384c0-.23-.012-.457-.017-.686zm-56.17.686c0-10.056 9.015-18.236 19.07-18.236s19.069 8.18 19.069 18.236v24.946h-38.139zm-64.239 22.362a58.143 58.143 0 0 1 46.209-23.048h6.047c0 .229-.017.456-.017.686v12.384h-14.8a70.117 70.117 0 0 0 -38.767 11.794c.434-.611.876-1.216 1.328-1.816zm-28.521 84.094a98.706 98.706 0 0 1 19.744-59.028 58.15 58.15 0 0 1 46.212-23.044h14.8v.653a5.994 5.994 0 0 0 -3.628 2.073l-11.841 14.244a128.579 128.579 0 0 0 -29.225 71.665 5.93 5.93 0 0 0 5.889 6.443h.192a5.937 5.937 0 0 0 5.894-5.5 116.539 116.539 0 0 1 26.477-64.938l10.046-12.08h54.54l10.046 12.081a116.535 116.535 0 0 1 26.88 74.364v111.337a203.3 203.3 0 0 1 -128.393 0v-71.264a6 6 0 0 0 -6-6 6 6 0 0 0 -6 6v67.352l-.975-.308a49.4 49.4 0 0 1 -34.658-47.291z"/></svg>