<svg id="Layer_1" enable-background="new 0 0 512 512" height="512" viewBox="0 0 512 512" width="512" xmlns="http://www.w3.org/2000/svg"><path d="m436.1 123.8c-.7-2-2.2-3.6-4.1-4.5l-95.7-44.2c-2.5-1.2-5.4-1.3-7.9-.3l-83 30.2c-4.4 1.6-8.2 4.4-11.1 8l-36.4-97.9c-1.5-4.1-6.1-6.2-10.2-4.7-2 .7-3.6 2.2-4.4 4.1l-43.6 95c-1.1 2.5-1.2 5.4-.3 8l31.4 83.1c1.6 4.3 4.4 8.1 8 11l-98.1 35.2c-4.1 1.5-6.2 6-4.8 10.1.7 2 2.2 3.6 4.1 4.5l95.7 44.2c2.5 1.2 5.4 1.3 7.9.3l67.4-24.6v213.2c0 4.2 3.4 7.6 7.6 7.6h22.3c4.2 0 7.6-3.4 7.6-7.6v-197.6l25.5 68.7c1.1 3 3.9 5.1 7.1 5.2h.3c3.1 0 5.9-1.8 7.2-4.6l43.6-95c1.1-2.5 1.2-5.4.3-8l-31.4-83.1c-1.6-4.3-4.4-8.1-8-11l98.1-35.2c4.2-1.5 6.3-6 4.9-10.1zm-194.1-.6c1.5-3.2 4.2-5.7 7.5-6.9l47.2-17.2c-6.2 6.1-11.2 13.3-14.8 21.2l-24.9 54.3-15.4-41.2c-1.2-3.3-1.1-7 .4-10.2zm-51.9-94.6 54.9 148.1-54.3-23.3c-9.6-4.5-18-11.3-24.3-19.8l-14.8-21zm-25.8 120.7c6.2 6.2 13.5 11.3 21.5 14.9l.1.1 56.8 24.4-43.3 15.5c-7 2.6-14.8-.9-17.4-7.8zm35.3 130-20.8 14.5-84.6-39 152.3-54.6-27.2 55.2c0 .1-.1.1-.1.2-4.4 9.4-11.1 17.6-19.6 23.7zm30.5-18.7 25.7-52 14.4 38.6c1.2 3.4 1.1 7.3-.5 10.6-1.4 3.1-4 5.5-7.2 6.7l-47.2 17.2c6.1-6.1 11.2-13.3 14.8-21.1zm32.9 229.4v-213l3.5-1.3c3.9-1.4 7.3-3.7 10-6.8v221.1zm58.9-137.8-40.6-109.2-15.2-41 55.1 25.5c9.7 4.5 18 11.3 24.3 19.8l14.8 21zm25.9-120.7c-6.2-6.2-13.5-11.3-21.5-14.9l-54.8-25.3 41.2-14.8c7-2.6 14.7.9 17.3 7.9zm-80-51.7 25-54.5c4.4-9.5 11.1-17.7 19.6-23.9l20.8-14.4 84.6 39z"/></svg>