<svg id="Layer_1" height="512" viewBox="0 0 512 512" width="512" xmlns="http://www.w3.org/2000/svg" data-name="Layer 1"><path d="m13.326 334a6 6 0 0 0 8.045-2.7 185.349 185.349 0 0 1 49.807-62.018 6 6 0 0 0 -7.539-9.336 197.262 197.262 0 0 0 -53.01 66.006 6 6 0 0 0 2.697 8.048z"/><path d="m91.046 241.363c-2.989 1.682-5.979 3.467-8.884 5.307a6 6 0 1 0 6.418 10.139c2.732-1.729 5.54-3.407 8.349-4.987a6 6 0 0 0 -5.883-10.459z"/><path d="m316.614 243.8-.011-.006c.062.067.121.127.011.006z"/><path d="m109.769 263.737.009-.009c-.078.046-.15.089-.009.009z"/><path d="m357.337 295.407h.014c-.087-.026-.168-.049-.014 0z"/><path d="m454.885 297.809a25.845 25.845 0 0 0 2.074-3.078l12.741-22.194 2.667-2.354a61.437 61.437 0 0 0 20.16-37.466 52.5 52.5 0 0 0 -19.952-70.528l-66.968-38.449a192.692 192.692 0 0 0 -82.172-49.24l-7.435-2.2-9.651-5.541a42.091 42.091 0 0 0 -56.7 14.375 62.123 62.123 0 0 0 -25.674 44.715 57.437 57.437 0 0 0 6.807 64.7 57.44 57.44 0 0 0 -65.27 13.43l-55.737 59.757c.089-.052.185-.108-.009.009a199.065 199.065 0 0 0 -83.26 89.91 25.574 25.574 0 0 0 2 35.341l18.75 17.417 1.693 3.128a61.416 61.416 0 0 0 31.95 28.085 52.483 52.483 0 0 0 73.215-3.535l52.308-56.309a61.613 61.613 0 0 0 3.869 14.833 52.5 52.5 0 0 0 52.418 51.231h77.223a192.533 192.533 0 0 0 95.781 1.792l7.545-1.792h11.132a42.09 42.09 0 0 0 42.013-40.7 62.118 62.118 0 0 0 0-51.563 57.472 57.472 0 0 0 -41.518-53.774zm28.887 47.448c-44.5-10.635-72.323-24.241-97.018-36.324l-2.785-1.36h55.093a45.441 45.441 0 0 1 44.71 37.684zm-126.435-49.85a200.559 200.559 0 0 0 -67.1-9.468 42.115 42.115 0 0 0 -6.889-50.767 62.379 62.379 0 0 0 -10.058-16.433l43.31 25.061c-.071-.075-.147-.157.011.006a199.75 199.75 0 0 0 75.389 51.672l-34.65-.071c.099.03.205.063-.013 0zm109.263-122.807a40.511 40.511 0 0 1 18.125 48.177c-31.15-29.107-49.411-52.243-64.511-74.809zm-69.4-40.311c19.292 31.084 39.052 60.263 83.133 100.782a49.437 49.437 0 0 1 -15.31 27.584c-49.582-44.945-68.426-75.464-88.343-107.724-12-19.445-24.342-39.428-43.93-62.632a180.745 180.745 0 0 1 64.45 41.986zm-96.824-55.129 9.476 5.44c27.417 29.347 41.606 52.321 56.616 76.631 19.533 31.64 39.737 64.341 90.907 110.676l-10.822 18.85a13.518 13.518 0 0 1 -18.014 5.243c-50.261-45.386-67.114-74.821-84.941-105.971-16.846-29.433-34.263-59.851-81.575-103.673a30.1 30.1 0 0 1 38.353-7.196zm-46.6 15.911c46.013 42.575 62.245 70.939 79.405 100.922 15.436 26.973 31.337 54.754 70.3 92.933a187.387 187.387 0 0 1 -78.045-51.266c.032.032.009.008 0-.006-5.859-7.766-11.907-16.455-17.651-24.95-16.346-24.177-34.832-51.516-71.667-85.463a50.159 50.159 0 0 1 17.66-32.17zm-23.191 71.987a45.041 45.041 0 0 1 1.192-27.446c33.306 31.386 50.657 57.037 66.058 79.814.586.866 1.158 1.708 1.738 2.565l-47.773-27.432a45.083 45.083 0 0 1 -21.213-27.501zm-56.281 47.081a45.374 45.374 0 0 1 58.045-7.115c-38.086 25.374-66.989 36.5-92.652 46.365-.976.375-1.925.743-2.89 1.115zm-137.625 168.061a13.551 13.551 0 0 1 -1.047-18.737c21.283-14.841 39.179-25.43 55.09-33.429a5.975 5.975 0 0 0 -5.384-10.669 416.148 416.148 0 0 0 -37.166 21.281 187.392 187.392 0 0 1 67.542-64.478c-.039.024-.01.007.007 0 8.887-3.958 18.714-7.89 28.286-11.572 27.239-10.476 58.042-22.32 99.42-50.555a50.157 50.157 0 0 1 27.358 24.459c-51.852 35.23-83.145 44.651-116.225 54.609-6.05 1.822-12.138 3.654-18.383 5.665a6 6 0 0 0 3.637 11.429c6.1-1.959 12.123-3.773 18.205-5.6 32.474-9.776 66.034-19.888 119.4-56.1a30.094 30.094 0 0 1 -1.633 38.987l-1.466 1.578a198.036 198.036 0 0 0 -39.524 8.538 25.571 25.571 0 0 0 -24.525 25.452c-10.066 3.807-19.849 7.115-29.343 10.321-35.23 11.9-71.643 24.209-128.321 63.616zm108.65 45.719a40.458 40.458 0 0 1 -51.031 6.8c35.381-23.789 62.041-36.365 87.434-45.991zm-62.011-.257a49.44 49.44 0 0 1 -23.418-21.138c54.967-38.172 88.949-49.652 124.868-61.783 8.268-2.793 16.753-5.66 25.5-8.882v12.851l-1.14 3.369a61.41 61.41 0 0 0 -2.92 13.464c-1.963 1.315-3.949 2.609-5.957 3.843-34.638 11.79-67.522 24.464-116.933 58.272zm179.4 6.18a40.51 40.51 0 0 1 -39.706-32.756c41.507 9.732 68.862 20.7 93.193 32.756zm80.261.4c-32.211-17.352-63.879-32.818-122.279-46.012a49.428 49.428 0 0 1 -.457-31.543c65.378 14.291 96.917 31.375 130.252 49.435 20.092 10.886 40.74 22.072 69.281 32.444a180.738 180.738 0 0 1 -76.8-4.325zm111.414-.4h-10.933c-38.387-11.8-62.132-24.658-87.25-38.267-32.695-17.713-66.5-36.013-133.944-50.718v-21.739a13.55 13.55 0 0 1 13.014-13.518c66.182 14.336 95.452 31.47 126.421 49.607 29.265 17.139 59.513 34.845 122.365 49.293a30.1 30.1 0 0 1 -29.676 25.338zm32.488-37c-61.1-14.014-89.3-30.528-119.112-47.986-26.817-15.707-54.439-31.882-107.234-45.6a187.389 187.389 0 0 1 93.208 5.6c-.043-.012-.011 0 .008 0 8.948 3.818 18.52 8.342 27.731 12.85 26.215 12.828 55.857 27.333 104.7 38.433a50.148 50.148 0 0 1 .696 36.7z"/></svg>