<svg id="Layer_1" height="512" viewBox="0 0 512 512" width="512" xmlns="http://www.w3.org/2000/svg" data-name="Layer 1"><path d="m85.391 293.122a23.893 23.893 0 0 0 11.822 9.9l33.614 170.439c.016.081.034.161.053.242a9.3 9.3 0 0 0 8.6 7.159c.175.009.349.014.522.014a9.3 9.3 0 0 0 6.522-2.645l110.43-89.887 108.745 50.1a11.293 11.293 0 0 0 15.1-5.791 6.092 6.092 0 0 0 .218-.588l120.259-386.634a10.5 10.5 0 0 0 -13.255-13.713l-470.354 124.282a6.078 6.078 0 0 0 -.669.219 10.391 10.391 0 0 0 -6.6 7.33c-.874 3.7.313 7.793 3.26 11.3zm-58.723-119.961 211.332 32.166-126.924 85.863c-.186.106-.375.208-.565.305a11.492 11.492 0 0 1 -14.861-4.6zm404.863-84.261-138.081 121.841v-28.435zm-249.984 239.481.146-.655a9.462 9.462 0 0 1 3.25-5.248c.1-.075.19-.153.282-.233l99.734-88.008 72.318 187.119-167.552-77.194a14.489 14.489 0 0 1 -8.323-11.627 13.68 13.68 0 0 1 .145-4.154zm99.9-107.051-21.38 18.87v-35.311l21.383-14.465zm-28.8-25.912-213.947-32.564 227.047-59.992 15.023 73.538zm-142.954 108.868a22.4 22.4 0 0 0 6.256-2.1q.682-.346 1.349-.737c.111-.065.221-.134.328-.206l130.441-88.242v37.781l-70.657 62.354a21.64 21.64 0 0 0 -7.714 13.253l-29.559 132.26zm42.93 153.514 24.205-108.3a26.394 26.394 0 0 0 7.875 5.566l60.111 27.694zm218.427-34.094-76.5-197.935 18.583-16.4 122.722 5.974zm68.489-220.194-113.5-5.524 158.806-140.133zm-148.009-34.4-14.166-69.321 191.407-50.575z"/></svg>