<svg id="Layer_1" height="512" viewBox="0 0 512 512" width="512" xmlns="http://www.w3.org/2000/svg" data-name="Layer 1"><path d="m240.937 498.691a35.88 35.88 0 0 0 30.126 0 6 6 0 0 0 3.486-5.447v-180.213a17.6 17.6 0 0 0 10.589-16.124v-50.586a109.657 109.657 0 0 0 72.2-77.346 21.177 21.177 0 0 0 13.527-7.95 21.725 21.725 0 0 0 2.864-21.146l-1.682-4.362a136.329 136.329 0 0 1 -7.688-31.05c-7.307-53.855-53.859-94.467-108.293-94.467a109.1 109.1 0 0 0 -82.366 37.52 6 6 0 0 0 9.1 7.834 97.084 97.084 0 0 1 73.266-33.354c48.455 0 89.9 36.146 96.4 84.08a147.99 147.99 0 0 0 8.382 33.754l1.751 4.541a9.558 9.558 0 0 1 -1.022 9.03 9.286 9.286 0 0 1 -12.434 2.442l-8.06-5.037a72.85 72.85 0 0 0 -33.91-10.428c-14.476-.751-27.87 9.8-29.335 24.181a13.1 13.1 0 0 1 -4.1 8.539 12.265 12.265 0 0 1 -9.416 3.073 42.6 42.6 0 0 1 -29.322-16.175l-8.955-11.514a23.344 23.344 0 0 0 -17.742-9.129 28.514 28.514 0 0 0 -25.207 14.02l-14.78 25.175a10.576 10.576 0 0 1 -9.086 5.2 10.534 10.534 0 0 1 -8.944-16.1 54.332 54.332 0 0 0 8.2-27.936l.292-20.432a97.227 97.227 0 0 1 2.489-21.912 6.027 6.027 0 0 0 -3.315-6.858 6 6 0 0 0 -8.361 4.054 108.826 108.826 0 0 0 -2.812 24.63l-.291 20.347a42.348 42.348 0 0 1 -6.152 21.385 23.082 23.082 0 0 0 -1.608 21.641 22.288 22.288 0 0 0 16.987 12.908 108.887 108.887 0 0 0 71.147 53.521v18.981a17.577 17.577 0 0 0 10.589 16.106v209.157a6 6 0 0 0 3.486 5.447zm32.2-201.784a5.584 5.584 0 0 1 -11.167 0v-5.822a17.574 17.574 0 0 0 -17.555-17.554 5.561 5.561 0 0 1 -5.554-5.554v-16.943a110.552 110.552 0 0 0 12.429.711 108.512 108.512 0 0 0 21.847-2.241zm-23.686 192.182v-200.334a5.506 5.506 0 0 1 .52 2.33v5.822a17.608 17.608 0 0 0 12.578 16.848v175.334a23.876 23.876 0 0 1 -13.098 0zm57.092-336.723a60.866 60.866 0 0 1 28.181 8.619l8.059 5.037a21.042 21.042 0 0 0 2.561 1.341 96.073 96.073 0 0 1 -5.686 15.8 110.347 110.347 0 0 1 -49.806-17.863c1.038-7.741 8.781-13.335 16.691-12.934zm-25.48 30.259a24.4 24.4 0 0 0 4.926-5.55 122.345 122.345 0 0 0 47.485 17.4 97.5 97.5 0 0 1 -10.307 13.447c-16.566-3.5-33.718-10.955-49.121-21.219a24.366 24.366 0 0 0 7.017-4.078zm-73.617-31.272a11.432 11.432 0 0 1 9.095 4.461l8.988 11.557a54.66 54.66 0 0 0 27.792 18.829 163.071 163.071 0 0 0 59.5 31.537 98.234 98.234 0 0 1 -16.345 10.8 165.8 165.8 0 0 1 -90.391-77.108c.45-.041.904-.071 1.361-.076zm-38.865 42.347a22.569 22.569 0 0 0 10.085-9.069l.863-1.471a203.948 203.948 0 0 0 51.236 54.415 96.882 96.882 0 0 1 -62.184-43.875zm17.819-22.234 7.05-12.01a16.311 16.311 0 0 1 1.92-2.624 178.03 178.03 0 0 0 85.252 78.358 96.623 96.623 0 0 1 -24.676 4.437 192.013 192.013 0 0 1 -69.546-68.161z"/><path d="m223.973 341.751a6 6 0 0 0 -12 0v8.96a6 6 0 0 0 12 0z"/><path d="m217.973 369.17a6 6 0 0 0 -6 6v73.759a6 6 0 0 0 12 0v-73.759a6 6 0 0 0 -6-6z"/><path d="m322.786 86.829a17.894 17.894 0 1 0 -17.894 17.894 17.914 17.914 0 0 0 17.894-17.894zm-23.788 0a5.894 5.894 0 1 1 5.894 5.894 5.9 5.9 0 0 1 -5.892-5.894z"/><path d="m233.529 37.636a17.894 17.894 0 1 0 17.9 17.893 17.914 17.914 0 0 0 -17.9-17.893zm0 23.787a5.894 5.894 0 1 1 5.9-5.894 5.9 5.9 0 0 1 -5.9 5.894z"/><path d="m229.407 108.112a17.894 17.894 0 1 0 17.893-17.893 17.915 17.915 0 0 0 -17.893 17.893zm17.895-5.893a5.894 5.894 0 1 1 -5.895 5.893 5.9 5.9 0 0 1 5.893-5.893z"/></svg>