<svg id="Layer_1" height="512" viewBox="0 0 512 512" width="512" xmlns="http://www.w3.org/2000/svg" data-name="Layer 1"><path d="m438.278 380.917a10.565 10.565 0 0 0 -14.8-3.21l-25.008 16.581c-.054-.184-.1-.37-.157-.553l-12.367-38.289a6.015 6.015 0 0 0 -.667-1.408l-28.974-44.924a22.226 22.226 0 0 0 -6.061-6.26l-53.475-36.983a20.39 20.39 0 0 0 -6.289-2.922l-94.19-25.524a2.391 2.391 0 0 1 -1.707-1.848l-6.752-35.024 46.218-33.269a6 6 0 0 0 1.656-1.809l37.893-63.9a10.2 10.2 0 0 0 -8.329-15.394l-29.239-1.239v-52.817a10.192 10.192 0 0 0 -5.323-8.96l-21.93-11.927a10.18 10.18 0 0 0 -13.815 4.094l-16.335 30.109a6.013 6.013 0 0 0 -.568 1.493l-24.58 104.866-60.2 14.048a20.926 20.926 0 0 0 -11.162 6.752l-29.085 33.718a21.253 21.253 0 0 0 -4.1 20.31l3.029 9.365a21.015 21.015 0 0 0 7.219 10.239l19.107 14.685a17.712 17.712 0 0 0 10.757 3.644 17.424 17.424 0 0 0 2.474-.177l7.663-1.1 2.749 60.561a12.058 12.058 0 0 0 2.6 6.971l32.437 41.075a.142.142 0 0 1 .008.16l-25.9 41.085a12.131 12.131 0 0 0 -1.465 3.365l-9.472 35.79a12.172 12.172 0 0 0 1.532 9.683l8.52 13.218a12.13 12.13 0 0 0 16.71 3.635l8.717-5.591a12.078 12.078 0 0 0 4.874-14.292l-3.382-9.481a.139.139 0 0 1 .01-.118l14.55-24.651 43.619-11.394a.108.108 0 0 1 .1.031l33.562 35.715a6.016 6.016 0 0 0 1.038.88l21.859 14.608-5.047 6.376-47.238.26c-.118 0-.236 0-.353.013a8.155 8.155 0 0 0 -5.682 2.864l-12.316 14.575a8.13 8.13 0 0 0 6.2 13.378h.114l193.862-.34h.148a8.129 8.129 0 0 0 7.9-8.371l-.915-31c.093-.529.256-1.451.477-2.688l35.245-8.839a5.953 5.953 0 0 0 1.115-.4l32.689-15.528a10.586 10.586 0 0 0 4.428-15.17zm-174.419 87.771a8.13 8.13 0 0 0 -1.859-11.8l-.943-.631v-35.765l102.775 69.2-64.118.112-39.709-16.24zm134.3-59.794 25.011-16.583-2.481 20.333-24.362 6.373zm-11.259-11.47a10.332 10.332 0 0 1 .067 6.163 5.847 5.847 0 0 0 -.155.65c-10.315 56.962-10.315 56.962-10.288 57.812l.654 22.159-116.121-78.181v-13l112.873-34.45.841 1.305zm-40.674-81.806 20.946 32.476-106.115 32.388v-51.2l33.875-50.1 48.49 33.537a10.237 10.237 0 0 1 2.801 2.899zm-62.048-41.945-51.343 75.927-39.552-27.865-18.883-26.505 18.248-46.379c.167.052.333.11.5.156zm-113.969-74.513-23.476 21.818-5.8-53.927 14.011-3.269zm7.031 9.848 5.56 28.84a14.085 14.085 0 0 0 .519 1.939l-17.226 43.783-27.52-38.626zm42.573-79.441 4.28 30.1-25 18zm41.929-31.525-27.659 46.641-5.156-36.268 4.978-11.552zm-57.1-75.392 19.388 10.544v56.261l-12.422 28.83-21.233-69.333zm-19.971 48.657 19.6 64-24.125 55.993-.2.143-15.184-35.2zm-93.471 109.136a8.995 8.995 0 0 1 4.8-2.907l33.158-7.737 6.6 61.377-5.39 5.009-51.244-41.741zm-1.4 72.063a5.627 5.627 0 0 1 -4.208-1.1l-19.102-14.689a9.074 9.074 0 0 1 -3.114-4.419l-3.029-9.363a9.184 9.184 0 0 1 1.771-8.778l9.165-10.623 50.213 40.9-3.277 3.046a9.12 9.12 0 0 1 -1.551 1.159zm29.6 7.861a5.986 5.986 0 0 0 1.735-.526 21.068 21.068 0 0 0 5.249-3.573l3.321-3.086 47.379 66.5-63.425-1.94-2.55-56.181zm9.733 202.764-8.716 5.591a.108.108 0 0 1 -.147-.036l-8.52-13.218a.141.141 0 0 1 -.017-.112l4.369-16.5 9.082 9.145a12.119 12.119 0 0 0 .616 5.484l3.383 9.482a.136.136 0 0 1 -.046.164zm12.119-44.475-10.53 17.894-11.056-11.133 1.559-5.888 17.722-28.113 4.543 24.466a12.176 12.176 0 0 0 -2.234 2.774zm13.616-7.206-6.579-35.432a12.164 12.164 0 0 0 -1.912-11.568l-27.245-34.535 67.871 2.076 39.1 27.55-28.4 42a12.086 12.086 0 0 0 -5.457.147zm52.547-2.843 41.638-61.577v101.2l-11.83-7.907zm-5.878 74.552 47.315-.26c.119 0 .238 0 .356-.012a8.144 8.144 0 0 0 1.361-.217l17.575 7.187-72.374.127zm192.434-51.122 25.152-6.58-1.788 14.661-26 6.52c.8-4.413 1.703-9.415 2.64-14.601zm36.1 2.8 4.532-37.152 16.865 26.988z"/></svg>