<svg id="Layer_1" height="512" viewBox="0 0 512 512" width="512" xmlns="http://www.w3.org/2000/svg" data-name="Layer 1"><path d="m214.99 321.648a6 6 0 0 0 -6 6v9.721a6 6 0 0 0 12 0v-9.721a6 6 0 0 0 -6-6z"/><path d="m214.99 352.769a6 6 0 0 0 -6 6v73.385a6 6 0 0 0 12 0v-73.385a6 6 0 0 0 -6-6z"/><path d="m401.073 169.544a19.914 19.914 0 0 0 -5.388-1.835 142.456 142.456 0 0 0 1.026-17 134.621 134.621 0 0 0 -2.524-25.915 34.926 34.926 0 0 0 5.891-6.18 18.99 18.99 0 0 0 -18.312-29.653c-24.157-47.433-74.045-78.961-125.766-78.961a140.9 140.9 0 0 0 -126.479 78.979 18.905 18.905 0 0 0 -17.632 29.574 34.625 34.625 0 0 0 5.779 6.113 142.767 142.767 0 0 0 -1.342 43.131 19.759 19.759 0 0 0 -5.467 1.852 19.507 19.507 0 0 0 -10.483 14.361 19.385 19.385 0 0 0 3.256 14.379c5.781 8.02 16.6 14.27 28.477 19.047a140.268 140.268 0 0 0 100.626 72.064v189.235a23.265 23.265 0 0 0 46.53 0v-189.235a140.262 140.262 0 0 0 100.62-72.053c11.856-4.764 22.652-10.995 28.447-18.987a19.761 19.761 0 0 0 -7.259-28.913zm-280.054-64.414a6.364 6.364 0 0 1 1.678-2.418 6.768 6.768 0 0 1 7.651-1.138 141.485 141.485 0 0 0 22.936 8.8 6.012 6.012 0 1 0 3.382-11.539 143.688 143.688 0 0 1 -15.833-5.625 128.884 128.884 0 0 1 115.167-71.21c46.894 0 92.164 28.443 114.506 71.341-25.67 10.927-68.7 17.6-114.678 17.6a450.553 450.553 0 0 1 -50.132-2.737 6.01 6.01 0 0 0 -6.7 5.969v.018a6.012 6.012 0 0 0 5.342 5.978 465.054 465.054 0 0 0 51.486 2.772c52.006 0 98.972-8.016 125.632-21.445a6.972 6.972 0 0 1 8.9 10.074c-5.787 7.98-22.435 15.774-45.677 21.383-24.872 6-56.366 9.309-88.679 9.309-32.344 0-63.86-3.312-88.743-9.325-23.249-5.618-39.884-13.419-45.64-21.4a6.842 6.842 0 0 1 -.598-6.407zm263.692 45.581a130.274 130.274 0 0 1 -1.366 18.785c-26.2 13.2-75.066 21.4-127.524 21.4-52.177 0-100.843-8.123-127.134-21.206a130.531 130.531 0 0 1 -.04-37.778c10.96 5.824 24.421 9.944 35.8 12.694 25.779 6.229 58.3 9.66 91.562 9.66 33.234 0 65.727-3.425 91.5-9.644 11.359-2.741 24.8-6.847 35.754-12.65a122.546 122.546 0 0 1 1.448 18.739zm-234.945 72.689c3.2.91 6.334 1.725 9.333 2.45a371.957 371.957 0 0 0 55.69 8.533 68.444 68.444 0 0 0 12.377 41.785 128.172 128.172 0 0 1 -77.4-52.768zm117.5 255.337a11.265 11.265 0 0 1 -22.53 0v-137.7h22.53zm0-149.7h-22.53v-38.079c3.727.295 7.481.463 11.265.463s7.538-.168 11.265-.463zm-11.266-49.616c-3.629 0-7.229-.169-10.8-.466l-3.442-3.728a56.542 56.542 0 0 1 -15-40.006c9.6.554 19.387.849 29.247.849 7.882 0 15.718-.192 23.449-.548a57.379 57.379 0 0 0 22.461 35.478 128.968 128.968 0 0 1 -45.915 8.421zm58.776-14.136-4.3-2.912a45.461 45.461 0 0 1 -18.9-27.559c22.3-1.579 43.332-4.619 61.272-8.949 3.015-.727 6.17-1.547 9.387-2.461a128.324 128.324 0 0 1 -47.459 41.881zm83.841-73.873c-6.179 8.521-23.888 16.826-48.59 22.788-26.373 6.364-59.763 9.87-94.021 9.87-34.289 0-67.7-3.511-94.088-9.886-24.71-5.971-42.406-14.286-48.552-22.811a7.308 7.308 0 0 1 -1.146-5.428 7.616 7.616 0 0 1 4.095-5.608 7.406 7.406 0 0 1 6.741-.042c28.22 14.15 77.851 22.6 132.761 22.6 55.038 0 104.729-8.478 132.922-22.679a7.549 7.549 0 0 1 6.892.024 7.7 7.7 0 0 1 4.146 5.668 7.365 7.365 0 0 1 -1.16 5.504z"/></svg>