<svg id="Layer_1" height="512" viewBox="0 0 512 512" width="512" xmlns="http://www.w3.org/2000/svg" data-name="Layer 1"><path d="m498.451 298.475a7.845 7.845 0 0 0 -8.986.183l-49.36 35.6-240.87-126-5.235-66.658a7.673 7.673 0 0 0 -1.177-3.529l-60.623-95.136a8.977 8.977 0 0 0 -8.619-4.069l-87.249 10.626a7.661 7.661 0 0 0 -6.731 7.6v33.508a7.686 7.686 0 0 0 4.385 6.921l48.3 22.809-71.6 144.73a6.605 6.605 0 0 0 2.527 8.561c4.681 2.792 51.031 41.544 88.774 73.408l-14.06 67.371a6.488 6.488 0 0 0 6.354 7.8h21.358l-.127 2.284a6.991 6.991 0 0 0 1.987 5.283 6.873 6.873 0 0 0 1.477 1.132v.006l70.278 41.274a7.276 7.276 0 0 0 10.267-3.072l18.118-37.291c72.069.257 158.632.766 160.067.775h.035a6.008 6.008 0 0 0 2.63-.607l98.539-48.044a7.835 7.835 0 0 0 4.37-6.074l18.476-70.866c.016-.063.032-.127.047-.191a7.842 7.842 0 0 0 -3.352-8.334zm-69.228 43.635-3 2.161-224.839-108.657-1.039-13.226zm-247.107-198.51 6.757 85.967-52.334-25.291a7.049 7.049 0 0 0 -6.242.039l-101.206 50.593 97.884-197.842zm-62.243 202.838c-21.89-18.519-72.5-61.222-92.632-77.19l99.732-49.856zm18.075-108.378 66.662 181.708c-18.953-.06-36.413-.1-50.4-.1-11.515 0-20.684.026-26.411.085zm-96.348-150.214v-26.908l74.562-9.08-28.554 57.715zm59.462 322.354 11.338-54.364q3.4 2.88 6.631 5.615l-2.721 48.749zm89.9 49.065-46.97-27.585c15.057-.024 36.484.016 60.328.092zm185.407-38.685c-12.6-.074-92.022-.533-158.961-.77l-72.741-198.278 321.4 155.317zm97.289-53.388-35.147-16.985 48.746-35.16z"/></svg>