<svg id="Layer_1" height="512" viewBox="0 0 512 512" width="512" xmlns="http://www.w3.org/2000/svg" data-name="Layer 1"><path d="m105.471 368.711a7.592 7.592 0 0 0 3.352 2.394l41.968 15.1a7.618 7.618 0 0 0 2.582.45c.236 0 .473-.011.706-.033l35.1-3.32 29.8 112.652c.03.108.061.215.095.321a8.207 8.207 0 0 0 7.849 5.73 8.619 8.619 0 0 0 .984-.056 8.213 8.213 0 0 0 7.288-7.265l19.7-126.2 21.628 126.259a8.213 8.213 0 0 0 7.282 7.208 8.619 8.619 0 0 0 .984.056 8.207 8.207 0 0 0 7.849-5.73c.034-.106.065-.213.094-.322l29.809-112.688 35.373 3.357c.235.022.473.033.709.033a7.593 7.593 0 0 0 2.572-.447l41.98-15.1a7.605 7.605 0 0 0 3.357-2.4l37.638-47.122a7.584 7.584 0 0 0 -8.474-11.876l-80.523 28.741-27.19-13.112 27.652-35.206a7.194 7.194 0 0 0 -.6-9.58l-.08-.078-14.545-13.851 2.433-2.442a7.705 7.705 0 0 0 2.208-6.354l-14.46-125.794 26.977-43.007a6.552 6.552 0 0 0 -1.754-8.834l-95.342-67.826a7.778 7.778 0 0 0 -5.557-2.369h-.058a7.761 7.761 0 0 0 -5.53 2.409l-93.009 66.618a6.774 6.774 0 0 0 -1.712 9.225l27.6 43.771-16.977 128.525a7.8 7.8 0 0 0 2.209 6.473l.847.846-12.845 12.677a7.19 7.19 0 0 0 -.6 9.585l28.147 35.686-26.167 12.63-80.52-28.74a7.584 7.584 0 0 0 -8.474 11.877zm48.463 5.867-27.69-9.96 9.65-4.115 47.48 11.291zm92.366-28.784-9.011 57.712-42.507-48.665 2.144-58.368zm7.624-9.346-25.486-25.459 52.672-1.833zm60.332-43.562 2.733 63.342-43.82 47.832-10.221-59.67zm12.143 3.075 5.644 4.788-5.155 6.562zm-67.375-159.188 49.976 117.417-111.8.913 52.85-118.34zm62.976 117.311-49.928-117.3 46.992.052 13.467 117.164zm-123.251-129.377 56.243-98.514 58.7 98.64zm-5.055 12 43.22.047-52.9 118.462-5.979.049zm130.333 129.362-30.527 30.648-76.68 2.669-32.22-32.179zm-139.549 42.258-5.936-7.526 6.405-5.239zm41.543 167.32-25.348-95.816 34.2 39.15zm59.514.6-9.8-57.223 35.065-38.277zm72.532-101.67-29.412-2.791 47.451-11.286 9.651 4.115zm41.938-16.928-28.673-12.229 53.768-19.192zm-48.121-7.485v.006l5.656 2.413-28.716 6.829a12.171 12.171 0 0 0 .195-2.675l-.775-17.959 23.388 11.278c.08.044.168.072.252.109zm-8.371-64.025-4.057 5.165-12.808-10.864 5.291-5.311zm-19.123-166.8-48.271-81.111 68.558 48.772zm-89.8-81.614-46.4 81.28-20.875-33.095zm-57.815 238.623 5.722 5.715-11.389 9.314-4.185-5.306zm6.578 62.616-.655 17.812a11.962 11.962 0 0 0 .185 2.567l-28.42-6.759 5.656-2.413v-.006c.086-.038.174-.069.258-.109zm-42.685 6.457-28.668 12.229-25.1-31.422z"/></svg>