<?xml version="1.0" encoding="UTF-8"?>
<svg xmlns="http://www.w3.org/2000/svg" id="Layer_1" data-name="Layer 1" viewBox="0 0 512 512" width="512" height="512"><path d="M60.9,354.183a159.733,159.733,0,0,0,72,38.216,138.178,138.178,0,0,0,227.047,70.728,6,6,0,0,0,.429-8.475l-112.788-124.8,118.513,83.494a6.009,6.009,0,0,0,3.456,1.094,6.114,6.114,0,0,0,1.025-.087,6.006,6.006,0,0,0,3.88-2.457c43.891-62.3,28.914-148.694-33.387-192.585a137.133,137.133,0,0,0-95.843-24.2l55.519-77.117L433.367,312.459a6,6,0,0,0,8.337,1.576A138.283,138.283,0,0,0,339.821,63.713L351.4,47.636a6,6,0,0,0-1.364-8.375A138.061,138.061,0,0,0,139.117,105.1l-4.461-16.454A6,6,0,0,0,127.3,84.42C42.761,107.338-7.367,194.757,15.551,279.291A158.215,158.215,0,0,0,60.9,354.183Zm286.452,103.96a126.36,126.36,0,0,1-173.714-12.931C130.6,397.6,130.521,324.73,172.65,277.065l9.466,6.669a114.7,114.7,0,0,0,79.361,191.413q2.973.151,5.926.151a113.762,113.762,0,0,0,72.218-25.7Zm-15.781-17.461A102.711,102.711,0,0,1,192,290.7l11.052,7.787ZM181.1,268.34A102.709,102.709,0,0,1,348.744,386.445Zm153.053-39.218C389.4,268.043,403.892,343.567,367.983,400l-9.417-6.635A114.706,114.706,0,0,0,171.279,261.42l-9.417-6.635a126.376,126.376,0,0,1,172.293-25.663Zm-23.136-117.36a102.71,102.71,0,0,1,115.542,169.42ZM387.269,75.9a126.217,126.217,0,0,1,52.552,224.724l-6.49-9.518A114.706,114.706,0,0,0,304.249,101.836l-6.491-9.519A125.31,125.31,0,0,1,387.269,75.9ZM285.961,85.669a6,6,0,0,0-1.577,8.338l9.165,13.438L228.205,198.21a137.687,137.687,0,0,0-39.7,16.667,103.268,103.268,0,0,1-21.8-58.09A102.713,102.713,0,0,1,324.318,64.708l-2.464,3.423A138.319,138.319,0,0,0,285.961,85.669ZM166.854,77.685A126.377,126.377,0,0,1,338.069,45.607l-6.731,9.35A114.711,114.711,0,0,0,154.727,157.422a115.337,115.337,0,0,0,23.854,64.228q-4.594,3.444-8.9,7.28a127.171,127.171,0,0,1-26.4-71.305A124.744,124.744,0,0,1,166.854,77.685Zm-42.178,20,3.977,14.673a131.614,131.614,0,0,0-82.767,78.457A6.009,6.009,0,0,0,51.477,199h0a5.993,5.993,0,0,0,5.6-3.859,119.623,119.623,0,0,1,74.688-71.19l1.252,4.717a137.542,137.542,0,0,0-1.721,29.559,139.207,139.207,0,0,0,29.722,79.124A139.788,139.788,0,0,0,148.482,252.7a6,6,0,0,0,1.449,8.362l12.851,9.053a137.608,137.608,0,0,0-33.212,80.66A119.765,119.765,0,0,1,49.281,242.7,6,6,0,1,0,37.3,243.3,131.629,131.629,0,0,0,129.252,363.31a140.015,140.015,0,0,0,1.246,16.111A147.8,147.8,0,0,1,69.039,345.37a146.223,146.223,0,0,1-41.906-69.22C6.473,199.944,50.032,121.2,124.676,97.688Z"/><path d="M43.623,359.335a6,6,0,0,0-8.792,8.168,160.144,160.144,0,0,0,67.463,43.116,6,6,0,0,0,3.726-11.406A148.127,148.127,0,0,1,43.623,359.335Z"/><path d="M16.659,332.1a6,6,0,0,0-2.117,8.216c1.872,3.172,3.885,6.323,5.982,9.364a6,6,0,0,0,9.878-6.815c-1.938-2.809-3.8-5.718-5.526-8.648A6,6,0,0,0,16.659,332.1Z"/></svg>
