<svg id="Layer_1" height="512" viewBox="0 0 512 512" width="512" xmlns="http://www.w3.org/2000/svg" data-name="Layer 1"><path d="m495.191 195.147-159.833-29.392-70.836-138.269a8.265 8.265 0 0 0 -7.4-4.526h-.063a8.269 8.269 0 0 0 -7.394 4.634l-69.737 141.414-162.809 23.811a8.3 8.3 0 0 0 -4.979 13.781l103.521 114.79-21.417 158.228a8.308 8.308 0 0 0 11.845 8.594l151.385-72.949 150.15 72.682a8.245 8.245 0 0 0 8.836-1.007 8.233 8.233 0 0 0 2.868-8.407l-32.687-136.089 113.366-133.732a8.3 8.3 0 0 0 -4.816-13.563zm-240.042 76.172-215.129-69.719 213.542-31.231zm-117.17-25.36 113.255 36.7-142.726 181.041zm123.176 43.5 133.919 179.079-199.112-96.383zm9.93-6.758 208.6-68.582-138.077 162.887zm202.738-79.286-101.991 33.536-29.573-57.726zm-113.53 37.326-93.142 30.622-3.445-219.152zm-108.613-190.097 1.692 107.622-59.024 8.634zm-218.521 161.344 93.22 30.212-8.61 63.61zm87.241 256.005 67.95-86.189 55.33 26.783zm281.6-10.235-53.017-70.892 28.043-33.081z"/></svg>