<svg id="Layer_1" height="512" viewBox="0 0 512 512" width="512" xmlns="http://www.w3.org/2000/svg" data-name="Layer 1"><path d="m243.931 183.174c-11.455-24.277-27.156-32.393-36.746-27.876l-46.463 21.924c-3.47 1.636-9.237 6.34-8.886 19.457.214 8.008 2.713 17.465 7.036 26.629 9.455 20.038 21.8 29.07 31.218 29.07a12.858 12.858 0 0 0 5.528-1.194l46.465-21.924c9.588-4.527 13.302-21.809 1.848-46.086zm-53.431 57.156c-2.458 1.158-12.766-5.174-20.771-22.143-3.579-7.583-5.726-15.539-5.9-21.83-.141-5.276 1.158-7.88 2.011-8.282l32.46-15.318c-.014.647-.022 1.305 0 2 .214 8.008 2.713 17.465 7.036 26.629s10.034 17.105 16.08 22.362c.521.454 1.033.869 1.54 1.269zm46.465-21.924h-.007c-.866.394-3.693-.264-7.664-3.719-4.748-4.129-9.523-10.846-13.1-18.428s-5.725-15.538-5.894-21.829c-.141-5.277 1.158-7.881 2.009-8.283a1.616 1.616 0 0 1 .691-.132c3.315 0 12.683 6.594 20.081 22.276 8.004 16.976 6.331 28.96 3.881 30.115z"/><path d="m348.848 301.273c10.988 0 25.587-6.513 39.406-18.457 20.966-18.121 29.825-39.83 20.606-50.5l-41.027-47.466c-9.218-10.665-31.983-5.045-52.95 13.077s-29.825 39.83-20.607 50.5l41.024 47.473c3.146 3.63 7.864 5.373 13.548 5.373zm-45.495-60.7c-2.826-3.269 1.452-18.083 19.374-33.573 13.335-11.525 25.207-15.63 31.573-15.63 2.189 0 3.728.485 4.452 1.322 2.824 3.27-1.455 18.082-19.375 33.572s-33.198 17.58-36.024 14.311zm43.871-5.231c11.279-9.75 19.047-20.535 22.389-30.083l30.168 34.905c2.825 3.27-1.452 18.082-19.374 33.571s-33.2 17.583-36.025 14.31l-30.167-34.9c9.931-1.926 21.729-8.052 33.009-17.801z"/><path d="m72.715 375.463 11.395 74.7c1.289 8.453 8.974 14.984 21.637 18.391a84.079 84.079 0 0 0 21.585 2.578 118.352 118.352 0 0 0 17.748-1.381c14.354-2.191 27.56-6.761 37.186-12.869 5.834-3.7 10.071-7.823 12.6-12.128 6.683 8.434 16.472 16.67 27.9 23.417 12.5 7.381 25.625 12.192 36.944 13.547a52.037 52.037 0 0 0 6.174.385c9.87 0 17.131-3.244 20.757-9.388l14.161-23.989a16.393 16.393 0 0 0 5.122 2.25l73.442 17.8a15.916 15.916 0 0 0 3.77.451c14.785 0 30.394-20.176 37.483-49.431 3.42-14.112 4.2-28.066 2.2-39.289-2.3-12.91-8.145-21.129-16.456-23.143l-73.441-17.8c-10.573-2.559-22.118 5.811-31.084 22.128-.478-.362-.959-.724-1.449-1.084 6.177-11.757 5.646-32.195-1.9-54.117-4.727-13.728-11.592-25.9-19.328-34.276-8.9-9.634-18.252-13.407-26.336-10.619l-71.448 24.604c-14.08 4.849-18.271 28.1-10.743 55.678a51.482 51.482 0 0 0 -6.231-2.1c-11.008-2.961-24.973-3.385-39.333-1.2-32.302 4.939-54.81 20.791-52.355 36.885zm120.533 29.966-3.781-24.785a49.539 49.539 0 0 0 11.919 11zm83.064 61.189c-1.7 2.882-7.509 4.1-15.171 3.188-9.705-1.161-21.166-5.411-32.271-11.966s-20.362-14.535-26.069-22.472c-4.5-6.261-6.242-11.941-4.54-14.824l29.288-49.616a50.256 50.256 0 0 0 3.923 6.371c6.656 9.256 17.208 18.419 29.713 25.8s25.624 12.192 36.944 13.547a52.223 52.223 0 0 0 6.174.385c.439 0 .868-.014 1.3-.027zm73.071-103.908a50.273 50.273 0 0 0 -1.836-7.253l55.995 13.568c3.254.788 6.115 6 7.469 13.586 1.716 9.624.988 21.826-2.049 34.358-6.516 26.887-20.211 41.732-26.765 40.144l-56.044-13.581c8.82-8.476 16.593-23.227 21.029-41.534 3.418-14.112 4.201-28.064 2.201-39.288zm-19.283-11.481c3.253.789 6.115 6 7.467 13.586 1.716 9.623.989 21.825-2.048 34.357-6.515 26.883-20.215 41.714-26.763 40.145a4.791 4.791 0 0 1 -1.833-.944l18.14-30.729c5.864-9.936.039-24.431-13.864-37.946 6.781-13.348 14.589-19.506 18.901-18.469zm-15.374 50.314c-1.7 2.884-7.52 4.1-15.172 3.187-9.706-1.161-21.166-5.411-32.271-11.965s-20.362-14.536-26.069-22.472c-4.5-6.261-6.242-11.941-4.54-14.824 1.328-2.249 5.159-3.488 10.416-3.488a40.279 40.279 0 0 1 4.756.3c9.706 1.161 21.166 5.411 32.27 11.966 23.824 14.064 34.042 31.482 30.611 37.296zm-64.153-114.371c.636-7.686 3-13.138 6.162-14.228s8.38 1.752 13.614 7.416c6.632 7.181 12.6 17.85 16.8 30.041 3.684 10.7 5.612 21.611 5.427 30.719a35.542 35.542 0 0 1 -2.284 12.837l-.072-.044a112.5 112.5 0 0 0 -23.727-10.656 99.138 99.138 0 0 1 -10.655-22.073c-4.201-12.192-6.07-24.271-5.265-34.012zm-65.288 10.378 54.476-18.76a50.292 50.292 0 0 0 -1.147 7.393c-.939 11.362 1.147 25.179 5.875 38.908a118.859 118.859 0 0 0 6.355 15.037c-11.775-.9-20.432 2.343-24.5 9.241l-18.864 31.951c-7.456-4.786-16.8-17.259-23.094-35.531-9.008-26.156-5.486-46.041.899-48.239zm-8.4 80.182 8.688 56.957c.5 3.309-3.225 7.931-9.737 12.064-8.253 5.237-19.818 9.193-32.564 11.138s-24.969 1.617-34.407-.922c-7.447-2-12.386-5.3-12.89-8.613l-8.69-56.956a50.242 50.242 0 0 0 7.067 2.455 84.117 84.117 0 0 0 21.585 2.578 118.362 118.362 0 0 0 17.748-1.381c14.353-2.191 27.559-6.761 37.185-12.869a50.313 50.313 0 0 0 6.014-4.451zm-50-27.281a106.567 106.567 0 0 1 15.986-1.253 71.857 71.857 0 0 1 18.42 2.175c7.447 2 12.387 5.3 12.891 8.612.5 3.309-3.226 7.931-9.738 12.064-8.252 5.237-19.817 9.193-32.564 11.138s-24.969 1.617-34.406-.922c-7.448-2-12.387-5.3-12.891-8.613-1.023-6.673 14.95-19.029 42.297-23.201z"/><path d="m91.436 157.422a6 6 0 0 0 6-6v-9.579a6 6 0 0 0 -12 0v9.579a6 6 0 0 0 6 6z"/><path d="m85.436 251.457a6 6 0 0 0 12 0v-76.322a6 6 0 0 0 -12 0z"/><path d="m435.807 100.358h-11.529v-32.068h3.863a26.236 26.236 0 0 0 26.206-26.206v-5.878a26.236 26.236 0 0 0 -26.206-26.206h-344.282a26.236 26.236 0 0 0 -26.206 26.206v5.878a26.236 26.236 0 0 0 26.206 26.206h3.863v32.068h-11.53a20.83 20.83 0 0 0 -20.829 20.83v57.812a6 6 0 0 0 12 0v-57.812a8.831 8.831 0 0 1 8.83-8.83h359.614a8.831 8.831 0 0 1 8.83 8.83v359.982a8.83 8.83 0 0 1 -8.83 8.83h-359.615a8.829 8.829 0 0 1 -8.829-8.829v-252.171a6 6 0 0 0 -12 0v252.17a20.83 20.83 0 0 0 20.83 20.83h359.615a20.83 20.83 0 0 0 20.829-20.829v-359.983a20.83 20.83 0 0 0 -20.83-20.83zm-351.948-44.068a14.222 14.222 0 0 1 -14.206-14.206v-5.878a14.222 14.222 0 0 1 14.206-14.206h344.282a14.222 14.222 0 0 1 14.206 14.206v5.878a14.222 14.222 0 0 1 -14.206 14.206zm328.419 44.068h-312.556v-32.068h312.556z"/></svg>