<svg id="Layer_1" height="512" viewBox="0 0 512 512" width="512" xmlns="http://www.w3.org/2000/svg" data-name="Layer 1"><path d="m494.984 376.785-144.44-256.738 133.386 2.375a11.094 11.094 0 0 0 6.25-20.377l-139.342-90.21a11.108 11.108 0 0 0 -14.3 1.809l-84.331 92.356a11.071 11.071 0 0 0 -2.12 11.3l52.5 140.128-194.054-87.014a8.074 8.074 0 0 0 -10.277 11.426l73.325 126.413-147.1-30.882a9.623 9.623 0 0 0 -9.391 15.538l167.91 204.214a13.314 13.314 0 0 0 10.32 4.877h189.466a18.374 18.374 0 0 0 13.247-5.684l100.583-105.672a9.059 9.059 0 0 0 -1.632-13.859zm-168.531 48.886 50.463 64.329h-165.6zm-57.766 18.529-42.759-50.345 165.321-18.132zm-39.312-152.715 78.875 45.459-92.45-19.408zm51.117-127.238 96.508 34.953-52.373 82.844zm100.457 51.153 6.451 138.159-39.052-8.2-18.439-49.217zm.979 149.269-165.379 18.143-54.632-64.326zm17.6-8.567-6.336-135.78 85.771 152.456zm-26.57-247.661 67.577-24.241 40.419 26.167zm-28.058-86.158 82.964 53.717-88.764 31.842-71.174-1.267zm-8.26 97.517 36.755 65.331-98.435-35.651-11.608-30.98zm-4.24 217.213-97.477-56.179 17.15-32.908 56.43 25.3zm-217.655-150.663 126.361 56.658-37.5 71.967-16.226-3.406zm28.011 128.114 46.255 54.462-109.183-16.172-51.182-62.246zm-51.57 52.1 109.614 16.236 57.213 67.364-67.213 37.551zm297.959 119.583-52.088-66.4 83.9-46.879 63.349 13.3z"/></svg>