<svg id="Layer_1" height="512" viewBox="0 0 512 512" width="512" xmlns="http://www.w3.org/2000/svg" data-name="Layer 1"><path d="m486.878 232.485c4.535-26.006-1.527-49.41-17.071-65.9s-38.554-23.922-64.778-20.918c-22.975 2.625-46.037 13.044-65.78 29.541.9-23-3.792-45.115-13.666-63.541-12.47-23.27-31.675-37.952-54.077-41.345-40.071-6.06-79.568 26.159-94.538 75.872-19.017-10.819-42.432-11.584-66.2-2.1-23.916 9.541-45.418 28.415-60.545 53.144a140.648 140.648 0 0 0 -16.123 37.546c-15.98 15.408-24.1 32.1-24.1 49.64v44.328c0 31.261 26.223 60.239 73.839 81.6 46.085 20.669 107.226 32.054 172.161 32.054s126.076-11.385 172.161-32.056c47.616-21.359 73.839-50.337 73.839-81.598v-44.328c0-14.763-5.8-29.012-17.244-42.4q1.284-4.748 2.122-9.539zm-11.821-2.061c-3.982 22.831-16.759 45.384-35.98 63.5-22.574 21.282-51.348 33.217-76.953 32.7a289.094 289.094 0 0 0 114.053-105.936 86.177 86.177 0 0 1 -1.12 9.736zm-.671-30.831a276.845 276.845 0 0 1 -108.767 111.524 66.33 66.33 0 0 0 5.268-24.138 453.33 453.33 0 0 0 96.783-103.53 56.864 56.864 0 0 1 6.716 16.144zm-104.7 73.026a67.436 67.436 0 0 0 -6.164-17.717 442.072 442.072 0 0 1 93.225-76.728 441.3 441.3 0 0 1 -87.06 94.445zm67.436-112.529a57.27 57.27 0 0 1 14.744 6.987 454.023 454.023 0 0 0 -94.918 77.257 86.717 86.717 0 0 0 -13.529-14.319 276.887 276.887 0 0 1 93.703-69.925zm-266.445 153.9a56.918 56.918 0 0 1 -5.53-13.812 455.128 455.128 0 0 0 84.19 7.837 456.45 456.45 0 0 0 108.686-13.1 56.882 56.882 0 0 1 -5.839 16.481 275.915 275.915 0 0 1 -181.507 2.589zm168.712 14.273a86.318 86.318 0 0 1 -7.376 6.467c-18.257 14.274-42.857 22.447-69.266 23.011-32.168.7-60.977-10.129-79.16-27.359a287.922 287.922 0 0 0 155.8-2.119zm-174.981-50.812a56.585 56.585 0 0 1 5.166-15.181 275.9 275.9 0 0 1 181.446-5.17 57.271 57.271 0 0 1 6.266 15.089 457.266 457.266 0 0 0 -192.878 5.262zm189.021 6.224a445.338 445.338 0 0 1 -184.429 5.009 445.306 445.306 0 0 1 184.429-5.009zm-16.029-90.486c1.139-1.154 2.3-2.3 3.481-3.417 22.867-21.558 50.736-32.8 75.369-32.747a289.227 289.227 0 0 0 -82.455 65.783q-1.813-1.2-3.689-2.334a142.234 142.234 0 0 0 7.294-27.285zm-28.535-85.709c14.759 20.253 21.8 50.23 16.983 82.038a130.933 130.933 0 0 1 -6.421 25.233 122.838 122.838 0 0 0 -15.154-5.876 289.516 289.516 0 0 0 4.592-101.395zm-28.637-22.57a56.637 56.637 0 0 1 14.058 7.678 277.177 277.177 0 0 1 -1.615 113.212 139.759 139.759 0 0 0 -19.671-2.81 454.291 454.291 0 0 0 7.228-118.08zm57.343 155.9a288.193 288.193 0 0 0 -155.737 4.505 85.175 85.175 0 0 1 8.585-7.684c18.257-14.275 44.3-22.463 70.711-23.028 30.25.003 58.757 10.176 76.441 26.21zm-146.919-18.06q4.836-12.324 8.52-25.059a90.079 90.079 0 0 1 1.828 19.109 114.42 114.42 0 0 0 -10.348 5.953zm77.713-135.238a442.27 442.27 0 0 1 -7.526 115.108c-.471.006-.939-.006-1.41 0a145.717 145.717 0 0 0 -17.023 1.38 441.936 441.936 0 0 1 25.959-116.488zm-10.678-5.745a453.954 453.954 0 0 0 -27.489 124.5 131.941 131.941 0 0 0 -17.3 5.244 98.882 98.882 0 0 0 -1.915-15.511 277.187 277.187 0 0 1 32.197-111.2 57.058 57.058 0 0 1 14.507-3.033zm-32.811 12.871a290.336 290.336 0 0 0 -23.144 76.553 68.731 68.731 0 0 0 -14.378-17.62c6.846-25.611 20.617-46.4 37.522-58.933zm-43.737 69.434a56.846 56.846 0 0 1 10.734 13.787 275.348 275.348 0 0 1 -22.619 63.441 75.04 75.04 0 0 0 -14.462 25.359 274.61 274.61 0 0 1 -58.786 65.441 57.106 57.106 0 0 1 -14.579-2.833 457.3 457.3 0 0 0 99.712-165.195zm-25.609 145.646c-12.367 10.3-25.69 17.178-38.776 20.4a286.18 286.18 0 0 0 34.946-38.142 65.742 65.742 0 0 0 3.83 17.742zm-81.693 10.1a445.312 445.312 0 0 1 95.363-157.935 445.3 445.3 0 0 1 -95.363 157.935zm71.69-170.253a57.277 57.277 0 0 1 16.086 2.869 457.3 457.3 0 0 0 -99.713 165.181 56.576 56.576 0 0 1 -9.985-12.567 275.894 275.894 0 0 1 93.612-155.483zm-85.065 53.935c16.395-26.8 40.322-44.986 64.1-51.411a288.181 288.181 0 0 0 -80.29 133.494 85.138 85.138 0 0 1 -1.837-11.356c-2.161-23.073 4.243-48.191 18.027-70.727zm429.538 80.924c0 26.251-23.7 51.341-66.75 70.648-44.574 19.994-103.972 31.006-167.25 31.006a505.889 505.889 0 0 1 -83.022-6.666 5.993 5.993 0 0 0 -2 11.817 517.556 517.556 0 0 0 85.022 6.849c64.935 0 126.076-11.385 172.161-32.057 28.8-12.919 49.761-28.629 61.839-45.943v8.674c0 26.251-23.7 51.341-66.75 70.648-44.574 20-103.972 31.006-167.25 31.006s-122.676-11.006-167.25-31.006c-43.045-19.307-66.75-44.4-66.75-70.648v-8.674c12.078 17.314 33.037 33.024 61.839 45.943a305.624 305.624 0 0 0 36.459 13.5 5.989 5.989 0 0 0 7.7-5.748 5.976 5.976 0 0 0 -4.221-5.726 294.226 294.226 0 0 1 -35.027-12.975c-43.045-19.307-66.75-44.397-66.75-70.648 0-9 2.786-17.861 8.3-26.477a109.675 109.675 0 0 0 .188 17.4c2.458 26.285 14.456 47.272 33.786 59.095a67.7 67.7 0 0 0 35.675 9.789c20.078 0 41.518-7.981 60.848-23.316a86.371 86.371 0 0 0 24.788 26.555c20.181 14.431 46.443 22.3 74.26 22.3q1.578 0 3.163-.034c28.983-.621 56.116-9.7 76.4-25.556a98.6 98.6 0 0 0 8.079-7.051 86.688 86.688 0 0 0 16.635 1.585c28.214 0 58.63-12.9 83.192-36.053a136.265 136.265 0 0 0 32.82-47.026c6.542 9.365 9.866 19.011 9.866 28.789z"/><path d="m120.408 121.633a6 6 0 0 0 5.976 5.535q.234 0 .471-.018a65.613 65.613 0 0 1 7.84-.142 6 6 0 0 0 .518-11.988 77.04 77.04 0 0 0 -9.287.166 6 6 0 0 0 -5.518 6.447z"/><path d="m52.276 156.251a6 6 0 0 0 9.123 7.795c13.4-15.685 29.542-27.071 46.676-32.927a6 6 0 0 0 -3.881-11.355c-19.168 6.55-37.12 19.168-51.918 36.487z"/></svg>