<svg id="Layer_1" height="512" viewBox="0 0 512 512" width="512" xmlns="http://www.w3.org/2000/svg" data-name="Layer 1"><path d="m359.272 69.556a10.923 10.923 0 0 0 -15.751-14.847l-4.111 3.317a59.994 59.994 0 0 1 -35.749 13.21l-27.843.8a70.113 70.113 0 0 0 -44.711 17.83c-1.465-10.162-5.9-17.58-12.95-21.327-.117-.064-.238-.122-.36-.177a70.131 70.131 0 0 0 -49.277-3.079l-26.633 8.159a59.971 59.971 0 0 1 -38.1-1.062l-4.951-1.82a10.924 10.924 0 0 0 -10.167 19.111l4.284 3.088a60.008 60.008 0 0 1 22.173 31l8.121 26.644a70.116 70.116 0 0 0 30.094 39.142c.113.07.229.137.347.2a21.861 21.861 0 0 0 10.4 2.525c7.168 0 15.2-3.087 23.457-9.137 11.313-8.286 22.1-21.415 30.373-36.969a130.053 130.053 0 0 0 9.1-21.475c.091.248.17.491.265.741 5.008 13.1 14.826 26.966 27.646 39.049 14.977 14.116 32.068 23.864 46.8 26.9 1.341 8.2 7.6 16.03 18.126 22.473 11.5 7.035 27.1 11.834 43.945 13.512 4.331.432 8.623.645 12.825.645 12.135 0 23.518-1.779 32.922-5.217 14.11-5.156 22.436-13.57 23.445-23.692.014-.133.023-.266.027-.4a67.462 67.462 0 0 0 -15.265-44.985l-16.924-20.656a57.272 57.272 0 0 1 -12.87-34.024l-.185-5.06a10.72 10.72 0 0 0 -21.138-2.107l-1.18 4.924a57.268 57.268 0 0 1 -19.334 30.808l-.459.375-.535-17.657a60.007 60.007 0 0 1 11.071-36.463zm-237 39.829a72.178 72.178 0 0 0 -20.446-24.978 72.173 72.173 0 0 0 32.14 2.994 24.358 24.358 0 0 1 -11.694 21.984zm4.462 11.284a36.468 36.468 0 0 0 19.079-35.869l10.528-3.226a47.229 47.229 0 0 1 -26.4 49.634zm10.281 32.409a58.228 58.228 0 0 1 -2.286-6.175l-1.253-4.111a59.271 59.271 0 0 0 34.454-64.771l4.108-1.259a58.014 58.014 0 0 1 6.4-1.556 70.024 70.024 0 0 1 -41.423 77.872zm13.339 19.061a58.1 58.1 0 0 1 -7.415-8.536 82.081 82.081 0 0 0 47.536-89.367 58.03 58.03 0 0 1 11.223 1.378 92.926 92.926 0 0 1 -51.344 96.525zm69.257-72.294c-.479 12.243-4.841 26.69-12.284 40.681s-16.984 25.683-26.868 32.923c-7.435 5.446-14.248 7.713-19.128 6.463a104.884 104.884 0 0 0 52.947-99.541c3.763 3.348 5.689 10.265 5.329 19.474zm83.971-16.6a36.471 36.471 0 0 0 29.57 27.872l.333 11.005a47.224 47.224 0 0 1 -40.91-38.559zm-27.413.791 4.3-.124a59.259 59.259 0 0 0 53.387 50.317l.1 3.33-7.994 6.535a70.066 70.066 0 0 1 -56.35-59.481 58.163 58.163 0 0 1 6.553-.579zm26.794 95.337c-12.22-2.856-26.971-11.539-39.8-23.628-22.8-21.485-31.382-45.037-25.854-54.752a103.768 103.768 0 0 0 29.747 50.623 105.316 105.316 0 0 0 37.458 22.739c-.581 1.645-1.103 3.319-1.555 5.016zm6.56-15.993a93.238 93.238 0 0 1 -34.233-20.5 91.971 91.971 0 0 1 -27.59-50.432 58.116 58.116 0 0 1 10.19-4.9 82.075 82.075 0 0 0 58.072 66.459 67.369 67.369 0 0 0 -6.443 9.371zm95.914 48.136c-11 4.018-25.361 5.407-40.438 3.9s-28.885-5.7-38.872-11.808c-7.139-4.368-11.513-9.265-12.461-13.8a99.735 99.735 0 0 0 51.819 20.692q5.146.513 10.242.512a99.368 99.368 0 0 0 44.633-10.535c-1.834 4.243-7.082 8.169-14.927 11.037zm14.779-24.6a88.842 88.842 0 0 1 -103.722-10.34 55.475 55.475 0 0 1 4.626-9.217 78.684 78.684 0 0 0 46.544 21.319q3.96.393 7.9.393a78.623 78.623 0 0 0 41.933-12.117 55.478 55.478 0 0 1 2.715 9.962zm-44.016-83.852a69.465 69.465 0 0 0 8.835 28.089 23.091 23.091 0 0 1 -23.04-2.3 69.464 69.464 0 0 0 14.205-25.789zm-22.954 34.221a35.088 35.088 0 0 0 18.769 7.756q1.771.175 3.533.176a35.019 35.019 0 0 0 16.4-4.071l6.378 7.781a45.047 45.047 0 0 1 -52.875-5.271zm16.594 29.574q2.873.287 5.726.286a56.733 56.733 0 0 0 30.434-8.853l2.479 3.023a55.579 55.579 0 0 1 3.558 4.879 66.885 66.885 0 0 1 -83.444-8.318 55.637 55.637 0 0 1 4.452-4.081l3.023-2.471a56.8 56.8 0 0 0 33.767 15.535zm-36.08-67.859a24.367 24.367 0 0 1 -18.121-17.079 72.177 72.177 0 0 0 29.486-13.131 72.178 72.178 0 0 0 -11.365 30.21z"/><path d="m199.391 397.158a70.13 70.13 0 0 0 13.864 47.387c.08.107.164.211.251.312 4.606 5.347 11.557 8.081 20.183 8.081a53.62 53.62 0 0 0 13.77-1.975c13.546-3.623 28.357-11.951 41.7-23.449s23.775-24.913 29.364-37.775c6.2-14.276 5.844-26.522-1.013-34.482-.088-.1-.178-.2-.272-.3a70.121 70.121 0 0 0 -44.813-20.726l-27.779-2.047a60.018 60.018 0 0 1 -35.117-14.784l-3.959-3.5a10.924 10.924 0 0 0 -16.4 14.129l2.873 4.431a60 60 0 0 1 9.434 36.927zm108.131-12.2c-4.883 11.237-14.185 23.122-26.19 33.465s-25.137 17.783-36.974 20.949c-8.9 2.381-16.074 2.027-20.17-.908a104.885 104.885 0 0 0 85.421-73.589c2.297 4.484 1.591 11.625-2.087 20.082zm-7.914-29.076a92.931 92.931 0 0 1 -82.834 71.359 58.072 58.072 0 0 1 -3.816-10.64 82.086 82.086 0 0 0 76.688-66.07 58.115 58.115 0 0 1 9.962 5.35zm-28.06-9.678a58.169 58.169 0 0 1 6.528.869 70.028 70.028 0 0 1 -66.826 57.571 58.188 58.188 0 0 1 .106-6.586l.322-4.283a59.271 59.271 0 0 0 55.584-47.887zm-27.35-2.015 10.981.809a47.236 47.236 0 0 1 -42.593 36.7l.825-10.983a36.478 36.478 0 0 0 30.789-26.527zm-11.991-1.864a24.351 24.351 0 0 1 -18.865 16.249 72.171 72.171 0 0 0 -10-30.685 72.194 72.194 0 0 0 28.865 14.435z"/><path d="m59.711 288.2c.01.134.024.267.043.4 1.473 10.4 10.451 18.739 25.279 23.474a97.256 97.256 0 0 0 29.237 4.116 132.439 132.439 0 0 0 18.527-1.331c16.46-2.329 31.65-7.5 43.1-14.637a10.922 10.922 0 0 0 15.937 10.378l4.681-2.448a60.037 60.037 0 0 1 37.645-5.945l27.46 4.671a70.125 70.125 0 0 0 48.474-9.381c.114-.069.226-.144.335-.221a23.177 23.177 0 0 0 8.729-12.882c3.206 12.668 10.033 26.4 19.525 39.128a133.144 133.144 0 0 0 10.97 12.923 59.586 59.586 0 0 1 -16.794-7.438l-4.443-2.854a10.924 10.924 0 0 0 -14.057 16.462l3.516 3.943a59.994 59.994 0 0 1 14.949 35.056l2.176 27.772a70.117 70.117 0 0 0 20.924 44.719c.1.093.194.184.3.271 4.173 3.562 9.506 5.349 15.681 5.348 5.647 0 12-1.5 18.805-4.488 12.837-5.645 26.2-16.132 37.644-29.53s19.7-28.246 23.265-41.809c3.956-15.054 1.734-27.1-6.256-33.925-.1-.086-.206-.17-.313-.25a70.516 70.516 0 0 0 -21.167-10.733 70.1 70.1 0 0 0 9.032-25.6l4-27.567a60 60 0 0 1 17.228-33.995l3.766-3.7a10.924 10.924 0 0 0 -12.938-17.354l-4.624 2.555a59.988 59.988 0 0 1 -37.5 6.814l-27.561-4.036a70.113 70.113 0 0 0 -48.244 10.5c-.113.074-.222.15-.33.23a22.841 22.841 0 0 0 -8.108 11.982c-3.028-12.439-9.436-25.907-18.37-38.485-10.2-14.362-22.585-26-34.869-32.763-13.635-7.509-25.861-8.294-34.426-2.21-.109.078-.216.159-.319.244a70.128 70.128 0 0 0 -24.819 42.681l-4.641 27.465a59.6 59.6 0 0 1 -5.294 16.356 21.019 21.019 0 0 0 -.187-2.752c-.019-.133-.042-.265-.07-.4a70.12 70.12 0 0 0 -26.524-41.644l-22.274-16.72a60 60 0 0 1 -21.571-31.42l-1.443-5.08a10.924 10.924 0 0 0 -21.432 3.035l.025 5.28a60 60 0 0 1 -12 36.173l-16.758 22.251a70.122 70.122 0 0 0 -13.921 47.371zm268.632 52.126a71.235 71.235 0 0 0 30.727 9.874 24.356 24.356 0 0 1 -16.17 18.927 72.178 72.178 0 0 0 -14.557-28.802zm16.479 40.783a36.479 36.479 0 0 0 25.863-27.667c1.2.717 2.41 1.4 3.614 2.03a61.265 61.265 0 0 0 6.356 2.866 47.148 47.148 0 0 1 -34.975 33.75zm2.136 27.342-.334-4.284a59.287 59.287 0 0 0 45.726-43.011c.825.065 1.638.1 2.437.1a24.524 24.524 0 0 0 9.038-1.633 69.982 69.982 0 0 1 -55.969 55.35 58.3 58.3 0 0 1 -.898-6.523zm93.042-27.602c-3.113 11.85-10.5 25.013-20.785 37.065s-22.133 21.405-33.349 26.338c-8.437 3.711-15.578 4.453-20.073 2.176a104.886 104.886 0 0 0 73.21-85.745c2.957 4.082 3.343 11.252.997 20.166zm-12.253-27.512a92.931 92.931 0 0 1 -70.991 83.13 58.074 58.074 0 0 1 -5.395-9.938 82.072 82.072 0 0 0 65.724-76.969 58.538 58.538 0 0 1 10.666 3.777zm16.353-108.421a72.17 72.17 0 0 0 -16.433 27.784 24.358 24.358 0 0 1 -14.885-19.962 72.18 72.18 0 0 0 31.318-7.822zm-43.425 7.036a36.475 36.475 0 0 0 24.291 32.576l-1.579 10.9a47.228 47.228 0 0 1 -33.607-45.068zm-33.695-4.54a58.5 58.5 0 0 1 6.56.567l4.253.623a59.266 59.266 0 0 0 43.856 58.813l-.617 4.254a58.1 58.1 0 0 1 -1.325 6.45 70.022 70.022 0 0 1 -52.727-70.707zm-12.046.863a82.074 82.074 0 0 0 60.51 81.143 58.09 58.09 0 0 1 -6.038 9.561 92.93 92.93 0 0 1 -65.357-87.646 58.14 58.14 0 0 1 10.883-3.058zm-22.6 9.663a104.88 104.88 0 0 0 67.393 90.382c-10.287 4.372-32.7-6.861-51.421-31.97-9.473-12.7-15.971-26.326-18.3-38.355-1.75-9.049-.892-16.178 2.325-20.057zm-72.768-59.858c10.733 5.911 21.7 16.281 30.874 29.2 18.14 25.537 21.943 50.317 14.618 58.76a104.88 104.88 0 0 0 -65.292-91.913c4.68-1.868 11.728-.493 19.8 3.953zm-29.687 5.166a92.93 92.93 0 0 1 63.315 89.134 58.2 58.2 0 0 1 -10.954 2.807 82.071 82.071 0 0 0 -58.619-82.522 58.068 58.068 0 0 1 6.258-9.419zm-12.255 27.033a58.193 58.193 0 0 1 1.475-6.417 70.02 70.02 0 0 1 51.078 71.908 58.233 58.233 0 0 1 -6.545-.721l-4.237-.721a59.268 59.268 0 0 0 -42.486-59.811zm-2.724 16.184a47.23 47.23 0 0 1 32.551 45.837l-10.851-1.85a36.474 36.474 0 0 0 -23.532-33.128zm-4.807 22.623a24.365 24.365 0 0 1 14.421 20.3 72.177 72.177 0 0 0 -31.49 7.1 72.176 72.176 0 0 0 17.064-27.4zm-38.863 19.868c-10.179 6.82-24.425 11.8-40.116 14.023-30.987 4.384-54.738-3.6-58.9-13.967a103.334 103.334 0 0 0 43.128 9.409 106.758 106.758 0 0 0 14.98-1.063 103.765 103.765 0 0 0 53.513-24.178c-.492 5.016-4.949 10.645-12.605 15.776zm-56.867-104.3a72.161 72.161 0 0 0 16.5 27.741 24.358 24.358 0 0 1 -24.655 3.491 72.191 72.191 0 0 0 8.155-31.228zm-14.645 41.48a36.247 36.247 0 0 0 15.821 3.641 36.777 36.777 0 0 0 5.16-.365 36.328 36.328 0 0 0 19.251-8.971l8.805 6.612a47.225 47.225 0 0 1 -55.663 7.882zm-16.5 21.91 2.59-3.44a58.923 58.923 0 0 0 29.714 8.046 59.833 59.833 0 0 0 8.384-.592 59 59 0 0 0 34.537-17.732l3.437 2.58a57.974 57.974 0 0 1 5.025 4.257 70.022 70.022 0 0 1 -87.332 12.364 58.252 58.252 0 0 1 3.645-5.479zm32.31 27.479a82.2 82.2 0 0 0 59.248-25.2 58.161 58.161 0 0 1 5.495 9.883 92.926 92.926 0 0 1 -108.253 15.328 58.159 58.159 0 0 1 2.537-11.025 81.763 81.763 0 0 0 40.973 11.018z"/><path d="m51.221 360.254a10.967 10.967 0 0 0 6.263 12.928l4.86 2.067a59.99 59.99 0 0 1 28.468 25.338l13.8 24.195a70.122 70.122 0 0 0 37.988 31.533c.126.044.254.083.383.119a21.2 21.2 0 0 0 5.6.749c8.562 0 17.593-5.057 25.958-14.672 9.205-10.579 16.827-25.765 21.464-42.761s5.78-33.949 3.222-47.736c-2.84-15.305-9.986-25.257-20.122-28.021-.129-.036-.259-.066-.39-.093a70.121 70.121 0 0 0 -48.742 7.875l-24.174 13.836a60 60 0 0 1 -37.392 7.373l-5.236-.686a10.975 10.975 0 0 0 -11.95 7.956zm136.217-6.054c2.235 12.047 1.17 27.1-3 42.389s-10.9 28.8-18.939 38.042c-6.051 6.953-12.192 10.671-17.231 10.526a104.884 104.884 0 0 0 29.671-108.773c4.412 2.437 7.818 8.757 9.499 17.816zm-22.82-19.68a92.93 92.93 0 0 1 -28.771 105.48 58.052 58.052 0 0 1 -9.117-6.689 82.075 82.075 0 0 0 26.638-97.655 58.053 58.053 0 0 1 11.25-1.133zm-32.4 9.8 3.73-2.135a58.055 58.055 0 0 1 5.9-2.928 70.021 70.021 0 0 1 -23.212 85.093 58.105 58.105 0 0 1 -3.593-5.517l-2.129-3.733a59.271 59.271 0 0 0 19.306-70.78zm-19.453 32.717a36.335 36.335 0 0 0 -.619-21.229l9.557-5.469a47.227 47.227 0 0 1 -14.8 54.237l-5.455-9.565a36.335 36.335 0 0 0 11.313-17.97zm-11.6-16.07a24.36 24.36 0 0 1 -6.553 24.023 72.148 72.148 0 0 0 -25.454-19.848 72.245 72.245 0 0 0 32.001-4.171z"/><path d="m45.474 117.705a6 6 0 0 0 -6 6v11.279a6 6 0 0 0 12 0v-11.279a6 6 0 0 0 -6-6z"/><path d="m39.474 237.58a6 6 0 1 0 12 0v-76.926a6 6 0 0 0 -12 0z"/><path d="m396.68 10h-281.36a105.321 105.321 0 0 0 -105.32 105.32v26.68a6 6 0 0 0 12 0v-26.68a93.32 93.32 0 0 1 93.32-93.32h281.36a93.32 93.32 0 0 1 93.32 93.32v281.36a93.32 93.32 0 0 1 -93.32 93.32h-281.36a93.32 93.32 0 0 1 -93.32-93.32v-204.68a6 6 0 0 0 -12 0v204.68a105.32 105.32 0 0 0 105.32 105.32h281.36a105.32 105.32 0 0 0 105.32-105.32v-281.36a105.321 105.321 0 0 0 -105.32-105.32z"/></svg>