<svg id="Layer_1" height="512" viewBox="0 0 512 512" width="512" xmlns="http://www.w3.org/2000/svg" data-name="Layer 1"><path d="m493.272 132.024a10.53 10.53 0 0 0 -4.573-7.285l-57.268-38.258a10.489 10.489 0 0 0 -5.848-1.774h-83.691a10.537 10.537 0 0 0 -8.6 4.459l-23.659 33.556-17.216-10.94 11.392-52.706a16.633 16.633 0 0 0 -7.186-17.389l-31.503-20.387a16.519 16.519 0 0 0 -18.44.289l-30.026 20.8a16.56 16.56 0 0 0 -6.519 18.053l13.356 47.847-19.291 11.657-22.36-30.925a10.449 10.449 0 0 0 -8.445-4.314h-84.671a10.375 10.375 0 0 0 -5.956 1.869l-57.454 40a10.349 10.349 0 0 0 -4.3 6.713l-10.845 60.668a10.415 10.415 0 0 0 17.653 9.168l43.8-44.11h80.829l-45.245 121.574a6.006 6.006 0 0 0 .06 4.34l42.4 104.937-36.656 46.111a8.96 8.96 0 0 0 -1.146 9.337l16.692 36.609a8.979 8.979 0 0 0 6.8 5.163l39.347 6.165a8.8 8.8 0 0 0 1.371.107 9.071 9.071 0 0 0 7.826-4.507l26.868-46.609 33.883 27.288a18.067 18.067 0 0 0 22.539 0l37.148-29.935 25.03 41.116a9.06 9.06 0 0 0 7.693 4.323h39.568a9.062 9.062 0 0 0 8.4-5.747l13.936-35.9a9 9 0 0 0 -1.481-9.026l-36.454-43.678 42.363-105.141a6 6 0 0 0 .129-4.131l-38.56-116.174 79.561-6.019 39.177 42.975a10.521 10.521 0 0 0 18.2-8.539zm-64.136-32.645 11.461 48.1-77.859 5.89 56.321-56.664h6.076zm-335.883-2.672h4.273l45.493 50.308h-64.1zm219.92 231.62-76.983-.572-10.573-57.541 105.891 22.386zm-133.229-41.027 8.219-25 24.76 5.235 11.049 60.134-23.277-.172zm31.063-94.5 84.9-.231-43.488 71.043-60.487-12.788zm53.87 73.446 40.131-65.559 26.434 79.632zm38.341-85.7-40.424.11-.763-73.97 61.8 39.268zm-53.193-74.283.769 74.426-41.805.114-32.674-29.988zm-84.2 51.214 33.924 31.136-30.511 92.817-48.031-4.066zm3.821 136.03 20.36 39.436-32.034 45.456-35.925-88.921zm26.567 51.459 24.273 47.016-13.776 31.587-42.03-33.851zm34.672 41-23.972-46.432 100.123.742-24.918 48.552zm86.547-39.664 28.7 44.19-38.5 31.028-15.132-26.62zm6.317-12.302 20.508-39.959 44.339-3.906-35.734 88.691zm20.882-52.038-31.439-94.7 20.768-34.862 17.865 11.352 37.91 114.238zm-1.973-185.255h59.483l-51.659 51.973-30.71-19.515zm-120.965-39.495a4.553 4.553 0 0 1 1.794-4.961l30.027-20.8a4.556 4.556 0 0 1 5.086-.079l31.5 20.387a4.575 4.575 0 0 1 1.977 4.78l-10.457 48.382-17.976-11.421a14.538 14.538 0 0 0 -15.4-.173l-14.089 8.516zm-27.8 68.963-34.481 20.84h-.212l-45.495-50.308h58.884zm-171.021 64.9 9.836-55.03 45.977-32.005-12.595 44.194a10.383 10.383 0 0 0 -2.519 1.859zm151.652 290-35.724-5.6-15.261-33.473 33.932-42.685 43.832 35.3zm85.131-20.895a6 6 0 0 1 -7.483 0l-35.772-28.808 14.56-33.378 51.117 2.855 16.087 28.305zm114.92 12.848h-35.837l-24.979-41.028 39.528-31.853 33.843 40.549zm79.372-321.285-10.14-42.563 37.673 25.168 7.867 56.23z"/></svg>