<?xml version="1.0" encoding="UTF-8"?>
<svg xmlns="http://www.w3.org/2000/svg" xmlns:xlink="http://www.w3.org/1999/xlink" version="1.1" id="Layer_1" x="0px" y="0px" viewBox="0 0 512 512" style="enable-background:new 0 0 512 512;" xml:space="preserve" width="512" height="512">
<g>
	<path d="M297.1,196.6c-31.6-23.2-76-16.4-99.2,15.2c-1.7,2.4-3.5,5.2-5,7.8c-18.7,34.5-6.1,77.9,28.3,96.6   c10.3,5.6,21.9,8.6,33.7,8.6c3.7,0,7.3-0.3,10.9-0.8c18.7-2.8,35.4-13,46.5-28.2C335.5,264.2,328.7,219.8,297.1,196.6z    M244.6,195.8c6,13.1,8.3,27.2,7.1,41.6c-8.9-13.8-24.3-22.5-40.8-22.7C219.7,204.7,231.6,198.1,244.6,195.8z M202.2,227.6   c14.2-3.3,29,2.1,37.7,13.7c-13.7-3.8-28.1-4.5-42.1-2C198.9,235.3,200.4,231.4,202.2,227.6z M220.2,301.4   c-15.7-11.5-24.7-30-24.1-49.4c17.7-4.1,36.2-2.2,52.7,5.4c-1.8,18.1-9.4,35-21.8,48.3C224.6,304.4,222.4,303,220.2,301.4z    M251.1,312.7c-4.2-0.3-8.3-1-12.4-2.2c9.2-10.8,15.9-23.6,19.5-37.4C263.9,286.5,261.1,302.1,251.1,312.7z M264,236.5   c0.9-14.2-1.4-28.4-6.7-41.7c4.1,0.1,8.2,0.7,12.2,1.7C275.6,209.8,273.5,225.4,264,236.5z M266.7,311.6c8.1-14.3,8.4-32,0.9-46.7   c13.1,6.1,24.2,15.2,32.5,27C291.5,302.1,279.7,309.1,266.7,311.6z M307.2,281.5c-8.7-11.2-19.9-20.4-32.6-26.7   c14.3-2.6,28.9,3.3,37.3,15.2C310.7,274,309.2,277.8,307.2,281.5z M314.1,254.5c-10.8-9.6-25.3-14-39.6-12   c8.9-11.4,12.3-26.1,9.5-40.3c2.1,1.2,4.1,2.5,6.1,3.9c12.5,9.4,21,23.3,23.3,38.7C313.9,248,314.1,251.3,314.1,254.5z"/>
	<path d="M192.7,42.2c-38.8,6-65.4,42.2-59.4,81c2.9,18.6,13,35.3,28.2,46.4c12.1,8.9,26.8,13.8,41.9,13.8c3.7,0,7.3-0.3,10.9-0.8   c38.8-6,65.4-42.2,59.4-81C267.7,62.8,231.5,36.2,192.7,42.2z M193,54.3c6,13.1,8.3,27.2,7.1,41.6c-8.9-13.8-24.3-22.5-40.8-22.7   C168.1,63.3,180,56.7,193,54.3z M150.7,86.2c14.2-3.3,29,2.1,37.7,13.7c-13.7-3.8-28.1-4.5-42.1-2C147.3,93.9,148.8,90,150.7,86.2z    M144.6,110.6c17.7-4.1,36.2-2.2,52.7,5.4c-1.8,18.1-9.4,35-21.8,48.2C155.8,153.7,143.9,132.9,144.6,110.6z M199.5,171.2   c-4.2-0.3-8.3-1-12.4-2.1c9.3-10.8,15.9-23.6,19.5-37.4C212.3,145.1,209.5,160.6,199.5,171.2z M212.4,95.1   c0.9-14.2-1.4-28.4-6.7-41.7c4.1,0.1,8.2,0.7,12.2,1.7C224,68.4,221.9,84,212.4,95.1z M215.1,170.2c8.1-14.3,8.3-32,0.9-46.6   c13.1,6.1,24.2,15.2,32.5,27C239.9,160.7,228.1,167.6,215.1,170.2z M255.6,140c-8.7-11.2-19.9-20.4-32.6-26.7   c14.3-2.6,28.9,3.3,37.3,15.2C259.1,132.5,257.6,136.4,255.6,140z M222.9,101.2c8.9-11.4,12.3-26.1,9.5-40.3   c2.1,1.2,4.1,2.5,6.1,3.9c15.3,11.3,24.2,29.3,24,48.3C251.7,103.5,237.2,99.2,222.9,101.2z"/>
	<path d="M46.2,217.8c-23.1,31.6-16.4,76,15.3,99.2c12.1,8.9,26.8,13.7,41.8,13.7c3.7,0,7.3-0.3,10.9-0.8   c38.8-5.9,65.4-42.2,59.4-80.9c-2.8-18.6-13-35.3-28.2-46.5C113.8,179.3,69.3,186.2,46.2,217.8z M92.9,201.7   c6,13.1,8.3,27.2,7.1,41.6c-8.9-13.8-24.3-22.5-40.7-22.7C68.1,210.7,79.9,204.1,92.9,201.7z M50.5,233.6   c14.2-3.3,29,2.1,37.7,13.7c-13.7-3.8-28.1-4.5-42.1-2C47.2,241.3,48.7,237.4,50.5,233.6z M68.5,307.4   c-12.6-9.3-21.1-23.2-23.4-38.7c-0.5-3.5-0.8-7.1-0.7-10.7c17.7-4.1,36.2-2.2,52.7,5.4c-1.8,18.1-9.4,35-21.8,48.3   C72.9,310.4,70.7,309,68.5,307.4z M99.4,318.6c-4.2-0.3-8.3-1-12.3-2.2c9.2-10.8,15.9-23.6,19.5-37.4   C112.2,292.5,109.4,308,99.4,318.6z M115,317.6c8.1-14.3,8.4-32,0.9-46.7c13.1,6.1,24.2,15.2,32.5,27   C139.8,308.1,128.1,315,115,317.6z M155.5,287.4c-8.7-11.2-19.9-20.4-32.6-26.7c14.3-2.6,28.9,3.3,37.3,15.2   C159,279.9,157.5,283.8,155.5,287.4z M132.3,208.3c18.8,10.6,30.4,30.6,30.1,52.2c-10.8-9.6-25.3-13.9-39.6-11.9   C131.7,237.2,135.1,222.5,132.3,208.3z M117.8,202.5c6.1,13.3,4,28.8-5.5,39.9c0.9-14.2-1.4-28.4-6.7-41.6   C109.7,200.9,113.8,201.5,117.8,202.5z"/>
	<path d="M415.6,290.2c-31.6-23.2-76.1-16.3-99.2,15.3c-23.2,31.6-16.3,76.1,15.3,99.2c12.1,8.9,26.8,13.7,41.8,13.7   c3.7,0,7.3-0.3,10.9-0.8c28.3-4.3,51.4-25.9,58.3-53.7C449,336.3,438.5,307,415.6,290.2z M363.1,289.4c6,13.1,8.3,27.2,7.1,41.6   c-8.9-13.8-24.3-22.5-40.8-22.7C338.2,298.4,350.1,291.7,363.1,289.4z M320.7,321.3c14.2-3.3,29,2.1,37.7,13.7   c-13.7-3.8-28.1-4.5-42.1-2C317.4,329,318.9,325.1,320.7,321.3z M338.8,395.1c-15.7-11.6-24.7-30-24.1-49.4   c17.7-4.1,36.2-2.2,52.7,5.4c-1.8,18.1-9.4,35-21.8,48.3C343.2,398.1,341,396.7,338.8,395.1z M369.6,406.3c-4.2-0.3-8.3-1-12.4-2.2   c9.2-10.8,15.9-23.6,19.5-37.4C382.4,380.2,379.6,395.7,369.6,406.3z M382.5,330.1c0.9-14.2-1.4-28.4-6.7-41.7   c4.1,0.1,8.2,0.7,12.2,1.7C394.1,303.5,392,319,382.5,330.1z M385.2,405.3c8.1-14.3,8.4-32,0.9-46.7c13.1,6.1,24.2,15.2,32.5,27   C410,395.8,398.2,402.7,385.2,405.3z M425.7,375.1c-8.7-11.2-19.9-20.4-32.6-26.7c14.3-2.6,28.9,3.3,37.3,15.2   C429.2,367.6,427.7,371.5,425.7,375.1z M393,336.3c8.9-11.4,12.3-26.1,9.5-40.3c2.1,1.2,4.1,2.5,6.1,3.9   c15.3,11.3,24.2,29.3,24,48.3C421.8,338.6,407.3,334.3,393,336.3z"/>
	<path d="M442.7,363.9C442.7,363.8,442.8,363.7,442.7,363.9L442.7,363.9z"/>
	<path d="M442.7,363.9C442.7,364,442.7,364.1,442.7,363.9L442.7,363.9z"/>
	<path d="M452.9,162.2c-6-38.6-42.1-65-80.7-59s-65,42.1-59,80.7c5.4,34.4,35,59.8,69.8,59.8c3.7,0,7.3-0.3,10.9-0.8   C432.5,236.9,458.9,200.8,452.9,162.2z M372.7,114.7c6,13.1,8.3,27.2,7.1,41.6c-8.9-13.8-24.3-22.5-40.7-22.7   C347.8,123.6,359.7,117,372.7,114.7z M330.3,146.5c14.2-3.3,29,2.1,37.7,13.7c-13.7-3.8-28.1-4.5-42.1-2   C327,154.2,328.5,150.3,330.3,146.5z M348.3,220.3c-15.7-11.5-24.7-30-24.1-49.4c17.7-4.1,36.2-2.2,52.7,5.4   c-1.8,18.1-9.4,35-21.8,48.3C352.7,223.3,350.5,221.9,348.3,220.3z M379.2,231.5c-4.2-0.3-8.3-1-12.4-2.2   c9.2-10.7,15.9-23.5,19.5-37.3C392,205.4,389.2,220.9,379.2,231.5z M392.1,155.4c0.9-14.2-1.4-28.4-6.7-41.6   c4.1,0.1,8.2,0.7,12.2,1.7C403.7,128.7,401.6,144.3,392.1,155.4z M394.8,230.5c8.1-14.3,8.4-32,0.9-46.7   c13.1,6.1,24.2,15.2,32.5,27C419.6,221,407.8,228,394.8,230.5z M435.3,200.4c-8.7-11.2-19.9-20.4-32.6-26.7   c14.3-2.7,28.9,3.3,37.3,15.2C438.8,192.8,437.2,196.7,435.3,200.4z M402.6,161.4c8.9-11.4,12.3-26.1,9.5-40.3   c15.8,9,26.6,24.7,29.4,42.6c0.5,3.2,0.7,6.5,0.7,9.7C431.4,163.8,416.9,159.5,402.6,161.4z"/>
	<path d="M256.1,343.3c-31.6-23.2-76-16.4-99.2,15.2c-11.1,15.2-15.8,34.2-12.9,52.8c2.8,18.5,12.9,35.3,28.1,46.4   c31.6,23.2,76,16.4,99.2-15.2C294.5,410.9,287.7,366.5,256.1,343.3z M203.7,342.4c6,13.1,8.3,27.2,7.1,41.6   c-8.9-13.8-24.3-22.5-40.7-22.7C178.8,351.4,190.6,344.8,203.7,342.4z M161.3,374.3c14.2-3.3,29,2.1,37.7,13.7   c-13.7-3.8-28.1-4.5-42.1-2C157.9,382,159.4,378.1,161.3,374.3z M179.3,448c-12.6-9.2-21.1-23.1-23.4-38.6   c-0.6-3.5-0.8-7.1-0.7-10.7c17.7-4.1,36.2-2.2,52.7,5.4c-1.8,18.1-9.4,35-21.8,48.2C183.7,451,181.5,449.6,179.3,448z M210.1,459.3   c-4.2-0.3-8.3-1-12.4-2.1c9.3-10.9,16-23.7,19.5-37.4C222.9,433.2,220.1,448.7,210.1,459.3z M216.4,341.5c4.1,0.1,8.2,0.7,12.2,1.7   c6.1,13.3,3.9,28.8-5.5,39.9C224,368.9,221.7,354.7,216.4,341.5z M225.8,458.3c8.1-14.3,8.4-32,0.9-46.6   c13.1,6.1,24.2,15.2,32.5,27C250.5,448.8,238.8,455.7,225.8,458.3z M266.3,428.1c-8.7-11.2-19.9-20.4-32.6-26.7   c14.3-2.7,28.9,3.3,37.3,15.2C269.8,420.6,268.2,424.4,266.3,428.1z M233.5,389.3c8.9-11.4,12.3-26.1,9.5-40.3   c2.1,1.2,4.1,2.5,6.1,3.9c15.3,11.3,24.3,29.2,24,48.3C262.3,391.6,247.8,387.3,233.5,389.3z"/>
	<path d="M73.6,346.4c-1.1-2.2-2.3-4.5-3.3-6.8c-1.4-3-4.9-4.3-8-3c-3,1.4-4.3,4.9-3,8c1.1,2.4,2.3,4.9,3.5,7.2   c1.5,3,5.1,4.1,8.1,2.6C73.8,352.9,75,349.4,73.6,346.4z"/>
	<path d="M114.3,421.2c2.4,2.3,6.2,2.3,8.5-0.1c2.3-2.4,2.3-6.2-0.1-8.5l-0.1-0.1C107.3,398,94,381.6,83.1,363.7   c-1.7-2.8-5.4-3.7-8.2-2s-3.8,5.4-2.1,8.2C84.3,388.8,98.2,406.1,114.3,421.2z"/>
	<path d="M479.2,152.7C451.8,93.5,402,47.6,340.8,25.1C216.6-20.5,78.6,40.3,28.4,162.7c-1.3,3.1,0.2,6.6,3.2,7.9s6.6-0.2,7.9-3.2   C88.4,47.7,225.1-9.5,344.7,39.5c54.7,22.4,98.8,64.6,123.7,118.2c54.3,117.3,3.2,256.4-114.1,310.6   c-56.3,26.1-120.7,28.7-178.9,7.3C69.3,436.6,6.2,327.4,25.4,216c0.6-3.3-1.6-6.4-4.9-6.9c-3.3-0.6-6.4,1.6-6.9,4.9   C-9.8,347.7,79.7,475.1,213.5,498.5c49.4,8.6,100.4,1.9,145.9-19.2C482.6,422.2,536.3,276,479.2,152.7z"/>
</g>
</svg>
