<svg id="Layer_1" height="512" viewBox="0 0 512 512" width="512" xmlns="http://www.w3.org/2000/svg" data-name="Layer 1"><path d="m124.111 294.507a6 6 0 0 0 12 0v-66.679a6 6 0 0 0 -12 0z"/><path d="m130.111 212.3a6 6 0 0 0 6-6v-9.714a6 6 0 0 0 -12 0v9.714a6 6 0 0 0 6 6z"/><path d="m363.325 121.512a31.906 31.906 0 0 0 0-63.812h-19.457c-16.975 0-33.178-8.982-43.343-24.028a53.71 53.71 0 0 0 -89.05 0c-10.165 15.046-26.368 24.028-43.343 24.028h-19.457a31.906 31.906 0 0 0 0 63.812h4.281v26.365h-9.3a44.979 44.979 0 0 0 -44.98 44.979v27.144a6 6 0 0 0 12 0v-27.144a32.98 32.98 0 0 1 32.98-32.979h224.688a32.98 32.98 0 0 1 32.98 32.979v191.415a27.611 27.611 0 0 0 -21.657-14.571c-.1-.01-.2-.013-.3-.023a97.348 97.348 0 0 0 5.237-16.647 95.529 95.529 0 0 0 -50.648-106.03 27.755 27.755 0 0 0 -37.875 35.5 63.535 63.535 0 0 1 4.414 33.05 28.931 28.931 0 0 0 -13.621 4.492 25.5 25.5 0 0 0 -1.4-11.318 53.137 53.137 0 0 1 35.194-69.124 24.341 24.341 0 0 0 3.463-45.393 81.668 81.668 0 0 0 -82.063 140.31 63.851 63.851 0 0 1 -49.594-28.617 27.756 27.756 0 0 0 -50.564 11.727 95.157 95.157 0 0 0 -.753 13.8 27.991 27.991 0 0 0 -9.057 6.054 95.853 95.853 0 0 0 -21.424 32.832v-100.313a6 6 0 0 0 -12 0v187.021a44.979 44.979 0 0 0 44.98 44.979h224.688a44.979 44.979 0 0 0 44.98-44.979v-264.165a44.979 44.979 0 0 0 -44.98-44.979h-9.3v-26.365zm-44.214 83.588a12.338 12.338 0 0 1 6.769 13.673 12.17 12.17 0 0 1 -7.852 9.042l-9.961-.1a115.824 115.824 0 0 0 -5.171-27.754 69.143 69.143 0 0 1 16.215 5.139zm59.3 176.535a15.762 15.762 0 0 1 13.976 13.584 83.144 83.144 0 0 1 -.322 22.305 136.246 136.246 0 0 0 -31.714-17.242l.666-2.144a94.6 94.6 0 0 0 12.183-16.176 16.042 16.042 0 0 1 5.211-.324zm-65.452-78.16.757.924a35.635 35.635 0 0 1 7.815 18.421 29.169 29.169 0 0 0 -4.6-3.375 28.81 28.81 0 0 0 -4.564-2.155 75.985 75.985 0 0 0 .592-13.812zm31.061 89.285 1.742 3.405a82.659 82.659 0 0 1 -32.107 17.165 97.833 97.833 0 0 0 -1.893-23.89 95.83 95.83 0 0 0 12.729-21.016 77.573 77.573 0 0 1 19.529 24.339zm-15.194-36.19c.626-2.141 1.188-4.309 1.668-6.507a28.188 28.188 0 0 0 .62-5.328 78.247 78.247 0 0 1 39.056 15.34 83.368 83.368 0 0 1 -15.5 27.16 89.594 89.594 0 0 0 -25.844-30.662zm14.751 56.23a35.6 35.6 0 0 1 -50.825 15.589 95.921 95.921 0 0 0 50.825-15.589zm-13.737 73.46a83.37 83.37 0 0 1 -31.207 2.013 89.082 89.082 0 0 0 11.54-42.77c.373.009.747.029 1.121.029a47.411 47.411 0 0 0 9.513-.969 78.228 78.228 0 0 1 9.033 41.697zm-31.669-42.576a77.139 77.139 0 0 1 -10.013 38.739l-1.884 3.329a82.812 82.812 0 0 1 -32.013-17.345 97.927 97.927 0 0 0 31.545-30.207 47.911 47.911 0 0 0 12.365 5.484zm3.317-27.916a84.018 84.018 0 0 1 -22.175-.191 95.754 95.754 0 0 0 22.018-15.015 85.977 85.977 0 0 1 .157 15.206zm-33.154-8.395a83.452 83.452 0 0 1 -9.043 3.053l-1.86-3.343a77.119 77.119 0 0 1 -9.743-38.806 47.917 47.917 0 0 0 12.4-5.4 97.927 97.927 0 0 0 31.336 30.423 83.8 83.8 0 0 1 -23.09 14.073zm-9.259 15.508a95.653 95.653 0 0 0 13.818 3.771l3.309 3.582c.089.1.184.186.274.282a86 86 0 0 1 -30.948 29.077 83.828 83.828 0 0 1 -17.707-34.6c3.115.308 6.236.471 9.357.471a94.612 94.612 0 0 0 21.897-2.583zm-24.3 42.549a95.836 95.836 0 0 0 9.9 10.5 83.42 83.42 0 0 1 -9.8 5.319 136.452 136.452 0 0 0 -.098-15.819zm-19.055-54.8a78.238 78.238 0 0 1 9.327-41.63 47.443 47.443 0 0 0 9.839 1.038c.263 0 .525-.015.788-.02a89.1 89.1 0 0 0 11.24 42.848 83.356 83.356 0 0 1 -31.192-2.237zm6.791 75.16a84.389 84.389 0 0 1 -11.251 2.355 83.027 83.027 0 0 1 -20.327.291 87.125 87.125 0 0 0 17.587-37.988 47.576 47.576 0 0 0 11.6-1.8l.274-.078a124.362 124.362 0 0 1 2.119 37.219zm-3.776-49.227-1.908.544a35.621 35.621 0 0 1 -45.259-37.425 96.277 96.277 0 0 0 30.272 19.018 97.689 97.689 0 0 0 13.312 4.174c.091.677.2 1.352.343 2.021a95.9 95.9 0 0 0 3.242 11.667zm-45.48-.161a78.242 78.242 0 0 1 -29.955 30.37 83.357 83.357 0 0 1 -18.76-25.021 89.077 89.077 0 0 0 42.105-13.736 47.432 47.432 0 0 0 6.612 8.385zm9.58 7.444a47.62 47.62 0 0 0 13.692 5.44 75 75 0 0 1 -19.21 36.49 84.168 84.168 0 0 1 -23.932-11.091 90.413 90.413 0 0 0 29.452-30.84zm71.67 39.956a95.91 95.91 0 0 0 10.22 6.2h-20.473a95.317 95.317 0 0 0 10.255-6.202zm77.77-43.189a47.645 47.645 0 0 0 12.042-8.484 75.013 75.013 0 0 1 20.042 36.053 84.18 84.18 0 0 1 -22.379 13.964 90.386 90.386 0 0 0 -9.703-41.534zm19.582-17.883a47.577 47.577 0 0 0 4.843-10.69l.084-.272a124.369 124.369 0 0 1 32.321 18.6 84.6 84.6 0 0 1 -4.191 10.7 82.961 82.961 0 0 1 -10.877 17.176 87.142 87.142 0 0 0 -22.178-35.515zm22.223-101.423a84.179 84.179 0 0 1 -.663 26.37 90.384 90.384 0 0 0 -40.017-14.765 47.594 47.594 0 0 0 -.453-14.722 75.017 75.017 0 0 1 41.135 3.116zm-11.321-32.087a82.958 82.958 0 0 1 8.35 18.535 87.153 87.153 0 0 0 -41.854-1.033 47.523 47.523 0 0 0 -6.255-9.922l-.18-.22a124.4 124.4 0 0 1 33.316-16.745 84.821 84.821 0 0 1 6.623 9.385zm-53.19-27.286a15.76 15.76 0 0 1 19.035-4.19 83.161 83.161 0 0 1 18.443 12.549 136.231 136.231 0 0 0 -31.853 16.983l-8.326-10.157a15.564 15.564 0 0 1 2.701-15.185zm-17.138 68.832a16.758 16.758 0 0 1 18.414-.976 16.517 16.517 0 0 1 7.923 17.72c-.2.931-.425 1.855-.658 2.775a59.569 59.569 0 0 1 -34.081-10.55zm21.694 31.423a83.819 83.819 0 0 1 -13.906 22.362 85.975 85.975 0 0 1 -30.745-29.291c.091-.1.187-.184.276-.281l6-6.4a71.586 71.586 0 0 0 38.375 13.61zm-58.59-33.232c-.477-.272-.947-.555-1.416-.838a49.331 49.331 0 0 1 15.693-22.9l4.5 7.978a13.188 13.188 0 0 1 -3.628 13.977 12.983 12.983 0 0 1 -15.149 1.783zm15.257-46.45a29.083 29.083 0 0 1 24.03-42.851 65 65 0 0 0 -24.03 42.851zm10.116-83.153a70.329 70.329 0 0 1 8.892-.6 103.949 103.949 0 0 1 6.23 28.861 40.956 40.956 0 0 0 -8.538.985 74.427 74.427 0 0 0 -21.344-25.609 68.916 68.916 0 0 1 14.76-3.637zm-27.185 9.659a62.328 62.328 0 0 1 22.5 23.912 41.1 41.1 0 0 0 -8.668 6.517 77.2 77.2 0 0 0 -29.155-17.634 70.01 70.01 0 0 1 15.323-12.795zm-22.992 23.036a65.029 65.029 0 0 1 29.556 17.091 40.958 40.958 0 0 0 -2.965 6.955 76.034 76.034 0 0 0 -35.509-1.789 69.363 69.363 0 0 1 8.918-22.257zm-10.147 41.974a69.547 69.547 0 0 1 -.2-7.194l2.436-.5a64.09 64.09 0 0 1 32.536 1.712 41.334 41.334 0 0 0 1.03 10.007 83.47 83.47 0 0 0 -30.9 16.609 69.721 69.721 0 0 1 -4.902-20.634zm10.575 31.641a71.525 71.525 0 0 1 29.644-16.4l3.034 5.373a61.275 61.275 0 0 0 -19.8 26.1 69.687 69.687 0 0 1 -12.878-15.073zm31.792 39.022-1.958 2.09a35.644 35.644 0 0 1 -60.127-14.032l-.334-1.1a75.971 75.971 0 0 0 62.419 13.042zm-61.329 11.714a47.635 47.635 0 0 0 11.982 8.567 90.4 90.4 0 0 0 -10 41.465 84.191 84.191 0 0 1 -22.28-14.119 75 75 0 0 1 20.298-35.913zm-12.322-20.449.082.273a47.59 47.59 0 0 0 4.767 10.722 87.128 87.128 0 0 0 -22.427 35.354 82.937 82.937 0 0 1 -10.757-17.25 84.742 84.742 0 0 1 -4.116-10.731 124.412 124.412 0 0 1 32.451-18.368zm-35.487-16.8a15.765 15.765 0 0 1 14.072-13.485c.531-.053 1.058-.078 1.582-.078a15.517 15.517 0 0 1 12.533 6.279l3.81 12.577a136.224 136.224 0 0 0 -31.834 17.019 83.21 83.21 0 0 1 -.164-22.307zm-13.213 26.809a15.925 15.925 0 0 1 1.692-1.47 95.716 95.716 0 0 0 2.607 11.7 59.867 59.867 0 0 1 -6.282-8.171q.97-1.041 1.983-2.059zm-9.83 11.852a71.709 71.709 0 0 0 23.984 21.088 94.875 94.875 0 0 0 6.727 9.8l-.634 2.524c-.032.127-.058.255-.088.382a86.007 86.007 0 0 1 -41.269-10 83.825 83.825 0 0 1 11.276-23.794zm-13.877 35.936a97.92 97.92 0 0 0 42.551 9.871 47.884 47.884 0 0 0 2.162 13.354 77.114 77.114 0 0 1 -37.9 12.809l-3.817.246a82.819 82.819 0 0 1 -3-36.28zm-6.213 63.273v-16.98a95.558 95.558 0 0 0 33.348 42.773 97.467 97.467 0 0 0 11.657 7.186h-12.029a32.98 32.98 0 0 1 -32.98-32.979zm257.664 32.979h-14.9a94.924 94.924 0 0 0 42.32-43.808 96.613 96.613 0 0 0 5.561-14.824v25.653a32.98 32.98 0 0 1 -32.981 32.979zm-21.3-342.123h-182.088v-26.365h182.088zm-198.369-38.365a19.906 19.906 0 0 1 0-39.812h19.457c20.967 0 40.887-10.957 53.286-29.311a41.711 41.711 0 0 1 69.164 0c12.4 18.353 32.319 29.31 53.286 29.31h19.457a19.906 19.906 0 0 1 0 39.812z"/></svg>