<svg id="Layer_1" height="512" viewBox="0 0 512 512" width="512" xmlns="http://www.w3.org/2000/svg" data-name="Layer 1"><path d="m288 169.822a6 6 0 0 0 -9.428.3 102.819 102.819 0 0 0 -12.636 22.168 6.037 6.037 0 0 0 -1.122-.15 5.971 5.971 0 0 0 -6.025 4.409c-5.344 19.5-4.305 37.764 3.038 54.373q-3.083 2.382-6.125 4.394a6 6 0 1 0 6.6 10.019q3.852-2.54 7.743-5.606a48.854 48.854 0 0 0 18.567 3.737c16.438 0 33.445-8.506 50.8-25.453a6.005 6.005 0 0 0 .425-8.125c7.439-6.894 12.671-16.032 15.846-27.6a6 6 0 0 0 -3.051-6.929c2.037-6.887 3.015-15.357 3.018-25.738a6 6 0 0 0 -6.875-5.937 99.824 99.824 0 0 0 -6.248-30.1 6 6 0 0 0 -10.823-1 112.132 112.132 0 0 1 -15.217 20.445 6 6 0 0 0 -8.411-1.585 95.342 95.342 0 0 0 -20.076 18.378zm16.437-.094a6 6 0 0 0 9.161 2.181 113.382 113.382 0 0 0 21.218-22.2c2.3 10.011 2.629 19.171.973 27.343a6 6 0 0 0 7 7.087c-1.048 7.586-3.067 13.11-6.145 16.965a6 6 0 0 0 3.006 9.5 38.849 38.849 0 0 1 -19.036 17.707 6 6 0 0 0 -.546 10.651c-13.933 10.581-26.978 14.374-39.47 11.534 15.065-14.443 30.929-35 48.709-62.976a6 6 0 1 0 -10.127-6.436c-17.681 27.819-33.221 47.9-47.786 61.624a62.528 62.528 0 0 1 -3.906-26.01 6 6 0 0 0 5.416-5.078 69.63 69.63 0 0 1 7.532-22.056 6 6 0 0 0 9.9-1.3 64.827 64.827 0 0 1 14.103-18.536z"/><path d="m215.981 121.763a6 6 0 0 0 7.567 9.314q2.823-2.293 5.633-4.978a42.5 42.5 0 0 0 11.614 1.655c15.335 0 30.375-8.7 44.878-25.994a6 6 0 0 0 .7-6.672 6.135 6.135 0 0 0 -.477-.755c5.426-6.393 8.919-14.4 10.581-24.165a6 6 0 0 0 -2.556-5.977c-.142-.095-.286-.185-.434-.267 1.016-5.859 1.088-12.855.253-21.239a6 6 0 0 0 -4.347-5.182 5.881 5.881 0 0 0 -2.022-.211 85.5 85.5 0 0 0 -7.655-23.873 6 6 0 0 0 -5.416-3.419h-.043a6 6 0 0 0 -5.409 3.5 93.588 93.588 0 0 1 -10.2 17.245 6.081 6.081 0 0 0 -1.127-.719 6 6 0 0 0 -6.544.826 81.544 81.544 0 0 0 -14.8 16.307 6 6 0 0 0 -8.446 1.96 87.719 87.719 0 0 0 -8.562 19.009c-.1 0-.194 0-.292.01a6 6 0 0 0 -5.558 4.986c-2.823 16.651-.526 31.772 6.8 45.043q-2.073 1.919-4.138 3.596zm12.29-37.041a56.666 56.666 0 0 1 3.911-17.522 6 6 0 0 0 8.616-3.1 52.649 52.649 0 0 1 9.249-15.416 6 6 0 0 0 8.54.206 95.284 95.284 0 0 0 14.891-18.63 51.773 51.773 0 0 1 2.385 20.271 6 6 0 0 0 3.779 6.188 5.934 5.934 0 0 0 2.563.4c-.346 5.616-1.5 9.9-3.476 12.952a6 6 0 0 0 2.784 8.821 31.587 31.587 0 0 1 -13.55 14.877 6 6 0 0 0 -.711 9.9c-11.831 10.579-21.607 12.535-28.462 12.086 11.052-13.251 22.264-31.372 34.383-55.429a6 6 0 1 0 -10.717-5.4c-12.02 23.861-22.956 41.484-33.589 54a51.412 51.412 0 0 1 -4.645-18.843 6 6 0 0 0 4.049-5.361z"/><path d="m85.559 179.317c3.174 11.568 8.405 20.707 15.845 27.6a6.007 6.007 0 0 0 .425 8.125c17.356 16.95 34.36 25.454 50.8 25.454a48.875 48.875 0 0 0 18.571-3.736q3.894 3.069 7.743 5.606a6 6 0 1 0 6.6-10.019q-3.043-2.007-6.125-4.394c7.343-16.609 8.382-34.87 3.038-54.373a6.006 6.006 0 0 0 -7.145-4.26 103 103 0 0 0 -12.637-22.168 6 6 0 0 0 -9.428-.3 95.339 95.339 0 0 0 -20.079-18.382 6 6 0 0 0 -8.411 1.585 112.191 112.191 0 0 1 -15.218-20.446 6 6 0 0 0 -10.823 1 99.827 99.827 0 0 0 -6.247 30.1 6 6 0 0 0 -6.875 5.937c0 10.381.98 18.851 3.017 25.739a6.1 6.1 0 0 0 -1.1.727 6 6 0 0 0 -1.951 6.205zm16.753-18.7a6 6 0 0 0 3.144-6.533c-1.657-8.171-1.328-17.33.972-27.343a113.44 113.44 0 0 0 21.218 22.2 6 6 0 0 0 9.161-2.181 64.817 64.817 0 0 1 14.1 18.54 6 6 0 0 0 9.9 1.3 69.606 69.606 0 0 1 7.533 22.054 6 6 0 0 0 5.415 5.079 62.528 62.528 0 0 1 -3.905 26.01c-14.565-13.722-30.106-33.8-47.787-61.624a6 6 0 1 0 -10.126 6.436c17.779 27.977 33.644 48.533 48.709 62.977-12.491 2.84-25.537-.954-39.47-11.536a6 6 0 0 0 -.546-10.65 38.856 38.856 0 0 1 -19.037-17.707 6 6 0 0 0 3.007-9.5c-3.079-3.855-5.1-9.379-6.146-16.965a6.006 6.006 0 0 0 3.858-.558z"/><path d="m187.738 298.74a5.987 5.987 0 0 0 7.129 4.6c4.747-1.023 9.629-1.989 14.51-2.874a6 6 0 0 0 -2.141-11.808c-5.009.908-10.021 1.9-14.9 2.952a6 6 0 0 0 -4.598 7.13z"/><path d="m89.025 347.878a5.977 5.977 0 0 0 4.13-1.649c14.774-14.024 43.826-27.7 79.708-37.523a6 6 0 0 0 -3.168-11.575c-38.285 10.48-68.4 24.827-84.8 40.4a6 6 0 0 0 4.131 10.352z"/><path d="m248.5 338.994c-16.914 2.231-32.6 6.6-44.171 12.3-17.286 8.519-19.994 17.279-19.222 23.128 1.772 13.44 22.819 19.321 47.577 19.32a176.144 176.144 0 0 0 22.834-1.539c16.914-2.231 32.6-6.6 44.17-12.3 17.286-8.518 19.994-17.278 19.222-23.127s-5.658-13.608-24.56-17.353c-12.659-2.508-28.94-2.661-45.85-.429zm58.514 19.35c.219 1.659-3.017 6.057-12.63 10.8-10.427 5.138-24.786 9.1-40.435 11.168-36.29 4.789-56.367-3.055-56.946-7.453-.219-1.659 3.017-6.057 12.631-10.794 10.426-5.139 24.786-9.105 40.434-11.169a166.1 166.1 0 0 1 21.554-1.474 106.551 106.551 0 0 1 20.395 1.776c10.509 2.078 14.774 5.487 14.993 7.146z"/><path d="m244.008 304.972c-43.731 5.767-84.161 17-113.846 31.63-31.6 15.573-47.743 33.708-45.454 51.064l9.458 71.71c2.289 17.355 22.582 30.685 57.14 37.532 17.16 3.4 36.971 5.1 58.3 5.1a460.925 460.925 0 0 0 59.855-4.075c43.73-5.768 84.162-17 113.847-31.63 31.6-15.573 47.743-33.708 45.454-51.064l-9.458-71.71c-2.289-17.356-22.582-30.685-57.141-37.532-32.463-6.427-74.425-6.797-118.155-1.025zm163.4 40.13c1.516 11.511-13.011 25.991-38.862 38.731-28.546 14.067-67.646 24.896-110.113 30.497-14.933 1.97-29.211 3.157-42.673 3.67a5.993 5.993 0 1 0 .471 11.977c14.182-.541 28.87-1.783 43.77-3.748 43.73-5.768 84.162-17 113.847-31.63 16.642-8.2 28.99-17.114 36.623-26.248l6.392 48.463c1.519 11.512-13.009 25.991-38.862 38.731-28.54 14.065-67.646 24.9-110.11 30.5a445.687 445.687 0 0 1 -57.993 3.965c-60.725 0-101.483-14.37-103.836-32.2l-6.392-48.467c9.741 6.843 23.978 12.248 42.178 15.854 7.4 1.466 15.29 2.614 23.583 3.447a5.988 5.988 0 0 0 6.569-5.967v-.06a6 6 0 0 0 -5.4-5.958c-41.63-4.245-68.113-16.293-70-30.559-1.518-11.511 13.01-25.99 38.863-38.731 28.54-14.065 67.644-24.895 110.109-30.5a445.508 445.508 0 0 1 57.992-3.965c60.736-.004 101.489 14.368 103.841 32.196z"/></svg>