<svg id="Layer_1" height="512" viewBox="0 0 512 512" width="512" xmlns="http://www.w3.org/2000/svg" data-name="Layer 1"><path d="m359.09 154.592a28.52 28.52 0 0 0 5.354.509 28.314 28.314 0 1 0 -5.354-.509zm-10.648-30.775a16.243 16.243 0 0 1 15.909-13.191 16.255 16.255 0 0 1 15.977 19.28 16.231 16.231 0 0 1 -31.886-6.089z"/><path d=""/><path d="m247.527 127.758a117.07 117.07 0 0 0 76.936 108.993l-25.163 131.803a18.6 18.6 0 1 0 36.546 6.978l25.178-131.86c1.11.031 2.684.049 3.8.049a116.859 116.859 0 0 0 116.419-117.755c-.492-64.133-53.276-115.966-117.3-115.966-64.436.5-116.91 53.322-116.416 117.758zm17.87-35.5 24.522 11.085a77.817 77.817 0 0 0 -3.571 20.116l-26.809 1.693a104.3 104.3 0 0 1 5.861-32.894zm-5.37 44.888 26.7-1.687a77.058 77.058 0 0 0 3.653 16.4l-25.08 9.464a104.462 104.462 0 0 1 -5.273-24.177zm9.85 35.275 25.229-9.521a77.681 77.681 0 0 0 11.585 16.615l-17.765 20.16a104.771 104.771 0 0 1 -19.049-27.254zm70.954-80.231a41.618 41.618 0 0 1 23.469-7.255 42.438 42.438 0 0 1 7.949.755 41.914 41.914 0 1 1 -31.415 6.5zm-10.263-22.116a66.012 66.012 0 0 1 15.242-6.674l2.02 12.169a54.091 54.091 0 0 0 -9.789 4.294zm48.639 4.961 1.633-12.183a65.955 65.955 0 0 1 15.494 6.124l-7.162 10.014a53.564 53.564 0 0 0 -9.965-3.955zm32.977 76.752a53.45 53.45 0 0 0 3.941-9.778l12.182 1.633a65.929 65.929 0 0 1 -6.112 15.306zm3.261 17.086a65.939 65.939 0 0 1 -7.886 8.034l-7.424-9.722a54.144 54.144 0 0 0 5.338-5.445zm2.74-38.7a53.528 53.528 0 0 0 -.072-7.7l12.083-2.006a65.876 65.876 0 0 1 .1 11.327zm-2.377-19.473a54.161 54.161 0 0 0 -4.195-9.791l9.784-7.472a65.948 65.948 0 0 1 6.556 15.246zm-11.123-19.6a54.157 54.157 0 0 0 -5.542-5.421l7.135-9.975a65.935 65.935 0 0 1 8.136 7.967zm-6.895 92.788a65.936 65.936 0 0 1 -15.043 6.492l-2.018-12.153a54.116 54.116 0 0 0 9.583-4.131zm-48.261-5.2-1.629 12.174a65.952 65.952 0 0 1 -15.227-5.985l7.156-10a53.771 53.771 0 0 0 9.7 3.808zm-25.187-15.724a53.67 53.67 0 0 0 5.47 5.284l-7.112 9.952a65.974 65.974 0 0 1 -8.061-7.822zm-16.756-2.3a66 66 0 0 1 -6.605-15.04l12.142-2.016a53.845 53.845 0 0 0 4.228 9.6zm15.339-68.234-9.973-7.133a65.818 65.818 0 0 1 7.9-8.162l7.429 9.728a54.123 54.123 0 0 0 -5.356 5.56zm-6.6 10.031a53.559 53.559 0 0 0 -3.842 9.876l-12.183-1.637a66.036 66.036 0 0 1 6-15.416zm-5.784 21.724a53.488 53.488 0 0 0 .152 7.663l-12.068 2a65.924 65.924 0 0 1 -.19-11.29zm7.923 97.005a104.5 104.5 0 0 1 -20.721-13.36l17.682-20.066a77.076 77.076 0 0 0 14.081 9zm5.595 152.1a6.6 6.6 0 0 1 -12.972-2.477l24.924-130.531a116.429 116.429 0 0 0 12.978 2.443zm5.479-147.464 11.1-24.563a77.692 77.692 0 0 0 19.829 3.618l1.694 26.823a104.749 104.749 0 0 1 -32.626-5.886zm30.21-33.026 1.623-12.1c1.015.057 2.029.095 3.038.095 1.528 0 3.046-.069 4.551-.2l2 12.073a65.894 65.894 0 0 1 -11.215.124zm14.413 38.475-1.686-26.695a77.157 77.157 0 0 0 16.32-3.5l9.465 25.08a104.542 104.542 0 0 1 -24.102 5.107zm35.219-9.631-9.509-25.2a77.722 77.722 0 0 0 16.648-11.427l20.181 17.783a104.713 104.713 0 0 1 -27.323 18.836zm35.531-27.6-20.069-17.683a77.11 77.11 0 0 0 9.154-14.028l24.434 11.045a104.552 104.552 0 0 1 -13.522 20.657zm18.213-31.714-24.544-11.103a77.079 77.079 0 0 0 3.777-19.985l26.849-1.695a104.677 104.677 0 0 1 -6.085 32.774zm5.709-44.775-26.693 1.686a77.07 77.07 0 0 0 -3.452-16.5l25.041-9.45a104.116 104.116 0 0 1 5.101 24.255zm-9.607-35.392-25.139 9.487a77.239 77.239 0 0 0 -11.577-16.95l17.748-20.14a105.266 105.266 0 0 1 18.965 27.594zm-48.577-49.384a105.283 105.283 0 0 1 20.843 13.578l-17.646 20.026a77.114 77.114 0 0 0 -14.213-9.235zm-11.049-4.688-11.076 24.5a77.481 77.481 0 0 0 -20.273-3.74l-1.695-26.827a104.244 104.244 0 0 1 33.044 6.067zm-35.353 32.648c1.577 0 3.16.075 4.744.189l-1.624 12.114a53.469 53.469 0 0 0 -7.77.13l-2.006-12.086a65.839 65.839 0 0 1 6.656-.347zm-9.688-38.274 1.685 26.685a77.084 77.084 0 0 0 -16.583 3.611l-9.45-25.043a104.153 104.153 0 0 1 24.348-5.253zm-35.448 9.827 9.489 25.158a77.726 77.726 0 0 0 -16.9 11.743l-20.118-17.731a105.258 105.258 0 0 1 27.529-19.17zm-15.644 45.637a77.128 77.128 0 0 0 -9.081 14.263l-24.369-11.015a105.242 105.242 0 0 1 13.422-20.9z"/><path d="m364.82 243.721c-.306 0 .307 0 0 0z"/><path d="m382.924 274.646 1.858-9.729a6 6 0 1 0 -11.782-2.25l-1.858 9.729a6 6 0 0 0 4.769 7.018 6.073 6.073 0 0 0 1.132.107 6 6 0 0 0 5.881-4.875z"/><path d="m373.726 290.83a6 6 0 0 0 -7.019 4.769l-12.213 63.963a6 6 0 0 0 4.768 7.018 6.083 6.083 0 0 0 1.132.108 6 6 0 0 0 5.887-4.876l12.213-63.963a6 6 0 0 0 -4.768-7.019z"/><path d="m121.223 246.027a28.231 28.231 0 1 0 14.777-15.763 28.048 28.048 0 0 0 -14.777 15.763zm26.41-6.283a16.264 16.264 0 1 1 -6.685 1.452 16.227 16.227 0 0 1 6.685-1.452z"/><path d="m33.819 282.468a116.978 116.978 0 0 0 113.6 90.421 117.778 117.778 0 0 0 26.707-3.084c1.387-.323 2.762-.678 4.13-1.048l7.008 15.487a6 6 0 1 0 10.932-4.948l-6.462-14.28a116.422 116.422 0 0 0 12.043-5.419l54.79 121.075a6.6 6.6 0 1 1 -12.031 5.444l-27.709-61.226a6 6 0 0 0 -10.933 4.947l27.706 61.226a18.6 18.6 0 1 0 33.9-15.338l-55.324-122.251a116.893 116.893 0 1 0 -178.357-71.006zm9.33-35.884 26.651 3.337a77.628 77.628 0 0 0 .5 16.841l-26.384 4.616a104.566 104.566 0 0 1 -.767-24.794zm16.8 66.987a104.665 104.665 0 0 1 -13.589-30.439l26.51-4.638a78.455 78.455 0 0 0 3.614 9.691 79.354 79.354 0 0 0 4.727 8.856zm25.131 26.571a104.54 104.54 0 0 1 -17.98-16.929l21.169-16.457a77.048 77.048 0 0 0 12.184 11.5zm77.342-123.379a41.637 41.637 0 1 1 -14.8-2.716 41.638 41.638 0 0 1 14.8 2.716zm-11.577-26.787a66.349 66.349 0 0 1 16.366 2.911l-4.951 11.213a53.771 53.771 0 0 0 -10.535-1.887zm22.539 18.638 4.923-11.148a66.3 66.3 0 0 1 9.572 6.1l-7.975 9.21a53.63 53.63 0 0 0 -6.52-4.162zm17.556 79.51a53.7 53.7 0 0 0 4.081-6.418l11.172 4.934a65.787 65.787 0 0 1 -6.005 9.491zm1.115 16.838a65.952 65.952 0 0 1 -13.4 9.384l-4.438-11.456a53.72 53.72 0 0 0 8.543-5.978zm7.478-34.381a53.825 53.825 0 0 0 1.863-10.323l12.276-.883a66 66 0 0 1 -2.9 16.169zm1.476-22.326a53.587 53.587 0 0 0 -1.646-7.486l11.389-4.412a65.98 65.98 0 0 1 2.458 11.021zm-6.3-18.55a53.852 53.852 0 0 0 -6.038-8.718l8.043-9.288a65.744 65.744 0 0 1 9.451 13.568zm-50.048 92.329a65.907 65.907 0 0 1 -16.145-2.789l4.962-11.238a53.771 53.771 0 0 0 10.3 1.766zm-22.343-18.461-4.934 11.173a65.9 65.9 0 0 1 -9.546-5.965l8.007-9.248a53.824 53.824 0 0 0 6.469 4.04zm-21.436-20.75a53.772 53.772 0 0 0 6.107 8.605l-8.038 9.283a65.976 65.976 0 0 1 -9.526-13.45zm-16.159-6.609a65.643 65.643 0 0 1 -2.529-11.037l12.172-.876a53.878 53.878 0 0 0 1.743 7.5zm27.6-60.985-9.27-8.026a65.7 65.7 0 0 1 13.612-9.6l4.437 11.456a53.779 53.779 0 0 0 -8.786 6.17zm-8.134 8.83a53.673 53.673 0 0 0 -4.12 6.578l-11.139-4.918a66.329 66.329 0 0 1 6.036-9.646zm-8.563 17.741a53.763 53.763 0 0 0 -1.8 10.513l-12.207.878a66.355 66.355 0 0 1 2.8-16.341zm30.458 116.861a104.681 104.681 0 0 1 -30.972-11.922l15.458-22.012a77.665 77.665 0 0 0 18.86 7.209zm11.869 1.792 3.331-26.6c2.128.177 4.26.276 6.39.276a77.113 77.113 0 0 0 10.292-.718l4.613 26.365a104.487 104.487 0 0 1 -24.626.673zm18.695-38.957-.876-12.193a53.861 53.861 0 0 0 7.4-1.695l4.413 11.392a65.92 65.92 0 0 1 -10.937 2.492zm17.695 35.893-4.636-26.493a76.629 76.629 0 0 0 18.435-8.141l16.545 21.282a104.746 104.746 0 0 1 -30.344 13.348zm40.026-20.449-16.455-21.165a77.1 77.1 0 0 0 11.586-12.05l21.888 15.369a104.374 104.374 0 0 1 -17.019 17.842zm23.679-27.826-21.992-15.442a77.628 77.628 0 0 0 7.374-18.872l26.757 3.35a104.793 104.793 0 0 1 -12.139 30.96zm13.993-42.817-26.6-3.331a77.086 77.086 0 0 0 -.288-16.8l26.352-4.611a104.439 104.439 0 0 1 .536 24.738zm-16.26-67.127a104.3 104.3 0 0 1 13.369 30.616l-26.437 4.626a77.582 77.582 0 0 0 -8.185-18.719zm-7.1-9.681-21.124 16.422a77.555 77.555 0 0 0 -12.18-11.711l15.363-21.879a105.107 105.107 0 0 1 17.942 17.164zm-59.163-36.047a105.272 105.272 0 0 1 31.242 12.208l-15.424 21.965a78.821 78.821 0 0 0 -19.164-7.448zm-21.872-2.328c3.362 0 6.7.181 10.007.5l-3.33 26.59a77.659 77.659 0 0 0 -16.955.364l-4.616-26.384a104.418 104.418 0 0 1 14.895-1.074zm-8.8 39.373.874 12.161a53.81 53.81 0 0 0 -7.586 1.706l-4.411-11.388a65.479 65.479 0 0 1 11.128-2.483zm-17.863-35.915 4.636 26.494a76.212 76.212 0 0 0 -18.832 8.374l-16.536-21.279a104.7 104.7 0 0 1 30.737-13.593zm-40.39 20.717 16.477 21.193a77.672 77.672 0 0 0 -11.644 12.3l-21.921-15.388a104.6 104.6 0 0 1 17.088-18.105zm-1.641 43.611a78.711 78.711 0 0 0 -7.28 19.161l-26.763-3.351a104.68 104.68 0 0 1 12-31.288z"/></svg>