<svg id="Layer_1" height="512" viewBox="0 0 512 512" width="512" xmlns="http://www.w3.org/2000/svg" data-name="Layer 1"><path d="m493.516 75.926-474.053-38.795a13.267 13.267 0 0 0 -14.463 13.328v305.3a13.254 13.254 0 0 0 13.349 13.371c.37 0 .742-.015 1.114-.046l474.053-38.794a14.764 14.764 0 0 0 13.484-14.632v-225.099a14.764 14.764 0 0 0 -13.484-14.633zm-390.516-19.895 49 3.987v286.182l-49 3.987zm-12 295.136-12 1.023v-298.164l12 1.023zm73-290.167 12 1.023v282.17l-12 1.023zm24 2.005 50 4.074v272.058l-50 4.074zm62 5.056 12 .939v268.219l-12 .936zm24 1.918 49 4.074v258.11l-49 4.074zm61 5.056 13 1.023v254.1l-13 1.023zm25 2.005 49 3.987v244.163l-49 3.986zm61 4.969 12 1.023v240.153l-12 1.022zm-402.407 275.116a1.53 1.53 0 0 1 -1.13-.322 1.361 1.361 0 0 1 -.463-1.046v-305.298a1.358 1.358 0 0 1 .408-1.046 1.307 1.307 0 0 1 .917-.328c.051 0 .214 0 .268.006l48.407 3.953v300.128zm476.407-41.467a2.986 2.986 0 0 1 -2.572 2.672l-47.428 3.87v-238.186l47.428 3.872a2.988 2.988 0 0 1 2.572 2.673z"/><path d="m290.281 417.279a27.776 27.776 0 0 0 3.267-.194 27.6 27.6 0 1 0 -27.42-40.677l-172.191 20.4a14.022 14.022 0 0 0 -12.255 15.548l.475 4.025a13.993 13.993 0 0 0 15.55 12.254l172.19-20.4a27.61 27.61 0 0 0 20.384 9.044zm-1.814-43.085a15.589 15.589 0 0 1 17.322 13.653 15.6 15.6 0 1 1 -17.322-13.653zm-192.167 42.524a2.031 2.031 0 0 1 -2.221-1.749l-.476-4.024a2.024 2.024 0 0 1 1.751-2.22l167.365-19.825a27.505 27.505 0 0 0 .946 7.994z"/><path d="m359.99 408.2a27.412 27.412 0 0 0 -18.426 10.322 28.023 28.023 0 0 0 -2.52 3.81l-172.172 20.4a14.016 14.016 0 0 0 -12.255 15.549l.476 4.024a13.993 13.993 0 0 0 15.55 12.255l172.19-20.4a27.612 27.612 0 0 0 20.385 9.043 27.95 27.95 0 0 0 3.266-.194 27.6 27.6 0 1 0 -6.494-54.809zm-190.76 54.442a2.034 2.034 0 0 1 -2.221-1.75l-.476-4.022a2.027 2.027 0 0 1 1.751-2.222l167.365-19.828a27.786 27.786 0 0 0 .952 7.993zm195.842-11.551a15.6 15.6 0 1 1 13.653-17.321 15.617 15.617 0 0 1 -13.653 17.321z"/><path d="m40.167 102.525a16.076 16.076 0 1 0 -16.076-16.076 16.094 16.094 0 0 0 16.076 16.076zm0-20.151a4.076 4.076 0 1 1 -4.076 4.075 4.08 4.08 0 0 1 4.076-4.075z"/><path d="m127.137 109.949a16.076 16.076 0 1 0 -16.076-16.075 16.093 16.093 0 0 0 16.076 16.075zm0-20.151a4.076 4.076 0 1 1 -4.076 4.076 4.08 4.08 0 0 1 4.076-4.074z"/><path d="m213.046 116.313a16.076 16.076 0 1 0 -16.076-16.076 16.093 16.093 0 0 0 16.076 16.076zm0-20.152a4.076 4.076 0 1 1 -4.076 4.076 4.08 4.08 0 0 1 4.076-4.076z"/><path d="m297.894 122.676a16.076 16.076 0 1 0 -16.076-16.076 16.094 16.094 0 0 0 16.076 16.076zm0-20.151a4.076 4.076 0 1 1 -4.076 4.076 4.08 4.08 0 0 1 4.076-4.076z"/><path d="m382.742 130.1a16.076 16.076 0 1 0 -16.075-16.076 16.095 16.095 0 0 0 16.075 16.076zm0-20.152a4.076 4.076 0 1 1 -4.075 4.076 4.08 4.08 0 0 1 4.075-4.075z"/><path d="m468.651 105.374a16.076 16.076 0 1 0 16.077 16.075 16.093 16.093 0 0 0 -16.077-16.075zm0 20.151a4.076 4.076 0 1 1 4.077-4.076 4.08 4.08 0 0 1 -4.077 4.076z"/><path d="m468.651 268.707a16.076 16.076 0 1 0 16.077 16.076 16.093 16.093 0 0 0 -16.077-16.076zm0 20.151a4.076 4.076 0 1 1 4.077-4.075 4.08 4.08 0 0 1 -4.077 4.075z"/><path d="m381.682 276.131a16.076 16.076 0 1 0 16.076 16.076 16.093 16.093 0 0 0 -16.076-16.076zm0 20.152a4.076 4.076 0 1 1 4.076-4.076 4.081 4.081 0 0 1 -4.076 4.076z"/><path d="m295.772 282.5a16.076 16.076 0 1 0 16.077 16.075 16.093 16.093 0 0 0 -16.077-16.075zm0 20.151a4.076 4.076 0 1 1 4.077-4.076 4.08 4.08 0 0 1 -4.077 4.071z"/><path d="m210.924 288.858a16.076 16.076 0 1 0 16.076 16.076 16.094 16.094 0 0 0 -16.076-16.076zm0 20.152a4.076 4.076 0 1 1 4.076-4.076 4.08 4.08 0 0 1 -4.076 4.076z"/><path d="m126.076 296.283a16.076 16.076 0 1 0 16.075 16.075 16.094 16.094 0 0 0 -16.075-16.075zm0 20.151a4.076 4.076 0 1 1 4.075-4.076 4.08 4.08 0 0 1 -4.075 4.076z"/><path d="m40.167 303.707a16.076 16.076 0 1 0 16.075 16.075 16.094 16.094 0 0 0 -16.075-16.075zm0 20.151a4.076 4.076 0 1 1 4.075-4.076 4.08 4.08 0 0 1 -4.075 4.076z"/></svg>