<svg id="Layer_1" height="512" viewBox="0 0 512 512" width="512" xmlns="http://www.w3.org/2000/svg" data-name="Layer 1"><path d="m149.492 202.135a6 6 0 0 0 -6 6 34.679 34.679 0 0 0 34.64 34.64h80.939a40.179 40.179 0 0 0 38.99-30.488h58.1a27.861 27.861 0 0 0 27.827-28.636l-.823-29.623a32.176 32.176 0 0 1 7.45-21.5 6 6 0 0 0 -4.609-9.84h-44.795l.016-65.232a25.3 25.3 0 0 0 -25.3-25.307h-97.72a23.849 23.849 0 0 0 -20.713 11.851 56.452 56.452 0 0 0 -7.483 29.424l.9 38.715a6 6 0 0 0 12-.279l-.9-38.715a44.453 44.453 0 0 1 5.678-22.79 12.085 12.085 0 0 1 10.522-6.212h10.625c-.039.067-.083.13-.121.2a56.471 56.471 0 0 0 -7.289 29.083l2.7 116.158a53.7 53.7 0 0 1 -1.187 12.552h-19.192a65.765 65.765 0 0 0 .961-12.831l-.638-27.444a6 6 0 0 0 -12 .279l.638 27.443a53.693 53.693 0 0 1 -1.188 12.553zm191.716-67.452h33.977a44.166 44.166 0 0 0 -4.019 19.678l.823 29.623a15.861 15.861 0 0 1 -15.842 16.3h-.013a14.939 14.939 0 0 1 -14.934-14.939zm-34.989-85.907a12.43 12.43 0 0 1 9.706-4.632 13.3 13.3 0 0 1 13.3 13.3l-.025 127.897a26.755 26.755 0 0 0 4.512 14.946h-34.512l-2.851-122.537a44.489 44.489 0 0 1 9.87-28.974zm-41.389 24.37a44.465 44.465 0 0 1 5.74-22.9 12.034 12.034 0 0 1 10.46-6.1h13.67a56.484 56.484 0 0 0 -10.35 33.885l2.881 123.921a28 28 0 0 1 -8.545 20.873l-5.316-.075a14.605 14.605 0 0 1 -11.3-5.656 66.069 66.069 0 0 0 5.456-27.788zm-25.672-22.9a12.035 12.035 0 0 1 10.461-6.1h10.625c-.039.067-.083.13-.121.2a56.451 56.451 0 0 0 -7.289 29.083l2.7 116.158a53.791 53.791 0 0 1 -1.233 12.706l-19.143-.154a65.7 65.7 0 0 0 .96-12.831l-2.7-116.158a44.475 44.475 0 0 1 5.74-22.904zm8.5 163.889a26.843 26.843 0 0 0 11.982 16.635c-.19 0-.379 0-.569 0h-80.939a22.68 22.68 0 0 1 -21.833-16.64z"/><path d="m328.205 261.749a24.055 24.055 0 0 0 -20.908 12.2 56.464 56.464 0 0 0 -7.289 29.083l2.7 116.157a53.644 53.644 0 0 1 -1.188 12.553h-42.031a6 6 0 0 0 -6 6 34.679 34.679 0 0 0 34.64 34.64h80.94a40.175 40.175 0 0 0 38.989-30.487h58.1a27.863 27.863 0 0 0 27.827-28.635l-.822-29.625a32.16 32.16 0 0 1 7.449-21.5 6 6 0 0 0 -4.612-9.846h-44.792l.016-65.231a25.3 25.3 0 0 0 -25.3-25.309zm123 102.54h33.976a44.167 44.167 0 0 0 -4.017 19.678l.822 29.625a15.86 15.86 0 0 1 -15.841 16.3h-.014a14.941 14.941 0 0 1 -14.939-14.944zm-133.461-84.436a12.036 12.036 0 0 1 10.461-6.1h10.626c-.039.068-.083.131-.122.2a56.454 56.454 0 0 0 -7.289 29.083l2.7 116.157a53.746 53.746 0 0 1 -1.187 12.553h-19.188a65.7 65.7 0 0 0 .96-12.832l-2.705-116.162a44.469 44.469 0 0 1 5.744-22.899zm51.325 180.528h-80.94a22.681 22.681 0 0 1 -21.833-16.64h91.356a26.84 26.84 0 0 0 11.984 16.634c-.189.004-.377.006-.567.006zm1.051-186.433a56.464 56.464 0 0 0 -7.289 29.083l2.7 116.157a53.761 53.761 0 0 1 -1.231 12.712l-19.142-.155a65.614 65.614 0 0 0 .961-12.832l-2.7-116.157a44.449 44.449 0 0 1 5.74-22.9 12.034 12.034 0 0 1 10.46-6.1h10.626c-.045.061-.086.124-.125.192zm24.23 33.688 2.881 123.921a28.012 28.012 0 0 1 -8.543 20.873l-5.317-.076a14.6 14.6 0 0 1 -11.3-5.656 66.058 66.058 0 0 0 5.456-27.789l-2.7-116.157a44.467 44.467 0 0 1 5.74-22.9 12.036 12.036 0 0 1 10.461-6.1h13.672a56.5 56.5 0 0 0 -10.35 33.884zm44.874-20.582-.032 127.893a26.758 26.758 0 0 0 4.512 14.947h-34.504l-2.849-122.538a44.491 44.491 0 0 1 9.87-28.973 12.431 12.431 0 0 1 9.707-4.634 13.3 13.3 0 0 1 13.3 13.3z"/><path d="m37.634 352.466h-.106a6 6 0 0 0 -5.895 6.1l1.067 61.655a6 6 0 0 0 6 5.9h.1a6 6 0 0 0 5.895-6.1l-1.068-61.652a6 6 0 0 0 -5.993-5.903z"/><path d="m37.632 341.16a6 6 0 0 0 6-6v-8.774a6 6 0 0 0 -12 0v8.774a6 6 0 0 0 6 6z"/><path d="m44.64 479.856h80.939a40.177 40.177 0 0 0 38.99-30.487h58.1a27.861 27.861 0 0 0 27.827-28.635l-.822-29.625a32.172 32.172 0 0 1 7.449-21.5 6 6 0 0 0 -4.609-9.84h-44.795l.015-65.231a25.3 25.3 0 0 0 -25.3-25.308h-97.718a24.052 24.052 0 0 0 -20.908 12.2 56.451 56.451 0 0 0 -7.289 29.083l2.7 116.157a53.762 53.762 0 0 1 -1.188 12.553h-42.031a6 6 0 0 0 -6 6 34.678 34.678 0 0 0 34.64 34.633zm163.076-108.092h33.976a44.156 44.156 0 0 0 -4.017 19.678l.822 29.625a15.859 15.859 0 0 1 -15.842 16.3h-.013a14.939 14.939 0 0 1 -14.942-14.94zm-34.989-85.906a12.43 12.43 0 0 1 9.707-4.633 13.3 13.3 0 0 1 13.3 13.3l-.034 127.898a26.749 26.749 0 0 0 4.512 14.946h-34.506l-2.85-122.537a44.493 44.493 0 0 1 9.871-28.974zm-41.389 24.37a44.455 44.455 0 0 1 5.74-22.9 12.035 12.035 0 0 1 10.461-6.1h13.672a56.493 56.493 0 0 0 -10.351 33.886l2.882 123.921a28 28 0 0 1 -8.542 20.865l-5.317-.074a14.609 14.609 0 0 1 -11.3-5.656 66.076 66.076 0 0 0 5.456-27.789zm-25.671-22.9a12.032 12.032 0 0 1 10.46-6.1h10.625c-.039.067-.083.131-.121.2a56.442 56.442 0 0 0 -7.289 29.083l2.7 116.157a53.858 53.858 0 0 1 -1.234 12.707l-19.142-.154a65.781 65.781 0 0 0 .961-12.832l-2.7-116.157a44.464 44.464 0 0 1 5.74-22.904zm-31.412 0a12.035 12.035 0 0 1 10.461-6.1h10.625c-.039.067-.083.131-.121.2a56.457 56.457 0 0 0 -7.29 29.083l2.7 116.156a53.824 53.824 0 0 1 -1.188 12.554h-19.187a65.626 65.626 0 0 0 .961-12.832l-2.7-116.157a44.453 44.453 0 0 1 5.739-22.904zm39.908 163.889a26.85 26.85 0 0 0 11.983 16.634c-.188 0-.377 0-.567 0h-80.939a22.679 22.679 0 0 1 -21.833-16.639z"/></svg>