<svg id="Layer_1" height="512" viewBox="0 0 512 512" width="512" xmlns="http://www.w3.org/2000/svg" data-name="Layer 1"><path d="m59.472 286.1a5.982 5.982 0 0 0 4.235-1.75 95.5 95.5 0 0 1 7.946-7.078 6 6 0 0 0 -7.47-9.392 107.562 107.562 0 0 0 -8.946 7.97 6 6 0 0 0 4.235 10.25z"/><path d="m44.745 298.361a6 6 0 0 0 -8.139 2.4 106.782 106.782 0 0 0 -9.629 77.539 6 6 0 1 0 11.631-2.95 94.815 94.815 0 0 1 8.537-68.85 6 6 0 0 0 -2.4-8.139z"/><path d="m444.58 14.566-10.722-6.353a18.02 18.02 0 0 0 -24.661 6.31l-21.583 36.426a17.907 17.907 0 0 0 -1.644 14.707 18.527 18.527 0 0 0 8.306 10.163l10.37 6.145a11.018 11.018 0 0 1 3.293 15.929 11.3 11.3 0 0 1 -14.866 2.784l-66.7-39.523a96.653 96.653 0 0 0 -145.828 76.433 6.009 6.009 0 1 0 11.99.806 83.152 83.152 0 0 1 9.982-34.452 84.9 84.9 0 0 1 117.736-32.462l66.703 39.521c10.345 6.13 23.839 3.454 30.718-6.093a23.017 23.017 0 0 0 -6.911-33.268l-10.532-6.239a6.3 6.3 0 0 1 -2.785-3.262 5.975 5.975 0 0 1 .492-5.071l7.733-13.05 15.884 9.411a44.169 44.169 0 0 1 -45.032 76l-67.061-39.737a63.633 63.633 0 0 0 -64.874 109.489l54.933 32.549a58.266 58.266 0 1 1 -59.4 100.255l-51.366-30.435a67.779 67.779 0 0 0 -69.1 116.623l101.493 60.137-7.732 13.05a6.005 6.005 0 0 1 -8.221 2.1l-95.319-56.479a90.431 90.431 0 0 1 -41.043-53.213 88.373 88.373 0 0 1 61.76-109.622 89.881 89.881 0 0 1 23.876-3.253 88.144 88.144 0 0 1 45.078 12.44l50.814 30.108c16.634 9.856 38.992 5.239 49.842-10.294a36.768 36.768 0 0 0 5.866-29.126 37.217 37.217 0 0 0 -17.335-24.083l-53.965-31.975a86.237 86.237 0 0 1 -31.799-32.852 5.995 5.995 0 0 0 -10.534 5.726 98.127 98.127 0 0 0 36.212 37.454l53.965 31.976a25.178 25.178 0 0 1 11.724 16.3 24.89 24.89 0 0 1 -3.976 19.717c-7.21 10.32-22.728 13.452-33.887 6.841l-50.813-30.108a100.66 100.66 0 0 0 -148.372 114.046 102.392 102.392 0 0 0 46.466 60.247l95.32 56.478a18.011 18.011 0 0 0 24.661-6.31l21.582-36.426a18 18 0 0 0 -6.31-24.661l-96.332-57.078a22.687 22.687 0 0 1 -10.562-14.684 22.427 22.427 0 0 1 3.583-17.762c6.5-9.295 20.479-12.115 30.537-6.155l50.858 30.134a103.14 103.14 0 0 0 152.028-116.86 104.921 104.921 0 0 0 -47.612-61.733l-53.894-31.933a18.488 18.488 0 0 1 -5.7-26.487c5.484-7.86 16.455-10.064 24.976-5.015l65.724 38.943a90.587 90.587 0 0 0 66.507 10.458 88.831 88.831 0 0 0 66.821-107.342 88.589 88.589 0 0 0 -41.362-56.31zm19.489 118.725a76.262 76.262 0 0 1 -47.61 33.225 78.644 78.644 0 0 1 -57.733-9.08l-65.726-38.943c-13.9-8.234-31.876-4.512-40.935 8.473a30.191 30.191 0 0 0 -4.805 23.908 30.566 30.566 0 0 0 14.235 19.77l53.894 31.932a92.966 92.966 0 0 1 42.189 54.7 91.258 91.258 0 0 1 -134.369 103.245l-50.857-30.134c-15.514-9.193-36.37-4.883-46.493 9.608a34.3 34.3 0 0 0 -5.473 27.171 34.721 34.721 0 0 0 16.173 22.47l96.333 57.078a6 6 0 0 1 2.1 8.22l-7.733 13.05-101.491-60.136a55.779 55.779 0 1 1 56.867-95.975l51.365 30.436a70.267 70.267 0 0 0 71.639-120.909l-54.933-32.549a51.631 51.631 0 1 1 52.639-88.839l67.061 39.734a56.169 56.169 0 0 0 57.266-96.646l-15.884-9.412 7.733-13.05a6 6 0 0 1 8.22-2.1l10.722 6.354a77.429 77.429 0 0 1 25.606 108.4z"/></svg>