<?xml version="1.0" encoding="UTF-8"?>
<svg xmlns="http://www.w3.org/2000/svg" id="Layer_1" data-name="Layer 1" viewBox="0 0 512 512" width="512" height="512"><path d="M212.561,95.464a42.909,42.909,0,0,0,3.892,16.2,31.35,31.35,0,0,1,2.959,12.243,31.379,31.379,0,0,1-1.452,12.515,42.936,42.936,0,0,0-1.9,16.561,42.9,42.9,0,0,0,3.893,16.2,35.884,35.884,0,0,1,1.507,24.748,47.852,47.852,0,0,0,1.993,32.759,31.349,31.349,0,0,1,2.959,12.242,30.192,30.192,0,0,1-1.062,11.138,31.97,31.97,0,0,0,7.583,30.371A31.467,31.467,0,0,0,250,289.791V423.78a16.97,16.97,0,1,0,12,0V289.791a31.48,31.48,0,0,0,17.037-9.313l.028-.031a31.968,31.968,0,0,0,7.585-30.366,30.25,30.25,0,0,1-1.065-11.159,31.414,31.414,0,0,1,2.96-12.253,47.9,47.9,0,0,0,1.994-32.772,35.9,35.9,0,0,1,1.508-24.757,42.939,42.939,0,0,0,3.892-16.208,42.9,42.9,0,0,0-1.9-16.558,31.37,31.37,0,0,1-1.452-12.51,31.321,31.321,0,0,1,2.959-12.237,42.9,42.9,0,0,0,3.892-16.2,42.916,42.916,0,0,0-1.9-16.557,31.363,31.363,0,0,1-1.452-12.513,38.209,38.209,0,0,1,.754-5.816c3.493-15.989-3.424-32.946-16.454-42.355-14.14-10.209-34.642-10.206-48.782,0-13.036,9.414-19.953,26.37-16.455,42.354a38.084,38.084,0,0,1,.758,5.836A31.412,31.412,0,0,1,214.458,78.9,42.963,42.963,0,0,0,212.561,95.464ZM256,444.6a4.97,4.97,0,1,1,4.97-4.97A4.976,4.976,0,0,1,256,444.6ZM225.991,82.213a42.953,42.953,0,0,0,1.9-16.565,49.736,49.736,0,0,0-1.014-7.673A29.583,29.583,0,0,1,238.384,28.1c4.969-3.588,11.794-6.107,17.616-6.107a31.238,31.238,0,0,1,17.361,5.924c9.16,6.613,14.232,18.746,11.758,30.068a49.916,49.916,0,0,0-1.009,7.647,42.906,42.906,0,0,0,1.9,16.56,31.373,31.373,0,0,1,1.452,12.51,31.341,31.341,0,0,1-2.958,12.237,42.875,42.875,0,0,0-3.894,16.2,42.909,42.909,0,0,0,1.9,16.556,31.354,31.354,0,0,1,1.453,12.511A31.36,31.36,0,0,1,281,164.449a47.882,47.882,0,0,0-1.994,32.767,35.92,35.92,0,0,1-1.508,24.763,42.968,42.968,0,0,0-3.893,16.214,42.006,42.006,0,0,0,1.478,15.085,19.9,19.9,0,0,1-4.7,18.884l-.026.026a19.8,19.8,0,0,1-28.721,0,19.905,19.905,0,0,1-4.72-18.911,42.24,42.24,0,0,0,1.475-15.064,42.906,42.906,0,0,0-3.893-16.2,35.887,35.887,0,0,1-1.507-24.749A47.847,47.847,0,0,0,231,164.5a31.344,31.344,0,0,1-2.959-12.241,31.384,31.384,0,0,1,1.452-12.517,42.933,42.933,0,0,0,1.9-16.56,42.906,42.906,0,0,0-3.893-16.205,31.35,31.35,0,0,1-2.959-12.243A31.412,31.412,0,0,1,225.991,82.213Z"/><path d="M156.94,466.188a6,6,0,0,0,5.875-7.248l-14.428-67.879a6,6,0,1,0-11.739,2.494l14.429,67.88A6,6,0,0,0,156.94,466.188Z"/><path d="M137.712,375.728a6,6,0,0,0,5.875-7.249l-1.755-8.255a6,6,0,1,0-11.738,2.494l1.755,8.256A6,6,0,0,0,137.712,375.728Z"/><path d="M304.652,481.5h0a16.98,16.98,0,1,0,25.768-10.742l27.856-131.052c.24,0,.48.019.719.019a31.5,31.5,0,0,0,17.914-5.606,31.967,31.967,0,0,0,13.732-28.131,30.207,30.207,0,0,1,1.276-11.116,31.365,31.365,0,0,1,5.44-11.359,47.859,47.859,0,0,0,8.761-31.628,35.892,35.892,0,0,1,6.619-23.895,47.884,47.884,0,0,0,8.764-31.635,35.895,35.895,0,0,1,6.621-23.9,42.9,42.9,0,0,0,7.177-15.042,42.949,42.949,0,0,0,1.588-16.6,31.418,31.418,0,0,1,1.181-12.548,38.336,38.336,0,0,1,1.957-5.552,41.579,41.579,0,0,0-7.083-44.623c-11.707-12.928-31.972-17.417-47.92-10.371-14.7,6.494-24.994,21.641-24.9,38.01a37.816,37.816,0,0,1-.471,5.845,31.373,31.373,0,0,1-4.022,11.937,42.914,42.914,0,0,0-5.3,15.8,42.854,42.854,0,0,0,.439,16.656,35.87,35.87,0,0,1-3.672,24.519,47.893,47.893,0,0,0-4.862,32.464,35.9,35.9,0,0,1-3.673,24.531,47.909,47.909,0,0,0-4.863,32.469,31.415,31.415,0,0,1,.349,12.6,30.3,30.3,0,0,1-3.363,10.694,31.966,31.966,0,0,0,1.069,31.22l.038.062a31.477,31.477,0,0,0,14.748,12.685L318.679,468.275A16.989,16.989,0,0,0,304.652,481.5Zm37.4-163.2-.03-.05a19.9,19.9,0,0,1-.688-19.475,42,42,0,0,0,4.582-14.449,42.953,42.953,0,0,0-.436-16.669,35.91,35.91,0,0,1,3.673-24.536,47.9,47.9,0,0,0,4.863-32.466,35.877,35.877,0,0,1,3.673-24.528,42.9,42.9,0,0,0,5.3-15.8,42.878,42.878,0,0,0-.438-16.656,31.326,31.326,0,0,1-.351-12.585,31.366,31.366,0,0,1,4.023-11.936,42.9,42.9,0,0,0,5.3-15.8,49.616,49.616,0,0,0,.6-7.692c-.064-11.589,7.419-22.4,17.752-26.966,11.209-4.953,25.741-1.862,33.971,7.223,7.585,8.376,10.024,21.295,5.25,31.85a49.854,49.854,0,0,0-2.587,7.292,42.951,42.951,0,0,0-1.588,16.6,31.4,31.4,0,0,1-1.183,12.55,31.365,31.365,0,0,1-5.44,11.359A47.889,47.889,0,0,0,409.53,197.2a35.882,35.882,0,0,1-6.62,23.9,47.868,47.868,0,0,0-8.762,31.629,35.858,35.858,0,0,1-6.619,23.894,42.9,42.9,0,0,0-7.176,15.042,41.968,41.968,0,0,0-1.691,15.041,19.9,19.9,0,0,1-8.548,17.518,19.8,19.8,0,0,1-28.066-5.925ZM322.285,480.168A4.97,4.97,0,1,1,316.391,484,4.974,4.974,0,0,1,322.285,480.168Z"/><path d="M78.451,99.67l-.642-.578a5.664,5.664,0,0,0-9.432,3.875,41.247,41.247,0,0,0,3.6,19.744,38.392,38.392,0,0,1,1.956,5.552,31.416,31.416,0,0,1,1.182,12.55,42.949,42.949,0,0,0,1.588,16.6,42.9,42.9,0,0,0,7.177,15.042,35.895,35.895,0,0,1,6.621,23.9,47.884,47.884,0,0,0,8.764,31.635,35.892,35.892,0,0,1,6.619,23.895,47.859,47.859,0,0,0,8.761,31.628,31.365,31.365,0,0,1,5.44,11.359,30.2,30.2,0,0,1,1.294,10.814,32.285,32.285,0,0,0,13.818,28.5,31.486,31.486,0,0,0,17.81,5.535c.239,0,.479-.014.719-.019L181.58,470.759A16.97,16.97,0,0,0,190.714,502a16.994,16.994,0,0,0,16.634-20.5h0a16.981,16.981,0,0,0-14.027-13.223L165.463,337.214a31.477,31.477,0,0,0,14.748-12.685c.013-.02.024-.041.037-.061a31.967,31.967,0,0,0,1.07-31.222,30.28,30.28,0,0,1-3.363-10.693,31.415,31.415,0,0,1,.349-12.6,47.909,47.909,0,0,0-4.863-32.469,35.9,35.9,0,0,1-3.673-24.531,47.893,47.893,0,0,0-4.862-32.464,35.87,35.87,0,0,1-3.672-24.519,42.854,42.854,0,0,0,.439-16.656,42.914,42.914,0,0,0-5.3-15.8,31.373,31.373,0,0,1-4.022-11.938,37.8,37.8,0,0,1-.471-5.845c.091-16.368-10.2-31.515-24.9-38.009A44.694,44.694,0,0,0,109.237,63.9a6.01,6.01,0,0,0,.281,12.017,32.7,32.7,0,0,1,12.611,2.783c10.332,4.565,17.816,15.377,17.752,26.965a49.6,49.6,0,0,0,.6,7.692,42.9,42.9,0,0,0,5.3,15.8,31.366,31.366,0,0,1,4.023,11.936,31.326,31.326,0,0,1-.351,12.585,42.878,42.878,0,0,0-.438,16.656,42.9,42.9,0,0,0,5.3,15.8,35.877,35.877,0,0,1,3.673,24.528,47.9,47.9,0,0,0,4.863,32.466,35.91,35.91,0,0,1,3.673,24.536,42.953,42.953,0,0,0-.436,16.669,41.99,41.99,0,0,0,4.582,14.448,19.9,19.9,0,0,1-.688,19.476l-.03.05a19.8,19.8,0,0,1-27.742,6.144,20.2,20.2,0,0,1-8.856-18.023,41.924,41.924,0,0,0-1.707-14.755,42.9,42.9,0,0,0-7.176-15.042,35.858,35.858,0,0,1-6.619-23.894,47.868,47.868,0,0,0-8.762-31.629,35.882,35.882,0,0,1-6.62-23.9,47.889,47.889,0,0,0-8.764-31.636,31.365,31.365,0,0,1-5.44-11.359,31.4,31.4,0,0,1-1.183-12.55,42.949,42.949,0,0,0-1.589-16.6,49.908,49.908,0,0,0-2.586-7.292,29.389,29.389,0,0,1-2.6-13.5A5.78,5.78,0,0,0,78.451,99.67Zm111.263,380.5a4.97,4.97,0,1,1-3.827,5.894A4.961,4.961,0,0,1,189.714,480.168Z"/></svg>
