<svg id="Layer_1" height="512" viewBox="0 0 512 512" width="512" xmlns="http://www.w3.org/2000/svg" data-name="Layer 1"><path d="m212.784 357.477a6 6 0 0 0 6-6 22.95 22.95 0 0 0 -45.9 0 6 6 0 0 0 12 0 10.95 10.95 0 0 1 21.9 0 6 6 0 0 0 6 6z"/><path d="m265.045 419.729a33.958 33.958 0 0 1 -48.026 0 6 6 0 0 0 -8.485 8.485 45.957 45.957 0 0 0 65 0 6 6 0 1 0 -8.485-8.485z"/><path d="m73.5 278.548c6.474 5.453 17.635 7.381 33.526 7.281-4.508 7.879-10.1 20.322-13.514 37.675-10.328 52.446 7.115 109.132 23.567 147.452a6 6 0 0 0 11.468-1.635c.407-3.305.915-6.491 1.5-9.521 10.322 19.792 29.509 36.723 34.026 38.246a6.694 6.694 0 0 0 2.14.357 6.1 6.1 0 0 0 4.521-1.97 6.224 6.224 0 0 0 1.073-6.767c-1.274-2.966-2.613-10.151-2.647-27.186a126.1 126.1 0 0 0 13.762 12.334c8.36 6.448 16.7 9.455 25.537 12.638 4.907 1.767 9.981 3.6 15.555 6.162 5.915 2.723 13.507 4.084 21.1 4.084s15.183-1.362 21.1-4.084c5.574-2.566 10.648-4.394 15.554-6.162 8.834-3.183 17.177-6.19 25.538-12.637a126.226 126.226 0 0 0 13.971-12.554c.016 11.245-.518 23.2-2.32 32.182a6.312 6.312 0 0 0 2.13 6.154 6.151 6.151 0 0 0 3.93 1.4 6.847 6.847 0 0 0 2.638-.541c5.007-2.084 22.694-20.794 32.428-40.994.568 2.971 1.044 5.959 1.4 8.859a6 6 0 0 0 5.11 5.205 6.077 6.077 0 0 0 .848.06 6 6 0 0 0 5.51-3.632c30.62-71.32 29.94-121.695 22.213-153.634 10.272 2.656 19.326 4.265 26.943 4.265a36.812 36.812 0 0 0 11.208-1.533c6.753-2.162 10.79-7.175 11.077-13.752.852-19.585-31.931-49.381-59.642-60.993a33.245 33.245 0 0 1 -19.636-22.707c-.932-3.916-.9-7.22.1-9.819 3.166-8.237 2.268-18.27-2.6-29.014a70.172 70.172 0 0 1 -6.548-30.005c.126-9.563 1.848-16.494 4.979-20.046 10.589-12.007 9.66-23.374 8.841-33.4-.229-2.8-.445-5.436-.445-8.131 0-3.694 1.214-5.654 2.634-6.692a81.462 81.462 0 0 0 15.179 15.548c6.65 5.284 10.615 11.866 14.114 17.673 4.6 7.633 9.806 16.284 20.168 14.189a16.365 16.365 0 0 0 12.85-15.516c1.945-62.618-27.013-88.829-51.649-99.79-18.682-8.312-40.39-9.84-61.127-4.3a86.684 86.684 0 0 1 -22.262 3.127c-8.48 0-18.9 4.733-27.191 12.353-7.922 7.281-13.013 16.257-14.722 25.777a39.164 39.164 0 0 1 -3-5 11.7 11.7 0 0 0 -17.481-4.084c-18.85 14.216-55.131 59.026-59.949 87.072-6.427 2.195-11.055 5.134-13.946 8.866a16.562 16.562 0 0 0 -3.223 13.243c3.4 20.026-8.2 46.748-12 54.784a256.052 256.052 0 0 0 -38.295 13.186c-28.9 12.87-43 27.827-41.889 44.458a16.1 16.1 0 0 0 5.848 11.469zm47.123 168.942c-12.843-34.8-23.367-79.351-15.531-120.686 4.423-23.332 13.161-36.924 16.555-41.513q3.9-.237 8.087-.565l.729 19.99c-13.256 4.138-22.641 17.754-21.33 32.42 1.254 14.026 11.084 25.247 23.531 28.013l.458 12.555a132.865 132.865 0 0 0 9.022 42.6 5.992 5.992 0 0 0 -5.6-.227c-6.684 3.196-11.894 12.163-15.921 27.413zm10.3-130.013 1.273 34.954c-5.975-2.646-10.444-8.857-11.116-16.364a19.327 19.327 0 0 1 9.848-18.59zm4.756 122.56c2.078-4.993 4.228-8.265 6.033-9.127a5.986 5.986 0 0 0 3.241-3.981 128.622 128.622 0 0 0 12.412 21.4c-.355 11.819-.281 21.362.24 28.86-8.905-9.405-20.011-24.01-21.921-37.152zm164.283 25.274c-6.871 5.3-14.011 7.872-22.278 10.851-4.9 1.767-10.463 3.771-16.5 6.551-8.567 3.943-23.6 3.943-32.16 0-6.041-2.78-11.6-4.784-16.5-6.551-8.267-2.979-15.406-5.551-22.277-10.851-27.1-20.9-43.551-53.027-45.131-88.095l-2.719-74.624c10.216 9.051 28.2 18.426 58.873 18.426 35.33 0 58.062 8.918 69.7 54.505a6 6 0 0 0 10.659 2.053c.871-1.193 17.253-23.86 24.156-48.8a93.163 93.163 0 0 1 3.129 19.6 58.807 58.807 0 0 1 -.88 14.742 6 6 0 0 0 10.066 5.682c21.891-21.931 28.353-52.15 30.234-66.324l.054.019-3.288 74.669c-1.582 35.12-18.033 67.248-45.133 88.147zm-157.78-181.665q9.773-.921 20.824-2.1c39.552-4.141 84.381-8.832 114.232-1.2 20.654 5.28 40.913 11.894 59.477 18.179-1 8.777-4.442 29.206-15.9 47.582a112.968 112.968 0 0 0 -10.6-40.14 7.025 7.025 0 0 0 -13.4 2.9c-.133 18.026-10.707 38.8-18.024 51.045-6.336-17.908-15.362-30.666-27.4-38.8-12.381-8.366-27.838-12.1-50.12-12.1-42.536.006-55.996-19.487-59.089-25.366zm190.555 196.594c.715-10.83.6-22.521.258-32.124a128.6 128.6 0 0 0 12.139-20.933 5.98 5.98 0 0 0 3.166 3.727c2.03.969 4.12 4.356 6.045 9.083-1.91 13.796-12.956 29.93-21.608 40.247zm36.669-32.71c-4.029-15.276-9.242-24.255-15.937-27.45a5.989 5.989 0 0 0 -5.354.1 132.9 132.9 0 0 0 8.973-42.483l.569-12.892c13.173-2.752 24.144-14.2 25.348-27.67.921-10.292-3.759-20.294-11.37-26.826q5.168 1.681 10.058 3.18c8.036 26.801 11.307 70.505-12.287 134.041zm-11.191-95.384 1.559-35.39c6.946 3.577 11.975 11.523 11.279 19.311-.69 7.716-6.416 13.599-12.838 16.079zm10.177-102.886c-17.591 1.909-42.2-9.136-64.4-19.1l-1.784-.8c-12.341-5.534-33.775-8.46-65.411-8.918v-21.736c23.489.857 41.358 3.87 54.463 9.187 36.244 14.7 53.786 18.633 62.565 18.9a44.719 44.719 0 0 0 14.567 22.467zm-196.721-96.629a4.554 4.554 0 0 1 .88-3.887c1.512-1.953 7.261-6.685 27.927-8.442a6 6 0 0 0 -1.017-11.957c-3.367.286-6.5.661-9.427 1.117 2.911-9.621 9.746-22.3 19.649-36.206 11.1-15.591 24.791-30.793 34.2-37.991a47.65 47.65 0 0 0 8.964 12.359 9.412 9.412 0 0 0 10.164 2 9.307 9.307 0 0 0 5.793-8.449c.356-19.252 20.029-32.762 30.546-32.762a98.678 98.678 0 0 0 25.359-3.533c18.093-4.834 36.97-3.529 53.152 3.671 30.946 13.769 45.928 43.528 44.533 88.453a4.267 4.267 0 0 1 -3.237 4.127c-1.771.361-3.422-1.838-7.508-8.619-3.823-6.347-8.582-14.245-16.928-20.877-17.226-13.687-19.832-26.727-19.9-27.1a6 6 0 0 0 -11.851 1.88 35.752 35.752 0 0 0 2.985 8.8c-.091.057-.182.11-.273.17-3.757 2.463-8.236 7.376-8.236 16.786 0 3.185.246 6.2.485 9.109.744 9.112 1.332 16.309-5.881 24.488-5.127 5.815-7.811 15.176-7.978 27.824a82.076 82.076 0 0 0 7.616 35.114c2.448 5.407 4.839 13.223 2.327 19.758a23.681 23.681 0 0 0 -1.435 6.237c-6.068-.528-21.421-3.579-56.811-17.936-14.561-5.908-34.011-9.218-59.322-10.09a6 6 0 0 0 -5.652-4h-33.743a6 6 0 0 0 -5.861 4.727c-9.362.73-17.348 1.621-23.087 2.343 3.314-11.545 5.611-25.067 3.567-37.114zm53.129 42.051v29.423h-21.748v-29.423zm-67.8 23.227-.04.059c.013-.02.03-.037.043-.057a6.062 6.062 0 0 0 .333-.562 152.771 152.771 0 0 0 6.539-14.92c4.952-.7 14.847-1.974 27.189-2.968v21.654c-1.551.05-3.072.1-4.549.15-8.2.272-15.29.508-19.852.508-7.969 0-10.043-1.623-10.348-1.914a4.622 4.622 0 0 1 .685-1.959zm-12.352 4.8a11.691 11.691 0 0 0 1.021 2.724c2.956 5.609 9.822 8.337 20.991 8.337 4.762 0 11.939-.239 20.25-.515l4.953-.163a5.994 5.994 0 0 0 5.2 3.012h33.737a6 6 0 0 0 5.531-3.67c29.743.417 50.242 3.062 60.968 7.873l1.782.8c21.613 9.7 45.3 20.334 65.263 20.334a41.1 41.1 0 0 0 18.37-3.926c27.8 12.616 50.125 38.163 49.686 48.265-.039.888-.087 1.994-2.747 2.846-13.5 4.322-43.315-5.855-77.841-17.641-21.676-7.4-46.243-15.785-71.6-22.266-31.934-8.163-77.9-3.351-118.453.895-35.087 3.673-71.369 7.472-80.53-.244a4.044 4.044 0 0 1 -1.595-3.1c-1.351-20.247 41.266-36.733 65.005-43.56z"/></svg>