<svg id="Layer_1" height="512" viewBox="0 0 512 512" width="512" xmlns="http://www.w3.org/2000/svg" data-name="Layer 1"><path d="m206.489 312.688a6 6 0 0 0 -6 6v64.721a6 6 0 0 0 12 0v-64.721a6 6 0 0 0 -6-6z"/><path d="m212.489 291.307a6 6 0 0 0 -12 0v6.736a6 6 0 0 0 12 0z"/><path d="m370.848 113.865c2.249-5.592 2.031-13.313.06-19.379-16.142-49.678-62.546-84.486-114.78-84.486h-9.128a107.367 107.367 0 0 0 -102.367 74.375 26.386 26.386 0 0 0 .685 18.305l-3.448 8.987a95.805 95.805 0 0 0 4.387 78.37 5.959 5.959 0 0 0 9.234 1.781l.1-.086a5.985 5.985 0 0 0 1.313-7.262 83.78 83.78 0 0 1 -3.829-68.5l.857-2.235 29.754 27.349.155.14a37.879 37.879 0 0 1 12.95 25.661 53.851 53.851 0 0 1 -.548 12.511l-.549 3.283a22.827 22.827 0 0 0 3.7 16.923 23.216 23.216 0 0 0 17.553 9.253 22.373 22.373 0 0 0 17.1-8.327 22.672 22.672 0 0 0 4.047-19.089h-.124a50.877 50.877 0 0 1 -.986-16.82 34.917 34.917 0 0 1 12.308-22.832c1.566-1.3 3.148-2.73 4.836-4.366a59.312 59.312 0 0 1 55.2-14.9l31.492 7.43.137.03a26.283 26.283 0 0 0 20.891-4.642 83.751 83.751 0 0 1 -27.174 84.924l-35.145 29.6a67.243 67.243 0 0 1 -86.812 0l-23.837-20.073a5.942 5.942 0 0 0 -7.755.086l-.087.077a5.943 5.943 0 0 0 .1 9l23.851 20.084a79.644 79.644 0 0 0 21.132 12.811v209.915a30.237 30.237 0 1 0 60.474 0v-210.114a79.627 79.627 0 0 0 20.665-12.609l35.145-29.6a95.731 95.731 0 0 0 28.443-105.575zm-13.717-.335a14.542 14.542 0 0 1 -13.625 4.725l-31.417-7.412a71.256 71.256 0 0 0 -66.31 17.957c-1.468 1.422-2.828 2.652-4.157 3.757a46.857 46.857 0 0 0 -16.566 30.754 62.855 62.855 0 0 0 1.313 20.943 10.707 10.707 0 0 1 -1.806 8.92 9.8 9.8 0 0 1 -7.548 3.68 10.379 10.379 0 0 1 -7.845-4.218 10.756 10.756 0 0 1 -1.642-7.981l.549-3.284a65.872 65.872 0 0 0 .681-15.359 49.8 49.8 0 0 0 -16.944-33.758l-31.54-28.864a14.358 14.358 0 0 1 -4.228-15.307 95.4 95.4 0 0 1 90.954-66.083h9.127c47.02 0 88.839 31.476 103.373 76.2 2.23 6.872-.353 13.089-2.369 15.33zm-82.531 358.233a18.237 18.237 0 1 1 -36.474 0v-117.9a23.12 23.12 0 0 0 11.272 2.922 15.6 15.6 0 0 0 15.579-15.58 3.583 3.583 0 0 1 3.58-3.579 17.918 17.918 0 0 0 6.043-1.063zm0-152.177a6.05 6.05 0 0 1 -6.044 6.044 15.6 15.6 0 0 0 -15.579 15.579 3.583 3.583 0 0 1 -3.579 3.58 11.285 11.285 0 0 1 -11.272-11.272v-67.851a78.631 78.631 0 0 0 36.474-.113z"/><path d="m216.957 208.853c.024 0 .041 0-.008 0-.325-.001.31.013.008 0z"/></svg>