<?xml version="1.0" encoding="UTF-8"?>
<svg xmlns="http://www.w3.org/2000/svg" id="Layer_1" data-name="Layer 1" viewBox="0 0 512 512" width="512" height="512"><path d="M382,423.58A34.2,34.2,0,0,0,415.1,397.943a34.165,34.165,0,0,0-26.379-41.933c-41.615-8.478-64.77-20.851-89.285-33.951-24.766-13.235-50.376-26.92-95.622-35.74a34.216,34.216,0,0,0-39.684,25,34.165,34.165,0,0,0,26.378,41.935C232.125,361.73,255.28,374.1,279.8,387.2l1.35.721-2.666.108A105.1,105.1,0,0,1,231.3,378.9l-69.315-31.211a35.786,35.786,0,1,0-29.387,65.26l69.315,31.213a117.252,117.252,0,0,0,47.941,10.28q2.326,0,4.655-.095l43.027-1.745a32.654,32.654,0,0,0,29.614-43.051,298.913,298.913,0,0,0,48.27,13.395h0A34.373,34.373,0,0,0,382,423.58Zm-66.965,4.878a20.529,20.529,0,0,1-17.985,12.149l-43.026,1.746a105.076,105.076,0,0,1-47.183-9.136L137.522,402a23.787,23.787,0,1,1,19.533-43.378h0l69.315,31.212a117.189,117.189,0,0,0,52.6,10.185l16.407-.666a20.643,20.643,0,0,1,19.658,29.1Zm-29.58-51.838c-24.2-12.929-49.215-26.3-92.545-35.125a22.134,22.134,0,0,1-14.48-10.017,21.852,21.852,0,0,1-2.67-17.179,22.2,22.2,0,0,1,25.764-16.2c43.476,8.474,67.174,21.137,92.263,34.545,24.195,12.928,49.214,26.3,92.545,35.125a22.131,22.131,0,0,1,14.478,10.016,21.859,21.859,0,0,1,2.672,17.18,22.2,22.2,0,0,1-25.765,16.2C334.237,402.69,310.54,390.027,285.451,376.62Z"/><path d="M217.024,306.294a26.34,26.34,0,0,0-9.251,36.082,6,6,0,0,0,10.328-6.111,14.339,14.339,0,0,1,5.036-19.645,6,6,0,1,0-6.113-10.326Z"/><path d="M257.547,319.914A26.337,26.337,0,0,0,248.3,356a6,6,0,1,0,10.327-6.111,14.342,14.342,0,0,1,5.036-19.645,6,6,0,1,0-6.112-10.326Z"/><path d="M296.9,338.08a26.337,26.337,0,0,0-9.251,36.082,6,6,0,1,0,10.327-6.111,14.342,14.342,0,0,1,5.036-19.645A6,6,0,1,0,296.9,338.08Z"/><path d="M336.261,356.246a26.339,26.339,0,0,0-9.251,36.083,6,6,0,0,0,10.327-6.111,14.34,14.34,0,0,1,5.036-19.644,6,6,0,0,0-6.112-10.328Z"/><path d="M377.859,399.838a14.358,14.358,0,0,1,5.037-19.646,6,6,0,0,0-6.112-10.326,26.37,26.37,0,0,0-9.252,36.083,6,6,0,0,0,10.327-6.111Z"/><path d="M108.883,208.58a35.787,35.787,0,0,0,19.253,63.26l75.659,7.381a105.112,105.112,0,0,1,45.48,15.531l13.905,8.735a32.642,32.642,0,0,0,34.728-55.281L261.443,225.3a117.137,117.137,0,0,0-33.971-14.426,35.58,35.58,0,0,0,13.437-8.04L296,150.449a103.788,103.788,0,0,1,9.34-7.883,35.551,35.551,0,0,0-1.725,27.161l24.4,72a105.132,105.132,0,0,1,4.556,47.843l-2.24,16.267A32.682,32.682,0,0,0,362.6,342.95a32.821,32.821,0,0,0,10.549-1.75A32.465,32.465,0,0,0,395,314.738l5.875-42.659a117.169,117.169,0,0,0-5.079-53.331l-24.4-72a35.78,35.78,0,0,0-25.171-23.2l6.978-2.133a32.642,32.642,0,0,0-19.08-62.433l-25.975,7.938a32.754,32.754,0,0,0-12.486-3.6l-42.929-3.388a117.16,117.16,0,0,0-52.947,8.169L129.331,96.652A35.786,35.786,0,1,0,156.2,162.988l39.623-16.051-4.239,4.031a35.775,35.775,0,0,0,4.658,55.6l-61.161-5.967A35.566,35.566,0,0,0,108.883,208.58ZM360.032,150.6l24.4,72a105.125,105.125,0,0,1,4.557,47.842l-5.876,42.66a20.642,20.642,0,0,1-40.9-5.633l2.24-16.267a117.188,117.188,0,0,0-5.079-53.332l-24.4-71.995A23.786,23.786,0,1,1,360.032,150.6ZM151.7,151.866a23.786,23.786,0,0,1-17.862-44.092l70.457-28.543a105.067,105.067,0,0,1,47.5-7.327l32.8,2.589a117.553,117.553,0,0,0-27.809,15.535,41,41,0,0,0-5.173-10.485,6,6,0,0,0-9.89,6.8,28.98,28.98,0,0,1,4.806,12.386l-26.977,25.653ZM192.469,176.3a23.633,23.633,0,0,1,7.388-16.639l55.088-52.385a105.14,105.14,0,0,1,41.5-24.229l41.182-12.585a20.8,20.8,0,0,1,6.085-.915,20.648,20.648,0,0,1,5.981,40.394l-15.7,4.8a117.182,117.182,0,0,0-46.266,27.011L232.64,194.138A23.788,23.788,0,0,1,192.469,176.3ZM209.58,219.93a105.1,105.1,0,0,1,45.48,15.531l36.464,22.907a20.641,20.641,0,1,1-21.96,34.957l-13.905-8.735a117.189,117.189,0,0,0-50.7-17.313L129.3,259.9a23.786,23.786,0,0,1,4.619-47.347Z"/><path d="M139.559,252.95a5.994,5.994,0,0,0,7.922-3.04A41.292,41.292,0,0,0,150,224.078a6,6,0,1,0-11.7,2.672,29.208,29.208,0,0,1-1.783,18.277A6,6,0,0,0,139.559,252.95Z"/><path d="M173.519,256.263a6,6,0,0,0,7.922-3.04,41.291,41.291,0,0,0,2.52-25.831,6,6,0,1,0-11.7,2.671,29.222,29.222,0,0,1-1.783,18.277A6,6,0,0,0,173.519,256.263Z"/><path d="M207.479,259.576a5.993,5.993,0,0,0,7.922-3.041,41.3,41.3,0,0,0,2.52-25.831,6,6,0,1,0-11.7,2.672,29.226,29.226,0,0,1-1.783,18.278A6,6,0,0,0,207.479,259.576Z"/><path d="M237.961,269.769a6,6,0,0,0,8.2-2.2,41.287,41.287,0,0,0,5.2-25.425,6,6,0,1,0-11.914,1.435,29.223,29.223,0,0,1-3.68,17.992A6,6,0,0,0,237.961,269.769Z"/><path d="M265.076,285.365a6,6,0,0,0,8.3-1.755A41.294,41.294,0,0,0,279.93,258.5a6,6,0,0,0-11.974.8,29.2,29.2,0,0,1-4.636,17.767A6,6,0,0,0,265.076,285.365Z"/><path d="M162.5,369.753a6.007,6.007,0,0,0-6.576,5.363,29.212,29.212,0,0,1-7.539,16.744A6,6,0,1,0,157.207,400a41.293,41.293,0,0,0,10.656-23.666A6,6,0,0,0,162.5,369.753Z"/><path d="M193.613,383.764a6,6,0,0,0-6.576,5.361,29.223,29.223,0,0,1-7.54,16.745,6,6,0,1,0,8.822,8.135,41.293,41.293,0,0,0,10.656-23.665A6,6,0,0,0,193.613,383.764Z"/><path d="M224.725,397.773a6,6,0,0,0-6.576,5.362,29.217,29.217,0,0,1-7.54,16.745,6,6,0,0,0,8.822,8.135,41.3,41.3,0,0,0,10.656-23.665A6,6,0,0,0,224.725,397.773Z"/><path d="M256.26,404.085h-.019a6,6,0,0,0-5.981,6.019,29.221,29.221,0,0,1-5.752,17.439,6,6,0,0,0,9.623,7.17,41.3,41.3,0,0,0,8.129-24.647A6,6,0,0,0,256.26,404.085Z"/><path d="M287.522,404.033a6,6,0,0,0-5.65,6.329,29.229,29.229,0,0,1-4.813,17.723,6,6,0,1,0,9.992,6.644,41.286,41.286,0,0,0,6.8-25.044A5.992,5.992,0,0,0,287.522,404.033Z"/><path d="M213.464,165.643a29.211,29.211,0,0,1,12.654,13.306,6,6,0,1,0,10.865-5.094A41.293,41.293,0,0,0,219.1,155.047a6,6,0,0,0-5.635,10.6Z"/><path d="M238.19,142.13a29.218,29.218,0,0,1,12.655,13.308,6,6,0,0,0,10.864-5.1,41.3,41.3,0,0,0-17.884-18.808,6,6,0,0,0-5.635,10.6Z"/><path d="M262.917,118.617a29.206,29.206,0,0,1,12.653,13.307,6,6,0,1,0,10.866-5.094,41.3,41.3,0,0,0-17.885-18.809,6,6,0,0,0-5.634,10.6Z"/><path d="M292.372,100.171a29.222,29.222,0,0,1,11.2,14.556,6,6,0,1,0,11.337-3.934,41.3,41.3,0,0,0-15.824-20.571,6,6,0,1,0-6.71,9.949Z"/><path d="M322.911,88.893a29.211,29.211,0,0,1,10.4,15.132,6,6,0,1,0,11.531-3.322,41.292,41.292,0,0,0-14.7-21.387,6,6,0,0,0-7.232,9.577Z"/><path d="M325.529,172.365a6,6,0,0,0,6,5.97h.031A41.284,41.284,0,0,0,356.139,170a6,6,0,1,0-7.248-9.563,29.218,29.218,0,0,1-17.392,5.894A6,6,0,0,0,325.529,172.365Z"/><path d="M336.482,204.681a6,6,0,0,0,6,5.969h.031a41.287,41.287,0,0,0,24.58-8.331,6,6,0,1,0-7.248-9.562,29.223,29.223,0,0,1-17.392,5.893A6,6,0,0,0,336.482,204.681Z"/><path d="M347.435,237a6,6,0,0,0,6,5.97h.031a41.294,41.294,0,0,0,24.579-8.33,6,6,0,1,0-7.247-9.565,29.219,29.219,0,0,1-17.393,5.9A6,6,0,0,0,347.435,237Z"/><path d="M375.165,259.551a29.208,29.208,0,0,1-17.913,4.047,6,6,0,1,0-1.191,11.941q2,.2,4.014.2a41.34,41.34,0,0,0,21.3-5.92,6,6,0,1,0-6.21-10.267Z"/><path d="M372.573,292a29.247,29.247,0,0,1-18.1,3.086,6,6,0,1,0-1.827,11.859,40.416,40.416,0,0,0,6.183.472,41.31,41.31,0,0,0,19.4-4.833A6,6,0,1,0,372.573,292Z"/><path d="M153.43,110.533a6,6,0,1,0-9.127,7.791,29.217,29.217,0,0,1,6.9,17.021,6,6,0,0,0,5.982,5.622q.192,0,.384-.012a6,6,0,0,0,5.61-6.366A41.293,41.293,0,0,0,153.43,110.533Z"/><path d="M185.055,97.723a6,6,0,0,0-9.127,7.791,29.215,29.215,0,0,1,6.894,17.019,6,6,0,0,0,5.983,5.622c.127,0,.255,0,.384-.011a6,6,0,0,0,5.61-6.367A41.3,41.3,0,0,0,185.055,97.723Z"/><path d="M220.814,115.333a6,6,0,0,0,5.61-6.367,41.3,41.3,0,0,0-9.745-24.055,6,6,0,1,0-9.127,7.791,29.218,29.218,0,0,1,6.9,17.022,6,6,0,0,0,5.982,5.621C220.557,115.345,220.686,115.341,220.814,115.333Z"/><path d="M62.489,210.408a6,6,0,1,0,12,0v-94.72a6,6,0,1,0-12,0Z"/><path d="M68.489,101.043a6,6,0,0,0,6-6V88.308a6,6,0,1,0-12,0v6.735A6,6,0,0,0,68.489,101.043Z"/><path d="M444.16,10H67.84A57.906,57.906,0,0,0,10,67.84V444.16A57.906,57.906,0,0,0,67.84,502H444.16A57.906,57.906,0,0,0,502,444.16V67.84A57.906,57.906,0,0,0,444.16,10ZM490,444.16A45.891,45.891,0,0,1,444.16,490H67.84A45.891,45.891,0,0,1,22,444.16V67.84A45.891,45.891,0,0,1,67.84,22H444.16A45.891,45.891,0,0,1,490,67.84Z"/><path d="M444.16,36.88H67.84A30.96,30.96,0,0,0,36.88,67.84V359a6,6,0,0,0,12,0V67.84A18.96,18.96,0,0,1,67.84,48.88H444.16a18.96,18.96,0,0,1,18.96,18.96V444.16a18.96,18.96,0,0,1-18.96,18.96H67.84a18.96,18.96,0,0,1-18.96-18.96V409a6,6,0,0,0-12,0v35.16a30.96,30.96,0,0,0,30.96,30.96H444.16a30.96,30.96,0,0,0,30.96-30.96V67.84A30.96,30.96,0,0,0,444.16,36.88Z"/></svg>
