<svg id="Layer_1" height="512" viewBox="0 0 512 512" width="512" xmlns="http://www.w3.org/2000/svg" data-name="Layer 1"><path d="m217.183 220.962a44.386 44.386 0 0 0 34.349 54.732l-8.55 136.981a6 6 0 0 0 11.977.748l8.55-136.992a44.437 44.437 0 0 0 20.138-82.03 44.394 44.394 0 0 0 4.694-77.959 44.5 44.5 0 1 0 -42.214-2.564 44.423 44.423 0 0 0 -4.7 77.992q-1.9.891-3.74 1.964a44.134 44.134 0 0 0 -20.504 27.128zm15.035 27.6a32.211 32.211 0 0 1 -3.421-24.582 32.912 32.912 0 0 1 1.123-3.484 76.611 76.611 0 0 0 40.262 42.486 32.479 32.479 0 0 1 -37.964-14.418zm55.925-32.84a32.2 32.2 0 0 1 4.439 17.781 40.118 40.118 0 0 1 -32.06-33.789 32.6 32.6 0 0 1 7.82 1.045 32.211 32.211 0 0 1 19.801 14.965zm5.8-75.967a40.118 40.118 0 0 1 -44.369-14.2 32.831 32.831 0 0 1 15.368-3.844 32.483 32.483 0 0 1 29 18.04zm-5.3-37.351a32.37 32.37 0 0 1 -27.686 5 76.615 76.615 0 0 0 38.352-44.184 32.48 32.48 0 0 1 -10.666 39.186zm-51.374-23.423a32.656 32.656 0 0 1 .289-7.886 32.352 32.352 0 0 1 30.234-27.273 40.127 40.127 0 0 1 -30.523 35.159zm6.081 16.247a32.783 32.783 0 0 1 -2.835-4.693 52.132 52.132 0 0 0 39.185-45.146 32.3 32.3 0 0 1 10.352 5.642 64.039 64.039 0 0 1 -42.486 48.945 32.5 32.5 0 0 1 -4.216-4.748zm-6.319 42.322a32.762 32.762 0 0 1 3.2-4.455 51.918 51.918 0 0 0 56.956 18.21 32.035 32.035 0 0 1 -1.117 11.762 64.045 64.045 0 0 1 -61.741-19.767 32.463 32.463 0 0 1 2.702-5.75zm-4.258 20.974a76.7 76.7 0 0 0 49.4 18.124c2.106 0 4.217-.1 6.324-.279a32.4 32.4 0 0 1 -55.728-17.845zm10.987 45.658a32.717 32.717 0 0 1 4.948-2.358 52.128 52.128 0 0 0 41.152 43.384 32.053 32.053 0 0 1 -6.632 9.755 64.039 64.039 0 0 1 -44.606-47.054 32.775 32.775 0 0 1 5.138-3.727z"/><path d="m108.235 321.538a6 6 0 0 0 -1.263-11.934 97.642 97.642 0 0 1 -63.034-15.019 6 6 0 0 0 -6.509 10.08 109.489 109.489 0 0 0 70.806 16.873z"/><path d="m12.621 287.876 7.085 4.8a6 6 0 1 0 6.734-9.932l-7.085-4.8a6 6 0 0 0 -6.734 9.932z"/><path d="m214.261 174.1-28.121-11.923a60.025 60.025 0 0 0 -66.246 13.5 48.7 48.7 0 0 1 -37.548 14.523 60.081 60.081 0 0 0 -58.077 34.357l-12.8 27.487a6 6 0 0 0 2.221 7.6l30.422 19.329a109.873 109.873 0 0 0 83.31 14.209l67.516 175.651a5.991 5.991 0 0 0 7.753 3.448l17.092-6.569a6 6 0 0 0 3.449-7.753l-67.524-175.659a109.831 109.831 0 0 0 52.349-66.343l9.643-34.729a6 6 0 0 0 -3.439-7.128zm-4.388 282.567-5.892 2.265-65-169.1c.991-.348 1.98-.706 2.963-1.084s1.96-.771 2.93-1.177zm-13.379-243.923a97.313 97.313 0 0 1 -145.951 56.1l-19.882-12.633a136.335 136.335 0 0 1 17.322-3.967 5.98 5.98 0 0 0 5.017-5.911 6 6 0 0 0 -6.97-5.919 149.108 149.108 0 0 0 -17.777 4.014l6.893-14.8a48 48 0 0 1 46.4-27.452 60.641 60.641 0 0 0 46.908-18.1 48.091 48.091 0 0 1 53-10.852l15.234 6.456c-14.585 7.074-24.46 14.678-34.056 22.087-12.065 9.314-23.46 18.112-44.1 26.046a145.441 145.441 0 0 1 -22.783 6.8 5.977 5.977 0 0 0 -4.749 5.863 5.994 5.994 0 0 0 7.214 5.874 157.613 157.613 0 0 0 24.621-7.333c22.283-8.566 34.916-18.318 47.133-27.749 9.667-7.464 18.917-14.594 32.827-21.216z"/><path d="m380.92 402.264c-.356 0 .357.025 0 0z"/><path d="m440.549 124.461a94.243 94.243 0 0 0 -81.195 169.219l-15.334 41.43-7-9.55a15.932 15.932 0 0 0 -24.117-1.869 20.375 20.375 0 0 1 -3.673 2.45c-4.251 2.474-10.074 5.864-13.055 13.891-3.023 8.142-.548 14.393 1.09 18.53a16.732 16.732 0 0 1 1.282 4.078 15.856 15.856 0 0 0 19.161 14.377l11.735-2.534-32.115 86.764a10.682 10.682 0 0 0 1.972 10.733 24.024 24.024 0 0 0 18.159 8.283 24.368 24.368 0 0 0 3.523-.256 10.684 10.684 0 0 0 8.483-6.866l32.1-86.731 7.237 9.575a15.871 15.871 0 0 0 23.9 1.612 16.744 16.744 0 0 1 3.632-2.253c3.94-2.066 9.895-5.187 12.918-13.328 2.979-8.028.779-14.4-.827-19.045a20.49 20.49 0 0 1 -1.185-4.253 15.932 15.932 0 0 0 -19.492-14.324l-11.628 2.692 15.337-41.432a94.292 94.292 0 0 0 104.643-60.043 94.348 94.348 0 0 0 -55.551-121.15zm-32.849 6.063a82.753 82.753 0 0 1 44.881 13.338c-1.845 4.6-3.739 8.837-5.679 12.768a68.734 68.734 0 0 0 -41.302-12.27c-1.545-4.308-3.352-8.792-5.459-13.475 2.516-.235 5.038-.361 7.559-.361zm42.326 76.334a43.093 43.093 0 0 0 -8.066-19.57 140.048 140.048 0 0 0 8.179-11.78 57.033 57.033 0 0 1 13.4 28.7 128.9 128.9 0 0 1 -13.509 2.65zm14.084 9.55a56.47 56.47 0 0 1 -10.832 29.777 128.671 128.671 0 0 1 -11.418-7.685 42.867 42.867 0 0 0 8.14-19.544 139.54 139.54 0 0 0 14.114-2.548zm-50.247-33.676a30.6 30.6 0 0 1 11.882 5.214c-3.75 4.1-7.588 7.784-11.492 11.3.103-5.327.033-10.794-.386-16.514zm9.9 56.236a30.779 30.779 0 0 1 -10.117 3.957c-.4-5.037-.5-9.893-.443-14.681 3.277 3.597 6.745 7.182 10.567 10.724zm-2-19.144c5.1.259 10.337.361 15.819.152a30.493 30.493 0 0 1 -4.979 10.836c-3.915-3.588-7.456-7.257-10.832-10.988zm.853-11.971c3.784-3.419 7.557-7.048 11.282-11.067a31.453 31.453 0 0 1 1.729 3.236 30.975 30.975 0 0 1 2.415 7.936c-5.3.236-10.396.142-15.418-.105zm10.825-29.153a43.038 43.038 0 0 0 -21.027-8.342 139.784 139.784 0 0 0 -3.034-13.993 56.518 56.518 0 0 1 31.749 10.9 129.157 129.157 0 0 1 -7.688 11.435zm-31.815 64.194a31.026 31.026 0 0 1 -4.564-1.3 30.722 30.722 0 0 1 -7.317-3.913c3.749-4.1 7.587-7.784 11.492-11.3-.099 5.319-.029 10.788.389 16.51zm-9.9-56.241a30.628 30.628 0 0 1 10.118-3.952c.4 5.035.5 9.889.442 14.677-3.273-3.601-6.741-7.186-10.563-10.728zm2 19.144c-5.1-.259-10.336-.361-15.818-.152a31.077 31.077 0 0 1 1.066-3.518 30.715 30.715 0 0 1 3.914-7.318c3.912 3.585 7.457 7.254 10.833 10.985zm-.852 11.972c-3.784 3.419-7.557 7.047-11.282 11.066a31.453 31.453 0 0 1 -1.729-3.236 30.928 30.928 0 0 1 -2.415-7.935c5.302-.24 10.398-.149 15.421.102zm-10.817 29.156a42.872 42.872 0 0 0 21.026 8.33 139.494 139.494 0 0 0 3.031 13.989 56.183 56.183 0 0 1 -31.738-10.9 129.106 129.106 0 0 1 7.676-11.422zm18.272-76.157a43.085 43.085 0 0 0 -18.1 7.826 139.811 139.811 0 0 0 -11.78-8.178 57.188 57.188 0 0 1 26.76-13.073 129.225 129.225 0 0 1 3.115 13.422zm-26.691 16.349a42.87 42.87 0 0 0 -8.14 19.547 139.634 139.634 0 0 0 -14.098 2.536 56.424 56.424 0 0 1 10.8-29.777 128.644 128.644 0 0 1 11.433 7.691zm-.162-49.062a83.165 83.165 0 0 1 14.425-5.073c2.111 4.5 3.925 8.793 5.482 12.907a68.991 68.991 0 0 0 -33.883 18.326c-4.066-2.1-8.442-4.142-13.173-6.129a82.025 82.025 0 0 1 27.144-20.034zm-42.823 46.132a82.9 82.9 0 0 1 8.147-16.217c4.6 1.845 8.836 3.74 12.768 5.68a68.645 68.645 0 0 0 -12.291 38.911c-4.359 1.393-8.9 3.042-13.655 4.982a82.03 82.03 0 0 1 5.026-33.359zm22.375 90.044a82.024 82.024 0 0 1 -20.035-27.143 82.9 82.9 0 0 1 -5.7-17.229c4.569-1.951 8.921-3.614 13.085-5.025a68.9 68.9 0 0 0 18.794 36.2c-2.107 4.066-4.158 8.453-6.149 13.194zm-1.064-52.823a128.942 128.942 0 0 1 13.5-2.644 43.095 43.095 0 0 0 8.066 19.569 139.834 139.834 0 0 0 -8.171 11.767 56.867 56.867 0 0 1 -13.4-28.695zm-36.784 143.878a3.854 3.854 0 0 1 -4.659-3.5 25.554 25.554 0 0 0 -2.1-7.645c-1.4-3.546-2.418-6.108-1-9.934 1.483-4 4.43-5.712 7.842-7.7a28.662 28.662 0 0 0 6.128-4.343 3.824 3.824 0 0 1 3.052-1.126 3.912 3.912 0 0 1 2.893 1.607l11.682 15.95-4.641 12.539zm3.309 102.934a12.13 12.13 0 0 1 -9.624-3.563l32.661-88.238a27.743 27.743 0 0 0 9.62 3.576zm36.953-99.829a15.722 15.722 0 0 1 -9.617-3.589l4.266-11.523a15.069 15.069 0 0 1 9.632 3.546zm35.018-12.307a3.93 3.93 0 0 1 3.24.67 3.849 3.849 0 0 1 1.577 2.845 28.612 28.612 0 0 0 1.81 7.291c1.289 3.731 2.4 6.954.919 10.949-1.421 3.827-3.861 5.106-7.239 6.877a25.47 25.47 0 0 0 -6.576 4.426 3.854 3.854 0 0 1 -5.812-.392l-11.866-15.7 4.624-12.491zm-26.43-10.895a27 27 0 0 0 -9.629-3.557l15.707-42.432c1.59.691 3.2 1.35 4.836 1.958 1.586.589 3.183 1.12 4.786 1.621zm15.091-55.282a82.9 82.9 0 0 1 -16.214-8.15c1.846-4.6 3.741-8.84 5.682-12.773a68.333 68.333 0 0 0 15.325 8.016 68.141 68.141 0 0 0 23.76 4.285c.738 0 1.475-.018 2.211-.042 1.546 4.313 3.354 8.8 5.463 13.49a81.925 81.925 0 0 1 -36.227-4.826zm36.047-35.058a43.029 43.029 0 0 0 18.1-7.822 139.7 139.7 0 0 0 11.768 8.172 56.892 56.892 0 0 1 -26.75 13.071 128.891 128.891 0 0 1 -3.118-13.421zm26.854 32.718a83 83 0 0 1 -14.431 5.059c-2.11-4.5-3.924-8.79-5.479-12.9a68.92 68.92 0 0 0 33.863-18.326c4.071 2.1 8.453 4.148 13.19 6.138a82.007 82.007 0 0 1 -27.143 20.029zm42.823-46.133a82.889 82.889 0 0 1 -8.152 16.215c-4.6-1.848-8.846-3.745-12.782-5.687a68.508 68.508 0 0 0 12.317-38.909c4.355-1.392 8.895-3.04 13.644-4.979a82.016 82.016 0 0 1 -5.027 33.36zm3.361-45.672c-4.56 1.948-8.9 3.608-13.059 5.017a69.147 69.147 0 0 0 -18.806-36.216c2.1-4.066 4.141-8.442 6.128-13.172a82.016 82.016 0 0 1 20.031 27.142 82.925 82.925 0 0 1 5.706 17.229z"/></svg>