<svg id="Layer_1" height="512" viewBox="0 0 512 512" width="512" xmlns="http://www.w3.org/2000/svg" data-name="Layer 1"><path d="m193.692 246.292-.088-.017c-.04-.006-.08-.016-.12-.023-12.853-2.252-25.716-.212-36.219 5.748-10.883 6.172-17.962 15.774-19.936 27.039s1.421 22.7 9.558 32.2c7.853 9.172 19.257 15.463 32.111 17.715a58.467 58.467 0 0 0 10.086.883c22.9 0 42.579-13.744 46.069-33.667 1.973-11.264-1.421-22.7-9.557-32.2-7.811-9.125-19.135-15.394-31.904-17.678zm29.641 47.808c-2.853 16.283-21.821 26.613-42.265 23.034-10.118-1.773-19.019-6.638-25.066-13.7-5.763-6.731-8.2-14.661-6.853-22.33a26.132 26.132 0 0 1 10.872-16.631 32.957 32.957 0 0 0 -3.769 10.513 28.217 28.217 0 0 0 5.613 22.214 32.321 32.321 0 0 0 20.208 12.087 28.26 28.26 0 0 0 4.874.426 26.74 26.74 0 0 0 14.471-4.2 23.765 23.765 0 0 0 10.8-15.991 20.2 20.2 0 0 0 -4.006-15.9 22.835 22.835 0 0 0 -14.274-8.55 6 6 0 1 0 -2.071 11.82 10.879 10.879 0 0 1 6.818 4.025 8.331 8.331 0 0 1 1.713 6.537 11.9 11.9 0 0 1 -5.458 7.961 15.09 15.09 0 0 1 -10.794 2.05 20.35 20.35 0 0 1 -12.75-7.562 16.349 16.349 0 0 1 -3.322-12.848c1.882-10.745 11.9-18.608 23.914-18.875a42.34 42.34 0 0 1 24.494 13.587c5.761 6.733 8.195 14.665 6.851 22.333z"/><path d="m423.237 368.477a43.21 43.21 0 0 0 -33.746-55.377 43.834 43.834 0 0 0 -4.8-.573 46.894 46.894 0 0 0 -7.632-35.282l-1.6-2.3a6.427 6.427 0 0 0 -7.592-1.964 172.834 172.834 0 0 0 -58.843 40.91c-1.939 2.066-2.121 6.347-.5 8.672a49.175 49.175 0 0 0 32.176 20.194 43.212 43.212 0 0 0 33.7 55.521 43.677 43.677 0 0 0 6.081.64 49.848 49.848 0 0 0 8.23 37.914l.215.306a6 6 0 0 0 7.262 2.069l.683-.291a171.09 171.09 0 0 0 58.287-41.069c1.926-2.076 1.78-6.357.151-8.674-7.493-10.668-19.451-18.585-32.072-20.696zm-77.027-37.137a36.641 36.641 0 0 1 -25.188-12.608 157.2 157.2 0 0 1 47.334-32.878 34.9 34.9 0 0 1 3.78 27.694 43.3 43.3 0 0 0 -25.926 17.792zm10.125 42.26a31.287 31.287 0 0 1 7.707-43.52 31.03 31.03 0 0 1 17.841-5.646 31.707 31.707 0 0 1 5.516.486 31.253 31.253 0 1 1 -31.064 48.68zm39.835 52.512a37.845 37.845 0 0 1 -3-28.626 43.339 43.339 0 0 0 24.6-17.562 36.2 36.2 0 0 1 25.441 13.076 157.187 157.187 0 0 1 -47.041 33.107z"/><path d="m423.519 157.07a29.249 29.249 0 1 0 5.047 21.811 29.065 29.065 0 0 0 -5.047-21.811zm-6.79 19.836a17.241 17.241 0 1 1 -2.976-12.861 17.13 17.13 0 0 1 2.976 12.861z"/><path d="m364.742 253.9a6 6 0 0 0 4.878-9.486l-36.1-50.561a6 6 0 0 0 -9.766 6.973l36.1 50.561a5.992 5.992 0 0 0 4.888 2.513z"/><path d="m310.839 182.747a6 6 0 1 0 9.765-6.973l-4.492-6.291a6 6 0 1 0 -9.765 6.973z"/><path d="m497.8 209.887-20.507-13.787-73.386-102.767-6.38-23.869a9.477 9.477 0 0 0 -18.211-.351 9.887 9.887 0 0 1 -9.716 6.937 21.937 21.937 0 0 0 -21.551 15.39 9.852 9.852 0 0 1 -9.716 6.938 21.9 21.9 0 0 0 -21.529 15.316c-.009.026-.017.052-.025.077a9.884 9.884 0 0 1 -9.714 6.936h-.06a9.477 9.477 0 0 0 -5.525 17.339l20.507 13.782 73.392 102.772 6.38 23.87a9.4 9.4 0 0 0 8.972 7.03h.191a9.4 9.4 0 0 0 9.032-6.631c.006-.018.012-.036.017-.055a9.835 9.835 0 0 1 9.638-6.938h.08a21.894 21.894 0 0 0 21.551-15.392 9.9 9.9 0 0 1 9.716-6.936 21.913 21.913 0 0 0 21.551-15.391 9.91 9.91 0 0 1 9.715-6.936 9.477 9.477 0 0 0 5.58-17.338zm-184.131-78.11a21.914 21.914 0 0 0 14.553-14.391c.008-.026.016-.052.025-.078a9.933 9.933 0 0 1 9.715-6.936 21.958 21.958 0 0 0 21.555-15.392 9.888 9.888 0 0 1 9.712-6.936 21.9 21.9 0 0 0 18.415-9.088l4.178 15.634-64.722 46.216zm88.131 111.171-66.561-93.21 62.385-44.549 66.56 93.21zm69.238-12.328a9.824 9.824 0 0 1 -9.715 6.938 21.89 21.89 0 0 0 -21.553 15.39 9.857 9.857 0 0 1 -9.638 6.94h-.08a21.946 21.946 0 0 0 -18.413 9.092l-4.11-15.376 64.873-46.325 13.209 8.878a21.915 21.915 0 0 0 -14.569 14.463z"/><path d="m100.4 395.976a29.284 29.284 0 0 0 41.283-2.583 29.249 29.249 0 1 0 -41.283 2.584zm6.415-33.345a17.129 17.129 0 0 1 11.857-5.8q.552-.035 1.1-.035a17.251 17.251 0 1 1 -12.958 5.839z"/><path d="m223.656 386.983-23.956-9.519-93.312-82.321-12.209-22.343a9.477 9.477 0 0 0 -17.81 3.655c0 .041-.007.081-.01.122a9.874 9.874 0 0 1 -7.9 8.952 21.906 21.906 0 0 0 -17.52 19.861 9.872 9.872 0 0 1 -7.9 8.951 21.9 21.9 0 0 0 -17.517 19.859 9.872 9.872 0 0 1 -7.9 8.952 9.477 9.477 0 0 0 -1.584 18.126l23.762 9.348 13.678 12.074a6 6 0 0 0 7.939-9l-9.974-8.8 50.715-57.485 85.889 75.773-50.715 57.485-38.347-33.83a6 6 0 1 0 -7.939 9l42.064 37.11 12.389 22.5a9.389 9.389 0 0 0 8.321 5.031 9.66 9.66 0 0 0 2.008-.212 9.4 9.4 0 0 0 7.489-8.591 9.871 9.871 0 0 1 7.9-8.951 21.906 21.906 0 0 0 17.52-19.86 9.877 9.877 0 0 1 7.9-8.952 21.9 21.9 0 0 0 17.513-19.764c0-.032.005-.065.007-.1a9.873 9.873 0 0 1 7.866-8.945l.037-.007a9.478 9.478 0 0 0 1.6-18.12zm-182.4-28.678-14.779-5.818a21.911 21.911 0 0 0 11.012-17.43 9.876 9.876 0 0 1 7.9-8.952 21.9 21.9 0 0 0 17.519-19.859 9.877 9.877 0 0 1 7.9-8.953 21.907 21.907 0 0 0 15.92-13.1l7.616 13.939zm160.933 54.8c0 .032 0 .065-.007.1a9.876 9.876 0 0 1 -7.9 8.951 21.9 21.9 0 0 0 -17.52 19.86 9.874 9.874 0 0 1 -7.9 8.951 21.908 21.908 0 0 0 -15.931 13.122l-7.784-14.138 53.069-60.154 15 5.96a21.916 21.916 0 0 0 -11.025 17.343z"/><path d="m54.785 221.47a7.339 7.339 0 0 0 3.453 7.737 154.39 154.39 0 0 0 61.73 17.145c.12.007.239.01.357.01 2.674 0 5.283-2.629 6.013-5.231a45.894 45.894 0 0 0 -3.427-33.51 40.906 40.906 0 0 0 14.056-9.188 151.244 151.244 0 0 0 46.517 35.24 5.984 5.984 0 0 0 2.636.611c1.789 0 4.087-1.492 5.256-2.969 7.142-9.024 10.9-21.043 9.774-32.249.343.009.686.032 1.028.032a40.853 40.853 0 0 0 32-15.464l39.444-49.834a40.833 40.833 0 0 0 7.444-35.688c11.161-1.48 21.991-7.9 29.131-16.923 1.757-2.22 2.059-6.315.255-8.5a154.465 154.465 0 0 0 -50.228-39.753 6.966 6.966 0 0 0 -7.979 1.905 44.907 44.907 0 0 0 -9.4 33.279 40.865 40.865 0 0 0 -32.535 15.443l-39.564 49.987a40.868 40.868 0 0 0 -7.556 35.216 43.777 43.777 0 0 0 -13.464 3.608l14.836-52.954a40.828 40.828 0 0 0 -6.916-35.795c9.728-5.674 17.242-15.778 20.345-26.857.765-2.727-.537-6.622-3.046-7.937a154.488 154.488 0 0 0 -61.679-17.281 6.954 6.954 0 0 0 -6.626 4.841 44.9 44.9 0 0 0 4.174 34.326 40.856 40.856 0 0 0 -24.05 26.806l-17.2 61.384a40.864 40.864 0 0 0 6.622 35.4 44.9 44.9 0 0 0 -21.401 27.163zm204.341-175.611a139.226 139.226 0 0 1 39.054 30.929 31.771 31.771 0 0 1 -23.494 9.71l-18.87-14.934a31.755 31.755 0 0 1 3.31-25.705zm-39.408 45.153a28.825 28.825 0 0 1 28.266-10.343l19.71 15.6a28.8 28.8 0 0 1 .2 23.964 125.76 125.76 0 0 1 -49.269-27.844zm-8.553 10.806a137.836 137.836 0 0 0 49.678 28.788l-9.256 11.694a125.752 125.752 0 0 1 -50.208-28.12zm-17.248 21.792a137.809 137.809 0 0 0 49.683 28.79l-9.257 11.695a125.742 125.742 0 0 1 -50.207-28.12zm-16.823 22.179a137.823 137.823 0 0 0 49.253 28.4l-1.579 2a28.815 28.815 0 0 1 -28.476 10.3l-19.711-15.6a28.852 28.852 0 0 1 .513-25.1zm-7.576 34.81 18.87 14.935a31.777 31.777 0 0 1 -4.055 25.1 139.193 139.193 0 0 1 -39.067-30.91 31.731 31.731 0 0 1 24.252-9.124zm-52.279-136.699a139.242 139.242 0 0 1 47.966 13.454 31.762 31.762 0 0 1 -17.925 18.024l-23.169-6.491a31.753 31.753 0 0 1 -6.872-24.987zm-18.923 56.863a28.834 28.834 0 0 1 22.084-20.454l24.2 6.782a28.809 28.809 0 0 1 9.438 22.028 125.772 125.772 0 0 1 -56.2-6.665zm-3.722 13.286a137.873 137.873 0 0 0 45.8 7.831c3.714 0 7.433-.168 11.145-.47l-4.025 14.363a125.788 125.788 0 0 1 -57.171-6.558zm-7.5 26.762a137.891 137.891 0 0 0 45.805 7.831c3.715 0 7.431-.168 11.141-.47l-4.023 14.363a125.766 125.766 0 0 1 -57.172-6.557zm-6.951 26.948a137.867 137.867 0 0 0 45.257 7.641c3.715 0 7.434-.167 11.145-.469l-.686 2.449a28.825 28.825 0 0 1 -22.294 20.493l-24.2-6.78a28.842 28.842 0 0 1 -9.22-23.334zm6.457 35.026 23.167 6.489a31.776 31.776 0 0 1 5.951 24.719 139.221 139.221 0 0 1 -47.972-13.431 31.751 31.751 0 0 1 18.854-17.777z"/><path d="m244.3 191.763c-9.856 5.8-16.36 15.8-18.318 28.159-1.881 11.867.694 24.56 7.246 35.766q.019.038.042.075l.05.091c6.622 11.244 16.517 19.713 27.861 23.845a43.055 43.055 0 0 0 14.756 2.7 36.689 36.689 0 0 0 18.755-5.055c19.946-11.745 24.871-40.5 10.978-64.091s-41.432-33.237-61.37-21.49zm44.3 75.237a26.132 26.132 0 0 1 -19.7 2.512 32.98 32.98 0 0 0 10.438-3.952c13.936-8.207 18.137-27 9.365-41.9-7.353-12.489-22.873-17.032-34.588-10.133a20.189 20.189 0 0 0 -9.508 13.363 22.836 22.836 0 0 0 2.749 16.411 6 6 0 1 0 10.339-6.09 10.878 10.878 0 0 1 -1.357-7.8 8.336 8.336 0 0 1 3.865-5.543c6.02-3.542 14.163-.905 18.16 5.88 5.414 9.195 3.119 20.62-5.114 25.47-9.4 5.533-21.882 3.008-29.876-5.964-5-8.723-6.969-18.449-5.541-27.457 1.387-8.751 5.845-15.746 12.555-19.7a24.849 24.849 0 0 1 12.724-3.387c11.847 0 24.569 7.636 32.217 20.623 10.532 17.898 7.514 39.279-6.728 47.667z"/><path d="m326.645 401.686a43.213 43.213 0 0 0 -32.658-56.026 44.105 44.105 0 0 0 -4.787-.66 46.9 46.9 0 0 0 -6.941-35.426l-1.553-2.329a6.42 6.42 0 0 0 -7.555-2.109 172.811 172.811 0 0 0 -59.623 39.744 7.035 7.035 0 0 0 -.667 8.231 49.791 49.791 0 0 0 31.739 21.257 43.815 43.815 0 0 0 -1.423 5.352 43.254 43.254 0 0 0 34.06 50.808 43.825 43.825 0 0 0 6.068.759 49.849 49.849 0 0 0 7.489 38.071l.209.31a6 6 0 0 0 7.218 2.207l.687-.277a171.087 171.087 0 0 0 59.076-39.917c1.97-2.037 1.909-6.324.325-8.673-7.283-10.808-19.109-18.966-31.664-21.322zm-101.222-51.732a157.177 157.177 0 0 1 47.967-31.946 34.9 34.9 0 0 1 3.236 27.763 43.444 43.444 0 0 0 -26.29 17.28 36.561 36.561 0 0 1 -24.913-13.097zm54.14 68.8a31.259 31.259 0 0 1 5.986-61.923 31.518 31.518 0 0 1 6.116.6 31.252 31.252 0 1 1 -12.1 61.321zm18.892 40.022a37.854 37.854 0 0 1 -2.442-28.683 43.307 43.307 0 0 0 24.941-17.079 36.164 36.164 0 0 1 25.182 13.586 157.2 157.2 0 0 1 -47.681 32.177z"/></svg>