<svg id="Layer_1" height="512" viewBox="0 0 512 512" width="512" xmlns="http://www.w3.org/2000/svg" data-name="Layer 1"><path d="m384.42 423.874a43 43 0 0 0 24.551 55.6 43.344 43.344 0 0 0 7.377 2.121l9.662 1.87 8.407 5.12a43.284 43.284 0 0 0 6.886 3.4 43 43 0 0 0 31.028-80.21 43.5 43.5 0 0 0 -7.378-2.121l-9.662-1.87-8.408-5.12a42.974 42.974 0 0 0 -62.463 21.21zm40.129-15.5a30.767 30.767 0 0 1 11.121 2.084 31.4 31.4 0 0 1 4.972 2.453l9.329 5.681a5.979 5.979 0 0 0 1.98.766l10.72 2.075a31.484 31.484 0 0 1 5.33 1.532 31 31 0 0 1 -22.37 57.826 31.226 31.226 0 0 1 -4.972-2.453l-9.329-5.681a6.009 6.009 0 0 0 -1.98-.766l-10.721-2.075a31.356 31.356 0 0 1 -5.329-1.532 31.008 31.008 0 0 1 11.249-59.91z"/><path d="m419.864 463.437 10.721 2.076a12.441 12.441 0 0 1 4.126 1.6l9.329 5.681a24.5 24.5 0 1 0 17.4-44.973l-10.722-2.075a12.468 12.468 0 0 1 -4.125-1.6l-9.328-5.681a24.5 24.5 0 1 0 -17.4 44.973zm-7-28.56a12.5 12.5 0 0 1 18.156-6.164l9.327 5.681a24.422 24.422 0 0 0 8.086 3.128l10.722 2.076a12.5 12.5 0 1 1 -8.875 22.942l-9.328-5.681a24.444 24.444 0 0 0 -8.086-3.128l-10.722-2.075a12.5 12.5 0 0 1 -9.28-16.779z"/><path d="m277.847 373.977a43.266 43.266 0 0 0 1.529-7.522l1.1-9.781 4.437-8.786a43.327 43.327 0 0 0 2.839-7.132 43 43 0 0 0 -82.417-24.571 43.2 43.2 0 0 0 -1.529 7.523l-1.1 9.78-4.437 8.787a43.256 43.256 0 0 0 -2.839 7.132 43 43 0 0 0 82.417 24.57zm-50.054 17.382a31.021 31.021 0 0 1 -20.863-38.524 31.254 31.254 0 0 1 2.05-5.15l4.924-9.75a6 6 0 0 0 .607-2.035l1.218-10.852a31.352 31.352 0 0 1 1.1-5.434 31.057 31.057 0 0 1 29.645-22.119 31.167 31.167 0 0 1 8.908 1.309 31.02 31.02 0 0 1 20.864 38.524 31.3 31.3 0 0 1 -2.051 5.152l-4.923 9.749a6.024 6.024 0 0 0 -.607 2.035l-1.218 10.852a31.335 31.335 0 0 1 -1.105 5.434 31.016 31.016 0 0 1 -38.549 20.809z"/><path d="m269.03 318.816a24.5 24.5 0 0 0 -46.842 6.956l-1.219 10.854a12.468 12.468 0 0 1 -1.264 4.238l-4.923 9.749a24.5 24.5 0 1 0 46.211 13.777l1.219-10.853a12.451 12.451 0 0 1 1.264-4.239l4.923-9.749a24.438 24.438 0 0 0 .631-20.733zm-11.343 15.324-4.923 9.75a24.4 24.4 0 0 0 -2.477 8.307l-1.219 10.853a12.5 12.5 0 1 1 -23.574-7.028l4.923-9.748a24.429 24.429 0 0 0 2.477-8.309l1.219-10.853a12.5 12.5 0 1 1 23.574 7.028z"/><path d="m281.189 240.03c-9.427 26.608-.463 54.149 19.982 61.393a30.783 30.783 0 0 0 10.33 1.763c17.717 0 35.973-14.653 43.849-36.879 9.427-26.608.463-54.149-19.983-61.394s-44.75 8.509-54.178 35.117zm62.85 22.269c-7.1 20.025-24.887 32.764-38.86 27.813-13.966-4.951-19.774-26.051-12.679-46.075s24.891-32.763 38.859-27.814 19.775 26.05 12.68 46.077z"/><path d="m297.483 245.8a36.527 36.527 0 0 0 -1.36 20.975c1.838 7.153 6.274 12.453 12.171 14.542a17.007 17.007 0 0 0 5.7.969 21.838 21.838 0 0 0 12.908-4.6 38.6 38.6 0 0 0 13.51-38.128c-1.839-7.152-6.275-12.453-12.172-14.541-11.649-4.131-25.163 5.001-30.757 20.783zm31.31-3.258a26.7 26.7 0 0 1 -9.036 25.5c-1.569 1.163-4.622 2.966-7.455 1.962s-4.071-4.326-4.557-6.217a24.817 24.817 0 0 1 1.049-13.981c3.1-8.734 9.231-13.768 13.713-13.768a5.141 5.141 0 0 1 1.729.285c2.833 1.008 4.071 4.331 4.557 6.222z"/><path d="m293.458 501.335a66.36 66.36 0 0 0 9.3.66c24.041 0 44.207-13.373 46.906-32.434 3.04-21.478-17.225-42.17-45.175-46.127-13.193-1.868-26.222.214-36.689 5.862-11.064 5.972-18 15.175-19.515 25.912s2.584 21.5 11.556 30.311c8.484 8.331 20.423 13.948 33.617 15.816zm-33.293-44.445c.972-6.869 5.708-12.918 13.333-17.034a45.464 45.464 0 0 1 21.547-5.093 55.365 55.365 0 0 1 7.76.552c21.036 2.979 37.052 17.891 34.975 32.564s-21.6 24.554-42.64 21.574c-10.673-1.511-20.224-5.949-26.894-12.5-6.184-6.068-9.054-13.194-8.081-20.063z"/><path d="m276.658 475.717a36.521 36.521 0 0 0 19.224 8.5 41.253 41.253 0 0 0 5.783.41 34.646 34.646 0 0 0 15.044-3.242c6.645-3.221 10.959-8.621 11.836-14.816s-1.769-12.58-7.258-17.52a36.528 36.528 0 0 0 -19.224-8.5c-16.584-2.348-30.93 5.4-32.663 17.648-.877 6.195 1.769 12.581 7.258 17.52zm4.624-15.837c.574-4.056 6.6-7.748 14.924-7.748a29.712 29.712 0 0 1 4.176.3 24.8 24.8 0 0 1 12.878 5.54c1.452 1.306 3.824 3.942 3.4 6.917s-3.432 4.848-5.189 5.7a26.7 26.7 0 0 1 -26.789-3.792c-1.449-1.306-3.821-3.942-3.4-6.917z"/><path d="m313.282 349.584c-3.04 21.478 17.225 42.17 45.176 46.127a67.112 67.112 0 0 0 9.407.668 57.563 57.563 0 0 0 27.281-6.53c11.064-5.972 18-15.175 19.515-25.912s-2.584-21.5-11.556-30.311c-8.485-8.331-20.425-13.948-33.619-15.816-27.95-3.955-53.163 10.296-56.204 31.774zm11.882 1.683c1.828-12.908 17.156-22.106 35.139-22.106a53.455 53.455 0 0 1 7.5.531c10.674 1.511 20.225 5.949 26.9 12.5 6.183 6.071 9.053 13.2 8.08 20.065-.972 6.869-5.707 12.918-13.333 17.034-8.224 4.439-18.635 6.053-29.306 4.541-21.044-2.981-37.057-17.893-34.98-32.565z"/><path d="m341.657 370.094a36.528 36.528 0 0 0 19.224 8.5 41.91 41.91 0 0 0 5.866.419c13.984 0 25.272-7.3 26.8-18.067.877-6.194-1.769-12.58-7.258-17.519a38.6 38.6 0 0 0 -40.051-5.67c-6.645 3.221-10.959 8.621-11.836 14.816s1.766 12.581 7.255 17.521zm4.624-15.838c.421-2.975 3.432-4.848 5.189-5.7a22.866 22.866 0 0 1 9.841-2.036 29.136 29.136 0 0 1 4.07.288 24.809 24.809 0 0 1 12.878 5.54c1.452 1.306 3.824 3.942 3.4 6.917-.666 4.708-8.673 8.929-19.1 7.448a24.8 24.8 0 0 1 -12.878-5.54c-1.449-1.306-3.821-3.942-3.4-6.917z"/><path d="m35.012 236.934a6 6 0 0 0 -.447 8.473l39.677 44.093a6 6 0 1 0 8.92-8.026l-39.677-44.094a6 6 0 0 0 -8.473-.446z"/><path d="m87.644 295.424a6 6 0 0 0 -.444 8.476l5.672 6.3a6 6 0 0 0 8.921-8.027l-5.672-6.3a6 6 0 0 0 -8.477-.449z"/><path d="m244.23 92.23a42.645 42.645 0 0 0 -23.771-22.715 43.267 43.267 0 0 0 -7.378-2.122l-9.662-1.87-8.407-5.12a43.273 43.273 0 0 0 -6.885-3.4 43 43 0 0 0 -31.027 80.213 43.239 43.239 0 0 0 7.377 2.121l9.663 1.871 8.407 5.121a43.385 43.385 0 0 0 6.884 3.395 42.993 42.993 0 0 0 54.8-57.494zm-10.413 28.559a31.022 31.022 0 0 1 -40.058 17.743 31.4 31.4 0 0 1 -4.972-2.453l-9.329-5.681a6 6 0 0 0 -1.979-.766l-10.722-2.076a31.251 31.251 0 0 1 -5.329-1.532 31 31 0 1 1 22.372-57.824 31.317 31.317 0 0 1 4.972 2.454l9.329 5.681a6.006 6.006 0 0 0 1.981.766l10.72 2.075a31.3 31.3 0 0 1 5.329 1.532 31.022 31.022 0 0 1 17.688 40.083z"/><path d="m209.565 85.555-10.723-2.076a12.456 12.456 0 0 1 -4.124-1.595l-9.328-5.684a24.5 24.5 0 1 0 -17.4 44.972l10.723 2.076a12.479 12.479 0 0 1 4.124 1.6l9.328 5.681a24.5 24.5 0 1 0 17.4-44.973zm7 28.559a12.5 12.5 0 0 1 -18.155 6.165l-9.328-5.681a24.429 24.429 0 0 0 -8.082-3.128l-10.724-2.076a12.5 12.5 0 1 1 8.876-22.942l9.329 5.681a24.405 24.405 0 0 0 8.085 3.127l10.722 2.076a12.5 12.5 0 0 1 9.28 16.778z"/><path d="m186.254 169.846a39.793 39.793 0 0 0 -5.908 3.827l-6.925 5.414-8.379 2.663a39.411 39.411 0 0 0 -22.929 55.987 39.134 39.134 0 0 0 23.443 19.335 39.673 39.673 0 0 0 11.5 1.713 39.148 39.148 0 0 0 18.312-4.559 39.808 39.808 0 0 0 5.908-3.827l6.926-5.414 8.378-2.663a39.8 39.8 0 0 0 6.494-2.718 39.439 39.439 0 0 0 -36.818-69.757zm31.216 59.145a27.733 27.733 0 0 1 -4.527 1.894l-9.407 2.99a5.994 5.994 0 0 0 -1.878.991l-7.774 6.078a27.693 27.693 0 0 1 -4.12 2.669 27.438 27.438 0 0 1 -25.615-48.531 27.637 27.637 0 0 1 4.528-1.895l9.407-2.99a6.025 6.025 0 0 0 1.878-.991l7.775-6.079a27.721 27.721 0 0 1 4.119-2.669 27.2 27.2 0 0 1 12.729-3.16 27.443 27.443 0 0 1 12.885 51.693z"/><path d="m209.387 182.528a22.654 22.654 0 0 0 -18.744 4.316l-7.777 6.079a10.681 10.681 0 0 1 -3.353 1.77l-9.407 2.99a22.717 22.717 0 1 0 20.871 39.545l7.776-6.079a10.676 10.676 0 0 1 3.354-1.77l9.406-2.99a22.716 22.716 0 0 0 -2.126-43.861zm5.162 26.274a10.687 10.687 0 0 1 -6.671 6.151l-9.406 2.989a22.651 22.651 0 0 0 -7.109 3.753l-7.777 6.078a10.715 10.715 0 1 1 -9.845-18.654l9.406-2.99a22.641 22.641 0 0 0 7.11-3.752l7.776-6.079a10.716 10.716 0 0 1 16.516 12.5z"/><path d="m92.8 229.208c21.692 0 39.339-22.966 39.339-51.195s-17.647-51.2-39.339-51.2-39.339 22.966-39.339 51.2 17.651 51.195 39.339 51.195zm0-90.39c14.82 0 27.339 17.949 27.339 39.195s-12.516 39.195-27.339 39.195-27.339-17.95-27.339-39.195 12.523-39.195 27.339-39.195z"/><path d="m92.8 207.88c12.366 0 22.052-13.119 22.052-29.867s-9.686-29.867-22.052-29.867-22.052 13.119-22.052 29.867 9.69 29.867 22.052 29.867zm0-47.734c4.755 0 10.052 7.337 10.052 17.867s-5.294 17.867-10.052 17.867-10.052-7.338-10.052-17.867 5.301-17.867 10.052-17.867z"/><path d="m124.879 306.386a8.6 8.6 0 0 1 2.134 4.6 20.618 20.618 0 0 0 34.23 12.531l165.191-148.643a20.625 20.625 0 0 0 -8.862-35.359 8.592 8.592 0 0 1 -4.347-2.6l-103.117-114.603a37.185 37.185 0 0 0 -52.508-2.769l-81.2 73.057a6 6 0 1 0 8.026 8.92l81.193-73.058a25.2 25.2 0 0 1 35.566 1.876l103.115 114.598a20.53 20.53 0 0 0 10.154 6.168 8.958 8.958 0 0 1 6.552 6.364 8.5 8.5 0 0 1 -2.6 8.486l-165.189 148.646a8.5 8.5 0 0 1 -8.716 1.695 8.741 8.741 0 0 1 -5.606-6.979 20.542 20.542 0 0 0 -5.1-10.951l-103.113-114.602a25.214 25.214 0 0 1 1.876-35.563l14.652-13.188a6 6 0 1 0 -8.026-8.92l-14.653 13.184a37.186 37.186 0 0 0 -2.769 52.514z"/></svg>