<svg id="Layer_1" height="512" viewBox="0 0 512 512" width="512" xmlns="http://www.w3.org/2000/svg" data-name="Layer 1"><path d="m140.5 132.941a6 6 0 0 0 6-6v-8.453a6 6 0 1 0 -12 0v8.453a6 6 0 0 0 6 6z"/><path d="m134.5 231.4a6 6 0 0 0 12 0v-80.469a6 6 0 0 0 -12 0z"/><path d="m371.047 77.445h-6.711v-17.781h5.532a6 6 0 0 0 6-6v-37.664a6 6 0 0 0 -6-6h-227.736a6 6 0 0 0 -6 6v37.664a6 6 0 0 0 6 6h5.532v17.781h-6.711a36.355 36.355 0 0 0 -36.353 36.355v244.2a6 6 0 0 0 12 0v-244.2a24.354 24.354 0 0 1 24.354-24.355h230.093a24.354 24.354 0 0 1 24.353 24.355v105.846a56.44 56.44 0 0 0 -65.219-33.6 56.52 56.52 0 1 0 -92.315 11.348 56.472 56.472 0 0 0 -46.823 85.484 55.981 55.981 0 0 0 -11.32-1.165 56.5 56.5 0 0 0 -32.223 102.917 56.5 56.5 0 0 0 17.188 105.37h-23.735a24.354 24.354 0 0 1 -24.353-24.354v-57.646a6 6 0 0 0 -12 0v57.646a36.354 36.354 0 0 0 36.353 36.354h230.094a36.354 36.354 0 0 0 36.353-36.354v-351.846a36.355 36.355 0 0 0 -36.353-36.355zm-18.711 0h-192.672v-17.781h192.672zm11.532-29.781h-215.736v-25.664h215.736zm23.755 193.386a44.246 44.246 0 0 1 -5.249 20.95l-17.1-12.642a23.483 23.483 0 0 0 1.41-6.209l20.916-3.138c0 .344.023.689.023 1.039zm-150.676 124.65a23.79 23.79 0 0 0 3.49 5.219l-9.783 13.235q-2.131 1.107-4.154 2.385a44.368 44.368 0 0 1 -10.683-17.67zm-23.2-8.654c-.022-.577-.048-1.154-.048-1.735a44.211 44.211 0 0 1 4.991-20.44l17.165 12.687a23.494 23.494 0 0 0 -1.267 6.362zm29.588 34.793 3.165 21.1a23.7 23.7 0 0 0 -5.551 3.671l-16.951-12.529a44.607 44.607 0 0 1 19.333-12.241zm13.278 30.821a11.672 11.672 0 1 1 -11.671 11.672 11.685 11.685 0 0 1 11.667-11.671zm-6.646-44.441.423-.572q.618.217 1.253.4-.843.074-1.68.173zm44.019-109.279a56.9 56.9 0 0 0 22.407 21.9 56.8 56.8 0 0 0 -24.876 18.823 56.145 56.145 0 0 0 -19.947-9.275 56.711 56.711 0 0 0 22.412-31.447zm-15.191 5.869-17.1-12.642a23.483 23.483 0 0 0 1.41-6.209l20.916-3.137c.007.347.026.693.026 1.042a44.243 44.243 0 0 1 -5.256 20.947zm33.686 150.951 4 2.955a23.5 23.5 0 0 0 -1.267 6.363l-2.108.316c.006-.354.027-.706.027-1.062a56.747 56.747 0 0 0 -.656-8.571zm-6.281-19.56a44.049 44.049 0 0 1 19.352-12.242l3.167 21.112a23.714 23.714 0 0 0 -5.552 3.672zm-6.988 15.238-21.035 3.162a23.741 23.741 0 0 0 -3.514-5.549l12.557-16.99a44.587 44.587 0 0 1 11.995 19.378zm-7.032-77.875a44.226 44.226 0 0 1 4.99-20.44l17.165 12.688a23.509 23.509 0 0 0 -1.267 6.363l-20.852 3.126q-.033-.862-.033-1.736zm23.253 10.391a23.74 23.74 0 0 0 3.488 5.218l-12.572 17.01a44.163 44.163 0 0 1 -12.077-19.054zm2.489 29.981q-.887-.411-1.748-.857l12.7-17.178a23.465 23.465 0 0 0 6.03 1.26l1.928 12.849a56.474 56.474 0 0 0 -18.907 3.927zm-13.839-70.625a44.606 44.606 0 0 1 19.338-12.239l3.164 21.1a23.75 23.75 0 0 0 -5.551 3.672zm-23.864 32.2-.44.067a23.741 23.741 0 0 0 -3.514-5.549l4.837-6.544a56.526 56.526 0 0 0 -.919 10.084c0 .646.017 1.293.036 1.938zm1.567 11.9.1-.015a56.3 56.3 0 0 0 3.482 9.911l-4.988-3.686a23.49 23.49 0 0 0 1.406-6.214zm-2.686-41.41-12.654 17.119a23.524 23.524 0 0 0 -6.546-1.412l-3.13-20.875c.48-.016.959-.037 1.442-.037a44.363 44.363 0 0 1 20.888 5.205zm11.362 69.993c-.589.62-1.192 1.227-1.819 1.814a56.223 56.223 0 0 0 -20.062-8.7l-.353-2.351a23.731 23.731 0 0 0 5.214-3.339zm-12.973 9.039-12.645 17.109a23.49 23.49 0 0 0 -6.545-1.413l-3.132-20.875c.48-.015.959-.037 1.442-.037a44.235 44.235 0 0 1 20.88 5.216zm-5.649 57.4 17 12.562a44.593 44.593 0 0 1 -19.047 11.861l-3.162-21.084a23.731 23.731 0 0 0 5.209-3.336zm6.934-9.8a23.483 23.483 0 0 0 1.41-6.209l20.916-3.137c.007.347.026.692.026 1.042a44.233 44.233 0 0 1 -5.25 20.946zm19.936-45.958c-.309-.345-.626-.681-.943-1.018a56.1 56.1 0 0 0 5.621-6.408q1.065.772 2.168 1.5a56.574 56.574 0 0 0 -6.846 5.931zm12.79 51.096 6.072-.911a23.744 23.744 0 0 0 3.489 5.218l-12.542 16.968a44.554 44.554 0 0 1 -4.192-4.483 56.213 56.213 0 0 0 7.173-16.792zm19.51 11.035a23.515 23.515 0 0 0 6.031 1.261l3.133 20.885c-.445.014-.889.034-1.338.034a44.462 44.462 0 0 1 -20.513-5.015zm7.826-10.664a11.672 11.672 0 1 1 11.672-11.672 11.686 11.686 0 0 1 -11.673 11.672zm8.234-33.864a23.474 23.474 0 0 0 -6.545-1.413l-3.13-20.871c.48-.015.958-.041 1.441-.041a44.238 44.238 0 0 1 20.88 5.216zm10.191-31.225a56 56 0 0 0 -8.16-2.148l-2.385-15.9a23.761 23.761 0 0 0 5.215-3.339l17.009 12.572a44.387 44.387 0 0 1 -11.68 8.815zm-20.561-27.816a11.672 11.672 0 1 1 11.672-11.672 11.686 11.686 0 0 1 -11.672 11.672zm-14.1-74.694 12.681-17.156a23.508 23.508 0 0 0 6.03 1.261l3.133 20.885c-.445.014-.889.034-1.338.034a44.22 44.22 0 0 1 -20.506-5.024zm-9.8-6.927a44.6 44.6 0 0 1 -12.089-19l21.134-3.17a23.721 23.721 0 0 0 3.489 5.218zm6.681-33.954-20.845 3.126c-.022-.577-.044-1.155-.044-1.737a44.227 44.227 0 0 1 4.99-20.441l17.163 12.691a23.469 23.469 0 0 0 -1.266 6.361zm-26.2-37.244-3.163-21.083a23.7 23.7 0 0 0 5.215-3.34l17 12.562a44.577 44.577 0 0 1 -19.052 11.861zm-.254 12.483a56.2 56.2 0 0 0 -4.379 11.073 56.794 56.794 0 0 0 -6.888-9.606 56.346 56.346 0 0 0 11.267-1.467zm-10.9 26.07-21.038 3.156a23.741 23.741 0 0 0 -3.514-5.549l12.557-16.99a44.587 44.587 0 0 1 11.997 19.383zm-2.027-36.561a44.233 44.233 0 0 1 -20.507-5.024l12.681-17.156a23.508 23.508 0 0 0 6.03 1.261l3.133 20.885c-.437.013-.886.034-1.337.034zm-19.7 10.154-12.645 17.109a23.482 23.482 0 0 0 -6.545-1.413l-3.131-20.875c.48-.015.959-.036 1.442-.036a44.23 44.23 0 0 1 20.879 5.215zm11.347 69.965a44.6 44.6 0 0 1 -19.047 11.861l-3.162-21.083a23.7 23.7 0 0 0 5.214-3.34zm-13.535 59.112a11.672 11.672 0 1 1 -11.672 11.672 11.686 11.686 0 0 1 11.672-11.672zm-15.665-6.054-16.947-12.529a44.606 44.606 0 0 1 19.338-12.239l3.164 21.1a23.725 23.725 0 0 0 -5.555 3.668zm-3.023-39.205a44.229 44.229 0 0 1 -20.506-5.024l12.682-17.157a23.5 23.5 0 0 0 6.03 1.26l3.133 20.886c-.446.014-.89.035-1.339.035zm-30.308-11.952a44.6 44.6 0 0 1 -12.089-19l21.133-3.17a23.725 23.725 0 0 0 3.49 5.218zm1.122 19.514a44.43 44.43 0 0 1 7.718 9.646 56.834 56.834 0 0 0 -8.9 11.719l-7.861 1.179a23.733 23.733 0 0 0 -3.515-5.549zm-6.589 34.31a55.95 55.95 0 0 0 -1.419 6.6l-.442-.326a23.49 23.49 0 0 0 1.41-6.21zm-1.709 21.312a56.353 56.353 0 0 0 3.11 13.185 44.718 44.718 0 0 1 -12.248 6l-3.163-21.082a23.767 23.767 0 0 0 5.216-3.339zm-6.785 33.478-12.636 17.1a23.489 23.489 0 0 0 -6.546-1.413l-3.131-20.875c.48-.015.959-.037 1.443-.037a44.5 44.5 0 0 1 20.87 5.225zm-20.87-17.227a56.471 56.471 0 0 0 -12.195 1.34q-1.527-.656-2.987-1.418l12.697-17.176a23.517 23.517 0 0 0 6.03 1.261l2.451 16.332a56.074 56.074 0 0 0 -5.996-.339zm0 44.845a11.672 11.672 0 1 1 -11.672 11.672 11.686 11.686 0 0 1 11.672-11.672zm15.23 29.774 17 12.569a44.714 44.714 0 0 1 -19.06 11.837l-3.16-21.066a23.681 23.681 0 0 0 5.22-3.34zm6.934-9.8a23.5 23.5 0 0 0 1.41-6.21l2.18-.327a56.413 56.413 0 0 0 1.216 10.089zm4.54-18.814-5.137.771a23.748 23.748 0 0 0 -3.514-5.55l12.565-17a44.728 44.728 0 0 1 3.124 3.284 56.115 56.115 0 0 0 -7.038 18.498zm5.5-35.9q2.006-1.084 3.918-2.327a56.54 56.54 0 0 0 6.544 8.42c-.525.515-1.035 1.043-1.54 1.578a56.526 56.526 0 0 0 -8.923-7.663zm10.5 25.964 17.164 12.687a23.547 23.547 0 0 0 -1.267 6.363l-20.843 3.127c-.022-.577-.044-1.154-.044-1.737a44.226 44.226 0 0 1 4.985-20.432zm18.261 30.83a23.755 23.755 0 0 0 3.49 5.219l-12.54 16.966a44.6 44.6 0 0 1 -12.09-19zm13.439 11.947a23.514 23.514 0 0 0 6.031 1.26l3.133 20.886c-.446.013-.89.034-1.339.034a44.213 44.213 0 0 1 -20.5-5.025zm47.921 17.45a56.524 56.524 0 0 0 24.031 15.888h-54.441a56.443 56.443 0 0 0 30.405-15.88zm52.146-16.21a23.761 23.761 0 0 0 5.215-3.339l17 12.562a44.582 44.582 0 0 1 -19.047 11.86zm12.144-13.129a23.538 23.538 0 0 0 1.409-6.21l20.916-3.137c.008.348.027.693.027 1.043a44.239 44.239 0 0 1 -5.25 20.946zm-.6-18.043a23.691 23.691 0 0 0 -3.514-5.548l12.557-16.99a44.557 44.557 0 0 1 12 19.383zm-1.538-74.861a23.489 23.489 0 0 0 1.409-6.21l20.916-3.137c.008.348.027.693.027 1.042a44.436 44.436 0 0 1 -5.258 20.94zm-.6-18.043a23.733 23.733 0 0 0 -3.515-5.549l12.558-16.989a44.578 44.578 0 0 1 12 19.382zm-13.333-12.454a23.561 23.561 0 0 0 -6.545-1.413l-3.132-20.875c.48-.015.959-.036 1.442-.036a44.234 44.234 0 0 1 20.88 5.215zm11.351-37.8-3.163-21.083a23.737 23.737 0 0 0 5.215-3.339l17 12.562a44.582 44.582 0 0 1 -19.047 11.862zm29.427-55.418-21.038 3.156a23.741 23.741 0 0 0 -3.514-5.549l12.557-16.99a44.576 44.576 0 0 1 12 19.385zm-42.606-31.623a44.235 44.235 0 0 1 20.88 5.216l-12.645 17.109a23.482 23.482 0 0 0 -6.545-1.413l-3.131-20.875c.485-.014.963-.035 1.446-.035zm0 32.845a11.672 11.672 0 1 1 -11.671 11.672 11.685 11.685 0 0 1 11.676-11.67zm-10.113-9.726a23.767 23.767 0 0 0 -5.552 3.672l-16.945-12.522a44.6 44.6 0 0 1 19.337-12.239zm-8.374-59.759a44.231 44.231 0 0 1 -5.249 20.945l-17.1-12.641a23.5 23.5 0 0 0 1.41-6.21l20.916-3.138c.009.353.028.696.028 1.046zm-1.906-12.891-21.038 3.156a23.713 23.713 0 0 0 -3.515-5.549l12.558-16.989a44.578 44.578 0 0 1 11.995 19.382zm-42.608-31.624a44.231 44.231 0 0 1 20.879 5.216l-12.643 17.108a23.51 23.51 0 0 0 -6.544-1.412l-3.131-20.875c.48-.013.958-.037 1.439-.037zm0 32.845a11.672 11.672 0 1 1 -11.672 11.672 11.685 11.685 0 0 1 11.672-11.672zm-13.276-30.821 3.165 21.1a23.74 23.74 0 0 0 -5.551 3.672l-16.951-12.529a44.6 44.6 0 0 1 19.337-12.243zm-31.238 42.494a44.227 44.227 0 0 1 4.99-20.441l17.165 12.688a23.531 23.531 0 0 0 -1.266 6.362l-20.845 3.127c-.022-.578-.044-1.155-.044-1.737zm2.119 13.56 21.133-3.171a23.79 23.79 0 0 0 3.49 5.219l-12.534 16.957a44.6 44.6 0 0 1 -12.089-19.006zm1.819 68.739a11.672 11.672 0 1 1 -11.671 11.672 11.685 11.685 0 0 1 11.671-11.673zm-13.278-30.821 3.164 21.1a23.757 23.757 0 0 0 -5.551 3.671l-16.951-12.533a44.6 44.6 0 0 1 19.338-12.239zm-26.246 22.052 17.165 12.687a23.547 23.547 0 0 0 -1.267 6.363l-20.846 3.126c-.022-.577-.044-1.154-.044-1.737a44.226 44.226 0 0 1 4.992-20.439zm-20.274 60.285a44.42 44.42 0 0 1 20.867 5.232l-12.633 17.092a23.524 23.524 0 0 0 -6.545-1.412l-3.131-20.875c.478-.016.956-.037 1.44-.037zm0 32.845a11.672 11.672 0 1 1 -11.672 11.672 11.686 11.686 0 0 1 11.67-11.672zm-13.279-30.822 3.165 21.1a23.74 23.74 0 0 0 -5.551 3.672l-16.951-12.529a44.6 44.6 0 0 1 19.335-12.243zm-31.238 42.494a44.227 44.227 0 0 1 4.99-20.441l17.165 12.688a23.531 23.531 0 0 0 -1.266 6.362l-20.854 3.129q-.037-.864-.037-1.738zm2.147 13.556 21.1-3.167a23.79 23.79 0 0 0 3.49 5.219l-12.531 16.953a45.078 45.078 0 0 1 -12.061-19.005zm23.752 40.058 3.165 21.1a23.736 23.736 0 0 0 -5.551 3.671l-16.951-12.529a44.6 44.6 0 0 1 19.335-12.242zm-31.238 42.493a44.226 44.226 0 0 1 4.99-20.44l17.165 12.687a23.546 23.546 0 0 0 -1.266 6.363l-20.845 3.127c-.024-.577-.046-1.154-.046-1.737zm2.119 13.56 21.134-3.17a23.721 23.721 0 0 0 3.489 5.218l-12.536 16.959a44.6 44.6 0 0 1 -12.089-19.007zm34.572 8.776a23.517 23.517 0 0 0 6.03 1.261l3.132 20.879c-.445.014-.889.041-1.336.041a44.221 44.221 0 0 1 -20.507-5.025zm48.952 16.4a56.471 56.471 0 0 0 31.397 16.931h-62.9a56.779 56.779 0 0 0 31.501-16.934zm155.534 16.931h-14.126a56.478 56.478 0 0 0 12.979-100.709 56.5 56.5 0 0 0 -6.485-95.514 56.838 56.838 0 0 0 31.985-31.309v203.178a24.354 24.354 0 0 1 -24.353 24.354z"/></svg>