<svg id="Layer_1" height="512" viewBox="0 0 512 512" width="512" xmlns="http://www.w3.org/2000/svg" data-name="Layer 1"><path d="m57.618 233.652a6 6 0 0 0 -11.332 3.95c.833 2.387 1.73 4.789 2.668 7.134a6 6 0 1 0 11.146-4.453c-.874-2.183-1.708-4.411-2.482-6.631z"/><path d="m58.736 265.139a169.632 169.632 0 0 0 39.757 47.479 6 6 0 1 0 7.649-9.246 157.645 157.645 0 0 1 -36.956-44.134 6 6 0 0 0 -10.45 5.9z"/><path d="m498.641 197.522a6.1 6.1 0 0 0 -2.745-.6h-4.551a71.531 71.531 0 0 0 2.6-12.734c1.8-16.261-1.934-32.193-10.522-44.862a55.157 55.157 0 0 0 -11.744-12.64 56.463 56.463 0 0 1 21.51-11.439 9.091 9.091 0 0 0 2.186-16.6l-6.709-3.947a13.994 13.994 0 0 1 -2.594-1.968 38.124 38.124 0 0 0 -31.614-10.376 34.242 34.242 0 0 0 -41.812 1.607l-3.923 3.3a8.665 8.665 0 0 0 1.376 14.208 44 44 0 0 1 17.206 17.405 51.142 51.142 0 0 0 -8.116 3.47 34.262 34.262 0 0 0 -28.369-21.046l-5.1-.475a8.667 8.667 0 0 0 -9.149 10.959 44 44 0 0 1 -.3 24.439 53.576 53.576 0 0 0 -22.6-5.762 65.177 65.177 0 0 0 -34.943 8.944l-.265-1.051a13.955 13.955 0 0 1 -.421-3.229 38.122 38.122 0 0 0 -14.817-29.792 34.244 34.244 0 0 0 -30.504-28.633l-5.1-.474a8.664 8.664 0 0 0 -9.155 10.935l.016.058a44 44 0 0 1 -.306 24.4 53.6 53.6 0 0 0 -22.595-5.763c-15.293-.559-30.79 4.681-43.632 14.817-20.489 16.173-29.315 41.088-24.144 62.311a44.015 44.015 0 0 1 -22.777-4.807 71.433 71.433 0 0 0 -6.686-11.294c-13.892-19.143-35.347-29.012-55.185-27.491a56.5 56.5 0 0 1 8.231-23 9.09 9.09 0 0 0 -9.552-13.745l-7.621 1.595a13.954 13.954 0 0 1 -3.242.29 38.139 38.139 0 0 0 -30.366 13.6 34.244 34.244 0 0 0 -29.849 29.338l-.68 5.081a8.664 8.664 0 0 0 10.468 9.608l.112-.025a44.009 44.009 0 0 1 24.388 1.277 55.558 55.558 0 0 0 -6.5 33.508h-19.068a6.1 6.1 0 0 0 -2.746.6 6.02 6.02 0 0 0 -3.257 6.5l2.067 11.08a6 6 0 1 0 11.8-2.2l-.743-3.98h462.178l-3.014 16.154a158.077 158.077 0 0 1 -74.238 106.687 69.15 69.15 0 0 0 -16.364-1.3c-25.52.975-46.872 15.554-55.084 35.294a42.965 42.965 0 0 1 -15.619-17.917 8.609 8.609 0 0 0 -13.972-2.363l-3.5 3.6a33.132 33.132 0 0 0 -4.1 5.163h-65.053a38.032 38.032 0 0 0 -2.913-7.237 33.643 33.643 0 0 0 -15.83-37.9l-4.365-2.471a8.609 8.609 0 0 0 -12.75 6.184l-.009.057a42.951 42.951 0 0 1 -9.93 21.488 52.62 52.62 0 0 0 -17.812-14.121c-13.451-6.666-29.427-8.183-44.989-4.277a67.692 67.692 0 0 0 -27.827 14.3 158.191 158.191 0 0 1 -60.314-68.766 6 6 0 0 0 -10.919 4.988 170.192 170.192 0 0 0 62.812 72.664c-.469.608-.935 1.219-1.381 1.845a52.608 52.608 0 0 0 -9.026 20.861 42.935 42.935 0 0 1 -18.89-14.226l-.05-.067a8.609 8.609 0 0 0 -14.158.574l-2.682 4.236a33.646 33.646 0 0 0 3.957 40.884 37.363 37.363 0 0 0 14.263 29.31 13.822 13.822 0 0 1 2.285 2.289l4.695 5.956a9.025 9.025 0 0 0 16.031-4.378 55.172 55.172 0 0 1 8.145-22.189 54.185 54.185 0 0 0 13.734 9.625 62.972 62.972 0 0 0 28 6.4 69.852 69.852 0 0 0 16.99-2.124c15.561-3.909 28.925-12.8 37.629-25.027a54.166 54.166 0 0 0 7.557-14.972 55.146 55.146 0 0 1 17.662 15.707 9.026 9.026 0 0 0 16.2-3.717l1.329-7.5a13.55 13.55 0 0 1 .91-3.024 37.682 37.682 0 0 0 3.086-13.379h58.854a33.558 33.558 0 0 0 4.3 23.656 37.371 37.371 0 0 0 7.908 31.628 13.788 13.788 0 0 1 1.762 2.708l3.363 6.8a9.01 9.01 0 0 0 8.083 5.021c.177 0 .356-.006.535-.016a9.01 9.01 0 0 0 7.972-5.979 55.144 55.144 0 0 1 12.59-20.072c10.448 15.513 31.188 25.793 53.2 25.793 23.113-.883 44.164-12.948 53.777-29.875a55.165 55.165 0 0 1 14.082 19.053 9.006 9.006 0 0 0 8.243 5.356h.163a9.008 9.008 0 0 0 8.209-5.649l2.85-7.067a13.508 13.508 0 0 1 1.514-2.769 37.442 37.442 0 0 0 5.5-32.166 33.649 33.649 0 0 0 -7.666-40.355l-3.761-3.316a8.608 8.608 0 0 0 -13.76 3.439 42.933 42.933 0 0 1 -14.2 19.035c-5.424-10.668-14.831-19.408-26.535-24.866a170.039 170.039 0 0 0 71.304-109.315l4.34-23.254a6.02 6.02 0 0 0 -3.259-6.498zm-476.056-47.96.067-.5a22.179 22.179 0 0 1 20.265-19.09 3.209 3.209 0 0 1 2.534.953l9.5 9.663a6 6 0 0 0 8.559-8.41l-9.5-9.664c-.124-.126-.261-.234-.388-.355a26 26 0 0 1 17.011-5.624 26.013 26.013 0 0 0 6.038-.54l1.335-.279a68.507 68.507 0 0 0 -7.132 26.193 46.926 46.926 0 0 0 -12.35 6.405 47.615 47.615 0 0 0 -5.959 5.133 55.978 55.978 0 0 0 -29.98-3.885zm66.034 34.4c-.054 3.4-.241 3.982-.96 4.5s-1.333.518-4.579-.485c-3.749-1.156-9.413-2.906-15.169 1.271a13.439 13.439 0 0 0 -5.232 7.668h-12.027c-2.082-15.925 3.406-30.535 14.921-38.892 14.215-10.317 34.077-8.572 49.871 2.755a37.646 37.646 0 0 0 -.206 3.861c-.054 3.4-.242 3.982-.961 4.5s-1.333.52-4.58-.484c-3.748-1.156-9.413-2.907-15.168 1.271s-5.849 10.111-5.91 14.034zm42.141-.278c-.109 1.939-.231 3.972-.414 5.9a1.876 1.876 0 0 1 -.615.854c-.717.521-1.333.52-4.58-.484-3.75-1.157-9.414-2.907-15.169 1.272a13.508 13.508 0 0 0 -4.561 5.69h-9.216c4.261-4.048 4.357-9.225 4.412-12.77.054-3.4.241-3.982.96-4.5s1.333-.52 4.58.484c3.748 1.156 9.413 2.907 15.169-1.272a13.276 13.276 0 0 0 5.223-7.605c.71.871 1.409 1.759 2.079 2.683 1.091 1.5 2.093 3.058 3.034 4.644a19.18 19.18 0 0 0 -.902 5.103zm289.222-90.21.389-.327a22.176 22.176 0 0 1 27.838-.481 3.211 3.211 0 0 1 1.231 2.409l.521 13.538a6 6 0 0 0 5.992 5.77c.077 0 .156 0 .235-.005a6 6 0 0 0 5.764-6.226l-.521-13.538c-.007-.175-.036-.347-.048-.522a26.173 26.173 0 0 1 16.37 7.289 25.934 25.934 0 0 0 4.828 3.662l1.174.691a68.525 68.525 0 0 0 -22.883 14.556 47.4 47.4 0 0 0 -13.464-3.555 46.626 46.626 0 0 0 -7.852-.192 56 56 0 0 0 -19.574-23.07zm16.66 35.41c.05-.008.1-.015.15-.024a35.223 35.223 0 0 1 9.293-.2c10.886 1.207 20.619 7.385 27.405 17.4a51.456 51.456 0 0 1 7.643 18.191 37.6 37.6 0 0 0 -2.765 2.73c-2.326 2.476-2.857 2.779-3.742 2.684s-1.334-.513-3.062-3.439c-1.994-3.379-5.007-8.486-12.076-9.27s-11.125 3.539-13.81 6.4c-2.326 2.477-2.86 2.783-3.741 2.684s-1.334-.513-3.061-3.439a31.215 31.215 0 0 0 -2.782-4.143 38.054 38.054 0 0 0 -11.333-25.506 37.25 37.25 0 0 1 11.881-4.069zm-165.286-40.259a22.462 22.462 0 0 1 20.147 19.5 3.209 3.209 0 0 1 -.851 2.568l-9.271 9.878a6 6 0 1 0 8.75 8.213l9.271-9.879c.12-.128.222-.27.338-.4a26.171 26.171 0 0 1 6.308 16.772 25.934 25.934 0 0 0 .784 6.011l.332 1.321a68.542 68.542 0 0 0 -26.437-6.08 47.354 47.354 0 0 0 -12.291-17.817 55.991 55.991 0 0 0 2.92-30.087zm-129.072 108.294a21.841 21.841 0 0 1 -.135-4.952c.131-.577.231-1.149.3-1.709a55.982 55.982 0 0 0 29.832 4.361q.636 1.165 1.343 2.3zm81.005-7.277a23.963 23.963 0 0 0 -1.068 7.277h-33.341a35.27 35.27 0 0 1 -2.847-3.177c-9.374-11.876-9.981-28.3-3.142-43.01a14.319 14.319 0 0 0 1.527 2.385c4.406 5.581 10.331 5.425 14.254 5.338 3.4-.089 3.989.079 4.539.776s.572 1.311-.3 4.6c-1 3.792-2.524 9.523 1.882 15.1s10.335 5.43 14.254 5.338c3.4-.087 3.99.08 4.539.775s.574 1.312-.297 4.598zm27.75 5.9c-.595.469-1.2.928-1.821 1.377h-14.874c-.282-.62-.166-1.521.545-4.2 1-3.792 2.523-9.523-1.883-15.106s-10.335-5.431-14.254-5.338c-3.4.091-3.989-.079-4.539-.775s-.572-1.31.3-4.6c1-3.792 2.524-9.523-1.882-15.105s-10.333-5.431-14.255-5.338c-3.4.087-3.988-.078-4.538-.775s-.572-1.311.3-4.595a23.53 23.53 0 0 0 1.062-7.355c1.323-1.26 2.714-2.477 4.183-3.636.893-.705 1.806-1.371 2.727-2.018a13.275 13.275 0 0 0 2.963 8.736c4.405 5.581 10.333 5.435 14.253 5.338 3.395-.088 3.989.079 4.539.778s.572 1.309-.3 4.593c-1 3.793-2.524 9.524 1.881 15.106s10.336 5.435 14.255 5.338c3.4-.081 3.988.08 4.539.777s.572 1.311-.3 4.6c-1 3.792-2.524 9.523 1.883 15.1a13.271 13.271 0 0 0 7.814 4.909c-.844.747-1.704 1.483-2.598 2.189zm8.743-13.754c-3.4.089-3.989-.081-4.539-.777s-.573-1.311.3-4.6c1-3.793 2.523-9.523-1.882-15.1s-10.331-5.438-14.255-5.338c-3.4.079-3.988-.08-4.538-.777s-.573-1.31.3-4.595c1.005-3.792 2.524-9.523-1.881-15.1s-10.331-5.441-14.255-5.339c-3.4.08-3.988-.081-4.538-.777s-.572-1.31.3-4.595a37.829 37.829 0 0 0 .852-3.79 51.431 51.431 0 0 1 19.481-3.142c12.085.459 22.478 5.447 29.264 14.044s9.223 19.865 6.864 31.726a51.465 51.465 0 0 1 -7.583 18.217 37.736 37.736 0 0 0 -3.89-.057zm7.321 15.131a65.056 65.056 0 0 0 15.916-30.954 55.167 55.167 0 0 0 .749-17.249 56.532 56.532 0 0 1 17.759 4.528c-11.277 12.432-17.531 28.3-17.09 43.675zm53.908-8.489a21.686 21.686 0 0 0 -.962 8.489h-23.616a46.974 46.974 0 0 1 4.567-21.556 14.354 14.354 0 0 0 1.514 2.358c4.405 5.581 10.333 5.432 14.254 5.338 3.4-.088 3.988.08 4.539.777s.575 1.31-.296 4.594zm41.292 8.489h-21.826v-.019c-1.282-.084-2.528-.054-3.627-.025-3.4.08-3.989-.079-4.539-.777s-.572-1.311.3-4.595c1.006-3.792 2.525-9.524-1.881-15.1s-10.33-5.439-14.255-5.339c-3.395.084-3.988-.08-4.538-.777s-.572-1.309.3-4.595a23.521 23.521 0 0 0 1.062-7.355q1.99-1.9 4.182-3.634c.894-.7 1.806-1.37 2.728-2.017a13.269 13.269 0 0 0 2.962 8.734c4.406 5.582 10.332 5.443 14.255 5.339 3.4-.084 3.989.08 4.538.776s.572 1.311-.3 4.6c-1.006 3.792-2.525 9.523 1.881 15.105s10.332 5.431 14.255 5.338c3.394-.086 3.989.08 4.538.776.487.611.562 1.167-.038 3.565zm24.436 0h-12.2a13.725 13.725 0 0 0 -2.784-11.006c-4.406-5.582-10.335-5.432-14.254-5.338-3.4.09-3.989-.079-4.539-.776s-.572-1.311.3-4.6c1-3.792 2.524-9.522-1.882-15.1s-10.332-5.431-14.254-5.338c-3.4.09-3.988-.08-4.539-.778s-.571-1.309.3-4.593a37.807 37.807 0 0 0 .852-3.789 51.5 51.5 0 0 1 19.481-3.145c12.086.46 22.479 5.447 29.265 14.045 8.508 10.779 10.027 25.992 4.254 40.418zm5.165-47.854a47.537 47.537 0 0 0 -5.369-5.747 56.009 56.009 0 0 0 2.666-30.113l.507.048a22.18 22.18 0 0 1 19.892 19.479 3.218 3.218 0 0 1 -.851 2.569l-9.272 9.878a6 6 0 0 0 8.75 8.213l9.272-9.879c.121-.128.222-.27.338-.4a26.17 26.17 0 0 1 6.307 16.772 26.019 26.019 0 0 0 .784 6.01l.333 1.321a68.5 68.5 0 0 0 -26.465-6.069 46.969 46.969 0 0 0 -6.896-12.082zm18.187 36.814c-2.326 2.476-2.858 2.788-3.74 2.684s-1.334-.512-3.061-3.439c-.37-.627-.766-1.3-1.205-1.976a53.637 53.637 0 0 0 -.263-9.832 56.507 56.507 0 0 1 21.086 6.1c-6.454-.299-10.261 3.74-12.817 6.463zm5.873 11.04a36.468 36.468 0 0 0 2.875-2.826c2.327-2.477 2.858-2.779 3.741-2.685s1.334.513 3.061 3.44c.379.642.795 1.346 1.268 2.071zm36.324 0c1.695-1.744 2.2-1.974 2.979-1.887.693.077 1.124.355 2.112 1.887zm29.73-14.057c-.206 1.858-.5 3.688-.875 5.493a23.634 23.634 0 0 0 -5.675 4.774c-2.326 2.476-2.862 2.776-3.741 2.684s-1.335-.512-3.063-3.44c-1.994-3.378-5.007-8.484-12.075-9.269s-11.125 3.54-13.811 6.4c-2.326 2.477-2.857 2.781-3.74 2.684s-1.335-.512-3.062-3.439a20.881 20.881 0 0 0 -5.776-6.949 9 9 0 0 0 7.308-4.536 14.159 14.159 0 0 0 3.1.7c7.064.777 11.126-3.539 13.811-6.4 2.327-2.477 2.857-2.787 3.741-2.685s1.335.513 3.062 3.439c1.994 3.379 5.007 8.486 12.075 9.27a15.145 15.145 0 0 0 1.658.093 13.2 13.2 0 0 0 7.324-2.2c-.054 1.126-.136 2.252-.261 3.381zm-404.648 235.372-.639-.811a25.926 25.926 0 0 0 -4.266-4.272 25.412 25.412 0 0 1 -9.136-14.665c.127-.009.252-.006.379-.018l13.2-1.287a6 6 0 0 0 -1.165-11.944l-13.2 1.287a3.01 3.01 0 0 1 -2.4-.839 21.584 21.584 0 0 1 -3.2-26.9l.176-.278a54.956 54.956 0 0 0 24.805 15.809 46.428 46.428 0 0 0 6.445 20.084 67.2 67.2 0 0 0 -10.999 23.834zm52.13-28.083c-2.435 3-6.113 7.54-4.4 14.354a14.351 14.351 0 0 0 .837 2.416 48.809 48.809 0 0 1 -10.693-3.807c-10.573-5.24-17.829-13.832-20.431-24.194s-.267-21.361 6.575-30.976a48.9 48.9 0 0 1 7.625-8.406 14.318 14.318 0 0 0 .4 2.522c1.711 6.812 7.1 9.073 10.661 10.569 3.015 1.266 3.468 1.634 3.667 2.428s-.025 1.332-2.084 3.872c-2.435 3-6.114 7.54-4.4 14.351s7.1 9.074 10.662 10.571c3.015 1.265 3.467 1.633 3.667 2.426s-.03 1.333-2.086 3.874zm20.576 8.08a13.088 13.088 0 0 0 4.853 7.442c-.973.3-1.954.582-2.95.832-1.753.44-3.51.789-5.266 1.064a23.3 23.3 0 0 0 -6.309-3.558c-3.016-1.267-3.468-1.636-3.668-2.429s.026-1.333 2.085-3.874c2.434-3 6.113-7.54 4.4-14.354s-7.1-9.073-10.661-10.569c-3.015-1.265-3.468-1.634-3.667-2.428s.025-1.332 2.085-3.872c2.434-3 6.113-7.54 4.4-14.352s-7.1-9.073-10.661-10.57c-3.015-1.265-3.468-1.633-3.667-2.427s.025-1.331 2.085-3.871a23.323 23.323 0 0 0 3.879-6.117c1.677-.587 3.391-1.109 5.143-1.549 1-.25 1.993-.459 2.99-.656a13.1 13.1 0 0 0 -.758 8.844c1.712 6.812 7.1 9.072 10.661 10.568 3.016 1.266 3.468 1.635 3.667 2.428s-.025 1.332-2.085 3.872c-2.434 3-6.112 7.541-4.4 14.353s7.1 9.073 10.662 10.569c3.015 1.266 3.467 1.635 3.667 2.427s-.026 1.333-2.085 3.875c-2.435 3.002-6.114 7.54-4.403 14.352zm32.677-12.072a50.215 50.215 0 0 1 -13.978 13.152c-1.177-.636-2.344-1.133-3.393-1.574-3.016-1.266-3.468-1.634-3.668-2.429s.026-1.332 2.085-3.872c2.434-3 6.113-7.541 4.4-14.355s-7.1-9.072-10.661-10.568c-3.016-1.266-3.468-1.634-3.667-2.428s.026-1.332 2.085-3.872c2.434-3 6.113-7.541 4.4-14.354s-7.1-9.072-10.661-10.568c-3.016-1.266-3.468-1.635-3.667-2.428s.025-1.331 2.085-3.872c.715-.882 1.506-1.868 2.241-2.982a50.224 50.224 0 0 1 18.54 4.98c10.573 5.24 17.829 13.832 20.431 24.194 2.603 10.361.268 21.362-6.575 30.976zm42.426-11.329a25.487 25.487 0 0 0 -1.719 5.708l-.187 1.055a67.177 67.177 0 0 0 -20.958-15.814 46.434 46.434 0 0 0 -3.811-20.745 54.95 54.95 0 0 0 14.393-25.653l.286.162a21.583 21.583 0 0 1 9.893 25.222 3.02 3.02 0 0 1 -1.718 1.874l-12.24 5.1a6 6 0 1 0 4.617 11.076l12.239-5.1c.115-.049.222-.112.336-.163a25.494 25.494 0 0 1 -1.134 17.278zm98.121 44.993-.458-.926a25.842 25.842 0 0 0 -3.293-5.06 25.412 25.412 0 0 1 -5.909-16.237c.125.017.247.048.373.062l13.18 1.466a6.074 6.074 0 0 0 .67.038 6 6 0 0 0 .656-11.964l-13.18-1.466a3.02 3.02 0 0 1 -2.174-1.317 21.583 21.583 0 0 1 2.423-26.983l.23-.238a54.943 54.943 0 0 0 21.02 20.595 45.681 45.681 0 0 0 2.17 20.955 67.183 67.183 0 0 0 -15.708 21.075zm134.551-39.042a45.961 45.961 0 0 0 -.93-7.571 54.964 54.964 0 0 0 19.388-22.139l.248.219a21.583 21.583 0 0 1 4.473 26.722 3.016 3.016 0 0 1 -2.068 1.478l-13.029 2.466a6 6 0 0 0 1.109 11.9 6.069 6.069 0 0 0 1.123-.106l13.029-2.466c.123-.023.24-.063.362-.089a25.5 25.5 0 0 1 -4.674 16.671 25.5 25.5 0 0 0 -2.86 5.231l-.4.993a67.219 67.219 0 0 0 -17.263-19.816 46.033 46.033 0 0 0 1.494-13.493zm-77.751 22.319c-3 2.436-7.538 6.117-7.27 13.136a14.427 14.427 0 0 0 .318 2.531c-14.264-6.616-24.112-19.146-24.672-33.815s8.3-27.9 22.02-35.584a14.484 14.484 0 0 0 -.121 2.53c.268 7.02 5.071 10.343 8.249 12.543 2.689 1.861 3.056 2.315 3.087 3.132s-.3 1.3-2.839 3.359c-3 2.435-7.538 6.116-7.27 13.134s5.072 10.344 8.25 12.543c2.689 1.861 3.056 2.315 3.087 3.131s-.296 1.303-2.839 3.36zm25.734-.981c-3 2.436-7.537 6.116-7.269 13.135a13.1 13.1 0 0 0 3.212 8.283c-1.011.091-2.029.166-3.058.2-1.812.071-3.6.051-5.369-.042a23.3 23.3 0 0 0 -5.441-4.788c-2.69-1.861-3.057-2.316-3.088-3.134s.3-1.3 2.84-3.36c3-2.436 7.537-6.116 7.27-13.136s-5.072-10.342-8.25-12.541c-2.689-1.86-3.056-2.314-3.087-3.132s.3-1.3 2.839-3.358c3-2.436 7.538-6.116 7.27-13.135s-5.071-10.343-8.25-12.543c-2.689-1.86-3.056-2.314-3.087-3.133s.3-1.3 2.839-3.356a23.363 23.363 0 0 0 5.058-5.183c1.755-.229 3.54-.388 5.353-.457.756-.029 1.5-.044 2.251-.044.272 0 .541.013.812.017a13.093 13.093 0 0 0 -2.569 8.5c.268 7.018 5.071 10.343 8.249 12.542 2.69 1.86 3.056 2.314 3.088 3.132s-.3 1.3-2.84 3.358c-3 2.436-7.537 6.116-7.27 13.135s5.072 10.343 8.25 12.543c2.689 1.86 3.056 2.314 3.087 3.132s-.297 1.308-2.837 3.369zm40.025-20.885c.65 17.1-11.512 32.245-29.235 38.924-1.016-.861-2.049-1.584-2.981-2.228-2.688-1.862-3.055-2.316-3.086-3.133s.3-1.3 2.839-3.361c3-2.435 7.537-6.116 7.269-13.134s-5.071-10.343-8.25-12.543c-2.689-1.861-3.055-2.315-3.086-3.132s.3-1.3 2.839-3.359c3-2.435 7.537-6.116 7.27-13.134s-5.072-10.344-8.25-12.543c-2.689-1.861-3.056-2.315-3.087-3.131s.3-1.3 2.839-3.36c.881-.714 1.859-1.516 2.808-2.453 18.183 5.313 31.461 19.492 32.114 36.591z"/><path d="m397.829 435.764c-.9.034.895 0 0 0z"/></svg>