<svg id="Layer_1" height="512" viewBox="0 0 512 512" width="512" xmlns="http://www.w3.org/2000/svg" data-name="Layer 1"><path d="m238.19 310.625-16.48 16.064a6 6 0 0 0 3.326 10.234l22.774 3.309 10.19 20.638a6 6 0 0 0 10.761 0l10.185-20.638 22.774-3.309a6 6 0 0 0 3.326-10.234l-16.48-16.064 3.89-22.682a6 6 0 0 0 -8.705-6.325l-20.371 10.709-20.37-10.709a6 6 0 0 0 -8.7 6.325zm10.635 6.392a6 6 0 0 0 1.726-5.311l-2.369-13.806 12.4 6.52a6.005 6.005 0 0 0 5.584 0l12.4-6.52-2.366 13.806a6 6 0 0 0 1.725 5.311l10.033 9.779-13.865 2.015a6 6 0 0 0 -4.518 3.282l-6.2 12.564-6.2-12.564a6 6 0 0 0 -4.518-3.282l-13.865-2.011z"/><path d="m271.059 397.344a6 6 0 0 0 -8.705 6.324l3.89 22.683-16.48 16.064a6 6 0 0 0 3.325 10.234l22.775 3.309 10.185 20.642a6 6 0 0 0 10.761 0l10.19-20.642 22.774-3.309a6 6 0 0 0 3.325-10.234l-16.48-16.064 3.89-22.683a6 6 0 0 0 -8.705-6.324l-20.37 10.709zm35.563 16.279-2.368 13.809a6 6 0 0 0 1.725 5.31l10.033 9.78-13.865 2.015a6 6 0 0 0 -4.517 3.282l-6.2 12.564-6.2-12.564a6 6 0 0 0 -4.518-3.282l-13.865-2.015 10.032-9.78a6 6 0 0 0 1.726-5.31l-2.368-13.809 12.4 6.519a6 6 0 0 0 5.584 0z"/><path d="m157.666 290.688a6 6 0 0 0 8.424-1.02c1.5-1.911 3.048-3.828 4.607-5.7a6 6 0 1 0 -9.218-7.684c-1.635 1.962-3.261 3.972-4.833 5.977a6 6 0 0 0 1.02 8.427z"/><path d="m110.719 402.9a5.994 5.994 0 0 0 6.955-4.861 243.528 243.528 0 0 1 35.739-90.629 6 6 0 1 0 -10.065-6.535 255.488 255.488 0 0 0 -37.49 95.07 6 6 0 0 0 4.861 6.955z"/><path d="m223.953 209.066a20.947 20.947 0 0 0 17.085 10.1 49.373 49.373 0 0 0 -13.611 21.364l-3.482 10.93-20.822 21.54a255.589 255.589 0 0 0 -72.164 178.5 50.554 50.554 0 0 0 50.5 50.5h174.278a50.554 50.554 0 0 0 50.5-50.5 255.583 255.583 0 0 0 -72.167-178.5l-20.822-21.543-3.482-10.93a49.385 49.385 0 0 0 -13.608-21.363 20.925 20.925 0 0 0 17.083-10.1l8.906-14.719a268.862 268.862 0 0 0 38.834-139.192v-25.518a6 6 0 0 0 -6-6h-37.232v-7.635a6 6 0 0 0 -6-6h-85.222a6 6 0 0 0 -6 6v7.635h-38.315a6 6 0 0 0 -6 6v25.518a268.867 268.867 0 0 0 38.834 139.193zm-59.684 195.12-2.432-13.8 12.431 6.463a6 6 0 0 0 5.584-.026l12.371-6.577-2.305 13.82a6 6 0 0 0 1.751 5.3l10.078 9.733-13.856 2.078a6 6 0 0 0 -4.5 3.3l-6.143 12.593-6.258-12.535a6 6 0 0 0 -4.533-3.261l-13.874-1.951 9.987-9.826a6 6 0 0 0 1.699-5.311zm-12.369-1.024-5.117 5.034q1.393-7.818 3.271-15.505zm205.778-46.083-3.03-13.679 12.7 5.915a5.988 5.988 0 0 0 4.7.147 242.352 242.352 0 0 1 9.394 23.719 5.992 5.992 0 0 0 -3.78 3.347l-5.589 12.847-6.8-12.251a6 6 0 0 0 -4.67-3.061l-13.946-1.346 9.551-10.25a6 6 0 0 0 1.474-5.388zm-32.24-75.735a245.646 245.646 0 0 1 39.3 53.515l-16.039-7.47a6 6 0 0 0 -8.391 6.736l4.976 22.469-15.684 16.838a6 6 0 0 0 3.814 10.062l22.907 2.211 11.165 20.123a6 6 0 0 0 5.246 3.089c.1 0 .193 0 .29-.007a6 6 0 0 0 5.213-3.6l7.635-17.55a245.767 245.767 0 0 1 8.368 63.743 38.541 38.541 0 0 1 -38.5 38.5h-174.282a38.541 38.541 0 0 1 -38.5-38.5c0-7.141.323-14.237.929-21.278l17.773 2.5 10.28 20.589a6 6 0 0 0 5.368 3.32h.028a6 6 0 0 0 5.365-3.37l10.089-20.683 22.759-3.415a6 6 0 0 0 3.278-10.249l-16.554-15.988 3.786-22.7a6 6 0 0 0 -8.735-6.285l-20.322 10.804-20.419-10.616a5.982 5.982 0 0 0 -1.022-.4 244.107 244.107 0 0 1 56.189-92.385l20.028-20.722h73.633zm-27.11-37.17 1.417 4.447h-62.301l1.417-4.447a37.468 37.468 0 0 1 29.731-25.633 37.456 37.456 0 0 1 29.74 25.633zm19.417-200.26v-8.279h31.232v19.518a256.859 256.859 0 0 1 -37.1 132.981l-7.838 12.954c9.461-43.459 13.71-127.955 13.71-157.174zm-129.533-8.279h32.315v8.279c0 6.03.181 14.416.552 24.309a6 6 0 0 0 5.992 5.777 6 6 0 0 0 5.99-6.226c-.355-9.479-.534-17.674-.534-23.86v-21.914h73.222v21.914c0 33.618-5.264 126.446-15.483 163l-12.713-.763a49.669 49.669 0 0 0 -8.956.281 49.68 49.68 0 0 0 -8.957-.281l-11.648.7c-5.461-19.581-9.5-55.226-12.085-89.3a6 6 0 0 0 -5.979-5.551h-.018a6 6 0 0 0 -5.979 6.455c2.34 31.074 5.929 63.836 10.895 85.263a9.283 9.283 0 0 1 -.607-.864l-8.906-14.72a256.869 256.869 0 0 1 -37.1-132.981z"/></svg>